<svg width="16" height="16" viewBox="0 0 16 16" fill="none" xmlns="http://www.w3.org/2000/svg">
<g clip-path="url(#clip0_1018_17964)">
<path d="M5.33105 11.9999L6.66439 10.6666H7.99772L8.90439 9.75992C9.83117 10.0828 10.8401 10.0815 11.7661 9.75629C12.692 9.43106 13.4801 8.80114 14.0015 7.96964C14.5228 7.13814 14.7464 6.1543 14.6357 5.17915C14.5251 4.204 14.0866 3.29529 13.3922 2.60177C12.6979 1.90824 11.7886 1.47096 10.8133 1.36151C9.83802 1.25206 8.85446 1.47691 8.02361 1.99927C7.19276 2.52163 6.56384 3.31055 6.23977 4.23691C5.9157 5.16328 5.91568 6.17221 6.23972 7.09858L1.33105 11.9999V14.6666H3.99772L5.33105 13.3332V11.9999Z" stroke="white" stroke-width="1.5" stroke-linecap="round" stroke-linejoin="round"/>
<path d="M11.3288 5.33333C11.697 5.33333 11.9954 5.03486 11.9954 4.66667C11.9954 4.29848 11.697 4 11.3288 4C10.9606 4 10.6621 4.29848 10.6621 4.66667C10.6621 5.03486 10.9606 5.33333 11.3288 5.33333Z" stroke="white" stroke-width="1.5" stroke-linecap="round" stroke-linejoin="round"/>
</g>
<defs>
<clipPath id="clip0_1018_17964">
<rect width="16" height="16" fill="white"/>
</clipPath>
</defs>
</svg>
