<svg width="24" height="24" viewBox="0 0 24 24" fill="none" xmlns="http://www.w3.org/2000/svg">
<g clip-path="url(#clip0_1018_17955)">
<path d="M13.928 11.8001L11.2328 10.5425C10.9976 10.4333 10.8044 10.5557 10.8044 10.8161V13.1849C10.8044 13.4453 10.9976 13.5677 11.2328 13.4585L13.9268 12.2009C14.1632 12.0905 14.1632 11.9105 13.928 11.8001ZM12.0044 0.480469C5.64198 0.480469 0.484375 5.63807 0.484375 12.0005C0.484375 18.3629 5.64198 23.5205 12.0044 23.5205C18.3668 23.5205 23.5244 18.3629 23.5244 12.0005C23.5244 5.63807 18.3668 0.480469 12.0044 0.480469ZM12.0044 16.6805C6.10758 16.6805 6.00437 16.1489 6.00437 12.0005C6.00437 7.85207 6.10758 7.32047 12.0044 7.32047C17.9012 7.32047 18.0044 7.85207 18.0044 12.0005C18.0044 16.1489 17.9012 16.6805 12.0044 16.6805Z" fill="#728EC5"/>
</g>
<defs>
<clipPath id="clip0_1018_17955">
<rect width="24" height="24" fill="white"/>
</clipPath>
</defs>
</svg>
