<svg width="56" height="56" viewBox="0 0 56 56" fill="none" xmlns="http://www.w3.org/2000/svg">
<g clip-path="url(#clip0_952_116)">
<path d="M49.1069 24.4537L43.8958 22.8981C43.5355 21.6401 43.0401 20.4249 42.4181 19.2737L44.9692 14.4981C45.0649 14.3178 45.0999 14.1115 45.0691 13.9098C45.0383 13.708 44.9432 13.5216 44.7981 13.3781L41.0803 9.64476C40.9368 9.49958 40.7504 9.40453 40.5486 9.3737C40.3469 9.34288 40.1405 9.37793 39.9603 9.47365L35.2158 12.0092C34.0532 11.3569 32.822 10.8352 31.5447 10.4537L29.9892 5.30476C29.9234 5.11501 29.7991 4.95103 29.6341 4.83642C29.4692 4.72181 29.2722 4.66249 29.0714 4.66699H23.8136C23.6116 4.66793 23.4152 4.73331 23.2529 4.85361C23.0906 4.97392 22.971 5.14287 22.9114 5.33588L21.3558 10.4692C20.0679 10.8487 18.8261 11.3705 17.6536 12.0248L12.9869 9.50476C12.8067 9.40904 12.6004 9.37399 12.3986 9.40481C12.1968 9.43564 12.0104 9.53069 11.8669 9.67587L8.08694 13.3625C7.94176 13.506 7.84671 13.6924 7.81588 13.8942C7.78506 14.096 7.82011 14.3023 7.91583 14.4825L10.4358 19.1492C9.78259 20.3168 9.26088 21.5532 8.88028 22.8359L3.73139 24.3914C3.53838 24.451 3.36943 24.5707 3.24912 24.733C3.12882 24.8952 3.06344 25.0917 3.0625 25.2937V30.5514C3.06344 30.7534 3.12882 30.9499 3.24912 31.1121C3.36943 31.2744 3.53838 31.394 3.73139 31.4536L8.91139 33.0092C9.29615 34.2705 9.81777 35.4859 10.4669 36.6336L7.91583 41.5181C7.82011 41.6984 7.78506 41.9047 7.81588 42.1064C7.84671 42.3082 7.94176 42.4946 8.08694 42.6381L11.8047 46.3559C11.9482 46.5011 12.1346 46.5961 12.3364 46.6269C12.5381 46.6578 12.7445 46.6227 12.9247 46.527L17.7314 43.9603C18.8684 44.5739 20.0679 45.0641 21.3092 45.4225L22.8647 50.6648C22.9243 50.8578 23.044 51.0267 23.2062 51.147C23.3685 51.2673 23.5649 51.3327 23.7669 51.3336H29.0247C29.2267 51.3327 29.4232 51.2673 29.5854 51.147C29.7477 51.0267 29.8673 50.8578 29.9269 50.6648L31.4825 45.407C32.7132 45.0467 33.9021 44.5565 35.0292 43.9448L39.8669 46.527C40.0472 46.6227 40.2535 46.6578 40.4553 46.6269C40.657 46.5961 40.8435 46.5011 40.9869 46.3559L44.7047 42.6381C44.8499 42.4946 44.945 42.3082 44.9758 42.1064C45.0066 41.9047 44.9716 41.6984 44.8758 41.5181L42.2936 36.6959C42.9117 35.5645 43.4071 34.3703 43.7714 33.1336L49.0136 31.5781C49.2066 31.5185 49.3756 31.3988 49.4959 31.2366C49.6162 31.0743 49.6816 30.8779 49.6825 30.6759V25.3714C49.6917 25.178 49.6415 24.9864 49.5386 24.8223C49.4357 24.6583 49.2851 24.5296 49.1069 24.4537ZM26.4425 36.5559C24.7504 36.5559 23.0962 36.0541 21.6893 35.114C20.2823 34.1739 19.1857 32.8377 18.5382 31.2744C17.8906 29.7111 17.7212 27.9908 18.0513 26.3312C18.3815 24.6716 19.1963 23.1471 20.3928 21.9506C21.5893 20.7541 23.1138 19.9393 24.7734 19.6092C26.433 19.279 28.1532 19.4485 29.7166 20.096C31.2799 20.7436 32.6161 21.8402 33.5562 23.2471C34.4963 24.6541 34.9981 26.3082 34.9981 28.0003C34.9981 30.2694 34.0967 32.4455 32.4922 34.05C30.8877 35.6545 28.7116 36.5559 26.4425 36.5559Z" fill="#14225B"/>
</g>
<defs>
<clipPath id="clip0_952_116">
<rect width="56" height="56" fill="white"/>
</clipPath>
</defs>
</svg>
