<svg width="52" height="52" viewBox="0 0 52 52" fill="none" xmlns="http://www.w3.org/2000/svg">
<rect width="52" height="52" rx="10.5" fill="#0F5FFF"/>
<g clip-path="url(#clip0_919_2326)">
<path d="M23.0586 13.6582C22.6708 13.9387 21.9516 14.5418 21.8965 14.9007C22.016 15.0626 22.227 15.2051 22.3792 15.2929H23.738C23.9261 15.1512 24.1183 15.0692 24.2207 14.9007C23.9898 14.3399 23.5265 13.9866 23.0586 13.6583V13.6582ZM22.6029 16.2069L22.0189 18.5429H24.0982L23.5143 16.2069H22.6029ZM27.9336 17.3495C27.1198 18.4343 26.0886 19.4745 25.2249 20.4246C24.7227 20.9771 24.2782 21.4984 23.972 21.9575C23.666 22.4166 23.5156 22.8085 23.5156 23.0624C23.5156 23.169 23.5246 23.2712 23.5404 23.3694C25.8305 21.9287 27.6787 19.7923 28.4757 18.0305C28.288 17.8057 28.1056 17.5788 27.9336 17.3495ZM29.1294 18.7828C28.1511 20.709 26.25 22.7835 23.8977 24.2232C24.1333 24.557 24.4265 24.7923 24.6237 24.9265C27.243 23.2953 28.9439 21.4849 29.8989 19.6202C29.6444 19.3465 29.3852 19.0671 29.1294 18.7828ZM21.851 19.4569L21.4484 23.8855L21.8138 24.4339C22.5364 25.5176 23.435 26.2693 24.2266 26.9564V25.7612C23.7156 25.4338 22.6016 24.5505 22.6016 23.0624C22.6016 22.5038 22.8575 21.9816 23.2115 21.4505C23.5125 20.999 23.8974 20.5373 24.3213 20.0621L24.2662 19.4569H21.851ZM30.5557 20.3302C29.6307 22.0048 28.167 23.5962 26.1047 25.0429H27.6974C29.6079 23.6846 30.7413 22.4573 31.16 21.0098C30.9428 20.7588 30.7545 20.5464 30.5557 20.3302ZM33.6211 20.5899C33.3359 20.9569 33.0374 21.2838 32.7397 21.5812C32.7845 21.6518 32.8282 21.7224 32.8688 21.7929H34.7186C34.3504 21.4407 33.9754 21.0458 33.6211 20.5899ZM31.8281 21.8606C31.3396 23.0272 30.4496 24.0443 29.2149 25.0429H31.0579C31.2658 24.9254 32.3516 24.2615 32.3516 23.0624C32.3516 22.8085 32.2013 22.4166 31.8951 21.9575C31.874 21.9257 31.8506 21.893 31.8281 21.8606H31.8281ZM16.9141 22.5978C16.5408 23.3932 16.2565 24.0788 16.0855 24.706C15.8259 25.6579 15.8014 26.4802 16.0842 27.4804H16.9141V22.5978ZM17.8281 22.5978V27.4804H18.0541C18.3119 27.2401 18.5567 27.0284 18.8047 26.8136C18.9163 26.0945 18.8564 25.4384 18.6567 24.706C18.4856 24.0788 18.2013 23.3932 17.8281 22.5978ZM33.2311 22.7069C33.2758 22.9491 33.2715 23.1898 33.2437 23.4179H36.5233C36.2472 23.1473 36.0074 22.9382 35.7399 22.7069H33.2311ZM15.658 23.1661C14.9571 23.8406 13.8074 24.67 13.7656 25.4999C13.7656 26.699 14.8514 27.3629 15.0593 27.4804H15.1413C14.8909 26.4295 14.9315 25.4633 15.2035 24.4656C15.3186 24.044 15.4721 23.6157 15.658 23.1661ZM19.0841 23.1661C19.2701 23.6157 19.4236 24.044 19.5386 24.4656C19.6742 24.9628 19.7522 25.4523 19.7654 25.9482C20.1112 25.6142 20.453 25.2479 20.7702 24.8305C20.286 24.1442 19.6657 23.6761 19.0841 23.1661ZM32.9666 24.3319C32.8306 24.6051 32.6605 24.8418 32.4826 25.0429H37.1932C37.2144 24.93 37.2266 24.8117 37.2266 24.6874C37.2267 24.5666 37.2075 24.4466 37.1697 24.3319H32.9666ZM21.4336 25.465C20.6566 26.4646 19.7796 27.1735 19.0939 27.7735C18.6937 28.1237 18.3606 28.4383 18.1446 28.7299C17.9287 29.0216 17.8281 29.2704 17.8281 29.5624C17.8281 30.7615 18.9139 31.4254 19.1218 31.5429H23.6486C23.745 30.3623 23.8711 29.2738 24.2266 28.186C24.0887 28.0538 23.937 27.9168 23.7733 27.7735C23.0875 27.1735 22.2106 26.4646 21.4336 25.465ZM25.1406 25.9569V28.2929H30.7266V25.9569H25.1406ZM31.6406 25.9569V26.6679H35.9329C36.0495 26.602 36.4419 26.3643 36.7642 25.9569H31.6406ZM31.6406 27.5819V28.5835C31.7766 28.7765 31.8346 28.9932 31.903 29.252C31.9913 29.5865 32.0609 29.9915 32.1204 30.4538C32.2597 31.7269 32.3314 32.8717 32.3734 33.9804H35.6016V27.5819H31.6406ZM15.3906 28.3944V34.7929H18.5391V32.2612C18.0281 31.9338 16.9141 31.0505 16.9141 29.5624C16.9141 29.131 17.0545 28.74 17.2686 28.3944H15.3906ZM24.9558 29.2069C24.7718 29.6858 24.7028 30.2752 24.6486 30.7304H31.2328C31.1335 30.2132 31.0971 29.6241 30.9179 29.2069H24.9558ZM24.5575 31.6444C24.503 32.2966 24.461 33.0161 24.4293 33.7463C24.3938 34.5615 24.3715 35.3639 24.357 36.1021L25.6942 31.6444H24.5575ZM26.8661 31.6444L27.9336 36.9817L29.0011 31.6444H26.8661ZM30.1729 31.6444L31.5178 36.1275C31.5051 35.3813 31.4846 34.5692 31.4501 33.7433C31.4196 33.0141 31.3787 32.2955 31.3245 31.6444H30.1729ZM19.4531 32.4569V34.7929H23.4141V32.4569H19.4531ZM26.2198 33.074L24.8663 37.5858H27.1222L26.2198 33.074ZM29.6474 33.074L28.745 37.5858H31.0009L29.6474 33.074ZM32.4036 34.8944C32.4316 35.8943 32.4431 36.8132 32.4484 37.5858H36.9963C36.7492 36.6603 36.4628 35.649 35.8456 34.8944H32.4036ZM15.1267 35.7069C14.5639 36.2703 14.0812 36.7809 13.8753 37.5858H17.3358C17.5386 36.9429 17.7974 36.2465 18.1002 35.7069H15.1267ZM19.214 35.7069C18.801 36.3509 18.4853 36.9777 18.2938 37.5858H23.4224C23.4277 37.0218 23.4359 36.3912 23.4516 35.7069H19.214Z" fill="white"/>
</g>
<defs>
<clipPath id="clip0_919_2326">
<rect width="26" height="26" fill="white" transform="translate(12.5 12.5)"/>
</clipPath>
</defs>
</svg>
