<svg width="164" height="168" viewBox="0 0 164 168" fill="none" xmlns="http://www.w3.org/2000/svg">
<path d="M65.1688 1.5C62.4913 3.4461 57.5247 7.63001 57.1442 10.1197C57.9696 11.2432 59.4266 12.2314 60.4775 12.8405H69.8602C71.159 11.858 72.4865 11.289 73.1934 10.1197C71.5987 6.22927 68.3997 3.77832 65.1688 1.50035V1.5ZM62.0224 19.1819L57.99 35.3877H72.3477L68.3152 19.1819H62.0224ZM98.8312 27.1087C93.2117 34.6345 86.0914 41.851 80.1275 48.4421C76.6596 52.2752 73.59 55.8919 71.4763 59.077C69.3629 62.2622 68.3247 64.9808 68.3247 66.7423C68.3247 67.4822 68.3867 68.191 68.4958 68.872C84.3094 58.8773 97.0709 44.056 102.575 31.833C101.278 30.2737 100.019 28.6993 98.8312 27.1087V27.1087ZM107.089 37.0523C100.333 50.4157 87.2061 64.8079 70.9626 74.7956C72.5896 77.1112 74.6146 78.7438 75.9758 79.6749C94.0623 68.3583 105.807 55.7985 112.402 42.8617C110.644 40.9632 108.855 39.0245 107.089 37.0523V37.0523ZM56.83 41.7291L54.0501 72.4531L56.5737 76.2572C61.5628 83.7757 67.7678 88.9908 73.2338 93.7574V85.4653C69.7052 83.194 62.013 77.0665 62.013 66.7423C62.013 62.867 63.7803 59.2444 66.225 55.5597C68.3033 52.4274 70.9609 49.2243 73.8877 45.9278L73.5076 41.7291H56.83ZM116.937 47.7876C110.55 59.4054 100.443 70.4457 86.2025 80.482H97.1999C110.392 71.0591 118.219 62.5443 121.11 52.5024C119.61 50.7613 118.31 49.2877 116.937 47.7876V47.7876ZM138.104 49.5896C136.135 52.1353 134.073 54.4031 132.018 56.4665C132.327 56.9562 132.629 57.4459 132.909 57.9349H145.682C143.14 55.4917 140.55 52.7522 138.104 49.5896V49.5896ZM125.723 58.4048C122.35 66.4982 116.204 73.5544 107.679 80.482H120.405C121.84 79.6675 129.338 75.0612 129.338 66.7423C129.338 64.9808 128.3 62.2622 126.186 59.077C126.04 58.8568 125.878 58.6296 125.723 58.4048H125.723ZM22.7403 63.5195C20.163 69.0372 18.2001 73.7936 17.0191 78.1452C15.2262 84.7491 15.0575 90.4535 17.0099 97.3924H22.7403V63.5195ZM29.0519 63.5195V97.3924H30.6123C32.3922 95.7253 34.0827 94.2569 35.7956 92.7667C36.566 87.7778 36.1526 83.2264 34.7731 78.1452C33.5922 73.7936 31.6289 69.0376 29.0519 63.5195V63.5195ZM135.411 64.2762C135.719 65.9567 135.69 67.6263 135.498 69.2084H158.144C156.237 67.3317 154.582 65.881 152.735 64.2762H135.411ZM14.0673 67.4621C9.22728 72.141 1.28823 77.8954 1 83.6527C1 91.9716 8.49758 96.5779 9.93279 97.3924H10.4991C8.77039 90.1019 9.05021 83.3987 10.929 76.4774C11.7232 73.5526 12.7836 70.581 14.0673 67.4621V67.4621ZM37.7249 67.4621C39.0086 70.581 40.069 73.5526 40.8632 76.4774C41.7995 79.9264 42.338 83.3223 42.4292 86.7628C44.8168 84.4461 47.1767 81.9046 49.3672 79.0087C46.0237 74.2477 41.7405 71.0002 37.7249 67.4621V67.4621ZM133.584 75.5498C132.645 77.4452 131.471 79.0869 130.243 80.482H162.77C162.916 79.6992 163 78.8787 163 78.0159C163.001 77.1781 162.869 76.3455 162.607 75.5498H133.584ZM53.948 83.4107C48.5831 90.3457 42.5274 95.2635 37.7922 99.4262C35.0291 101.856 32.7289 104.039 31.2372 106.061C29.7462 108.085 29.0519 109.811 29.0519 111.837C29.0519 120.156 36.5495 124.762 37.9847 125.576H69.243C69.9086 117.386 70.7792 109.835 73.2338 102.288C72.2817 101.371 71.2344 100.42 70.1039 99.4262C65.3687 95.2635 59.3133 90.3457 53.948 83.4107V83.4107ZM79.5454 86.8234V103.029H118.117V86.8234H79.5454ZM124.429 86.8234V91.7556H154.067C154.872 91.299 157.582 89.6496 159.808 86.8234H124.429ZM124.429 98.097V105.045C125.367 106.385 125.768 107.888 126.24 109.683C126.85 112.004 127.331 114.814 127.741 118.021C128.703 126.853 129.198 134.795 129.488 142.487H151.779V98.097H124.429ZM12.2208 103.734V148.124H33.961V130.56C30.4325 128.288 22.7403 122.161 22.7403 111.837C22.7403 108.844 23.7102 106.131 25.1885 103.734H12.2208ZM78.2694 109.371C76.9987 112.693 76.5225 116.782 76.148 119.94H121.612C120.927 116.352 120.676 112.265 119.438 109.371H78.2694ZM75.5186 126.281C75.1427 130.806 74.8527 135.797 74.6336 140.863C74.3888 146.518 74.2345 152.085 74.1342 157.207L83.3682 126.281H75.5186ZM91.4602 126.281L98.8312 163.309L106.202 126.281H91.4602ZM114.294 126.281L123.581 157.383C123.493 152.206 123.351 146.572 123.113 140.842C122.903 135.783 122.62 130.798 122.246 126.281H114.294ZM40.2727 131.918V148.124H67.6234V131.918H40.2727ZM86.9975 136.199L77.6512 167.5H93.2281L86.9975 136.199ZM110.665 136.199L104.434 167.5H120.011L110.665 136.199ZM129.697 148.828C129.891 155.765 129.97 162.14 130.006 167.5H161.41C159.704 161.079 157.726 154.063 153.464 148.828H129.697ZM10.3985 154.465C6.51186 158.373 3.17929 161.916 1.7574 167.5H25.6524C27.0529 163.04 28.8398 158.208 30.9304 154.465H10.3985ZM38.6215 154.465C35.77 158.933 33.5897 163.281 32.2678 167.5H67.6809C67.7177 163.587 67.7745 159.213 67.8829 154.465H38.6215Z" stroke="#0F5FFF"/>
</svg>
