<svg width="56" height="56" viewBox="0 0 56 56" fill="none" xmlns="http://www.w3.org/2000/svg">
<g clip-path="url(#clip0_804_10508)">
<path d="M2.32812 51.3321C2.32813 46.3814 4.29479 41.6335 7.79547 38.1328C11.2961 34.6321 16.0441 32.6655 20.9948 32.6655C25.9455 32.6655 30.6934 34.6321 34.1941 38.1328C37.6948 41.6335 39.6615 46.3814 39.6615 51.3321H34.9948C34.9948 47.6191 33.5198 44.0581 30.8943 41.4326C28.2688 38.8071 24.7078 37.3321 20.9948 37.3321C17.2818 37.3321 13.7208 38.8071 11.0953 41.4326C8.46979 44.0581 6.99479 47.6191 6.99479 51.3321H2.32812ZM20.9948 30.3321C13.2598 30.3321 6.99479 24.0671 6.99479 16.3321C6.99479 8.59713 13.2598 2.33213 20.9948 2.33213C28.7298 2.33213 34.9948 8.59713 34.9948 16.3321C34.9948 24.0671 28.7298 30.3321 20.9948 30.3321ZM20.9948 25.6655C26.1515 25.6655 30.3281 21.4888 30.3281 16.3321C30.3281 11.1755 26.1515 6.99879 20.9948 6.99879C15.8381 6.99879 11.6615 11.1755 11.6615 16.3321C11.6615 21.4888 15.8381 25.6655 20.9948 25.6655ZM50.2735 1.82812C52.5093 6.33572 53.669 11.3005 53.6615 16.3321C53.6615 21.5425 52.4411 26.4681 50.2735 30.8361L46.4351 28.0455C48.1273 24.3727 49.0007 20.3759 48.9948 16.3321C48.9948 12.1508 48.0778 8.18179 46.4351 4.61879L50.2735 1.82812ZM42.5688 7.42812C43.7341 10.2518 44.332 13.2774 44.3281 16.3321C44.332 19.3868 43.7341 22.4124 42.5688 25.2361L38.6558 22.3895C39.3235 20.4398 39.6633 18.3929 39.6615 16.3321C39.6641 14.2714 39.325 12.2246 38.6581 10.2748L42.5688 7.42812Z" fill="#008DF4"/>
</g>
<defs>
<clipPath id="clip0_804_10508">
<rect width="56" height="56" fill="white"/>
</clipPath>
</defs>
</svg>
