<svg width="56" height="56" viewBox="0 0 56 56" fill="none" xmlns="http://www.w3.org/2000/svg">
<g clip-path="url(#clip0_804_10462)">
<path d="M39.6703 50.448H16.3369C13.0312 50.4501 9.83126 49.2823 7.30388 47.1514C4.77651 45.0205 3.08471 42.064 2.52806 38.8054C1.97141 35.5468 2.58582 32.1964 4.26249 29.3473C5.93916 26.4983 8.56993 24.3344 11.6889 23.239C11.5833 21.0309 11.927 18.8243 12.6992 16.7529C13.4714 14.6815 14.6561 12.7884 16.1814 11.1883C17.7068 9.58822 19.5411 8.31442 21.5732 7.44409C23.6053 6.57376 25.793 6.125 28.0036 6.125C30.2143 6.125 32.4019 6.57376 34.434 7.44409C36.4662 8.31442 38.3005 9.58822 39.8258 11.1883C41.3512 12.7884 42.5358 14.6815 43.308 16.7529C44.0803 18.8243 44.4239 21.0309 44.3183 23.239C47.4373 24.3344 50.0681 26.4983 51.7447 29.3473C53.4214 32.1964 54.0358 35.5468 53.4792 38.8054C52.9225 42.064 51.2307 45.0205 48.7033 47.1514C46.176 49.2823 42.9761 50.4501 39.6703 50.448ZM39.6703 22.448C39.6709 20.8917 39.3601 19.351 38.7561 17.9166C38.1522 16.4822 37.2675 15.1832 36.1539 14.0959C35.0403 13.0087 33.7204 12.1552 32.272 11.5858C30.8236 11.0164 29.2759 10.7426 27.72 10.7804C26.1642 10.8182 24.6316 11.167 23.2126 11.8061C21.7935 12.4452 20.5167 13.3618 19.4573 14.5019C18.3979 15.642 17.5773 16.9825 17.0438 18.4445C16.5103 19.9065 16.2747 21.4605 16.3509 23.015L16.5143 26.487L13.2383 27.6397C11.1628 28.3737 9.41337 29.8173 8.29884 31.7158C7.18432 33.6143 6.77637 35.8455 7.14702 38.0155C7.51767 40.1856 8.64308 42.1549 10.3246 43.5758C12.0061 44.9967 14.1355 45.7778 16.3369 45.7813H39.6703C41.3884 45.7808 43.073 45.306 44.5386 44.4092C46.0041 43.5125 47.1937 42.2286 47.9763 40.699C48.7588 39.1695 49.104 37.4536 48.9737 35.7404C48.8435 34.0272 48.2428 32.3832 47.238 30.9896C46.2332 29.5959 44.8632 28.5066 43.2789 27.8418C41.6946 27.1769 39.9576 26.9623 38.2591 27.2215C36.5607 27.4807 34.9667 28.2037 33.6529 29.3109C32.339 30.418 31.3563 31.8664 30.8129 33.4963L26.3843 32.0193C27.3149 29.2319 29.0986 26.8077 31.483 25.09C33.8674 23.3723 36.7316 22.448 39.6703 22.448Z" fill="#008DF4"/>
</g>
<defs>
<clipPath id="clip0_804_10462">
<rect width="56" height="56" fill="white"/>
</clipPath>
</defs>
</svg>
