<svg width="94" height="88" viewBox="0 0 94 88" fill="none" xmlns="http://www.w3.org/2000/svg">
<path d="M85.6292 29.7845C83.8094 25.406 80.1182 20.6784 77.2276 19.1839C79.2888 23.1755 80.7195 27.4622 81.4689 31.8917L81.4765 31.9619C76.7413 20.1619 68.7147 15.3965 62.1555 5.03364C61.8238 4.50955 61.4921 3.98439 61.169 3.43004C60.9842 3.11343 60.8361 2.82816 60.7076 2.56557C60.4356 2.03885 60.2259 1.48218 60.083 0.906871C60.0832 0.880324 60.0736 0.854634 60.056 0.834704C60.0385 0.814774 60.0142 0.801998 59.9879 0.798813C59.9621 0.791732 59.9348 0.791732 59.909 0.798813C59.9036 0.798813 59.8949 0.808538 59.8885 0.810699C59.882 0.81286 59.8679 0.822585 59.8582 0.826908L59.8744 0.798813C49.3549 6.95816 45.7836 18.3584 45.4594 24.0639C41.2569 24.352 37.2389 25.9001 33.9295 28.5062C33.5844 28.2138 33.2236 27.9404 32.8489 27.6871C31.8947 24.3469 31.8541 20.8119 32.7311 17.4507C28.8679 19.322 25.4352 21.975 22.6503 25.2417H22.6309C20.9711 23.1378 21.0878 16.2004 21.1829 14.7514C20.6919 14.9487 20.2232 15.1975 19.7846 15.4937C18.3194 16.5395 16.9496 17.7129 15.6913 19.0002C14.2575 20.454 12.9479 22.0252 11.7764 23.6976V23.704V23.6965C9.08412 27.5127 7.17436 31.8244 6.15731 36.3826L6.10112 36.6592C6.02224 37.0277 5.73804 38.8733 5.68942 39.2742C5.68942 39.3056 5.68293 39.3347 5.67969 39.3661C5.3131 41.2715 5.08593 43.2012 5 45.1397V45.3558C5.01851 55.8359 8.96531 65.9283 16.0613 73.6407C23.1573 81.353 32.8867 86.1249 43.3291 87.0143C53.7714 87.9037 64.1678 84.846 72.4658 78.4448C80.7639 72.0435 86.3606 62.764 88.1513 52.4379C88.2215 51.8977 88.2788 51.3628 88.3414 50.8171C89.2041 43.6872 88.2702 36.4549 85.6248 29.778L85.6292 29.7845ZM37.3593 62.5695C37.5549 62.6636 37.7386 62.7651 37.9396 62.8548L37.9687 62.8732C37.7656 62.7759 37.5624 62.6747 37.3593 62.5695ZM81.4775 31.9738V31.9338L81.4851 31.9781L81.4775 31.9738Z" fill="url(#paint0_linear_910_4284)"/>
<path d="M85.6291 29.7845C83.8093 25.4059 80.1181 20.6784 77.2275 19.1839C79.2887 23.1755 80.7194 27.4622 81.4688 31.8916V31.9316L81.4764 31.9759C84.7049 41.2139 84.238 51.3423 80.1732 60.2441C75.3732 70.5432 63.759 81.0994 45.5727 80.5808C25.9276 80.0243 8.61663 65.4417 5.38567 46.3477C4.79675 43.3361 5.38567 41.8093 5.68175 39.3617C5.27788 41.2629 5.0525 43.1976 5.00854 45.1407V45.3568C5.02705 55.837 8.97386 65.9294 16.0698 73.6417C23.1658 81.3541 32.8953 86.126 43.3376 87.0154C53.78 87.9048 64.1763 84.847 72.4744 78.4458C80.7724 72.0446 86.3692 62.765 88.1598 52.439C88.23 51.8987 88.2873 51.3638 88.35 50.8181C89.2126 43.6883 88.2788 36.4559 85.6334 29.7791L85.6291 29.7845Z" fill="url(#paint1_radial_910_4284)"/>
<path d="M85.6291 29.7845C83.8093 25.4059 80.1181 20.6784 77.2275 19.1839C79.2887 23.1755 80.7194 27.4622 81.4688 31.8916V31.9316L81.4764 31.9759C84.7049 41.2139 84.238 51.3423 80.1732 60.2441C75.3732 70.5432 63.759 81.0994 45.5727 80.5808C25.9276 80.0243 8.61663 65.4417 5.38567 46.3477C4.79675 43.3361 5.38567 41.8093 5.68175 39.3617C5.27788 41.2629 5.0525 43.1976 5.00854 45.1407V45.3568C5.02705 55.837 8.97386 65.9294 16.0698 73.6417C23.1658 81.3541 32.8953 86.126 43.3376 87.0154C53.78 87.9048 64.1763 84.847 72.4744 78.4458C80.7724 72.0446 86.3692 62.765 88.1598 52.439C88.23 51.8987 88.2873 51.3638 88.35 50.8181C89.2126 43.6883 88.2788 36.4559 85.6334 29.7791L85.6291 29.7845Z" fill="url(#paint2_radial_910_4284)"/>
<path d="M65.2708 34.7012C65.3616 34.7649 65.4459 34.8287 65.5312 34.8924C64.4792 33.027 63.1697 31.3191 61.6411 29.8191C48.62 16.798 58.2297 1.5941 59.8495 0.81608L59.8657 0.792307C49.3462 6.95166 45.7749 18.3519 45.4507 24.0574C45.9391 24.0239 46.4232 23.9828 46.9224 23.9828C50.6546 23.99 54.3184 24.9854 57.5411 26.8676C60.7639 28.7498 63.4309 31.4519 65.2708 34.699V34.7012Z" fill="url(#paint3_radial_910_4284)"/>
<path d="M46.9441 37.3054C46.875 38.3471 43.1945 41.94 41.9075 41.94C29.9994 41.94 28.0652 49.1443 28.0652 49.1443C28.5925 55.2107 32.8198 60.2095 37.9299 62.8461C38.1633 62.9672 38.3999 63.0763 38.6366 63.1833C39.0465 63.3648 39.4564 63.5327 39.8663 63.6868C41.6201 64.3074 43.4569 64.6618 45.3157 64.7383C66.1926 65.7173 70.2341 39.7767 55.1696 32.245C58.7231 31.7826 62.3218 32.6564 65.2677 34.6968C63.4277 31.4497 60.7608 28.7477 57.538 26.8654C54.3152 24.9832 50.6515 23.9879 46.9193 23.9806C46.4222 23.9806 45.9359 24.0217 45.4475 24.0552C41.2451 24.3433 37.227 25.8914 33.9176 28.4975C34.5563 29.0378 35.277 29.7596 36.7953 31.2562C39.6372 34.056 46.9258 36.9563 46.942 37.2967L46.9441 37.3054Z" fill="url(#paint4_radial_910_4284)"/>
<path d="M46.9441 37.3054C46.875 38.3471 43.1945 41.94 41.9075 41.94C29.9994 41.94 28.0652 49.1443 28.0652 49.1443C28.5925 55.2107 32.8198 60.2095 37.9299 62.8461C38.1633 62.9672 38.3999 63.0763 38.6366 63.1833C39.0465 63.3648 39.4564 63.5327 39.8663 63.6868C41.6201 64.3074 43.4569 64.6618 45.3157 64.7383C66.1926 65.7173 70.2341 39.7767 55.1696 32.245C58.7231 31.7826 62.3218 32.6564 65.2677 34.6968C63.4277 31.4497 60.7608 28.7477 57.538 26.8654C54.3152 24.9832 50.6515 23.9879 46.9193 23.9806C46.4222 23.9806 45.9359 24.0217 45.4475 24.0552C41.2451 24.3433 37.227 25.8914 33.9176 28.4975C34.5563 29.0378 35.277 29.7596 36.7953 31.2562C39.6372 34.056 46.9258 36.9563 46.942 37.2967L46.9441 37.3054Z" fill="url(#paint5_radial_910_4284)"/>
<path d="M31.9672 27.1154C32.3065 27.3315 32.5864 27.5196 32.8316 27.6892C31.8775 24.349 31.8368 20.8141 32.7139 17.4528C28.8506 19.3242 25.4179 21.9772 22.6331 25.2439C22.8373 25.2384 28.9124 25.1293 31.9672 27.1154Z" fill="url(#paint6_radial_910_4284)"/>
<path d="M5.37821 46.3499C8.61025 65.4439 25.9202 80.0318 45.5653 80.5829C63.7516 81.0973 75.3679 70.5399 80.1657 60.2463C84.2306 51.3445 84.6975 41.2161 81.4689 31.9781V31.9381C81.4689 31.9068 81.4624 31.8884 81.4689 31.8981L81.4765 31.9684C82.9623 41.6688 78.0283 51.0623 70.314 57.427L70.2902 57.481C55.2592 69.7241 40.8766 64.8658 37.9698 62.884C37.7667 62.7867 37.5635 62.6855 37.3604 62.5803C28.5979 58.392 24.9768 50.4129 25.7549 43.562C23.6748 43.5927 21.6306 43.0195 19.8697 41.9119C18.1088 40.8043 16.707 39.2098 15.834 37.3216C18.1343 35.9124 20.7572 35.1158 23.4527 35.0076C26.1482 34.8994 28.8265 35.4833 31.2324 36.7035C36.1915 38.9545 41.8344 39.1763 46.9549 37.3216C46.9387 36.9812 39.6501 34.0798 36.8082 31.2811C35.29 29.7845 34.5692 29.0637 33.9306 28.5224C33.5855 28.23 33.2247 27.9566 32.85 27.7033C32.6015 27.5336 32.3216 27.3499 31.9855 27.1295C28.9307 25.1434 22.8556 25.2525 22.6547 25.2579H22.6352C20.9754 23.154 21.0921 16.2166 21.1872 14.7676C20.6962 14.9649 20.2275 15.2137 19.7889 15.5099C18.3237 16.5556 16.9539 17.7291 15.6957 19.0164C14.2567 20.4661 12.9417 22.0337 11.7645 23.7029V23.7094V23.7019C9.07224 27.5181 7.16248 31.8297 6.14543 36.388C6.1249 36.4733 4.63693 42.9785 5.37065 46.3521L5.37821 46.3499Z" fill="url(#paint7_radial_910_4284)"/>
<path d="M61.6399 29.8169C63.1689 31.3186 64.4785 33.0283 65.5301 34.8957C65.7602 35.0696 65.9753 35.2425 66.1579 35.41C75.653 44.1628 70.678 56.5355 70.3073 57.4108C78.0206 51.0559 82.9502 41.6558 81.4698 31.9521C76.7325 20.1413 68.6973 15.3759 62.1489 5.01308C61.8172 4.489 61.4854 3.96383 61.1623 3.40949C60.9775 3.09288 60.8295 2.8076 60.7009 2.54502C60.4289 2.01829 60.2193 1.46163 60.0763 0.886319C60.0765 0.859771 60.0669 0.834082 60.0494 0.814151C60.0319 0.794221 60.0076 0.781445 59.9812 0.77826C59.9554 0.771179 59.9282 0.771179 59.9024 0.77826C59.897 0.77826 59.8883 0.787985 59.8818 0.790146C59.8753 0.792307 59.8613 0.802033 59.8516 0.806355C58.2318 1.57465 48.6243 16.7882 61.6453 29.7985L61.6399 29.8169Z" fill="url(#paint8_radial_910_4284)"/>
<path d="M66.1569 35.4143C65.9743 35.2469 65.7593 35.074 65.5291 34.9C65.4438 34.8362 65.3595 34.7725 65.2687 34.7087C62.3228 32.6683 58.7242 31.7945 55.1706 32.2569C70.234 39.7886 66.1926 65.7227 45.3167 64.7501C43.4579 64.6737 41.6211 64.3193 39.8673 63.6987C39.4574 63.5453 39.0475 63.3774 38.6376 63.1952C38.401 63.0871 38.1643 62.9791 37.9309 62.858L37.9601 62.8764C40.8712 64.8636 55.2495 69.7187 70.2805 57.4735L70.3042 57.4194C70.6792 56.5442 75.6542 44.1714 66.1548 35.4187L66.1569 35.4143Z" fill="url(#paint9_radial_910_4284)"/>
<path d="M28.0662 49.1378C28.0662 49.1378 29.9994 41.9335 41.9085 41.9335C43.1955 41.9335 46.8792 38.3406 46.9452 37.2989C41.8246 39.1536 36.1817 38.9318 31.2226 36.6808C28.8167 35.4606 26.1384 34.8767 23.4429 34.9849C20.7474 35.0931 18.1246 35.8897 15.8242 37.2989C16.6972 39.1871 18.0991 40.7816 19.8599 41.8892C21.6208 42.9968 23.6651 43.57 25.7451 43.5393C24.9692 50.387 28.5892 58.365 37.3506 62.5576C37.5462 62.6516 37.7299 62.7532 37.9309 62.8429C32.8165 60.2009 28.5935 55.2042 28.0662 49.1411V49.1378Z" fill="url(#paint10_radial_910_4284)"/>
<path d="M85.6292 29.7845C83.8095 25.406 80.1182 20.6784 77.2276 19.1839C79.2889 23.1755 80.7196 27.4622 81.4689 31.8917L81.4765 31.9619C76.7414 20.1619 68.7147 15.3965 62.1556 5.03364C61.8238 4.50955 61.4921 3.98439 61.169 3.43004C60.9842 3.11343 60.8362 2.82816 60.7076 2.56557C60.4356 2.03885 60.226 1.48218 60.083 0.906871C60.0832 0.880324 60.0736 0.854634 60.0561 0.834704C60.0385 0.814774 60.0143 0.801998 59.9879 0.798813C59.9621 0.791732 59.9349 0.791732 59.909 0.798813C59.9036 0.798813 59.895 0.808538 59.8885 0.810699C59.882 0.81286 59.868 0.822585 59.8582 0.826908L59.8745 0.798813C49.3549 6.95816 45.7836 18.3584 45.4594 24.0639C45.9478 24.0304 46.4319 23.9893 46.9312 23.9893C50.6634 23.9965 54.3271 24.9919 57.5499 26.8741C60.7727 28.7563 63.4396 31.4584 65.2796 34.7055C62.3337 32.665 58.735 31.7913 55.1815 32.2536C70.2449 39.7853 66.2035 65.7195 45.3276 64.7469C43.4688 64.6705 41.632 64.3161 39.8782 63.6955C39.4683 63.5421 39.0584 63.3742 38.6485 63.192C38.4118 63.0839 38.1752 62.9758 37.9418 62.8548L37.9709 62.8732C37.7678 62.7759 37.5646 62.6747 37.3615 62.5695C37.5571 62.6636 37.7408 62.7651 37.9418 62.8548C32.8273 60.2117 28.6044 55.2151 28.0771 49.153C28.0771 49.153 30.0102 41.9487 41.9194 41.9487C43.2064 41.9487 46.8901 38.3557 46.956 37.314C46.9398 36.9737 39.6512 34.0723 36.8093 31.2736C35.2911 29.7769 34.5703 29.0562 33.9317 28.5148C33.5866 28.2225 33.2258 27.949 32.8511 27.6957C31.8969 24.3555 31.8563 20.8206 32.7333 17.4593C28.8701 19.3307 25.4374 21.9837 22.6525 25.2504H22.6331C20.9733 23.1465 21.09 16.2091 21.1851 14.76C20.6941 14.9573 20.2253 15.2062 19.7868 15.5024C18.3216 16.5481 16.9518 17.7215 15.6935 19.0089C14.2597 20.4626 12.9501 22.0339 11.7786 23.7062V23.7127V23.7051C9.08631 27.5213 7.17655 31.833 6.15951 36.3912L6.10332 36.6678C6.02443 37.0363 5.67108 38.9079 5.62029 39.3099C5.29709 41.2418 5.09068 43.1915 5.0022 45.1483V45.3644C5.02071 55.8446 8.96751 65.9369 16.0635 73.6493C23.1595 81.3617 32.8889 86.1336 43.3313 87.0229C53.7736 87.9123 64.17 84.8546 72.468 78.4534C80.7661 72.0522 86.3628 62.7726 88.1535 52.4466C88.2237 51.9063 88.281 51.3714 88.3436 50.8257C89.2063 43.6959 88.2724 36.4635 85.627 29.7867L85.6292 29.7845ZM81.4743 31.936L81.4819 31.9803L81.4743 31.936Z" fill="url(#paint11_linear_910_4284)"/>
<defs>
<linearGradient id="paint0_linear_910_4284" x1="80.0857" y1="14.1764" x2="10.5575" y2="81.2593" gradientUnits="userSpaceOnUse">
<stop offset="0.048" stop-color="#FFF44F"/>
<stop offset="0.111" stop-color="#FFE847"/>
<stop offset="0.225" stop-color="#FFC830"/>
<stop offset="0.368" stop-color="#FF980E"/>
<stop offset="0.401" stop-color="#FF8B16"/>
<stop offset="0.462" stop-color="#FF672A"/>
<stop offset="0.534" stop-color="#FF3647"/>
<stop offset="0.705" stop-color="#E31587"/>
</linearGradient>
<radialGradient id="paint1_radial_910_4284" cx="0" cy="0" r="1" gradientUnits="userSpaceOnUse" gradientTransform="translate(77.395 10.5176) scale(87.3115 87.3115)">
<stop offset="0.129" stop-color="#FFBD4F"/>
<stop offset="0.186" stop-color="#FFAC31"/>
<stop offset="0.247" stop-color="#FF9D17"/>
<stop offset="0.283" stop-color="#FF980E"/>
<stop offset="0.403" stop-color="#FF563B"/>
<stop offset="0.467" stop-color="#FF3750"/>
<stop offset="0.71" stop-color="#F5156C"/>
<stop offset="0.782" stop-color="#EB0878"/>
<stop offset="0.86" stop-color="#E50080"/>
</radialGradient>
<radialGradient id="paint2_radial_910_4284" cx="0" cy="0" r="1" gradientUnits="userSpaceOnUse" gradientTransform="translate(44.9773 46.177) scale(87.3115 87.3115)">
<stop offset="0.3" stop-color="#960E18"/>
<stop offset="0.351" stop-color="#B11927" stop-opacity="0.74"/>
<stop offset="0.435" stop-color="#DB293D" stop-opacity="0.343"/>
<stop offset="0.497" stop-color="#F5334B" stop-opacity="0.094"/>
<stop offset="0.53" stop-color="#FF3750" stop-opacity="0"/>
</radialGradient>
<radialGradient id="paint3_radial_910_4284" cx="0" cy="0" r="1" gradientUnits="userSpaceOnUse" gradientTransform="translate(55.7833 -8.93299) scale(63.2468 63.2468)">
<stop offset="0.132" stop-color="#FFF44F"/>
<stop offset="0.252" stop-color="#FFDC3E"/>
<stop offset="0.506" stop-color="#FF9D12"/>
<stop offset="0.526" stop-color="#FF980E"/>
</radialGradient>
<radialGradient id="paint4_radial_910_4284" cx="0" cy="0" r="1" gradientUnits="userSpaceOnUse" gradientTransform="translate(35.2522 68.8693) scale(41.5702 41.5702)">
<stop offset="0.353" stop-color="#3A8EE6"/>
<stop offset="0.472" stop-color="#5C79F0"/>
<stop offset="0.669" stop-color="#9059FF"/>
<stop offset="1" stop-color="#C139E6"/>
</radialGradient>
<radialGradient id="paint5_radial_910_4284" cx="0" cy="0" r="1" gradientUnits="userSpaceOnUse" gradientTransform="translate(49.2004 38.682) rotate(-13.5916) scale(22.0441 25.8081)">
<stop offset="0.206" stop-color="#9059FF" stop-opacity="0"/>
<stop offset="0.278" stop-color="#8C4FF3" stop-opacity="0.064"/>
<stop offset="0.747" stop-color="#7716A8" stop-opacity="0.45"/>
<stop offset="0.975" stop-color="#6E008B" stop-opacity="0.6"/>
</radialGradient>
<radialGradient id="paint6_radial_910_4284" cx="0" cy="0" r="1" gradientUnits="userSpaceOnUse" gradientTransform="translate(43.8969 7.27583) scale(29.9107 29.9107)">
<stop stop-color="#FFE226"/>
<stop offset="0.121" stop-color="#FFDB27"/>
<stop offset="0.295" stop-color="#FFC82A"/>
<stop offset="0.502" stop-color="#FFA930"/>
<stop offset="0.732" stop-color="#FF7E37"/>
<stop offset="0.792" stop-color="#FF7139"/>
</radialGradient>
<radialGradient id="paint7_radial_910_4284" cx="0" cy="0" r="1" gradientUnits="userSpaceOnUse" gradientTransform="translate(67.6698 -12.1748) scale(127.617 127.617)">
<stop offset="0.113" stop-color="#FFF44F"/>
<stop offset="0.456" stop-color="#FF980E"/>
<stop offset="0.622" stop-color="#FF5634"/>
<stop offset="0.716" stop-color="#FF3647"/>
<stop offset="0.904" stop-color="#E31587"/>
</radialGradient>
<radialGradient id="paint8_radial_910_4284" cx="0" cy="0" r="1" gradientUnits="userSpaceOnUse" gradientTransform="translate(57.0626 -5.09906) rotate(83.976) scale(93.5199 61.3763)">
<stop stop-color="#FFF44F"/>
<stop offset="0.06" stop-color="#FFE847"/>
<stop offset="0.168" stop-color="#FFC830"/>
<stop offset="0.304" stop-color="#FF980E"/>
<stop offset="0.356" stop-color="#FF8B16"/>
<stop offset="0.455" stop-color="#FF672A"/>
<stop offset="0.57" stop-color="#FF3647"/>
<stop offset="0.737" stop-color="#E31587"/>
</radialGradient>
<radialGradient id="paint9_radial_910_4284" cx="0" cy="0" r="1" gradientUnits="userSpaceOnUse" gradientTransform="translate(43.8968 18.0817) scale(79.6609 79.6609)">
<stop offset="0.137" stop-color="#FFF44F"/>
<stop offset="0.48" stop-color="#FF980E"/>
<stop offset="0.592" stop-color="#FF5634"/>
<stop offset="0.655" stop-color="#FF3647"/>
<stop offset="0.904" stop-color="#E31587"/>
</radialGradient>
<radialGradient id="paint10_radial_910_4284" cx="0" cy="0" r="1" gradientUnits="userSpaceOnUse" gradientTransform="translate(64.428 22.4041) scale(87.1926 87.1926)">
<stop offset="0.094" stop-color="#FFF44F"/>
<stop offset="0.231" stop-color="#FFE141"/>
<stop offset="0.509" stop-color="#FFAF1E"/>
<stop offset="0.626" stop-color="#FF980E"/>
</radialGradient>
<linearGradient id="paint11_linear_910_4284" x1="79.2429" y1="13.8198" x2="20.0915" y2="72.982" gradientUnits="userSpaceOnUse">
<stop offset="0.167" stop-color="#FFF44F" stop-opacity="0.8"/>
<stop offset="0.266" stop-color="#FFF44F" stop-opacity="0.634"/>
<stop offset="0.489" stop-color="#FFF44F" stop-opacity="0.217"/>
<stop offset="0.6" stop-color="#FFF44F" stop-opacity="0"/>
</linearGradient>
</defs>
</svg>
