<svg width="25" height="24" viewBox="0 0 25 24" fill="none" xmlns="http://www.w3.org/2000/svg">
<path d="M5.06466 22.7088C6.33042 22.8599 7.75259 23.6799 8.94276 23.8247C10.1393 23.9758 10.5096 23.0098 10.5096 23.0098C10.5096 23.0098 11.8561 22.7088 13.2717 22.6741C14.6887 22.6344 16.0301 22.9688 16.0301 22.9688C16.0301 22.9688 16.2902 23.5646 16.7757 23.8247C17.2613 24.0898 18.3067 24.1257 18.9767 23.4198C19.648 22.7088 21.4391 21.8132 22.4448 21.2533C23.457 20.6922 23.2712 19.8364 22.6358 19.5763C22.0004 19.3163 21.4802 18.9063 21.5199 18.1196C21.5545 17.3394 20.9588 16.8193 20.9588 16.8193C20.9588 16.8193 21.4802 15.1025 20.9946 13.6805C20.5091 12.2648 18.9076 9.98819 17.6765 8.27657C16.4453 6.55984 17.4906 4.5779 16.3697 2.04503C15.2487 -0.491656 12.3418 -0.341713 10.7749 0.739505C9.20805 1.8208 9.68843 4.50225 9.76401 5.77447C9.83959 7.04023 9.7986 7.94598 9.65384 8.27146C9.50908 8.60198 8.49826 9.80243 7.82695 10.8081C7.15693 11.819 6.67129 13.906 6.18063 14.7669C5.70017 15.6228 6.03586 16.403 6.03586 16.403C6.03586 16.403 5.70024 16.5182 5.43503 17.0795C5.17491 17.6342 4.65476 17.8993 3.71823 18.0801C2.78809 18.2709 2.78809 18.8705 3.01232 19.5419C3.23777 20.2119 3.01232 20.5873 2.75221 21.4431C2.49217 22.2988 3.79381 22.5588 5.06466 22.7088ZM18.2221 18.805C18.8871 19.0958 19.8428 18.691 20.1336 18.4001C20.4232 18.1106 20.6282 17.6801 20.6282 17.6801C20.6282 17.6801 20.919 17.8249 20.8895 18.2848C20.8587 18.7512 21.0893 19.4161 21.5249 19.6467C21.9605 19.876 22.6254 20.1963 22.2808 20.5166C21.9297 20.8369 19.9876 21.6183 19.4072 22.2282C18.832 22.8341 18.0761 23.33 17.6161 23.1839C17.1511 23.0392 16.745 22.4037 16.9449 21.4736C17.1511 20.5473 17.3254 19.5313 17.2959 18.951C17.2652 18.3707 17.1511 17.5892 17.2959 17.4738C17.4407 17.3598 17.6713 17.4149 17.6713 17.4149C17.6713 17.4149 17.5559 18.5156 18.2221 18.805ZM13.9073 3.12632C14.5478 3.12632 15.0641 3.76175 15.0641 4.54324C15.0641 5.09798 14.804 5.57844 14.4235 5.80906C14.3274 5.76937 14.2275 5.72449 14.1173 5.67832C14.3479 5.56434 14.508 5.27352 14.508 4.93783C14.508 4.49844 14.2378 4.13714 13.8982 4.13714C13.5677 4.13714 13.2922 4.49836 13.2922 4.93783C13.2922 5.09806 13.3319 5.25813 13.3972 5.38369C13.1974 5.30293 13.0167 5.23383 12.872 5.17874C12.7964 4.98781 12.7515 4.77257 12.7515 4.54331C12.7516 3.76183 13.2666 3.12632 13.9073 3.12632ZM12.3211 5.56823C12.6363 5.62331 13.5023 5.9987 13.8227 6.11398C14.143 6.22415 14.4978 6.4291 14.4632 6.63413C14.4235 6.84548 14.2583 6.84548 13.8227 7.1107C13.3922 7.37082 12.4519 7.95116 12.1508 7.99085C11.8509 8.03055 11.6806 7.86141 11.3602 7.65516C11.0399 7.44502 10.4391 6.95436 10.5902 6.69432C10.5902 6.69432 11.0604 6.33432 11.2654 6.14986C11.4705 5.95893 12.0008 5.50925 12.3211 5.56823ZM10.94 3.35185C11.4448 3.35185 11.8561 3.95268 11.8561 4.69318C11.8561 4.82773 11.8407 4.95322 11.8164 5.07878C11.6908 5.11847 11.5653 5.18385 11.4448 5.28891C11.3859 5.33889 11.3307 5.38369 11.2808 5.43367C11.3602 5.28381 11.391 5.06857 11.3551 4.84305C11.2859 4.44335 11.0156 4.14743 10.7504 4.18712C10.4839 4.232 10.325 4.5984 10.3891 5.00327C10.4596 5.41325 10.7247 5.7091 10.995 5.6643C11.0104 5.6592 11.0245 5.65409 11.0399 5.64891C10.9105 5.77447 10.7901 5.88464 10.6645 5.97432C10.2994 5.80388 10.0291 5.29402 10.0291 4.69318C10.0292 3.94758 10.434 3.35185 10.94 3.35185ZM8.1279 13.045C8.64805 12.2251 8.98367 10.4328 9.50382 9.83702C10.0292 9.24259 10.434 7.97554 10.2495 7.41569C10.2495 7.41569 11.3705 8.75702 12.1508 8.53668C12.9322 8.31116 14.6887 7.00571 14.9488 7.22994C15.2089 7.45539 17.4458 12.375 17.6712 13.9419C17.8967 15.5074 17.5213 16.7041 17.5213 16.7041C17.5213 16.7041 16.6656 16.4785 16.5553 16.9987C16.4452 17.524 16.4452 19.4265 16.4452 19.4265C16.4452 19.4265 15.2883 21.0279 13.4972 21.2931C11.7061 21.5532 10.8093 21.3636 10.8093 21.3636L9.80356 20.2118C9.80356 20.2118 10.5851 20.0965 10.4749 19.3112C10.3647 18.531 8.08676 17.4496 7.67678 16.4785C7.26695 15.5073 7.60135 13.8662 8.1279 13.045ZM3.69895 18.9204C3.78863 18.5361 4.94931 18.5361 5.39518 18.2657C5.84104 17.9954 5.93064 17.219 6.29072 17.0141C6.64554 16.804 7.30154 17.5496 7.57186 17.9697C7.83708 18.3797 8.85308 20.1721 9.26817 20.6179C9.68836 21.0676 10.074 21.6633 9.95358 22.1988C9.8396 22.7343 9.20798 23.1251 9.20798 23.1251C8.64302 23.2993 7.06718 22.619 6.35106 22.3192C5.63495 22.0182 3.81308 21.9284 3.57865 21.6633C3.33781 21.393 3.69392 20.7972 3.7887 20.2322C3.8732 19.6609 3.60806 19.306 3.69895 18.9204Z" fill="white"/>
</svg>
