<svg width="196" height="56" viewBox="0 0 196 56" fill="none" xmlns="http://www.w3.org/2000/svg">
<path d="M188.741 56H7.25926C3.19407 56 0 52.78 0 49V7C0 3.08 3.33926 0 7.25926 0H188.741C192.806 0 196 3.22 196 7V49C196 52.78 192.806 56 188.741 56Z" fill="white"/>
<path d="M98.977 30.1933C95.617 30.1933 92.957 32.7133 92.957 36.2133C92.957 39.5733 95.617 42.2333 98.977 42.2333C102.337 42.2333 104.997 39.7133 104.997 36.2133C104.997 32.5733 102.337 30.1933 98.977 30.1933ZM98.977 39.7133C97.157 39.7133 95.617 38.1733 95.617 36.0733C95.617 33.9733 97.157 32.4333 98.977 32.4333C100.797 32.4333 102.337 33.8333 102.337 36.0733C102.337 38.1733 100.797 39.7133 98.977 39.7133ZM85.957 30.1933C82.597 30.1933 79.937 32.7133 79.937 36.2133C79.937 39.5733 82.597 42.2333 85.957 42.2333C89.317 42.2333 91.977 39.7133 91.977 36.2133C91.977 32.5733 89.317 30.1933 85.957 30.1933ZM85.957 39.7133C84.137 39.7133 82.597 38.1733 82.597 36.0733C82.597 33.9733 84.137 32.4333 85.957 32.4333C87.777 32.4333 89.317 33.8333 89.317 36.0733C89.317 38.1733 87.777 39.7133 85.957 39.7133ZM70.417 32.0133V34.5333H76.437C76.297 35.9333 75.737 37.0533 75.037 37.7533C74.197 38.5933 72.797 39.5733 70.417 39.5733C66.637 39.5733 63.837 36.6333 63.837 32.8533C63.837 29.0733 66.777 26.1333 70.417 26.1333C72.377 26.1333 73.917 26.9733 75.037 27.9533L76.857 26.1333C75.317 24.7333 73.357 23.6133 70.557 23.6133C65.517 23.6133 61.177 27.8133 61.177 32.8533C61.177 37.8933 65.517 42.0933 70.557 42.0933C73.357 42.0933 75.317 41.2533 76.997 39.4333C78.677 37.7533 79.237 35.3733 79.237 33.5533C79.237 32.9933 79.237 32.4333 79.097 32.0133H70.417ZM133.977 33.9733C133.417 32.5733 132.017 30.1933 128.937 30.1933C125.857 30.1933 123.337 32.5733 123.337 36.2133C123.337 39.5733 125.857 42.2333 129.217 42.2333C131.877 42.2333 133.557 40.5533 134.117 39.5733L132.157 38.1733C131.457 39.1533 130.617 39.8533 129.217 39.8533C127.817 39.8533 126.977 39.2933 126.277 38.0333L134.257 34.6733L133.977 33.9733ZM125.857 35.9333C125.857 33.6933 127.677 32.4333 128.937 32.4333C129.917 32.4333 130.897 32.9933 131.177 33.6933L125.857 35.9333ZM119.277 41.6733H121.937V24.1733H119.277V41.6733ZM115.077 31.4533C114.377 30.7533 113.257 30.0533 111.857 30.0533C108.917 30.0533 106.117 32.7133 106.117 36.0733C106.117 39.4333 108.777 41.9533 111.857 41.9533C113.257 41.9533 114.377 41.2533 114.937 40.5533H115.077V41.3933C115.077 43.6333 113.817 44.8933 111.857 44.8933C110.317 44.8933 109.197 43.7733 108.917 42.7933L106.677 43.7733C107.377 45.3133 109.057 47.2733 111.997 47.2733C115.077 47.2733 117.597 45.4533 117.597 41.1133V30.4733H115.077V31.4533ZM111.997 39.7133C110.177 39.7133 108.637 38.1733 108.637 36.0733C108.637 33.9733 110.177 32.4333 111.997 32.4333C113.817 32.4333 115.217 33.9733 115.217 36.0733C115.217 38.1733 113.817 39.7133 111.997 39.7133ZM146.157 24.1733H139.857V41.6733H142.517V35.0933H146.157C149.097 35.0933 151.897 32.9933 151.897 29.6333C151.897 26.2733 149.097 24.1733 146.157 24.1733ZM146.297 32.5733H142.517V26.5533H146.297C148.257 26.5533 149.377 28.2333 149.377 29.4933C149.237 31.0333 148.117 32.5733 146.297 32.5733ZM162.397 30.0533C160.437 30.0533 158.477 30.8933 157.777 32.7133L160.157 33.6933C160.717 32.7133 161.557 32.4333 162.537 32.4333C163.937 32.4333 165.197 33.2733 165.337 34.6733V34.8133C164.917 34.5333 163.797 34.1133 162.677 34.1133C160.157 34.1133 157.637 35.5133 157.637 38.0333C157.637 40.4133 159.737 41.9533 161.977 41.9533C163.797 41.9533 164.637 41.1133 165.337 40.2733H165.477V41.6733H167.997V34.9533C167.717 31.8733 165.337 30.0533 162.397 30.0533ZM162.117 39.7133C161.277 39.7133 160.017 39.2933 160.017 38.1733C160.017 36.7733 161.557 36.3533 162.817 36.3533C163.937 36.3533 164.497 36.6333 165.197 36.9133C164.917 38.5933 163.517 39.7133 162.117 39.7133ZM176.817 30.4733L173.877 38.0333H173.737L170.657 30.4733H167.857L172.477 41.1133L169.817 46.9933H172.477L179.617 30.4733H176.817ZM153.297 41.6733H155.957V24.1733H153.297V41.6733Z" fill="#1E3668"/>
<path d="M18.2 10.1784C17.78 10.5984 17.5 11.2984 17.5 12.1384V43.0784C17.5 43.9184 17.78 44.6184 18.2 45.0384L18.34 45.1784L35.7 27.8184V27.6784V27.5384L18.2 10.1784Z" fill="url(#paint0_linear_910_4834)"/>
<path d="M41.4326 33.6995L35.6926 27.9595V27.6795V27.5395L41.4326 21.7995L41.5726 21.9395L48.4326 25.8595C50.3926 26.9795 50.3926 28.7995 48.4326 29.9195L41.4326 33.6995Z" fill="url(#paint1_linear_910_4834)"/>
<path d="M41.5726 33.5584L35.6926 27.6784L18.1926 45.1784C18.8926 45.8784 19.8726 45.8784 21.1326 45.3184L41.5726 33.5584Z" fill="url(#paint2_linear_910_4834)"/>
<path d="M41.5726 21.796L21.1326 10.176C19.8726 9.47604 18.8926 9.61604 18.1926 10.316L35.6926 27.676L41.5726 21.796Z" fill="url(#paint3_linear_910_4834)"/>
<path opacity="0.2" d="M41.4495 33.4189L21.1495 44.8989C20.0295 45.5989 19.0495 45.4589 18.3495 44.8989L18.2095 45.0389L18.3495 45.1789C19.0495 45.7389 20.0295 45.8789 21.1495 45.1789L41.4495 33.4189Z" fill="black"/>
<path opacity="0.12" d="M18.2136 44.8991C17.7936 44.4791 17.6536 43.7791 17.6536 42.9391V43.0791C17.6536 43.9191 17.9336 44.6191 18.3536 45.0391V44.8991H18.2136Z" fill="black"/>
<path opacity="0.12" d="M48.4348 29.4984L41.4348 33.4184L41.5748 33.5584L48.4348 29.6384C49.4148 29.0784 49.8348 28.3784 49.8348 27.6784C49.8348 28.3784 49.2748 28.9384 48.4348 29.4984Z" fill="black"/>
<path opacity="0.25" d="M21.1458 10.3189L48.4458 25.8589C49.2858 26.4189 49.8458 26.9789 49.8458 27.6789C49.8458 26.9789 49.4258 26.2789 48.4458 25.7189L21.1458 10.1789C19.1858 9.05892 17.6458 10.0389 17.6458 12.2789V12.4189C17.6458 10.1789 19.1858 9.19892 21.1458 10.3189Z" fill="white"/>
<path d="M62.5764 19.6966H61.5964V16.8966H62.4364C63.1364 16.3366 63.5564 15.2166 63.5564 13.6766V9.47656H69.1564V16.8966H70.1364V19.6966H69.1564V17.8766H62.7164V19.6966H62.5764ZM64.5364 13.6766C64.5364 14.9366 64.2564 16.0566 63.6964 16.8966H67.8964V10.5966H64.3964V13.6766H64.5364Z" fill="#1E3668" stroke="white" stroke-width="0.2" stroke-miterlimit="10"/>
<path d="M78.4044 16.7553C77.5644 17.5953 76.5844 18.0153 75.3244 18.0153C74.0644 18.0153 73.0844 17.5953 72.2444 16.7553C71.4044 15.9153 70.9844 14.9353 70.9844 13.6753C70.9844 12.4153 71.4044 11.4353 72.2444 10.5953C73.0844 9.7553 74.0644 9.3353 75.3244 9.3353C76.5844 9.3353 77.5644 9.7553 78.4044 10.5953C79.2444 11.4353 79.6644 12.4153 79.6644 13.6753C79.6644 14.9353 79.2444 15.9153 78.4044 16.7553ZM73.0844 16.0553C73.6444 16.6153 74.4844 17.0353 75.3244 17.0353C76.1644 17.0353 77.0044 16.7553 77.5644 16.0553C78.1244 15.4953 78.5444 14.6553 78.5444 13.6753C78.5444 12.6953 78.2644 11.8553 77.5644 11.2953C77.0044 10.7353 76.1644 10.3153 75.3244 10.3153C74.4844 10.3153 73.6444 10.5953 73.0844 11.2953C72.5244 11.8553 72.1044 12.6953 72.1044 13.6753C72.1044 14.6553 72.3844 15.4953 73.0844 16.0553Z" fill="#1E3668" stroke="white" stroke-width="0.2" stroke-miterlimit="10"/>
<path d="M85.1225 18.0153C83.8625 18.0153 82.8825 17.5953 82.0425 16.7553C81.2025 15.9153 80.7825 14.9353 80.7825 13.6753C80.7825 12.4153 81.2025 11.4353 82.0425 10.5953C82.8825 9.7553 83.8625 9.3353 85.1225 9.3353C86.3825 9.3353 87.3625 9.7553 88.2025 10.7353L87.5025 11.4353C86.9425 10.7353 86.1025 10.3153 85.1225 10.3153C84.1425 10.3153 83.4425 10.5953 82.7425 11.2953C82.0425 11.8553 81.7625 12.6953 81.7625 13.6753C81.7625 14.6553 82.0425 15.4953 82.7425 16.0553C83.3025 16.6153 84.1425 17.0353 85.1225 17.0353C86.1025 17.0353 86.9425 16.6153 87.6425 15.7753L88.3425 16.4753C87.9225 16.8953 87.5025 17.3153 86.9425 17.5953C86.3825 17.8753 85.8225 18.0153 85.1225 18.0153Z" fill="#1E3668" stroke="white" stroke-width="0.2" stroke-miterlimit="10"/>
<path d="M92.823 17.8766H91.703V10.4566H89.323V9.47656H95.063V10.4566H92.683V17.8766H92.823Z" fill="#1E3668" stroke="white" stroke-width="0.2" stroke-miterlimit="10"/>
<path d="M102.478 9.47656L99.2578 16.6166C98.8378 17.5966 98.1378 18.1566 97.2978 18.1566C97.0178 18.1566 96.7378 18.1566 96.4578 18.0166L96.7378 17.0366C96.8778 17.1766 97.1578 17.1766 97.2978 17.1766C97.5778 17.1766 97.7178 17.1766 97.8578 17.0366C97.9978 16.8966 98.1378 16.7566 98.2778 16.4766L98.5578 15.7766L95.7578 9.61656H97.0178L99.1178 14.3766L101.078 9.61656H102.478V9.47656Z" fill="#1E3668" stroke="white" stroke-width="0.2" stroke-miterlimit="10"/>
<path d="M103.742 17.8766V9.47656H109.762V17.8766H108.642V10.4566H104.722V17.8766H103.742Z" fill="#1E3668" stroke="white" stroke-width="0.2" stroke-miterlimit="10"/>
<path d="M111.727 17.8766V9.47656H112.847V13.1166H117.047V9.47656H118.167V17.8766H117.047V14.0966H112.847V17.8766H111.727Z" fill="#1E3668" stroke="white" stroke-width="0.2" stroke-miterlimit="10"/>
<path d="M126.985 16.7553C126.145 17.5953 125.165 18.0153 123.905 18.0153C122.645 18.0153 121.665 17.5953 120.825 16.7553C119.985 15.9153 119.565 14.9353 119.565 13.6753C119.565 12.4153 119.985 11.4353 120.825 10.5953C121.665 9.7553 122.645 9.3353 123.905 9.3353C125.165 9.3353 126.145 9.7553 126.985 10.5953C127.825 11.4353 128.245 12.4153 128.245 13.6753C128.105 14.9353 127.685 15.9153 126.985 16.7553ZM121.525 16.0553C122.085 16.6153 122.925 17.0353 123.765 17.0353C124.605 17.0353 125.445 16.7553 126.005 16.0553C126.565 15.4953 126.985 14.6553 126.985 13.6753C126.985 12.6953 126.705 11.8553 126.005 11.2953C125.445 10.7353 124.605 10.3153 123.765 10.3153C122.925 10.3153 122.085 10.5953 121.525 11.2953C120.965 11.8553 120.545 12.6953 120.545 13.6753C120.545 14.6553 120.965 15.4953 121.525 16.0553Z" fill="#1E3668" stroke="white" stroke-width="0.2" stroke-miterlimit="10"/>
<path d="M132.581 17.8766V9.47656H135.661C136.361 9.47656 136.921 9.75656 137.341 10.1766C137.761 10.5966 138.041 11.1566 138.041 11.8566C138.041 12.2766 137.901 12.5566 137.761 12.9766C137.621 13.2566 137.341 13.5366 136.921 13.6766C137.341 13.8166 137.621 14.0966 137.901 14.3766C138.181 14.6566 138.321 15.0766 138.321 15.6366C138.321 16.3366 138.041 16.8966 137.621 17.3166C137.061 17.7366 136.501 18.0166 135.801 18.0166H132.581V17.8766ZM133.701 13.1166H135.661C136.081 13.1166 136.361 12.9766 136.641 12.6966C136.921 12.4166 137.061 12.1366 137.061 11.8566C137.061 11.5766 136.921 11.2966 136.641 11.0166C136.361 10.7366 136.081 10.5966 135.661 10.5966H133.701V13.1166ZM133.701 16.8966H135.941C136.361 16.8966 136.641 16.7566 136.921 16.4766C137.201 16.1966 137.341 15.9166 137.341 15.4966C137.341 15.2166 137.201 14.7966 136.921 14.5166C136.641 14.2366 136.361 14.0966 135.941 14.0966H133.841V16.8966H133.701Z" fill="#1E3668" stroke="white" stroke-width="0.2" stroke-miterlimit="10"/>
<defs>
<linearGradient id="paint0_linear_910_4834" x1="34.1596" y1="11.872" x2="10.6642" y2="35.3673" gradientUnits="userSpaceOnUse">
<stop stop-color="#00A0FF"/>
<stop offset="0.00657445" stop-color="#00A1FF"/>
<stop offset="0.2601" stop-color="#00BEFF"/>
<stop offset="0.5122" stop-color="#00D2FF"/>
<stop offset="0.7604" stop-color="#00DFFF"/>
<stop offset="1" stop-color="#00E3FF"/>
</linearGradient>
<linearGradient id="paint1_linear_910_4834" x1="51.0008" y1="27.6815" x2="17.1251" y2="27.6815" gradientUnits="userSpaceOnUse">
<stop stop-color="#FFE000"/>
<stop offset="0.4087" stop-color="#FFBD00"/>
<stop offset="0.7754" stop-color="#FFA500"/>
<stop offset="1" stop-color="#FF9C00"/>
</linearGradient>
<linearGradient id="paint2_linear_910_4834" x1="38.3904" y1="30.8929" x2="6.52881" y2="62.7546" gradientUnits="userSpaceOnUse">
<stop stop-color="#FF3A44"/>
<stop offset="1" stop-color="#C31162"/>
</linearGradient>
<linearGradient id="paint3_linear_910_4834" x1="13.8488" y1="-0.0772833" x2="28.0765" y2="14.1502" gradientUnits="userSpaceOnUse">
<stop stop-color="#32A071"/>
<stop offset="0.0685" stop-color="#2DA771"/>
<stop offset="0.4762" stop-color="#15CF74"/>
<stop offset="0.8009" stop-color="#06E775"/>
<stop offset="1" stop-color="#00F076"/>
</linearGradient>
</defs>
</svg>
