<svg width="196" height="56" viewBox="0 0 196 56" fill="none" xmlns="http://www.w3.org/2000/svg">
<path d="M11.1292 55.9975C11.1292 55.9989 11.1281 56 11.1267 56C10.671 56 10.2509 56 9.79513 55.9849C8.97416 55.9698 8.0044 55.9244 7.05003 55.748C6.15723 55.5968 5.35166 55.3296 4.60766 54.9566C3.84827 54.5836 3.15045 54.0796 2.56038 53.4949C1.95492 52.9001 1.45208 52.2297 1.06212 51.4686C0.682426 50.7377 0.425875 49.9665 0.256551 49.0693C0.0769654 48.1015 0.0307855 47.1186 0.0153924 46.3726C-2.12974e-07 46.0601 0 45.047 0 45.047C0 45.047 0 45.047 0 45.047V10.9945C0 10.9534 0.000312232 10.9127 0.000930232 10.8715C0.00426059 10.65 0.0153924 9.89035 0.0153924 9.63744C0.0307855 8.87633 0.0769654 7.89343 0.256551 6.94078C0.420744 6.04861 0.682426 5.27237 1.06212 4.52637C1.45721 3.78038 1.95492 3.09486 2.55012 2.51521C3.15558 1.92043 3.8534 1.41134 4.61279 1.04338C5.37218 0.655262 6.17262 0.40324 7.05516 0.252025C8.04032 0.0756076 9.04086 0.0302424 9.81565 0.0151209L11.1343 0H184.855L186.205 0.0151209C186.964 0.0302424 187.965 0.0756076 188.935 0.252025C189.827 0.40324 190.633 0.655262 191.392 1.04338C192.152 1.41638 192.85 1.92043 193.44 2.51521C194.045 3.09486 194.548 3.78038 194.953 4.54149C195.333 5.27236 195.59 6.05868 195.728 6.92565C195.908 7.83294 195.954 8.77047 195.985 9.65256C196 10.0558 196 10.4994 196 10.9329C196 11.4671 196 11.9914 196 12.5105V43.4844C196 44.0036 196 44.5278 196 45.047C196 45.5107 196 45.9392 195.985 46.3878C195.954 47.2346 195.908 48.1771 195.743 49.0542C195.59 49.9464 195.333 50.7226 194.938 51.4686C194.543 52.2297 194.045 52.9001 193.45 53.4797C192.844 54.0745 192.147 54.5685 191.387 54.9516C190.628 55.3397 189.843 55.5766 188.929 55.7429C187.99 55.9194 187.021 55.9647 186.184 55.9798C185.758 55.995 185.307 55.995 184.866 55.995H183.275H11.1317C11.1303 55.995 11.1292 55.9961 11.1292 55.9975Z" fill="white"/>
<path d="M69.2165 35.8479L66.2462 27.8203L63.2898 35.8479H69.2165ZM58.8621 41.804L65.0194 25.6658H67.4869L73.6442 41.804H71.3704L69.8991 37.661H62.6348L61.1636 41.804H58.8621ZM77.8274 39.9909V46.4084H75.8396V29.6981H77.8274V31.525C78.2471 30.8053 78.7729 30.2747 79.4094 29.9287C80.0551 29.5735 80.8161 29.3982 81.6971 29.3982C83.1684 29.3982 84.3629 29.9841 85.2807 31.1559C86.2078 32.3185 86.669 33.8549 86.669 35.7649C86.669 37.6657 86.2078 39.1974 85.2807 40.3738C84.3629 41.5364 83.1684 42.1177 81.6971 42.1177C80.8161 42.1177 80.0551 41.947 79.4094 41.601C78.7729 41.2458 78.2471 40.706 77.8274 39.9909ZM84.5982 35.7649C84.5982 34.3024 84.2937 33.1536 83.6849 32.3185C83.0946 31.4835 82.2736 31.0637 81.2174 31.0637C80.1658 31.0637 79.331 31.4835 78.7222 32.3185C78.1226 33.1536 77.8228 34.3024 77.8228 35.7649C77.8228 37.2274 78.1226 38.3761 78.7222 39.2112C79.331 40.037 80.1612 40.4523 81.2174 40.4523C82.269 40.4523 83.0946 40.037 83.6849 39.2112C84.2937 38.3761 84.5982 37.2274 84.5982 35.7649ZM91.89 39.9909V46.4084H89.8883V29.6981H91.89V31.525C92.3097 30.8053 92.8309 30.2747 93.4582 29.9287C94.1039 29.5735 94.8695 29.3982 95.7597 29.3982C97.2217 29.3982 98.4117 29.9841 99.3295 31.1559C100.257 32.3185 100.718 33.8549 100.718 35.7649C100.718 37.6657 100.257 39.1974 99.3295 40.3738C98.4117 41.5364 97.2217 42.1177 95.7597 42.1177C94.8695 42.1177 94.1039 41.947 93.4582 41.601C92.8309 41.2458 92.3051 40.706 91.89 39.9909ZM98.6469 35.7649C98.6469 34.3024 98.3425 33.1536 97.7337 32.3185C97.1433 31.4835 96.3224 31.0637 95.2662 31.0637C94.2146 31.0637 93.3798 31.4835 92.771 32.3185C92.1806 33.1536 91.8854 34.3024 91.8854 35.7649C91.8854 37.2274 92.1806 38.3761 92.771 39.2112C93.3798 40.037 94.21 40.4523 95.2662 40.4523C96.3177 40.4523 97.1433 40.037 97.7337 39.2112C98.3425 38.3761 98.6469 37.2274 98.6469 35.7649ZM115.025 39.5019V35.1697H111.469V33.3704H117.193V40.3092C116.349 40.909 115.417 41.3611 114.398 41.6702C113.388 41.9701 112.308 42.1177 111.155 42.1177C108.628 42.1177 106.654 41.3796 105.229 39.9078C103.813 38.4361 103.102 36.3831 103.102 33.7488C103.102 31.1144 103.813 29.0614 105.229 27.5897C106.654 26.1087 108.632 25.3659 111.155 25.3659C112.207 25.3659 113.203 25.4997 114.139 25.7627C115.094 26.0164 115.97 26.3994 116.768 26.9069V29.2367C115.961 28.5447 115.103 28.0279 114.195 27.6819C113.286 27.3359 112.331 27.1652 111.335 27.1652C109.366 27.1652 107.881 27.7142 106.88 28.8123C105.897 29.9195 105.408 31.5665 105.408 33.7441C105.408 35.9217 105.897 37.5642 106.88 38.6622C107.881 39.7602 109.366 40.3092 111.335 40.3092C112.105 40.3092 112.797 40.2446 113.406 40.1201C114.006 39.9909 114.545 39.7833 115.025 39.5019ZM128.502 35.7095H126.528C124.918 35.7095 123.806 35.8941 123.188 36.2678C122.57 36.6322 122.261 37.2597 122.261 38.1501C122.261 38.8606 122.492 39.4234 122.958 39.8386C123.419 40.2493 124.051 40.4523 124.853 40.4523C125.96 40.4523 126.846 40.0601 127.51 39.2804C128.174 38.5007 128.506 37.4581 128.506 36.157V35.7095H128.502ZM130.49 34.8929V41.804H128.502V39.9632C128.05 40.7014 127.482 41.2458 126.814 41.601C126.131 41.947 125.301 42.1177 124.318 42.1177C123.082 42.1177 122.095 41.7717 121.362 41.0797C120.633 40.3784 120.274 39.4419 120.274 38.27C120.274 36.9183 120.726 35.8894 121.634 35.1882C122.552 34.4961 123.913 34.1501 125.721 34.1501H128.502V33.961C128.502 33.0429 128.202 32.3324 127.602 31.8341C127.003 31.3359 126.159 31.0867 125.07 31.0867C124.378 31.0867 123.71 31.1698 123.055 31.3312C122.4 31.4927 121.768 31.7465 121.159 32.0786V30.2378C121.888 29.9564 122.593 29.7488 123.285 29.6104C123.968 29.4628 124.627 29.3936 125.273 29.3936C127.026 29.3936 128.336 29.8457 129.198 30.7546C130.061 31.6727 130.49 33.0475 130.49 34.8929ZM134.59 41.804V24.9876H136.578V41.804H134.59ZM140.738 41.804V24.9876H142.726V41.804H140.738ZM157.18 35.2482V36.2308H148.039C148.122 37.5918 148.528 38.6391 149.266 39.3635C150.008 40.0739 151.042 40.4246 152.361 40.4246C153.122 40.4246 153.86 40.3323 154.57 40.1524C155.299 39.9632 156.009 39.6818 156.71 39.3081V41.1904C156 41.4903 155.271 41.721 154.515 41.8871C153.772 42.0393 153.011 42.1177 152.241 42.1177C150.313 42.1177 148.786 41.5549 147.647 40.4292C146.522 39.3127 145.959 37.7948 145.959 35.8756C145.959 33.8872 146.494 32.3139 147.569 31.1605C148.639 29.9887 150.087 29.4028 151.899 29.4028C153.527 29.4028 154.81 29.9287 155.755 30.9852C156.705 32.0279 157.18 33.4489 157.18 35.2482ZM148.094 34.6761H155.193C155.174 33.5873 154.865 32.7153 154.265 32.0602C153.675 31.4143 152.891 31.0913 151.909 31.0913C150.802 31.0913 149.912 31.4051 149.238 32.0325C148.574 32.66 148.196 33.5411 148.094 34.6761ZM167.373 29.5089L167.387 31.5527C167.161 31.4235 166.917 31.3312 166.649 31.2667C166.382 31.2021 166.1 31.1698 165.791 31.1698C164.666 31.1698 163.799 31.5389 163.19 32.2724C162.59 33.0014 162.291 34.0486 162.291 35.4189V41.7994H160.303V29.6981H162.291V31.5804C162.71 30.8422 163.255 30.2978 163.928 29.9426C164.601 29.5781 165.413 29.3982 166.368 29.3982C166.506 29.3982 166.658 29.412 166.829 29.4397C166.991 29.4489 167.175 29.472 167.373 29.5089ZM179.826 29.6981L174.513 42.9205C173.95 44.3645 173.401 45.3103 172.866 45.7532C172.331 46.1915 171.617 46.4084 170.726 46.4084H169.131V44.7475H170.302C170.846 44.7475 171.275 44.6137 171.584 44.3507C171.884 44.097 172.216 43.4834 172.58 42.5099L172.949 41.6103L168.042 29.6981H170.154L173.941 39.1558L177.714 29.6981H179.826Z" fill="#1E3668"/>
<path d="M38.2746 8.84344H22.1709C14.575 8.84344 11.7942 11.7199 11.7942 19.6196V36.3674C11.7942 44.2672 14.575 47.1592 22.1709 47.1592H38.2746C45.8555 47.1592 48.6363 44.2672 48.6363 36.3674V19.6196C48.6363 11.7199 45.8705 8.84344 38.2746 8.84344Z" fill="#E14459"/>
<path fill-rule="evenodd" clip-rule="evenodd" d="M28.1542 31.4005L27.695 32.3379H26.6735L28.8507 27.7929H29.7329L31.91 32.3379H30.8575L30.4139 31.4005H28.1542ZM28.5153 30.5767H30.0372L29.2737 28.9528L28.5153 30.5767ZM44.6735 27.7929H45.6795V32.3379H44.6735V27.7929ZM40.7268 31.5141H43.4869V32.3379H39.7363V27.7929H43.3786V28.6309H40.7268V29.5541H42.5583V30.3921H40.7268V31.5141ZM37.8738 27.7929H38.9263L37.2032 32.3521H36.3519L35.2221 29.36L34.0923 32.3521H33.2668L31.5282 27.7929H32.6116L33.7105 30.927L34.8248 27.7929H35.6503L36.7801 30.927L37.8738 27.7929ZM25.1516 27.7929H26.1576V30.3684C26.1576 31.6704 25.3786 32.4231 24.0063 32.4231C22.665 32.4231 21.8859 31.6798 21.8859 30.3968V27.7976H22.892V30.3731C22.892 31.1401 23.2892 31.5473 24.0218 31.5473C24.7544 31.5473 25.1516 31.1401 25.1516 30.4015V27.7929ZM19.4818 27.7929H20.4878V32.3521H19.4818V30.4915H17.2118V32.3521H16.2058V27.7929H17.2118V29.6251H19.4818V27.7929ZM30.9401 22.0027C27.4474 22.0027 24.6305 19.4036 24.6305 16.2126H25.5128C25.5128 18.9538 27.953 21.179 30.9401 21.179C33.9272 21.179 36.3674 18.9538 36.3674 16.2126H37.2496C37.2496 19.3988 34.4173 22.0027 30.9401 22.0027Z" fill="white"/>
<path d="M58.9441 16.4903C58.9441 15.1261 59.3361 14.059 60.1201 13.2891C60.9041 12.5154 61.9161 12.1286 63.1561 12.1286C63.9681 12.1286 64.7001 12.3098 65.3521 12.6724C66.0041 13.0349 66.5001 13.5414 66.84 14.1917C67.184 14.8383 67.356 15.5728 67.356 16.395C67.356 17.2285 67.176 17.9742 66.816 18.632C66.4561 19.2898 65.9461 19.7888 65.2861 20.1289C64.6261 20.4653 63.9141 20.6335 63.1501 20.6335C62.3221 20.6335 61.5821 20.4466 60.9301 20.0728C60.2781 19.6991 59.7841 19.1889 59.4481 18.5423C59.1121 17.8957 58.9441 17.2117 58.9441 16.4903ZM60.1441 16.5072C60.1441 17.4976 60.4281 18.2788 60.9961 18.8506C61.5681 19.4188 62.2841 19.7028 63.1441 19.7028C64.0201 19.7028 64.7401 19.415 65.3041 18.8394C65.8721 18.2638 66.1561 17.4472 66.1561 16.3894C66.1561 15.7204 66.0341 15.1373 65.7901 14.6402C65.5501 14.1394 65.1961 13.7525 64.7281 13.4797C64.2641 13.2031 63.7421 13.0648 63.1621 13.0648C62.3381 13.0648 61.6281 13.3302 61.0321 13.8609C60.4401 14.3879 60.1441 15.27 60.1441 16.5072Z" fill="#1E3668"/>
<path d="M71.1 20.4933V13.2442H68.202V12.2743H75.174V13.2442H72.264V20.4933H71.1Z" fill="#1E3668"/>
<path d="M76.392 12.2743H77.556V15.8736C78.088 15.8736 78.462 15.7783 78.678 15.5877C78.894 15.3934 79.17 14.9299 79.506 14.1973C79.75 13.6591 79.95 13.2797 80.106 13.0592C80.266 12.835 80.492 12.6481 80.784 12.4986C81.076 12.3453 81.398 12.2687 81.75 12.2687C82.198 12.2687 82.434 12.2725 82.458 12.2799V13.2218C82.418 13.2218 82.34 13.2199 82.224 13.2162C82.096 13.2125 82.018 13.2106 81.99 13.2106C81.618 13.2106 81.342 13.2947 81.162 13.4629C80.978 13.6311 80.768 13.9899 80.532 14.5393C80.236 15.2345 79.986 15.6737 79.782 15.8568C79.578 16.0362 79.334 16.1801 79.05 16.2885C79.618 16.4343 80.178 16.9239 80.73 17.7574L82.542 20.4933H81.096L79.626 18.262C79.222 17.6453 78.884 17.2229 78.612 16.9949C78.34 16.7632 77.988 16.6473 77.556 16.6473V20.4933H76.392V12.2743Z" fill="#1E3668"/>
<path d="M83.538 20.4933V12.2743H86.8559C87.4399 12.2743 87.8859 12.3005 88.1939 12.3528C88.6259 12.4201 88.9879 12.549 89.2799 12.7397C89.5719 12.9265 89.8059 13.19 89.9819 13.5302C90.1619 13.8703 90.2519 14.244 90.2519 14.6514C90.2519 15.3504 90.0139 15.9428 89.5379 16.4287C89.0619 16.9108 88.2019 17.1519 86.9579 17.1519H84.702V20.4933H83.538ZM84.702 16.182H86.9759C87.7279 16.182 88.2619 16.0512 88.5779 15.7895C88.8939 15.5279 89.0519 15.1598 89.0519 14.6851C89.0519 14.3412 88.9579 14.0478 88.7699 13.8049C88.5859 13.5582 88.3419 13.3956 88.0379 13.3171C87.8419 13.2685 87.4799 13.2442 86.9519 13.2442H84.702V16.182Z" fill="#1E3668"/>
<path d="M91.1039 16.4903C91.1039 15.1261 91.4959 14.059 92.2799 13.2891C93.0639 12.5154 94.0759 12.1286 95.3159 12.1286C96.1279 12.1286 96.8599 12.3098 97.5119 12.6724C98.1639 13.0349 98.6599 13.5414 98.9999 14.1917C99.3439 14.8383 99.5159 15.5728 99.5159 16.395C99.5159 17.2285 99.3359 17.9742 98.9759 18.632C98.6159 19.2898 98.1059 19.7888 97.4459 20.1289C96.7859 20.4653 96.0739 20.6335 95.3099 20.6335C94.4819 20.6335 93.7419 20.4466 93.0899 20.0728C92.4379 19.6991 91.9439 19.1889 91.6079 18.5423C91.2719 17.8957 91.1039 17.2117 91.1039 16.4903ZM92.3039 16.5072C92.3039 17.4976 92.5879 18.2788 93.1559 18.8506C93.7279 19.4188 94.4439 19.7028 95.3039 19.7028C96.1799 19.7028 96.8999 19.415 97.4639 18.8394C98.0319 18.2638 98.3159 17.4472 98.3159 16.3894C98.3159 15.7204 98.1939 15.1373 97.9499 14.6402C97.7099 14.1394 97.3559 13.7525 96.8879 13.4797C96.4239 13.2031 95.9019 13.0648 95.3219 13.0648C94.4979 13.0648 93.7879 13.3302 93.1919 13.8609C92.5999 14.3879 92.3039 15.27 92.3039 16.5072Z" fill="#1E3668"/>
<path d="M101.04 12.2743H102.096V18.7834L106.776 12.2743H107.946V20.4933H106.89V14.0011L102.204 20.4933H101.04V12.2743ZM105.414 10.3177H106.152C106.092 10.7849 105.908 11.1437 105.6 11.3941C105.296 11.6445 104.89 11.7697 104.382 11.7697C103.87 11.7697 103.46 11.6464 103.152 11.3997C102.848 11.1493 102.666 10.7886 102.606 10.3177H103.344C103.4 10.5718 103.51 10.7625 103.674 10.8895C103.842 11.0129 104.066 11.0746 104.346 11.0746C104.67 11.0746 104.914 11.0148 105.078 10.8951C105.246 10.7718 105.358 10.5793 105.414 10.3177Z" fill="#1E3668"/>
<path d="M112.092 20.4933V13.2442H109.194V12.2743H116.166V13.2442H113.256V20.4933H112.092Z" fill="#1E3668"/>
<path d="M117.39 20.4933V12.2743H123.75V13.2442H118.554V15.7615H123.42V16.7258H118.554V19.5234H123.954V20.4933H117.39Z" fill="#1E3668"/>
<path d="M128.934 20.4933V12.2743H132.234C132.906 12.2743 133.444 12.3584 133.848 12.5266C134.256 12.6911 134.574 12.9471 134.802 13.2947C135.034 13.6386 135.15 13.9992 135.15 14.3767C135.15 14.7281 135.048 15.0588 134.844 15.3691C134.64 15.6793 134.332 15.9297 133.92 16.1203C134.452 16.2661 134.86 16.5146 135.144 16.866C135.432 17.2173 135.576 17.6322 135.576 18.1106C135.576 18.4956 135.488 18.8544 135.312 19.187C135.14 19.5159 134.926 19.7701 134.67 19.9495C134.414 20.1289 134.092 20.2653 133.704 20.3588C133.32 20.4485 132.848 20.4933 132.288 20.4933H128.934ZM130.098 15.7279H132C132.516 15.7279 132.886 15.6961 133.11 15.6326C133.406 15.5503 133.628 15.4139 133.776 15.2233C133.928 15.0327 134.004 14.7935 134.004 14.5057C134.004 14.2328 133.934 13.9936 133.794 13.7881C133.654 13.5787 133.454 13.4367 133.194 13.362C132.934 13.2835 132.488 13.2442 131.856 13.2442H130.098V15.7279ZM130.098 19.5234H132.288C132.664 19.5234 132.928 19.5103 133.08 19.4842C133.348 19.4393 133.572 19.3646 133.752 19.2599C133.932 19.1553 134.08 19.0039 134.196 18.8058C134.312 18.604 134.37 18.3722 134.37 18.1106C134.37 17.8041 134.286 17.5387 134.118 17.3145C133.95 17.0865 133.716 16.9276 133.416 16.8379C133.12 16.7445 132.692 16.6978 132.132 16.6978H130.098V19.5234Z" fill="#1E3668"/>
</svg>
