<svg width="56" height="56" viewBox="0 0 56 56" fill="none" xmlns="http://www.w3.org/2000/svg">
<g clip-path="url(#clip0_804_10372)">
<path d="M6.99479 46.751V15.7177C6.99465 15.2387 7.14191 14.7713 7.41658 14.3789C7.69126 13.9865 8.08003 13.6882 8.53013 13.5244L31.0958 5.32035C31.2721 5.2562 31.4612 5.23549 31.6472 5.26C31.8332 5.2845 32.0105 5.35348 32.1641 5.4611C32.3178 5.56871 32.4432 5.71179 32.5298 5.8782C32.6163 6.04461 32.6615 6.22944 32.6615 6.41702V17.974L47.3988 22.8857C47.8636 23.0405 48.2679 23.3377 48.5544 23.7351C48.8408 24.1326 48.9949 24.6101 48.9948 25.1V46.751H53.6615V51.4177H2.32812V46.751H6.99479ZM11.6615 46.751H27.9948V11.4127L11.6615 17.3534V46.751ZM44.3281 46.751V26.7824L32.6615 22.8927V46.751H44.3281Z" fill="#008DF4"/>
</g>
<defs>
<clipPath id="clip0_804_10372">
<rect width="56" height="56" fill="white"/>
</clipPath>
</defs>
</svg>
