<svg width="56" height="56" viewBox="0 0 56 56" fill="none" xmlns="http://www.w3.org/2000/svg">
<g clip-path="url(#clip0_919_4174)">
<path d="M7.37284 10.4276C10.0797 7.72026 13.7102 6.13676 17.5359 5.99481C21.3616 5.85286 25.0995 7.16296 27.9995 9.66223C30.8969 7.16713 34.6299 5.8585 38.451 5.99834C42.2721 6.13818 45.8994 7.71616 48.6067 10.4164C51.314 13.1166 52.9015 16.7398 53.0513 20.5605C53.2012 24.3813 51.9023 28.1176 49.4148 31.0216L31.2965 49.1982C30.4641 50.0309 29.3476 50.5182 28.171 50.5624C26.9944 50.6065 25.8446 50.2042 24.9522 49.4362L24.6955 49.2006L6.5795 31.0216C4.09331 28.1201 2.79386 24.3872 2.94094 20.5691C3.08802 16.751 4.6708 13.1291 7.37284 10.4276ZM10.6722 13.7269C8.76407 15.6355 7.66416 18.2056 7.60073 20.9037C7.53729 23.6018 8.51521 26.2207 10.3315 28.2169L10.6722 28.5762L27.9972 45.9012L40.3708 33.5252L32.1225 25.2769L29.6492 27.7502C28.9993 28.4004 28.2276 28.9163 27.3784 29.2683C26.5291 29.6203 25.6188 29.8016 24.6995 29.8018C22.8428 29.8023 21.062 29.0651 19.7488 27.7526C18.4357 26.44 17.6977 24.6595 17.6972 22.8029C17.6968 20.9462 18.4339 19.1654 19.7465 17.8522L24.6512 12.9452C22.6993 11.3874 20.2561 10.5762 17.7601 10.657C15.2641 10.7378 12.8785 11.7054 11.0315 13.3862L10.6722 13.7269ZM30.4728 20.3256C30.9104 19.8881 31.5038 19.6424 32.1225 19.6424C32.7412 19.6424 33.3346 19.8881 33.7722 20.3256L43.6702 30.2236L45.3222 28.5762C47.2622 26.6375 48.3667 24.0167 48.3994 21.2742C48.4322 18.5317 47.3905 15.8853 45.4972 13.9009C43.604 11.9164 41.0094 10.7516 38.2684 10.6554C35.5274 10.5592 32.8575 11.5394 30.8298 13.3862L30.4728 13.7269L23.0482 21.1516C22.6437 21.5557 22.4018 22.0943 22.3682 22.6651C22.3347 23.2359 22.5119 23.7991 22.8662 24.2479L23.0482 24.4509C23.4523 24.8553 23.9909 25.0973 24.5617 25.1308C25.1325 25.1644 25.6957 24.9872 26.1445 24.6329L26.3475 24.4509L30.4728 20.3256Z" fill="#008DF4"/>
</g>
<defs>
<clipPath id="clip0_919_4174">
<rect width="56" height="56" fill="white"/>
</clipPath>
</defs>
</svg>
