<svg width="20" height="20" viewBox="0 0 20 20" fill="none" xmlns="http://www.w3.org/2000/svg">
<g clip-path="url(#clip0_804_10447)">
<path d="M12.5 3.33268H4.16667V16.666H15.8333V6.66602H12.5V3.33268ZM2.5 2.49268C2.5 2.03602 2.8725 1.66602 3.3325 1.66602H13.3333L17.5 5.83268V17.4935C17.5008 17.603 17.48 17.7115 17.4388 17.8129C17.3976 17.9143 17.3369 18.0066 17.2601 18.0845C17.1832 18.1624 17.0918 18.2244 16.991 18.267C16.8902 18.3096 16.7819 18.3319 16.6725 18.3327H3.3275C3.10865 18.3312 2.89918 18.2436 2.74435 18.0889C2.58951 17.9342 2.50175 17.7249 2.5 17.506V2.49268ZM9.16667 9.16602H10.8333V14.166H9.16667V9.16602ZM9.16667 5.83268H10.8333V7.49935H9.16667V5.83268Z" fill="#008DF4"/>
</g>
<defs>
<clipPath id="clip0_804_10447">
<rect width="20" height="20" fill="white"/>
</clipPath>
</defs>
</svg>
