<svg width="20" height="24" viewBox="0 0 20 24" fill="none" xmlns="http://www.w3.org/2000/svg">
<g clip-path="url(#clip0_804_17935)">
<path d="M19.1004 8.1816C18.962 8.2896 16.5179 9.6744 16.5179 12.7536C16.5179 16.3152 19.6279 17.5752 19.721 17.6064C19.7067 17.6832 19.2269 19.332 18.0813 21.012C17.0597 22.4904 15.9928 23.9664 14.3698 23.9664C12.7468 23.9664 12.3291 23.0184 10.4554 23.0184C8.62953 23.0184 7.98032 23.9976 6.49573 23.9976C5.01113 23.9976 3.97526 22.6296 2.78425 20.9496C1.40468 18.9768 0.290039 15.912 0.290039 13.0032C0.290039 8.3376 3.30696 5.8632 6.27614 5.8632C7.85382 5.8632 9.16894 6.9048 10.1595 6.9048C11.1023 6.9048 12.5725 5.8008 14.3674 5.8008C15.0476 5.8008 17.4917 5.8632 19.1004 8.1816ZM13.5153 3.8256C14.2576 2.94 14.7827 1.7112 14.7827 0.4824C14.7827 0.312 14.7684 0.1392 14.7374 0C13.5296 0.0456 12.0928 0.8088 11.2264 1.8192C10.5461 2.5968 9.91124 3.8256 9.91124 5.0712C9.91124 5.2584 9.94227 5.4456 9.95659 5.5056C10.033 5.52 10.1571 5.5368 10.2812 5.5368C11.3648 5.5368 12.7277 4.8072 13.5153 3.8256Z" fill="white"/>
</g>
<defs>
<clipPath id="clip0_804_17935">
<rect width="19.4286" height="24" fill="white" transform="translate(0.290039)"/>
</clipPath>
</defs>
</svg>
