<svg width="88" height="88" viewBox="0 0 88 88" fill="none" xmlns="http://www.w3.org/2000/svg">
<path d="M43.8669 85.8724C66.919 85.8724 85.6065 67.1728 85.6065 44.1056C85.6065 21.0384 66.919 2.33879 43.8669 2.33879C20.8147 2.33879 2.1272 21.0384 2.1272 44.1056C2.1272 67.1728 20.8147 85.8724 43.8669 85.8724Z" fill="white"/>
<path fill-rule="evenodd" clip-rule="evenodd" d="M43.8676 4.46637C21.9919 4.46637 4.25585 22.212 4.25585 44.1053C4.25585 65.9985 21.9919 83.7441 43.8676 83.7441C65.7432 83.7441 83.4793 65.9985 83.4793 44.1053C83.4793 22.212 65.7432 4.46637 43.8676 4.46637ZM0 44.1053C0 19.8642 19.6389 0.210526 43.8676 0.210526C68.0963 0.210526 87.7352 19.8642 87.7352 44.1053C87.7352 68.3464 68.0963 88 43.8676 88C19.6389 88 0 68.3464 0 44.1053Z" fill="url(#paint0_linear_910_4298)"/>
<path d="M23.513 17.5935L15.7544 25.3521L38.4339 48.0334V74.9964H49.4079V48.0041L72.0599 25.3521L64.3014 17.5935L43.9063 37.9886L23.513 17.5935Z" fill="#FF0000"/>
<defs>
<linearGradient id="paint0_linear_910_4298" x1="-3025.64" y1="-1397.2" x2="-3025.64" y2="-1545.38" gradientUnits="userSpaceOnUse">
<stop stop-color="#D3D3D3"/>
<stop offset="1" stop-color="#FCF9F9"/>
</linearGradient>
</defs>
</svg>
