<svg width="89" height="88" viewBox="0 0 89 88" fill="none" xmlns="http://www.w3.org/2000/svg">
<path d="M29.6638 68.8443C24.8091 63.1117 21.6662 54.6488 21.4555 45.1412C21.4555 45.1148 21.4555 43.0957 21.4555 43.0693C21.6662 33.5617 24.8091 25.0988 29.6638 19.3662C35.9671 11.193 45.3255 6.00463 55.7724 6.00463C62.1986 6.00463 68.221 7.97112 73.3654 11.3861C65.64 4.46832 55.4564 0.25442 44.2808 0.210526C44.2281 0.210526 44.1666 0.210526 44.114 0.210526C19.8753 0.210526 0.219238 19.8666 0.219238 44.1053C0.219238 67.6504 18.7516 86.8587 42.0246 87.9473C42.7181 87.9824 43.4117 88 44.114 88C55.351 88 65.6048 83.7773 73.3654 76.8332C68.221 80.2394 62.2074 82.2059 55.7724 82.2059C45.3255 82.2059 35.9671 77.0175 29.6638 68.8443Z" fill="url(#paint0_linear_910_4324)"/>
<path d="M29.6636 19.3656C33.6931 14.6074 38.8902 11.7455 44.579 11.7455C57.3612 11.7455 67.7115 26.2307 67.7115 44.1047C67.7115 61.9786 57.3524 76.4639 44.579 76.4639C38.899 76.4639 33.6931 73.5932 29.6636 68.8437C35.9669 77.0169 45.3252 82.2053 55.7722 82.2053C62.1984 82.2053 68.2207 80.2388 73.3652 76.8326C82.3548 68.7911 88.0085 57.1063 88.0085 44.1047C88.0085 31.103 82.3548 19.4183 73.3652 11.3855C68.2207 7.97052 62.2071 6.00403 55.7722 6.00403C45.3252 6.00403 35.9669 11.1924 29.6636 19.3656Z" fill="url(#paint1_linear_910_4324)"/>
<defs>
<linearGradient id="paint0_linear_910_4324" x1="36.7943" y1="1.64185" x2="36.7943" y2="86.7223" gradientUnits="userSpaceOnUse">
<stop offset="0.3" stop-color="#FF1B2D"/>
<stop offset="0.4381" stop-color="#FA1A2C"/>
<stop offset="0.5939" stop-color="#ED1528"/>
<stop offset="0.7581" stop-color="#D60E21"/>
<stop offset="0.9272" stop-color="#B70519"/>
<stop offset="1" stop-color="#A70014"/>
</linearGradient>
<linearGradient id="paint1_linear_910_4324" x1="58.8368" y1="6.65593" x2="58.8368" y2="81.9054" gradientUnits="userSpaceOnUse">
<stop stop-color="#9C0000"/>
<stop offset="0.7" stop-color="#FF4B4B"/>
</linearGradient>
</defs>
</svg>
