<svg width="194" height="56" viewBox="0 0 194 56" fill="none" xmlns="http://www.w3.org/2000/svg">
<path d="M12.4358 55.9971C11.9354 55.9971 11.4471 55.9914 10.9506 55.9814C9.92215 55.9695 8.89606 55.8897 7.8808 55.7426C6.93411 55.5973 6.01703 55.327 5.15979 54.9405C4.31042 54.5573 3.53573 54.0548 2.86538 53.4522C2.18534 52.8568 1.61917 52.1662 1.18932 51.4078C0.754723 50.6445 0.45396 49.8263 0.297501 48.9817C0.12854 48.0742 0.0371251 47.1566 0.0240445 46.2367C0.0150461 45.9699 0.00364361 45.166 0.000712198 44.9525C0.000226672 44.9172 0 44.8823 0 44.847V11.1387C0 11.1005 0.00026548 11.0628 0.000830424 11.0245C0.00404349 10.807 0.0158897 10.0267 0.0241267 9.77175C0.0366512 8.85337 0.127535 7.93717 0.29599 7.03108C0.452737 6.1842 0.753734 5.36364 1.18856 4.59781C1.61684 3.83993 2.17986 3.14881 2.85581 2.55124C3.531 1.948 4.30817 1.4429 5.15899 1.05437C6.01425 0.669174 6.9296 0.400738 7.87437 0.258055C8.89298 0.109558 9.92263 0.0292738 10.9547 0.0178752L12.4366 0H181.222L182.722 0.0185925C183.744 0.0294248 184.765 0.108993 185.774 0.25662C186.728 0.401093 187.653 0.671402 188.518 1.05866C190.223 1.84166 191.61 3.08044 192.484 4.60138C192.912 5.36193 193.209 6.17579 193.363 7.01536C193.534 7.92888 193.629 8.85228 193.649 9.77819C193.654 10.1928 193.654 10.6381 193.654 11.0813C193.667 11.6303 193.667 12.1529 193.667 12.6797V43.3188C193.667 43.8506 193.667 44.3696 193.654 44.8928C193.654 45.3689 193.654 45.805 193.647 46.2539C193.628 47.1633 193.534 48.0702 193.367 48.9674C193.213 49.818 192.914 50.6426 192.48 51.4122C192.047 52.1624 191.484 52.847 190.812 53.4408C190.141 54.0466 189.365 54.552 188.513 54.9377C187.651 55.3272 186.727 55.5985 185.774 55.7426C184.759 55.8904 183.732 55.9703 182.704 55.9814C182.223 55.9914 181.719 55.9971 181.23 55.9971L179.45 56L12.4358 55.9971Z" fill="white"/>
<path d="M46.1629 27.6705C46.1787 26.4486 46.5032 25.2505 47.1064 24.1877C47.7096 23.1249 48.5718 22.232 49.6129 21.592C48.9515 20.6475 48.0791 19.8702 47.0648 19.3218C46.0505 18.7735 44.9223 18.4692 43.7699 18.4332C41.3115 18.1751 38.9282 19.9042 37.6755 19.9042C36.3985 19.9042 34.4697 18.4588 32.3928 18.5015C31.0493 18.5449 29.74 18.9356 28.5924 19.6355C27.4448 20.3353 26.4981 21.3205 25.8445 22.4951C23.0132 27.3971 25.1251 34.6014 27.8373 38.5638C29.1942 40.5041 30.7801 42.6714 32.8552 42.5945C34.8859 42.5103 35.6443 41.2997 38.0954 41.2997C40.5238 41.2997 41.2353 42.5945 43.3525 42.5457C45.5315 42.5103 46.9043 40.5968 48.2137 38.6381C49.1886 37.2556 49.9389 35.7276 50.4366 34.1108C49.1707 33.5753 48.0904 32.6791 47.3304 31.5339C46.5704 30.3886 46.1644 29.045 46.1629 27.6705Z" fill="#1E3668"/>
<path d="M42.1591 15.8289C43.3472 14.4027 43.9325 12.5696 43.7908 10.7188C41.9757 10.9094 40.299 11.7769 39.0949 13.1484C38.5062 13.8184 38.0553 14.5979 37.768 15.4422C37.4807 16.2866 37.3627 17.1793 37.4206 18.0694C38.3284 18.0787 39.2266 17.8819 40.0474 17.4939C40.8682 17.1058 41.5902 16.5365 42.1591 15.8289Z" fill="#1E3668"/>
<path d="M71.8386 37.6835H64.909L63.2449 42.5973H60.3098L66.8734 24.4176H69.9229L76.4865 42.5973H73.5013L71.8386 37.6835ZM65.6267 35.416H71.1196L68.4118 27.4414H68.336L65.6267 35.416Z" fill="#1E3668"/>
<path d="M90.6596 35.9696C90.6596 40.0884 88.4551 42.7347 85.1282 42.7347C84.2855 42.7788 83.4474 42.5847 82.7098 42.1746C81.9723 41.7644 81.3651 41.1549 80.9579 40.4158H80.895V46.9808H78.1743V29.3416H80.8078V31.5462H80.8578C81.2838 30.8106 81.9012 30.2042 82.6444 29.7916C83.3875 29.379 84.2286 29.1755 85.0782 29.2029C88.4421 29.203 90.6596 31.8621 90.6596 35.9696ZM87.8632 35.9696C87.8632 33.2861 86.4764 31.5219 84.3605 31.5219C82.2818 31.5219 80.8836 33.3232 80.8836 35.9696C80.8836 38.6402 82.2818 40.4287 84.3605 40.4287C86.4764 40.4287 87.8632 38.6773 87.8632 35.9696Z" fill="#1E3668"/>
<path d="M105.261 35.9695C105.261 40.0884 103.057 42.7347 99.7298 42.7347C98.8871 42.7788 98.0489 42.5847 97.3114 42.1745C96.5739 41.7644 95.9667 41.1549 95.5595 40.4158H95.4965V46.9808H92.7759V29.3416H95.4093V31.5462H95.4593C95.8853 30.8106 96.5027 30.2042 97.2459 29.7916C97.989 29.379 98.8301 29.1755 99.6797 29.2029C103.044 29.2029 105.261 31.8621 105.261 35.9695ZM102.465 35.9695C102.465 33.2861 101.078 31.5219 98.9621 31.5219C96.8833 31.5219 95.4851 33.3232 95.4851 35.9695C95.4851 38.6402 96.8833 40.4287 98.9621 40.4287C101.078 40.4287 102.465 38.6773 102.465 35.9695H102.465Z" fill="#1E3668"/>
<path d="M114.884 37.532C115.085 39.3348 116.837 40.5185 119.23 40.5185C121.523 40.5185 123.173 39.3348 123.173 37.7092C123.173 36.2982 122.178 35.4533 119.822 34.8742L117.466 34.3066C114.128 33.5003 112.578 31.9391 112.578 29.4058C112.578 26.2691 115.311 24.1146 119.193 24.1146C123.034 24.1146 125.668 26.2691 125.756 29.4058H123.01C122.846 27.5915 121.346 26.4964 119.154 26.4964C116.963 26.4964 115.463 27.6044 115.463 29.217C115.463 30.5023 116.421 31.2586 118.764 31.8376L120.767 32.3294C124.497 33.2115 126.047 34.7098 126.047 37.3689C126.047 40.7701 123.337 42.9003 119.028 42.9003C114.997 42.9003 112.275 40.8201 112.099 37.5319L114.884 37.532Z" fill="#1E3668"/>
<path d="M131.917 26.2064V29.343H134.438V31.4975H131.917V38.8046C131.917 39.9397 132.422 40.4687 133.53 40.4687C133.829 40.4635 134.128 40.4425 134.425 40.4057V42.5474C133.927 42.6405 133.42 42.6826 132.914 42.6732C130.23 42.6732 129.184 41.6653 129.184 39.0947V31.4975H127.256V29.343H129.183V26.2064H131.917Z" fill="#1E3668"/>
<path d="M135.906 35.9732C135.906 31.8028 138.362 29.1823 142.192 29.1823C146.035 29.1823 148.48 31.8028 148.48 35.9732C148.48 40.1549 146.048 42.7641 142.192 42.7641C138.338 42.7641 135.906 40.1549 135.906 35.9732ZM145.708 35.9732C145.708 33.1124 144.397 31.424 142.192 31.424C139.988 31.424 138.678 33.1253 138.678 35.9732C138.678 38.8453 139.988 40.5209 142.192 40.5209C144.397 40.5209 145.708 38.8453 145.708 35.9732H145.708Z" fill="#1E3668"/>
<path d="M150.717 29.3415H153.312V31.5975H153.375C153.551 30.8929 153.963 30.2702 154.544 29.8341C155.125 29.398 155.838 29.1751 156.563 29.2028C156.877 29.2017 157.189 29.2358 157.495 29.3043V31.8491C157.1 31.7282 156.687 31.6726 156.273 31.6847C155.878 31.6687 155.484 31.7384 155.118 31.889C154.752 32.0396 154.423 32.2676 154.154 32.5573C153.885 32.847 153.681 33.1916 153.558 33.5673C153.434 33.9431 153.393 34.3411 153.438 34.7342V42.5959H150.717L150.717 29.3415Z" fill="#1E3668"/>
<path d="M170.038 38.7067C169.672 41.1128 167.329 42.7641 164.331 42.7641C160.475 42.7641 158.082 40.1806 158.082 36.0361C158.082 31.8786 160.488 29.1823 164.217 29.1823C167.884 29.1823 170.19 31.7013 170.19 35.7201V36.6522H160.828V36.8167C160.785 37.3044 160.846 37.7959 161.008 38.2582C161.169 38.7206 161.427 39.1434 161.764 39.4985C162.101 39.8536 162.51 40.1328 162.964 40.3177C163.417 40.5026 163.905 40.589 164.394 40.5709C165.037 40.6312 165.682 40.4823 166.234 40.1464C166.785 39.8105 167.213 39.3055 167.455 38.7067L170.038 38.7067ZM160.841 34.7508H167.468C167.492 34.3122 167.426 33.8733 167.272 33.4616C167.119 33.0499 166.883 32.6743 166.577 32.3585C166.272 32.0426 165.905 31.7932 165.499 31.626C165.092 31.4588 164.656 31.3774 164.217 31.3868C163.774 31.3841 163.334 31.4693 162.925 31.6373C162.515 31.8052 162.142 32.0527 161.828 32.3655C161.514 32.6782 161.265 33.0501 161.096 33.4595C160.927 33.8689 160.84 34.3078 160.841 34.7508V34.7508Z" fill="#1E3668"/>
<path d="M63.6907 14.428H64.8587C65.0598 14.453 65.2638 14.4361 65.4581 14.3784C65.6523 14.3206 65.8324 14.2233 65.9872 14.0924C66.1419 13.9616 66.2679 13.8002 66.3571 13.6183C66.4463 13.4363 66.4969 13.2379 66.5057 13.0355C66.5057 12.2299 65.8995 11.7095 64.8716 11.7095C64.6656 11.6807 64.4559 11.6935 64.2549 11.7471C64.0539 11.8006 63.8657 11.894 63.7014 12.0215C63.5371 12.149 63.4 12.3082 63.2982 12.4896C63.1964 12.671 63.132 12.8709 63.1088 13.0776H61.8263C61.8484 12.7024 61.9475 12.3358 62.1174 12.0005C62.2873 11.6652 62.5244 11.3685 62.814 11.1289C63.1035 10.8892 63.4393 10.7117 63.8004 10.6075C64.1615 10.5032 64.5402 10.4744 64.913 10.5228C66.6329 10.5228 67.8439 11.4857 67.8439 12.8718C67.8479 13.3361 67.6925 13.7878 67.4037 14.1514C67.1149 14.515 66.7101 14.7686 66.2569 14.8697V14.9727C66.7942 14.9965 67.3002 15.2321 67.6643 15.6279C68.0283 16.0237 68.2209 16.5476 68.1998 17.085C68.1601 17.4713 68.0436 17.8458 67.8572 18.1866C67.6708 18.5273 67.4183 18.8274 67.1145 19.0693C66.8106 19.3111 66.4615 19.4899 66.0877 19.5951C65.7138 19.7003 65.3227 19.7299 64.9373 19.682C64.5511 19.7346 64.1583 19.709 63.7822 19.6066C63.4061 19.5041 63.0545 19.3271 62.7483 19.0858C62.4421 18.8446 62.1876 18.5442 62 18.2026C61.8124 17.8609 61.6955 17.485 61.6562 17.0972H62.9587C63.0373 17.9328 63.805 18.4718 64.9373 18.4718C66.0696 18.4718 66.8088 17.8664 66.8088 17.0129C66.8088 16.1472 66.1125 15.6139 64.8959 15.6139H63.6907V14.428Z" fill="#1E3668"/>
<path d="M69.6863 17.6019C69.6863 16.4152 70.5712 15.7312 72.1381 15.6339L73.9238 15.531V14.962C73.9238 14.2657 73.4649 13.8726 72.5742 13.8726C71.8479 13.8726 71.3461 14.1392 71.2003 14.6053H69.9408C70.0737 13.473 71.1403 12.7467 72.6357 12.7467C74.2884 12.7467 75.2205 13.5695 75.2205 14.962V19.4661H73.9667V18.5397H73.8638C73.6548 18.872 73.3614 19.1429 73.0136 19.3248C72.6657 19.5066 72.2758 19.5929 71.8837 19.5748C71.6069 19.6035 71.3272 19.574 71.0626 19.4881C70.798 19.4022 70.5543 19.2617 70.3473 19.0758C70.1402 18.89 69.9744 18.6628 69.8606 18.4089C69.7468 18.155 69.6874 17.8801 69.6863 17.6019ZM73.9238 17.0386V16.4874L72.3139 16.5904C71.4061 16.6511 70.9944 16.9599 70.9944 17.5411C70.9944 18.1344 71.509 18.4797 72.2168 18.4797C72.4241 18.5007 72.6336 18.4797 72.8327 18.4181C73.0318 18.3565 73.2165 18.2555 73.3758 18.121C73.5351 17.9866 73.6657 17.8214 73.7598 17.6355C73.8539 17.4495 73.9097 17.2465 73.9238 17.0386Z" fill="#1E3668"/>
<path d="M78.6709 13.974V19.4711H77.3699V12.8789H81.7104V13.974L78.6709 13.974Z" fill="#1E3668"/>
<path d="M89.587 16.1705C89.587 18.2649 88.5277 19.5781 86.8635 19.5781C86.455 19.606 86.0471 19.5166 85.6876 19.3204C85.3282 19.1243 85.0324 18.8295 84.8348 18.4708H84.7319V21.6611H83.4309V12.8773H84.6833V13.9667H84.7805C84.9816 13.5955 85.2813 13.2871 85.6466 13.0756C86.012 12.864 86.4286 12.7575 86.8507 12.7679C88.5277 12.7679 89.587 14.0753 89.587 16.1705ZM88.2489 16.1705C88.2489 14.778 87.5898 13.9366 86.4875 13.9366C85.3925 13.9366 84.7076 14.7959 84.7076 16.1762C84.7076 17.5501 85.3924 18.4101 86.4818 18.4101C87.5898 18.4101 88.2489 17.5687 88.2489 16.1705Z" fill="#1E3668"/>
<path d="M91.3217 21.8322V20.712C91.4624 20.7299 91.6043 20.7381 91.7462 20.7363C92.0234 20.7569 92.2984 20.6743 92.5184 20.5045C92.7385 20.3347 92.8881 20.0897 92.9385 19.8164L93.0358 19.4954L90.6497 12.8789H92.0664L93.7192 18.115H93.8221L95.4691 12.8789H96.8487L94.3912 19.7434C93.8279 21.3475 93.2045 21.8622 91.8607 21.8622C91.752 21.8622 91.4432 21.85 91.3217 21.8322Z" fill="#1E3668"/>
<path d="M97.8684 17.6011H99.1637C99.2909 18.1823 99.8357 18.4853 100.598 18.4853C101.464 18.4853 101.996 18.1036 101.996 17.5103C101.996 16.8749 101.518 16.5718 100.598 16.5718H99.6112V15.561H100.58C101.367 15.561 101.767 15.2586 101.767 14.7075C101.767 14.2236 101.38 13.854 100.58 13.854C99.8528 13.854 99.321 14.1628 99.2366 14.6832H97.9828C98.0765 14.0852 98.4012 13.5479 98.887 13.1869C99.3728 12.8258 99.9809 12.6698 100.58 12.7524C102.147 12.7524 103.044 13.4608 103.044 14.5746C103.051 14.8847 102.952 15.1879 102.762 15.4336C102.573 15.6792 102.305 15.8524 102.003 15.9242V16.0271C102.362 16.0734 102.692 16.2501 102.93 16.5235C103.168 16.7969 103.297 17.1481 103.293 17.5104C103.293 18.7635 102.226 19.5927 100.598 19.5927C99.158 19.5926 97.9885 18.9328 97.8684 17.6011Z" fill="#1E3668"/>
<path d="M105.169 19.4711V12.8789H106.459V17.4131H106.562L109.6 12.8789H110.889V19.4711H109.6V14.9126H109.503L106.459 19.4711L105.169 19.4711Z" fill="#1E3668"/>
<path d="M117.979 13.974H115.903V19.471H114.601V13.974H112.525V12.8789H117.979V13.974Z" fill="#1E3668"/>
<path d="M124.991 17.6863C124.814 18.2888 124.43 18.8098 123.908 19.1584C123.386 19.507 122.757 19.661 122.133 19.5935C121.699 19.605 121.267 19.5218 120.868 19.3497C120.469 19.1777 120.113 18.9209 119.823 18.5971C119.533 18.2734 119.317 17.8905 119.19 17.4749C119.064 17.0594 119.029 16.6213 119.088 16.1909C119.03 15.7592 119.066 15.3201 119.192 14.9034C119.319 14.4866 119.534 14.1019 119.822 13.7753C120.11 13.4488 120.465 13.1879 120.863 13.0105C121.261 12.833 121.692 12.7431 122.127 12.7468C123.962 12.7468 125.07 14 125.07 16.0701V16.524H120.415V16.597C120.394 16.8389 120.424 17.0825 120.503 17.3121C120.583 17.5417 120.709 17.7522 120.874 17.93C121.04 18.1079 121.24 18.2492 121.464 18.3449C121.687 18.4405 121.927 18.4884 122.17 18.4855C122.481 18.5227 122.796 18.4665 123.075 18.3242C123.354 18.1819 123.585 17.9599 123.737 17.6863L124.991 17.6863ZM120.415 15.5619H123.743C123.759 15.3407 123.729 15.1186 123.655 14.9097C123.58 14.7009 123.463 14.5099 123.31 14.3491C123.158 14.1883 122.973 14.0612 122.768 13.9759C122.564 13.8907 122.343 13.8492 122.122 13.8541C121.897 13.8511 121.673 13.8932 121.465 13.9779C121.256 14.0627 121.067 14.1883 120.908 14.3475C120.748 14.5067 120.623 14.6962 120.538 14.9048C120.454 15.1134 120.412 15.3368 120.415 15.5619H120.415Z" fill="#1E3668"/>
<path d="M130.508 12.8789H133.48C134.77 12.8789 135.526 13.5323 135.526 14.5552C135.528 14.8797 135.418 15.1952 135.216 15.4486C135.013 15.7021 134.729 15.8783 134.412 15.9476V16.0506C134.797 16.0749 135.158 16.2462 135.42 16.529C135.683 16.8118 135.827 17.1846 135.822 17.5703C135.822 18.7205 134.957 19.4711 133.51 19.4711H130.508V12.8789ZM131.797 13.8775V15.5845H133.087C133.873 15.5845 134.249 15.2822 134.249 14.7246C134.249 14.2106 133.922 13.8775 133.231 13.8775L131.797 13.8775ZM131.797 16.541V18.4725H133.34C134.109 18.4725 134.521 18.1329 134.521 17.5096C134.521 16.8498 134.055 16.541 133.177 16.541L131.797 16.541Z" fill="#1E3668"/>
</svg>
