<svg width="56" height="56" viewBox="0 0 56 56" fill="none" xmlns="http://www.w3.org/2000/svg">
<path d="M7 22.75H17.5V45.5H7C6.53587 45.5 6.09075 45.3156 5.76256 44.9874C5.43437 44.6592 5.25 44.2141 5.25 43.75V24.5C5.25 24.0359 5.43437 23.5908 5.76256 23.2626C6.09075 22.9344 6.53587 22.75 7 22.75V22.75Z" stroke="#008DF4" stroke-width="5" stroke-linecap="round" stroke-linejoin="round"/>
<path d="M17.5 22.75L26.25 5.25C28.1065 5.25 29.887 5.9875 31.1997 7.30025C32.5125 8.61301 33.25 10.3935 33.25 12.25V17.5H46.7906C47.2869 17.4988 47.7777 17.6038 48.23 17.8079C48.6824 18.0121 49.0858 18.3107 49.4132 18.6836C49.7406 19.0566 49.9843 19.4953 50.1281 19.9703C50.2719 20.4453 50.3124 20.9456 50.2469 21.4375L47.6219 42.4375C47.5157 43.2805 47.1064 44.0561 46.4705 44.6196C45.8345 45.1831 45.0153 45.496 44.1656 45.5H17.5" stroke="#008DF4" stroke-width="5" stroke-linecap="round" stroke-linejoin="round"/>
</svg>
