<svg width="194" height="56" viewBox="0 0 194 56" fill="none" xmlns="http://www.w3.org/2000/svg">
<path d="M10.9918 55.9975C10.9918 55.9989 10.9907 56 10.9893 56C10.5392 56 10.1244 56 9.6742 55.9849C8.86337 55.9698 7.90558 55.9244 6.96299 55.748C6.08121 55.5968 5.28559 55.3296 4.55077 54.9566C3.80076 54.5836 3.11155 54.0796 2.52877 53.4949C1.93078 52.9001 1.43415 52.2297 1.04901 51.4686C0.674001 50.7377 0.420617 49.9665 0.253384 49.0693C0.0760152 48.1015 0.0304055 47.1186 0.0152024 46.3726C-2.29526e-07 46.0601 0 45.047 0 45.047C0 45.047 0 45.047 0 45.047V10.9938C0 10.9532 0.000303904 10.913 0.00090686 10.8723C0.00418141 10.6518 0.0152024 9.89065 0.0152024 9.63744C0.0304055 8.87633 0.0760152 7.89343 0.253384 6.94078C0.41555 6.04861 0.674001 5.27237 1.04901 4.52637C1.43922 3.78038 1.93078 3.09486 2.51863 2.51521C3.11662 1.92043 3.80583 1.41134 4.55584 1.04338C5.30586 0.655262 6.09642 0.40324 6.96806 0.252025C7.94105 0.0756076 8.92925 0.0302424 9.69447 0.0151209L10.9969 0H182.573L183.906 0.0151209C184.656 0.0302424 185.644 0.0756076 186.602 0.252025C187.484 0.40324 188.279 0.655262 189.029 1.04338C189.779 1.41638 190.469 1.92043 191.051 2.51521C191.649 3.09486 192.146 3.78038 192.546 4.54149C192.921 5.27236 193.175 6.05868 193.312 6.92565C193.489 7.83294 193.535 8.77047 193.565 9.65256C193.58 10.0558 193.58 10.4994 193.58 10.9329C193.58 11.4671 193.58 11.9914 193.58 12.5105V43.4844C193.58 44.0036 193.58 44.5278 193.58 45.047C193.58 45.5107 193.58 45.9392 193.565 46.3878C193.535 47.2346 193.489 48.1771 193.327 49.0542C193.175 49.9464 192.921 50.7226 192.531 51.4686C192.141 52.2297 191.649 52.9001 191.062 53.4797C190.464 54.0745 189.774 54.5685 189.024 54.9516C188.274 55.3397 187.499 55.5766 186.597 55.7429C185.67 55.9194 184.712 55.9647 183.886 55.9798C183.465 55.995 183.019 55.995 182.583 55.995H181.012H10.9943C10.9929 55.995 10.9918 55.9961 10.9918 55.9975Z" fill="white"/>
<path fill-rule="evenodd" clip-rule="evenodd" d="M27.8747 49.9546C17.7715 49.9546 12.7199 49.9546 9.58129 46.8087C6.44263 43.6627 6.44263 38.5994 6.44263 28.4728L6.44263 26.6827C6.44263 16.5561 6.44263 11.4928 9.58128 8.3469C12.7199 5.20117 17.7715 5.20117 27.8747 5.20117L29.6607 5.20117C39.7639 5.20117 44.8154 5.20117 47.9541 8.3469C51.0928 11.4928 51.0928 16.5561 51.0928 26.6827V28.4728C51.0928 38.5994 51.0928 43.6627 47.9541 46.8087C44.8154 49.9546 39.7639 49.9546 29.6607 49.9546H27.8747Z" fill="#2B71F6"/>
<path d="M32.2598 32.7824C31.0568 32.4812 30.2134 31.4026 30.2134 30.1655V15.5912C30.2134 14.1861 31.538 13.1555 32.9044 13.4977L41.5574 15.6642C42.7604 15.9654 43.604 17.044 43.604 18.2811V32.8554C43.604 34.2606 42.2793 35.2911 40.9129 34.949L32.2598 32.7824Z" fill="white"/>
<path d="M15.9723 39.493C14.7693 39.1918 13.9258 38.1133 13.9258 36.8762V22.3019C13.9258 20.8967 15.2505 19.8662 16.6169 20.2083L25.2699 22.3749C26.4729 22.6761 27.3163 23.7547 27.3163 24.9918V39.5661C27.3163 40.9712 25.9917 42.0018 24.6253 41.6596L15.9723 39.493Z" fill="white"/>
<path d="M24.1206 36.1366C22.9177 35.8354 22.0742 34.7568 22.0742 33.5197V18.9454C22.0742 17.5403 23.3989 16.5097 24.7653 16.8519L33.4183 19.0185C34.6212 19.3197 35.4648 20.3982 35.4648 21.6353V36.2096C35.4648 37.6148 34.1401 38.6452 32.7737 38.3032L24.1206 36.1366Z" fill="white"/>
<path d="M29.7732 37.5584C29.3943 37.4616 29.1246 37.1257 29.1113 36.7341L28.7349 25.6037C28.6259 24.1307 27.535 22.9591 26.395 22.6141C26.3309 22.5947 26.2626 22.6208 26.2248 22.676C26.1861 22.7321 26.2011 22.8098 26.2548 22.8514C26.5363 23.0698 27.3112 23.7827 27.3112 25.0122L27.3089 36.9324L29.7732 37.5584Z" fill="#2B71F6"/>
<path d="M37.9398 34.2C37.5611 34.105 37.2911 33.7701 37.2779 33.3792L36.9014 22.2497C36.7925 20.7765 35.7016 19.605 34.5614 19.26C34.4975 19.2406 34.4292 19.2667 34.3912 19.3219C34.3527 19.378 34.3675 19.4556 34.4213 19.4974C34.7029 19.7158 35.4777 20.4286 35.4777 21.6582L35.4754 33.5824L37.9398 34.2Z" fill="#2B71F6"/>
<path d="M75.9084 31.6429C79.0134 30.8494 81.0537 28.4691 81.0537 25.3542C81.0537 21.5046 77.9784 18.8011 73.661 18.8011H65.9727V39.5184H69.5211V31.9073H72.0346L77.5349 39.5184H81.7043L75.9084 31.6429ZM73.661 22.0336C75.8789 22.0336 77.4166 23.3854 77.4166 25.3542C77.4166 27.3231 75.8789 28.6749 73.661 28.6749H69.5211V22.0336H73.661Z" fill="#1E3668"/>
<path d="M89.6854 39.8103C91.5484 39.8103 93.2635 38.8406 94.2394 37.2244L94.9195 39.5165H97.4626V24.2357H94.0619V33.0809C94.0619 35.2554 92.6129 36.7836 90.6317 36.7836C88.6801 36.7836 87.3198 35.2554 87.3198 33.0809V24.2357H83.9192V33.4629C83.9192 37.1362 86.4032 39.8103 89.6854 39.8103Z" fill="#1E3668"/>
<path d="M108.323 39.8098C112.256 39.8098 115.509 37.5765 115.509 33.8738C115.509 29.7303 112.108 28.5256 109.181 27.5265C106.904 26.7624 104.923 26.0572 104.923 24.2058C104.923 22.5895 106.431 21.7374 108.205 21.7374C110.068 21.7374 111.399 22.7071 112.138 24.3527L115.509 23.7944C114.444 20.562 111.754 18.5049 108.087 18.5049C104.302 18.5049 101.285 20.6795 101.285 24.3822C101.285 28.555 104.686 29.701 107.614 30.6707C109.861 31.4054 111.872 32.1106 111.872 33.9914C111.872 35.637 110.364 36.5773 108.353 36.5773C106.046 36.5773 104.804 35.4901 103.71 33.5212L100.28 34.109C101.285 37.6058 104.479 39.8098 108.323 39.8098Z" fill="#1E3668"/>
<path d="M124.753 36.5765C123.6 36.5765 123.038 36.0182 123.038 34.8721V27.1731H127.621V24.2344H123.038V19.8265H120.495L119.637 24.2344H117.124V27.1731H119.637V34.8721C119.637 37.8695 121.382 39.5152 124.753 39.5152H127.621L127.917 36.5765H124.753Z" fill="#1E3668"/>
<path d="M137.64 39.8102C142.461 39.8102 145.861 36.5189 145.861 31.876C145.861 27.233 142.461 23.9417 137.64 23.9417C132.82 23.9417 129.419 27.233 129.419 31.876C129.419 36.5189 132.82 39.8102 137.64 39.8102ZM137.64 36.7247C134.86 36.7247 132.968 34.7558 132.968 31.876C132.968 28.9961 134.86 27.0272 137.64 27.0272C140.42 27.0272 142.312 28.9961 142.312 31.876C142.312 34.7558 140.42 36.7247 137.64 36.7247Z" fill="#1E3668"/>
<path d="M152.207 39.5165V30.4949C152.207 28.5555 153.153 27.4682 155.223 27.4682H157.174L156.879 24.2357H156.228C154.425 24.2357 153.035 24.7353 152 26.4397L151.349 24.2357H148.806V39.5165H152.207Z" fill="#1E3668"/>
<path d="M173.925 31.6997C173.925 27.2918 170.613 23.9417 165.941 23.9417C161.269 23.9417 157.957 27.2624 157.957 31.876C157.957 36.4895 161.269 39.8102 165.941 39.8102C169.134 39.8102 172.151 38.3116 173.304 35.4023L170.11 34.8733C169.371 35.9606 167.951 36.7247 166.148 36.7247C163.546 36.7247 161.831 35.1378 161.506 32.787H173.866C173.895 32.4636 173.925 32.111 173.925 31.6997ZM165.941 26.8803C168.07 26.8803 169.667 28.2321 170.229 30.1422H161.712C162.274 28.1733 163.87 26.8803 165.941 26.8803Z" fill="#1E3668"/>
</svg>
