<svg width="89" height="88" viewBox="0 0 89 88" fill="none" xmlns="http://www.w3.org/2000/svg">
<g clip-path="url(#clip0_910_4310)">
<path d="M44.2192 65.9903C56.3695 65.9903 66.2192 56.1405 66.2192 43.9903C66.2192 31.84 56.3695 21.9903 44.2192 21.9903C32.069 21.9903 22.2192 31.84 22.2192 43.9903C22.2192 56.1405 32.069 65.9903 44.2192 65.9903Z" fill="white"/>
<path d="M44.2193 22H82.3182C78.4575 15.3109 72.9038 9.75608 66.2154 5.89417C59.527 2.03227 51.9397 -0.00062054 44.2164 -8.16705e-05C36.4931 0.000457199 28.9061 2.0344 22.2182 5.89724C15.5304 9.76008 9.97739 15.3156 6.11768 22.0053L25.1671 55L25.1842 54.9956C23.2463 51.6539 22.2237 47.8604 22.2194 43.9975C22.215 40.1346 23.2291 36.3389 25.1594 32.9929C27.0897 29.6468 29.8681 26.8688 33.2143 24.9389C36.5605 23.0089 40.3564 21.9952 44.2193 22Z" fill="url(#paint0_linear_910_4310)"/>
<path d="M44.2192 61.4167C53.8381 61.4167 61.6358 53.619 61.6358 44C61.6358 34.381 53.8381 26.5833 44.2192 26.5833C34.6002 26.5833 26.8025 34.381 26.8025 44C26.8025 53.619 34.6002 61.4167 44.2192 61.4167Z" fill="#1A73E8"/>
<path d="M63.27 55.0053L44.2205 88C51.9438 88.0011 59.5312 85.9687 66.2198 82.1073C72.9085 78.2459 78.4626 72.6915 82.3238 66.0027C86.1849 59.3139 88.2169 51.7264 88.2156 44.0031C88.2142 36.2799 86.1794 28.6931 82.3159 22.0057H44.2172L44.2126 22.0227C48.0755 22.0153 51.8721 23.0264 55.2197 24.954C58.5673 26.8817 61.3475 29.6578 63.2801 33.0025C65.2126 36.3473 66.2293 40.1424 66.2275 44.0053C66.2257 47.8682 65.2056 51.6624 63.27 55.0053Z" fill="url(#paint1_linear_910_4310)"/>
<path d="M25.1684 55.0057L6.119 22.011C2.25639 28.699 0.2227 36.2861 0.222412 44.0094C0.222124 51.7326 2.25525 59.3199 6.11736 66.0082C9.97947 72.6964 15.5344 78.25 22.2237 82.1105C28.9129 85.9709 36.5006 88.0022 44.2239 88L63.2733 55.0053L63.2611 54.9929C61.336 58.3419 58.5621 61.1243 55.2189 63.0595C51.8757 64.9947 48.0814 66.0143 44.2185 66.0156C40.3556 66.0169 36.5606 64.9999 33.2161 63.0669C29.8716 61.1339 27.0957 58.3534 25.1684 55.0057Z" fill="url(#paint2_linear_910_4310)"/>
</g>
<defs>
<linearGradient id="paint0_linear_910_4310" x1="6.11768" y1="27.5" x2="82.3182" y2="27.5" gradientUnits="userSpaceOnUse">
<stop stop-color="#D93025"/>
<stop offset="1" stop-color="#EA4335"/>
</linearGradient>
<linearGradient id="paint1_linear_910_4310" x1="38.2094" y1="87.4117" x2="76.3097" y2="21.4201" gradientUnits="userSpaceOnUse">
<stop stop-color="#FCC934"/>
<stop offset="1" stop-color="#FBBC04"/>
</linearGradient>
<linearGradient id="paint2_linear_910_4310" x1="48.9825" y1="85.2528" x2="10.8822" y2="19.261" gradientUnits="userSpaceOnUse">
<stop stop-color="#1E8E3E"/>
<stop offset="1" stop-color="#34A853"/>
</linearGradient>
<clipPath id="clip0_910_4310">
<rect width="88" height="88" fill="white" transform="translate(0.219238)"/>
</clipPath>
</defs>
</svg>
