<svg width="90" height="88" viewBox="0 0 90 88" fill="none" xmlns="http://www.w3.org/2000/svg">
<g clip-path="url(#clip0_910_4302)">
<path d="M88.7351 44C88.7351 49.7782 87.597 55.4997 85.3858 60.8381C83.1746 66.1764 79.9336 71.0269 75.8478 75.1127C71.762 79.1985 66.9115 82.4395 61.5732 84.6507C56.2348 86.8619 50.5132 88 44.7351 88C33.0656 88 21.874 83.3643 13.6224 75.1127C5.3708 66.8611 0.735107 55.6695 0.735107 44C0.735107 32.3305 5.3708 21.1389 13.6224 12.8873C21.874 4.63571 33.0656 2.98023e-06 44.7351 0C50.5132 -3.68915e-07 56.2348 1.1381 61.5732 3.3493C66.9115 5.56051 71.762 8.80153 75.8478 12.8873C79.9336 16.9731 83.1746 21.8236 85.3858 27.1619C87.597 32.5003 88.7351 38.2218 88.7351 44Z" fill="#EFEFF5"/>
<path d="M85.7351 44C85.7351 54.8739 81.4682 65.3024 73.8729 72.9914C66.2777 80.6804 55.9764 85 45.2351 85C34.4938 85 24.1925 80.6804 16.5973 72.9914C9.00206 65.3024 4.73511 54.8739 4.73511 44C4.73511 33.1261 9.00206 22.6976 16.5973 15.0086C24.1925 7.31963 34.4938 3 45.2351 3C55.9764 3 66.2777 7.31963 73.8729 15.0086C81.4682 22.6976 85.7351 33.1261 85.7351 44Z" fill="url(#paint0_radial_910_4302)"/>
<path d="M45.2351 6C44.9067 6 44.6423 6.2641 44.6423 6.59219V13.4229C44.6423 13.751 44.9067 14.0151 45.2351 14.0151C45.5635 14.0151 45.8279 13.751 45.8279 13.4229V6.59219C45.8279 6.2641 45.5635 6 45.2351 6ZM41.3572 6.24486C41.3179 6.24064 41.2775 6.24064 41.2366 6.24535C40.91 6.2794 40.6745 6.5695 40.7086 6.89581L41.0074 9.75349C41.0415 10.0798 41.3319 10.3151 41.6585 10.281C41.9852 10.247 42.2207 9.95687 42.1866 9.63056L41.888 6.77289C41.8581 6.48736 41.632 6.27152 41.3572 6.24486H41.3572ZM49.1401 6.24767C48.8652 6.27412 48.6391 6.48995 48.609 6.77544L48.3082 9.63288C48.2738 9.95916 48.5093 10.2495 48.836 10.2838C49.1625 10.3182 49.4529 10.0831 49.4873 9.75682L49.7882 6.89915C49.8225 6.57286 49.587 6.28273 49.2604 6.24843C49.2195 6.24421 49.1794 6.24421 49.1401 6.2477L49.1401 6.24767ZM37.3736 6.82197C37.3342 6.82228 37.2941 6.82619 37.2539 6.83463C36.9326 6.90258 36.7287 7.21574 36.7967 7.53671L38.2128 14.2192C38.2808 14.5402 38.5943 14.7439 38.9155 14.6759C39.2368 14.608 39.4407 14.2951 39.3727 13.9741L37.9567 7.29136C37.8971 7.0105 37.6498 6.81945 37.3737 6.8216L37.3736 6.82197ZM53.1234 6.82759C52.8473 6.82478 52.5998 7.01603 52.5402 7.29684L51.1193 13.9785C51.051 14.2995 51.2547 14.6127 51.5759 14.6809C51.8972 14.7491 52.2107 14.5456 52.2789 14.2247L53.6998 7.54294C53.7681 7.22203 53.5644 6.90877 53.2432 6.84061C53.203 6.83217 53.1629 6.82795 53.1235 6.82795L53.1234 6.82759ZM33.5719 7.89285C33.4952 7.88582 33.4159 7.89426 33.3379 7.92015C33.0255 8.02159 32.8557 8.35418 32.9572 8.6662L33.8459 11.3989C33.9475 11.7109 34.2806 11.8806 34.593 11.7792C34.9053 11.6778 35.0749 11.3449 34.9734 11.0329L34.0846 8.30021C34.0086 8.06618 33.8022 7.91235 33.5719 7.8928V7.89285ZM56.9036 7.89426C56.6734 7.91382 56.4671 8.06765 56.3909 8.30166L55.5017 11.0341C55.4001 11.3461 55.5698 11.679 55.8821 11.7804C56.1944 11.8818 56.5276 11.7123 56.6291 11.4004L57.5184 8.66766C57.6199 8.35564 57.4502 8.02278 57.138 7.92136C57.0599 7.89603 56.9804 7.88773 56.9036 7.89421V7.89426ZM29.8125 9.26725C29.7354 9.26866 29.6575 9.28554 29.5825 9.31889C29.2826 9.45212 29.1482 9.80066 29.2816 10.1005L32.0587 16.3423C32.1921 16.6421 32.5409 16.7762 32.841 16.6429C33.141 16.5097 33.2755 16.1611 33.1421 15.8613L30.3648 9.61946C30.2648 9.39459 30.0435 9.26279 29.8125 9.26727V9.26725ZM60.7056 9.28822C60.4746 9.28399 60.2531 9.41498 60.1527 9.63964L57.3672 15.8777C57.2334 16.1773 57.3671 16.5261 57.667 16.6598C57.967 16.7934 58.3161 16.6598 58.4499 16.3602L61.2354 10.1222C61.3692 9.82257 61.2355 9.47377 60.9356 9.3401C60.8606 9.30676 60.7826 9.28988 60.7056 9.28819V9.28822ZM26.3229 11.1118C26.2091 11.1034 26.0919 11.1287 25.9852 11.1903C25.7008 11.3544 25.6041 11.7151 25.7683 11.9992L27.2063 14.4876C27.3705 14.7717 27.7316 14.8684 28.016 14.7043C28.3004 14.5403 28.3972 14.1795 28.233 13.8954L26.7949 11.4071C26.6923 11.2295 26.5126 11.1251 26.3229 11.1119V11.1118ZM64.1473 11.1118C63.9576 11.1245 63.7781 11.2294 63.6755 11.407L62.2372 13.8954C62.073 14.1795 62.17 14.5402 62.4544 14.7043C62.7388 14.8683 63.0999 14.7717 63.2641 14.4876L64.7022 11.9992C64.8664 11.7151 64.7696 11.3543 64.4852 11.1903C64.3786 11.1288 64.2611 11.1039 64.1473 11.1118V11.1118ZM22.9344 13.2232C22.8204 13.2274 22.7061 13.264 22.6064 13.3362C22.3406 13.5288 22.2819 13.8977 22.4748 14.1632L26.4895 19.6923C26.6824 19.9578 27.0519 20.0165 27.3177 19.824C27.5835 19.6313 27.6423 19.2624 27.4494 18.9969L23.4343 13.4678C23.3138 13.3019 23.1244 13.2168 22.9344 13.2232V13.2232ZM67.5782 13.2533C67.3882 13.2463 67.1988 13.3314 67.0781 13.4971L63.0556 19.0208C62.8624 19.2861 62.9207 19.6551 63.1863 19.8481C63.4519 20.0411 63.8213 19.983 64.0145 19.7178L68.0367 14.1942C68.2299 13.9289 68.1714 13.5599 67.906 13.3668C67.8064 13.2945 67.6923 13.2574 67.5783 13.2533L67.5782 13.2533ZM19.9056 15.7608C19.7543 15.7524 19.5999 15.8029 19.4779 15.9126C19.2338 16.1321 19.2142 16.5051 19.4339 16.7489L21.3583 18.8846C21.578 19.1284 21.9513 19.148 22.1954 18.9285C22.4395 18.709 22.4591 18.3358 22.2393 18.0919L20.3152 15.9565C20.2054 15.8346 20.0569 15.7687 19.9056 15.7607V15.7608ZM70.5689 15.765C70.4176 15.7735 70.2692 15.8389 70.1593 15.9608L68.235 18.096C68.0152 18.3398 68.0347 18.713 68.2788 18.9325C68.5228 19.152 68.8961 19.1323 69.1159 18.8886L71.0405 16.7535C71.2602 16.5096 71.2405 16.1364 70.9965 15.9169C70.8745 15.8072 70.7204 15.7572 70.569 15.7651L70.5689 15.765ZM17.0027 18.5465C16.8514 18.555 16.7032 18.6204 16.5934 18.7423C16.3736 18.9862 16.3933 19.3591 16.6373 19.5786L21.7189 24.1487C21.963 24.3682 22.3363 24.3486 22.556 24.1048C22.7757 23.861 22.7563 23.488 22.5122 23.2685L17.4303 18.6984C17.3082 18.5887 17.1539 18.5387 17.0026 18.5466L17.0027 18.5465ZM73.4859 18.5665C73.3346 18.5581 73.18 18.6084 73.0579 18.7181L67.9732 23.2846C67.729 23.5039 67.7089 23.8769 67.9285 24.1209C68.148 24.3649 68.5216 24.3847 68.7658 24.1653L73.8507 19.5988C74.095 19.3795 74.1148 19.0065 73.8952 18.7625C73.7854 18.6406 73.6372 18.5746 73.4859 18.5665H73.4859ZM14.5887 21.6476C14.3986 21.6406 14.2091 21.7261 14.0885 21.8919C13.8955 22.1574 13.954 22.5262 14.2198 22.719L16.5466 24.4079C16.8122 24.6008 17.1814 24.5425 17.3744 24.2771C17.5675 24.0116 17.509 23.6426 17.2434 23.4497L14.9167 21.7608C14.8171 21.6885 14.7027 21.6517 14.5887 21.6476L14.5887 21.6476ZM75.8977 21.6691C75.7836 21.6733 75.6694 21.7098 75.5697 21.7821L73.2419 23.4695C72.9761 23.6621 72.9173 24.0312 73.1101 24.2968C73.3029 24.5624 73.6721 24.6208 73.9379 24.4282L76.266 22.7408C76.5318 22.5482 76.5904 22.1793 76.3976 21.9138C76.277 21.7478 76.0877 21.6627 75.8977 21.6692V21.6691ZM12.3327 24.9554C12.143 24.9681 11.9636 25.073 11.861 25.2506C11.6968 25.5347 11.7935 25.8955 12.0779 26.0595L17.9992 29.4749C18.2836 29.6389 18.6447 29.5423 18.8089 29.2582C18.9731 28.974 18.8763 28.6133 18.5919 28.4492L12.6707 25.0339C12.5641 24.9724 12.4465 24.9475 12.3327 24.9554V24.9554ZM78.1375 24.9554C78.0237 24.947 77.9062 24.9723 77.7995 25.0339L71.8783 28.4493C71.5939 28.6133 71.4971 28.9741 71.6613 29.2582C71.8255 29.5424 72.1866 29.639 72.471 29.475L78.3926 26.0596C78.677 25.8956 78.7737 25.5348 78.6095 25.2507C78.5068 25.0731 78.3272 24.9687 78.1375 24.9555V24.9554ZM10.6271 28.4812C10.3961 28.4756 10.1746 28.6077 10.0742 28.8324C9.94044 29.132 10.0741 29.4808 10.3741 29.6145L13.0009 30.785C13.3009 30.9187 13.65 30.7851 13.7838 30.4855C13.9176 30.1859 13.7836 29.837 13.4837 29.7034L10.8571 28.5328C10.7822 28.4993 10.7041 28.4827 10.6271 28.4812ZM79.8546 28.5055C79.7776 28.5069 79.6994 28.5238 79.6244 28.5572L76.997 29.7257C76.697 29.8592 76.5628 30.2078 76.6964 30.5075C76.83 30.8072 77.1792 30.9413 77.4792 30.8078L80.1066 29.639C80.4066 29.5057 80.5405 29.1569 80.407 28.8572C80.3068 28.6324 80.0856 28.501 79.8546 28.5055ZM9.10693 32.1663C8.87669 32.1855 8.67028 32.3392 8.59398 32.5732C8.4923 32.8851 8.66158 33.2181 8.97389 33.3197L15.4749 35.4359C15.7871 35.5375 16.1204 35.3683 16.2221 35.0564C16.3238 34.7445 16.1545 34.4115 15.8422 34.3098L9.34128 32.1936C9.26326 32.1681 9.18366 32.1598 9.10693 32.1663V32.1663ZM81.372 32.1916C81.2952 32.1846 81.216 32.193 81.1379 32.2189L74.6354 34.3305C74.3231 34.432 74.1535 34.7648 74.255 35.0768C74.3565 35.3888 74.6897 35.5583 75.002 35.4569L81.5042 33.3453C81.8166 33.2438 81.9864 32.911 81.8849 32.5989C81.8087 32.3649 81.6022 32.2111 81.372 32.1916V32.1916ZM8.15984 36.0346C7.88368 36.0317 7.63602 36.2233 7.57628 36.5041C7.50798 36.825 7.71176 37.1382 8.03294 37.2064L10.8463 37.8037C11.1676 37.8719 11.4811 37.6684 11.5494 37.3475C11.6177 37.0266 11.4139 36.7134 11.0927 36.6451L8.27956 36.0478C8.23942 36.0394 8.19928 36.0352 8.15985 36.0352L8.15984 36.0346ZM82.3117 36.0402C82.2722 36.0405 82.2324 36.0458 82.1922 36.0529L79.3788 36.6499C79.0576 36.7181 78.854 37.0311 78.9222 37.352C78.9905 37.6729 79.304 37.8766 79.6252 37.8085L82.4383 37.2114C82.7596 37.1432 82.9635 36.83 82.8953 36.5091C82.8355 36.2283 82.5878 36.0372 82.3117 36.0396L82.3117 36.0402ZM7.44299 39.9256C7.16809 39.9519 6.94183 40.1674 6.91163 40.4528C6.87713 40.7791 7.11206 41.0696 7.43864 41.1041L14.2382 41.8223C14.5647 41.8567 14.8555 41.6218 14.89 41.2955C14.9245 40.9692 14.6893 40.6787 14.3628 40.6443L7.56324 39.9261C7.5224 39.9219 7.48226 39.9219 7.44297 39.9256L7.44299 39.9256ZM83.0336 39.9766C82.9943 39.9724 82.9539 39.9724 82.9131 39.9771L76.1128 40.6861C75.7861 40.7202 75.5507 41.0103 75.5847 41.3366C75.6188 41.6629 75.9092 41.8982 76.2358 41.8641L83.0361 41.1551C83.3627 41.1211 83.5982 40.831 83.5642 40.5047C83.5343 40.2191 83.3084 40.0033 83.0336 39.9766L83.0336 39.9766ZM7.32786 43.9086C6.99945 43.9086 6.73511 44.1726 6.73511 44.5007C6.73511 44.8288 6.99945 45.0929 7.32786 45.0929H10.2039C10.5323 45.0929 10.797 44.8288 10.797 44.5007C10.797 44.1726 10.5323 43.9086 10.2039 43.9086H7.32786ZM80.2663 43.9086C79.9379 43.9086 79.6735 44.1726 79.6735 44.5007C79.6735 44.8288 79.9379 45.0929 80.2663 45.0929H83.1423C83.4707 45.0929 83.7351 44.8288 83.7351 44.5007C83.7351 44.1726 83.4707 43.9086 83.1423 43.9086H80.2663ZM14.3548 47.1368C14.3155 47.1326 14.2754 47.1326 14.2346 47.1373L7.434 47.8463C7.10737 47.8804 6.87192 48.1705 6.90597 48.4968C6.94005 48.8231 7.23044 49.0584 7.55706 49.0243L14.3576 48.3153C14.6842 48.2813 14.9197 47.9912 14.8856 47.6648C14.8558 47.3793 14.6297 47.1635 14.3548 47.1368L14.3548 47.1368ZM76.1118 47.1788C75.8369 47.2051 75.6106 47.4205 75.5804 47.706C75.5459 48.0323 75.7809 48.3228 76.1075 48.3573L82.907 49.0755C83.2336 49.1099 83.5243 48.875 83.5588 48.5487C83.5933 48.2224 83.3581 47.9319 83.0316 47.8975L76.2323 47.1793C76.1915 47.1751 76.151 47.1751 76.1118 47.1788L76.1118 47.1788ZM10.965 51.1794C10.9256 51.1798 10.8855 51.1836 10.8453 51.1921L8.03194 51.7891C7.7107 51.8573 7.50706 52.1705 7.57528 52.4915C7.64358 52.8124 7.95708 53.0158 8.27832 52.9477L11.0917 52.3509C11.4129 52.2826 11.6166 51.9695 11.5484 51.6485C11.4886 51.3677 11.2412 51.1767 10.9651 51.179L10.965 51.1794ZM79.5044 51.185C79.2282 51.1822 78.9808 51.3735 78.9211 51.6543C78.8528 51.9752 79.0563 52.2884 79.3775 52.3566L82.1909 52.9539C82.5121 53.0222 82.8256 52.8189 82.8939 52.498C82.9622 52.1771 82.7584 51.8636 82.4373 51.7954L79.6241 51.1981C79.584 51.1896 79.5438 51.1854 79.5044 51.1854L79.5044 51.185ZM15.7025 53.5175C15.6258 53.5105 15.5465 53.5189 15.4685 53.5448L8.96597 55.6564C8.65365 55.7579 8.48402 56.0907 8.58554 56.4027C8.68708 56.7147 9.02025 56.8842 9.33257 56.7828L15.8348 54.6711C16.1471 54.5697 16.317 54.2368 16.2155 53.9248C16.1393 53.6908 15.9328 53.5369 15.7025 53.5174V53.5175ZM74.7613 53.5385C74.531 53.5577 74.3246 53.7114 74.2483 53.9453C74.1466 54.2573 74.3159 54.5903 74.6282 54.6919L81.1292 56.8081C81.4414 56.9097 81.7747 56.7405 81.8765 56.4286C81.9783 56.1167 81.8089 55.7837 81.4966 55.682L74.9956 53.5658C74.9176 53.5403 74.838 53.532 74.7613 53.5385V53.5385ZM13.2212 58.1425C13.1442 58.144 13.0662 58.1605 12.9912 58.1939L10.3636 59.3627C10.0636 59.496 9.92966 59.8448 10.0632 60.1445C10.1969 60.4442 10.5458 60.578 10.8458 60.4446L13.4735 59.276C13.7735 59.1427 13.9074 58.7939 13.7738 58.4942C13.6737 58.2694 13.4522 58.1379 13.2212 58.1425V58.1425ZM77.2395 58.1651C77.0085 58.1594 76.787 58.2915 76.6867 58.5162C76.5529 58.8159 76.6866 59.1647 76.9865 59.2983L79.6131 60.4689C79.913 60.6025 80.2622 60.469 80.396 60.1693C80.5298 59.8697 80.3961 59.5209 80.0961 59.3873L77.4695 58.2167C77.3946 58.1832 77.3165 58.1666 77.2395 58.165V58.1651ZM18.3371 59.4483C18.2233 59.4399 18.1058 59.4652 17.9992 59.5268L12.0779 62.9422C11.7935 63.1062 11.6968 63.467 11.861 63.7511C12.0252 64.0352 12.3863 64.1319 12.6707 63.9679L18.5919 60.5528C18.8763 60.3887 18.9731 60.0277 18.8089 59.7436C18.7062 59.566 18.5268 59.4616 18.3371 59.4484V59.4483ZM72.1333 59.4483C71.9437 59.461 71.764 59.566 71.6613 59.7435C71.4971 60.0277 71.5939 60.3887 71.8783 60.5527L77.7995 63.9678C78.0839 64.1319 78.4453 64.0352 78.6095 63.7511C78.7737 63.467 78.6769 63.1062 78.3926 62.9422L72.471 59.5268C72.3644 59.4653 72.2471 59.4404 72.1333 59.4483V59.4483ZM16.8602 64.4603C16.7461 64.4645 16.6319 64.5013 16.5322 64.5736L14.2044 66.2609C13.9386 66.4536 13.8798 66.8225 14.0726 67.088C14.2654 67.3536 14.6346 67.4123 14.9005 67.2196L17.2285 65.5322C17.4944 65.3396 17.5531 64.9707 17.3603 64.7051C17.2398 64.5392 17.0502 64.4538 16.8602 64.4603L16.8602 64.4603ZM73.5959 64.4803C73.4059 64.4733 73.2164 64.5588 73.0958 64.7246C72.9028 64.9901 72.9613 65.3591 73.2271 65.552L75.5538 67.2409C75.8195 67.4337 76.1887 67.3752 76.3817 67.1097C76.5748 66.8443 76.5164 66.4755 76.2508 66.2827L73.924 64.5938C73.8244 64.5215 73.71 64.4843 73.596 64.4802L73.5959 64.4803ZM22.1324 64.6848C21.9811 64.6763 21.8268 64.7267 21.7046 64.8363L16.6197 69.4028C16.3755 69.6222 16.3556 69.9951 16.5752 70.2391C16.7947 70.4831 17.1681 70.5029 17.4123 70.2836L22.4972 65.7171C22.7414 65.4977 22.7613 65.1248 22.5417 64.8808C22.432 64.7588 22.2837 64.6928 22.1324 64.6848ZM68.3237 64.7011C68.1724 64.7095 68.024 64.775 67.9142 64.8969C67.6944 65.1407 67.7141 65.5136 67.9581 65.7331L73.0397 70.3032C73.2838 70.5228 73.6573 70.5031 73.8771 70.2593C74.0968 70.0155 74.0771 69.6426 73.8331 69.4231L68.7512 64.853C68.6291 64.7432 68.4751 64.6932 68.3237 64.7011V64.7011ZM26.9564 69.0394C26.7664 69.0323 26.5767 69.1173 26.456 69.2832L22.4338 74.8069C22.2406 75.0722 22.2987 75.4412 22.5642 75.6342C22.8297 75.8272 23.1991 75.7691 23.3923 75.5038L27.4145 69.9801C27.6077 69.7148 27.5495 69.3458 27.2841 69.1528C27.1845 69.0805 27.0704 69.0433 26.9564 69.0394ZM63.4808 69.0641C63.3668 69.0684 63.2525 69.1048 63.1528 69.1771C62.887 69.3698 62.8283 69.7386 63.021 70.0042L67.0358 75.5332C67.2286 75.7988 67.5979 75.8575 67.8637 75.6649C68.1295 75.4723 68.1883 75.1034 67.9955 74.8378L63.9807 69.3088C63.8602 69.1428 63.6708 69.0577 63.4808 69.0642L63.4808 69.0641ZM21.764 69.9173C21.6127 69.9257 21.4643 69.9911 21.3544 70.113L19.43 72.2482C19.2103 72.492 19.2297 72.8652 19.4738 73.0847C19.7179 73.3043 20.0912 73.2846 20.3109 73.0407L22.2355 70.9056C22.4553 70.6617 22.4356 70.2885 22.1916 70.069C22.0695 69.9593 21.9154 69.9093 21.7641 69.9172L21.764 69.9173ZM68.7026 69.9201C68.5513 69.9116 68.3972 69.9622 68.2751 70.0719C68.031 70.2914 68.0114 70.6643 68.2311 70.9082L70.1552 73.0438C70.3749 73.2877 70.7482 73.3073 70.9923 73.0877C71.2364 72.8682 71.256 72.495 71.0362 72.2512L69.1121 70.1158C69.0022 69.9938 68.8538 69.928 68.7025 69.92L68.7026 69.9201ZM32.5732 72.2888C32.3422 72.2832 32.1209 72.4153 32.0206 72.64L29.2348 78.878C29.101 79.1777 29.2347 79.5265 29.5347 79.6601C29.8346 79.7938 30.1837 79.6602 30.3175 79.3606L33.1033 73.1225C33.2371 72.8229 33.1033 72.4741 32.8034 72.3405C32.7285 72.307 32.6502 72.2904 32.5732 72.2888ZM57.8594 72.306C57.7824 72.3074 57.7042 72.324 57.6292 72.3573C57.3293 72.4906 57.1949 72.8391 57.3283 73.1389L60.1054 79.3808C60.2387 79.6804 60.5879 79.8146 60.888 79.6814C61.1879 79.5481 61.3222 79.1996 61.1888 78.8998L58.4118 72.6579C58.3118 72.4332 58.0904 72.3016 57.8594 72.306V72.306ZM27.6781 74.2175C27.4884 74.2302 27.3089 74.3351 27.2063 74.5127L25.7683 77.0011C25.6041 77.2852 25.7008 77.6459 25.9852 77.81C26.2696 77.974 26.6307 77.8774 26.7949 77.5933L28.233 75.1049C28.3972 74.8208 28.3004 74.46 28.016 74.296C27.9094 74.2345 27.7919 74.2096 27.6781 74.2175V74.2175ZM62.7921 74.2175C62.6783 74.2091 62.5611 74.2345 62.4544 74.296C62.17 74.46 62.0733 74.8208 62.2375 75.1049L63.6755 77.5933C63.8397 77.8774 64.2008 77.9741 64.4852 77.81C64.7696 77.646 64.8664 77.2852 64.7022 77.0011L63.2641 74.5127C63.1615 74.3352 62.9818 74.2308 62.7921 74.2175V74.2175ZM38.7748 74.3067C38.4987 74.3039 38.2512 74.4951 38.1915 74.776L36.7706 81.4577C36.7023 81.7786 36.9061 82.0919 37.2273 82.16C37.5485 82.2282 37.8621 82.0247 37.9303 81.7038L39.3512 75.0221C39.4195 74.7012 39.2157 74.3879 38.8945 74.3197C38.8544 74.3113 38.8143 74.3071 38.7748 74.3071L38.7748 74.3067ZM51.6744 74.3109C51.635 74.3112 51.5951 74.3151 51.555 74.3236C51.2337 74.3915 51.0298 74.7044 51.0978 75.0254L52.5138 81.7082C52.5819 82.0291 52.8953 82.2328 53.2166 82.1649C53.5379 82.0969 53.7418 81.7838 53.6738 81.4628L52.2575 74.7805C52.1979 74.4997 51.9506 74.3086 51.6744 74.3108L51.6744 74.3109ZM45.2351 74.9849C44.9067 74.9849 44.6423 75.249 44.6423 75.5771V82.4078C44.6423 82.7359 44.9067 83 45.2351 83C45.5635 83 45.8279 82.7359 45.8279 82.4078V75.5771C45.8279 75.249 45.5635 74.9849 45.2351 74.9849ZM34.354 77.1921C34.1238 77.2117 33.9172 77.3655 33.8411 77.5995L32.9521 80.3322C32.8505 80.6442 33.0202 80.9771 33.3325 81.0785C33.6448 81.18 33.978 81.0102 34.0795 80.6982L34.9685 77.9658C35.0701 77.6538 34.9004 77.3209 34.5881 77.2195C34.5101 77.1941 34.4308 77.1857 34.354 77.1922V77.1921ZM56.1116 77.1935C56.0348 77.1865 55.9556 77.1949 55.8775 77.2207C55.5652 77.3221 55.3953 77.655 55.4968 77.967L56.3856 80.6997C56.4871 81.0117 56.8203 81.1811 57.1326 81.0797C57.4449 80.9783 57.6148 80.6457 57.5133 80.3337L56.6243 77.601C56.5481 77.367 56.3418 77.2131 56.1116 77.1936V77.1935ZM41.5143 78.7155C41.2394 78.742 41.0129 78.9576 40.9829 79.243L40.6823 82.1007C40.6479 82.427 40.8832 82.7171 41.2098 82.7514C41.5364 82.7858 41.8271 82.5507 41.8614 82.2244L42.162 79.367C42.1964 79.0407 41.9611 78.7504 41.6345 78.716C41.5937 78.7118 41.5536 78.7118 41.5143 78.7155L41.5143 78.7155ZM48.9321 78.7183C48.8928 78.7141 48.8524 78.7141 48.8116 78.7188C48.485 78.7529 48.2494 79.043 48.2836 79.3693L48.5824 82.2272C48.6164 82.5535 48.9068 82.7886 49.2335 82.7545C49.5601 82.7205 49.7956 82.4303 49.7615 82.104L49.4629 79.2464C49.4331 78.9608 49.207 78.745 48.9321 78.7183L48.9321 78.7183Z" fill="#F4F2F3"/>
<g opacity="0.409" filter="url(#filter0_f_910_4302)">
<path d="M72.7351 20L40.265 39.1656L19.7351 72L49.7687 49.4003L72.7351 20Z" fill="black"/>
</g>
<path d="M50.0377 49L40.7351 39.24L73.7351 17L50.0377 49Z" fill="#FF5150"/>
<path d="M49.7351 48.76L40.4325 39L16.7351 71L49.7351 48.76Z" fill="#F1F1F1"/>
<path opacity="0.243" d="M16.7351 71L49.9112 48.8584L73.7351 17L16.7351 71Z" fill="black"/>
</g>
<defs>
<filter id="filter0_f_910_4302" x="17.1903" y="17.4552" width="58.0897" height="57.0897" filterUnits="userSpaceOnUse" color-interpolation-filters="sRGB">
<feFlood flood-opacity="0" result="BackgroundImageFix"/>
<feBlend mode="normal" in="SourceGraphic" in2="BackgroundImageFix" result="shape"/>
<feGaussianBlur stdDeviation="1.27242" result="effect1_foregroundBlur_910_4302"/>
</filter>
<radialGradient id="paint0_radial_910_4302" cx="0" cy="0" r="1" gradientUnits="userSpaceOnUse" gradientTransform="translate(45.4177 38.0217) scale(43.9432 44.4857)">
<stop stop-color="#06C2E7"/>
<stop offset="0.25" stop-color="#0DB8EC"/>
<stop offset="0.5" stop-color="#12AEF1"/>
<stop offset="0.75" stop-color="#1F86F9"/>
<stop offset="1" stop-color="#107DDD"/>
</radialGradient>
<clipPath id="clip0_910_4302">
<rect width="88.4842" height="88" fill="white" transform="translate(0.735107)"/>
</clipPath>
</defs>
</svg>
