<svg width="89" height="88" viewBox="0 0 89 88" fill="none" xmlns="http://www.w3.org/2000/svg">
<g clip-path="url(#clip0_910_4317)">
<path d="M79.66 65.4844C78.4799 66.0976 77.263 66.6372 76.0162 67.1C72.0684 68.5694 67.8879 69.3147 63.6756 69.3C47.4162 69.3 33.2537 58.1281 33.2537 43.7594C33.2748 41.8353 33.8083 39.9517 34.7991 38.3023C35.79 36.6528 37.2025 35.2973 38.8912 34.375C24.1787 34.9937 20.3975 50.325 20.3975 59.2969C20.3975 84.7344 43.8068 87.2781 48.86 87.2781C51.5756 87.2781 55.6662 86.4875 58.1412 85.6969L58.5881 85.5594C68.0598 82.2861 76.1343 75.8847 81.4818 67.4094C81.6373 67.1519 81.7039 66.8505 81.6717 66.5514C81.6394 66.2524 81.51 65.9722 81.3033 65.7537C81.0965 65.5353 80.8238 65.3906 80.527 65.342C80.2302 65.2933 79.9256 65.3434 79.66 65.4844Z" fill="url(#paint0_linear_910_4317)"/>
<path opacity="0.35" d="M79.66 65.4844C78.4799 66.0976 77.263 66.6372 76.0162 67.1C72.0684 68.5694 67.8879 69.3147 63.6756 69.3C47.4162 69.3 33.2537 58.1281 33.2537 43.7594C33.2748 41.8353 33.8083 39.9517 34.7991 38.3023C35.79 36.6528 37.2025 35.2973 38.8912 34.375C24.1787 34.9937 20.3975 50.325 20.3975 59.2969C20.3975 84.7344 43.8068 87.2781 48.86 87.2781C51.5756 87.2781 55.6662 86.4875 58.1412 85.6969L58.5881 85.5594C68.0598 82.2861 76.1343 75.8847 81.4818 67.4094C81.6373 67.1519 81.7039 66.8505 81.6717 66.5514C81.6394 66.2524 81.51 65.9722 81.3033 65.7537C81.0965 65.5353 80.8238 65.3906 80.527 65.342C80.2302 65.2933 79.9256 65.3434 79.66 65.4844Z" fill="url(#paint1_radial_910_4317)"/>
<path d="M36.5535 82.9469C33.4938 81.0465 30.8415 78.5578 28.7504 75.625C26.3625 72.3566 24.7188 68.6052 23.9347 64.6341C23.1505 60.663 23.2449 56.5684 24.2112 52.6377C25.1775 48.7069 26.9923 45.0352 29.5283 41.8803C32.0643 38.7254 35.2599 36.1637 38.891 34.375C39.991 33.8594 41.8129 32.9656 44.2535 33C45.9709 33.0133 47.662 33.4236 49.1946 34.1988C50.7271 34.974 52.0596 36.0932 53.0879 37.4688C54.471 39.3287 55.2292 41.5791 55.2535 43.8969C55.2535 43.8281 63.6754 16.5344 27.7535 16.5344C12.6629 16.5344 0.253535 30.8344 0.253535 43.4156C0.193511 50.0615 1.61436 56.6374 4.41291 62.6656C8.99603 72.4248 17.0029 80.1615 26.9135 84.4071C36.8242 88.6527 47.9487 89.1117 58.1754 85.6969C54.5925 86.8285 50.8067 87.1686 47.0795 86.6938C43.3523 86.219 39.7727 84.9406 36.5879 82.9469H36.5535Z" fill="url(#paint2_linear_910_4317)"/>
<path opacity="0.41" d="M36.5535 82.9469C33.4938 81.0465 30.8415 78.5578 28.7504 75.625C26.3625 72.3566 24.7188 68.6052 23.9347 64.6341C23.1505 60.663 23.2449 56.5684 24.2112 52.6377C25.1775 48.7069 26.9923 45.0352 29.5283 41.8803C32.0643 38.7254 35.2599 36.1637 38.891 34.375C39.991 33.8594 41.8129 32.9656 44.2535 33C45.9709 33.0133 47.662 33.4236 49.1946 34.1988C50.7271 34.974 52.0596 36.0932 53.0879 37.4688C54.471 39.3287 55.2292 41.5791 55.2535 43.8969C55.2535 43.8281 63.6754 16.5344 27.7535 16.5344C12.6629 16.5344 0.253535 30.8344 0.253535 43.4156C0.193511 50.0615 1.61436 56.6374 4.41291 62.6656C8.99603 72.4248 17.0029 80.1615 26.9135 84.4071C36.8242 88.6527 47.9487 89.1117 58.1754 85.6969C54.5925 86.8285 50.8067 87.1686 47.0795 86.6938C43.3523 86.219 39.7727 84.9406 36.5879 82.9469H36.5535Z" fill="url(#paint3_radial_910_4317)"/>
<path d="M52.6067 51.15C52.2974 51.4938 51.438 52.0094 51.438 53.075C51.438 53.9687 52.0224 54.8625 53.088 55.5844C58.0036 59.0219 67.3192 58.5406 67.3536 58.5406C71.0182 58.5382 74.615 57.5529 77.7692 55.6875C80.9448 53.8301 83.5797 51.1749 85.4128 47.9852C87.2458 44.7955 88.2133 41.182 88.2192 37.5031C88.3224 29.8031 85.4692 24.6812 84.3349 22.4125C77.013 8.18125 61.3036 -2.61429e-07 44.2192 -2.61429e-07C32.6561 -0.00114364 21.5573 4.54953 13.3233 12.6678C5.08923 20.786 0.381844 31.8193 0.219238 43.3812C0.391113 30.8344 12.8692 20.6937 27.7192 20.6937C28.9224 20.6937 35.7974 20.7969 42.1567 24.1312C46.6245 26.3514 50.3243 29.8596 52.7786 34.2031C54.8755 37.8469 55.2536 42.4875 55.2536 44.3437C55.2536 46.2 54.3255 48.9156 52.5724 51.1844L52.6067 51.15Z" fill="url(#paint4_radial_910_4317)"/>
<path d="M52.6067 51.15C52.2974 51.4938 51.438 52.0094 51.438 53.075C51.438 53.9687 52.0224 54.8625 53.088 55.5844C58.0036 59.0219 67.3192 58.5406 67.3536 58.5406C71.0182 58.5382 74.615 57.5529 77.7692 55.6875C80.9448 53.8301 83.5797 51.1749 85.4128 47.9852C87.2458 44.7955 88.2133 41.182 88.2192 37.5031C88.3224 29.8031 85.4692 24.6812 84.3349 22.4125C77.013 8.18125 61.3036 -2.61429e-07 44.2192 -2.61429e-07C32.6561 -0.00114364 21.5573 4.54953 13.3233 12.6678C5.08923 20.786 0.381844 31.8193 0.219238 43.3812C0.391113 30.8344 12.8692 20.6937 27.7192 20.6937C28.9224 20.6937 35.7974 20.7969 42.1567 24.1312C46.6245 26.3514 50.3243 29.8596 52.7786 34.2031C54.8755 37.8469 55.2536 42.4875 55.2536 44.3437C55.2536 46.2 54.3255 48.9156 52.5724 51.1844L52.6067 51.15Z" fill="url(#paint5_radial_910_4317)"/>
</g>
<defs>
<linearGradient id="paint0_linear_910_4317" x1="20.3975" y1="60.8437" x2="81.7225" y2="60.8437" gradientUnits="userSpaceOnUse">
<stop stop-color="#0C59A4"/>
<stop offset="1" stop-color="#114A8B"/>
</linearGradient>
<radialGradient id="paint1_radial_910_4317" cx="0" cy="0" r="1" gradientUnits="userSpaceOnUse" gradientTransform="translate(54.2568 61.3061) scale(32.7938 31.1541)">
<stop offset="0.7" stop-opacity="0"/>
<stop offset="0.9" stop-opacity="0.5"/>
<stop offset="1"/>
</radialGradient>
<linearGradient id="paint2_linear_910_4317" x1="52.7098" y1="34.2375" x2="14.4504" y2="75.9344" gradientUnits="userSpaceOnUse">
<stop stop-color="#1B9DE2"/>
<stop offset="0.2" stop-color="#1595DF"/>
<stop offset="0.7" stop-color="#0680D7"/>
<stop offset="1" stop-color="#0078D4"/>
</linearGradient>
<radialGradient id="paint3_radial_910_4317" cx="0" cy="0" r="1" gradientUnits="userSpaceOnUse" gradientTransform="translate(24.4724 68.3846) rotate(-81.3844) scale(49.2889 39.8205)">
<stop offset="0.8" stop-opacity="0"/>
<stop offset="0.9" stop-opacity="0.5"/>
<stop offset="1"/>
</radialGradient>
<radialGradient id="paint4_radial_910_4317" cx="0" cy="0" r="1" gradientUnits="userSpaceOnUse" gradientTransform="translate(9.11892 16.2649) rotate(92.2906) scale(69.6306 148.299)">
<stop stop-color="#35C1F1"/>
<stop offset="0.1" stop-color="#34C1ED"/>
<stop offset="0.2" stop-color="#2FC2DF"/>
<stop offset="0.3" stop-color="#2BC3D2"/>
<stop offset="0.7" stop-color="#36C752"/>
</radialGradient>
<radialGradient id="paint5_radial_910_4317" cx="0" cy="0" r="1" gradientUnits="userSpaceOnUse" gradientTransform="translate(82.7399 26.5719) rotate(73.7398) scale(33.4469 27.199)">
<stop stop-color="#66EB6E"/>
<stop offset="1" stop-color="#66EB6E" stop-opacity="0"/>
</radialGradient>
<clipPath id="clip0_910_4317">
<rect width="88" height="88" fill="white" transform="translate(0.219238)"/>
</clipPath>
</defs>
</svg>
