<svg width="92" height="88" viewBox="0 0 92 88" fill="none" xmlns="http://www.w3.org/2000/svg">
<path d="M50.0261 9.34903V13.1289C54.3508 13.6298 58.257 15.0589 60.0839 16.6817C64.0034 13.7166 62.9139 8.1336 62.8276 7.71287C62.511 7.19122 62.1509 6.69749 61.7514 6.23698C55.2277 -1.20924 40.533 0.0863391 40.533 0.0863391V8.46751C43.7142 7.80674 47.0191 8.11363 50.0261 9.34903Z" fill="url(#paint0_linear_919_2490)"/>
<path d="M46.8774 24.4895L45.6942 20.6538L43.5407 27.6969C43.4977 27.8533 43.4059 27.9924 43.2783 28.0946C43.1507 28.1968 42.9937 28.2569 42.8294 28.2664H42.7829C42.6258 28.267 42.4721 28.2212 42.3417 28.1348C42.2114 28.0485 42.1103 27.9255 42.0518 27.782L40.1375 23.0953C40.1375 23.0953 39.2933 24.1753 39.1072 24.4044C39.0399 24.508 38.9513 24.5965 38.8471 24.6641C38.7429 24.7318 38.6255 24.7771 38.5023 24.7972H26.877C26.9458 26.6625 27.3392 28.5023 28.0402 30.2366H37.2793V39.335C41.2345 40.9057 45.654 40.9057 49.6092 39.335V30.2628C49.6092 30.2628 53.3381 30.0271 55.9105 28.7835C60.2376 26.6954 61.4274 23.1019 61.4274 21.7273C56.5286 25.6547 47.6218 25.0328 47.6218 25.0328C47.4552 25.0319 47.2933 24.9787 47.1594 24.881C47.0256 24.7833 46.9268 24.6462 46.8774 24.4895Z" fill="url(#paint1_linear_919_2490)"/>
<path d="M39.6599 21.0674C39.8074 20.7985 39.9414 20.6505 40.2498 20.664C40.5581 20.6774 40.7391 20.9733 40.8531 21.2624L42.5289 24.6245L44.8482 17.6314C44.8932 17.4654 44.9908 17.3186 45.1262 17.2131C45.2616 17.1076 45.4275 17.0491 45.5989 17.0464C45.7681 17.0459 45.9329 17.0999 46.0693 17.2004C46.2056 17.3008 46.3062 17.4425 46.3564 17.6045L48.307 23.8378C51.4374 24.0943 54.5879 23.752 57.5909 22.8292C59.2827 22.3919 60.8159 21.4817 62.0121 20.2044C63.2083 18.9271 64.0183 17.3352 64.3477 15.6141C64.7001 14.1678 64.7358 12.6621 64.4523 11.2006C64.1688 9.73911 63.5728 8.35665 62.7054 7.14844C62.7054 7.14844 64.3075 14.155 58.831 16.9321C55.9687 18.3845 49.8018 18.1828 49.8018 18.1828V8.88999C45.8131 7.27648 41.3562 7.27648 37.3674 8.88999V18.2366H28.0567C27.34 20.0388 26.9408 21.9523 26.877 23.8916H38.145L39.6599 21.0674Z" fill="url(#paint2_linear_919_2490)"/>
<path d="M30.8086 65.2527H28.9395V55.2451H32.2376C34.0252 55.2451 35.7204 56.3241 35.7204 58.4065C35.7204 60.5915 34.0361 61.5788 32.2484 61.5788H30.8086V65.2527ZM30.8086 60.079H31.8627C33.1178 60.079 33.7644 59.4801 33.7644 58.4065C33.7644 57.333 33.1178 56.7881 31.8627 56.7881H30.8086V60.079Z" fill="#E3051C"/>
<path d="M48.5505 65.2527C47.4638 63.2674 46.839 62.1344 45.3991 60.9368H44.9373V65.2527H43.0681V60.9368H42.6063C41.1664 62.1398 40.5198 63.2674 39.4549 65.2527H37.1348C38.6616 62.6362 39.5255 61.2389 40.9925 60.0628L37.276 55.2451H39.5635L42.6009 59.2482H43.0681V55.2451H44.9373V59.2482H45.3991L48.4364 55.2451H50.7239L47.0074 60.0628C48.4745 61.2335 49.3384 62.6362 50.8652 65.2527H48.5505Z" fill="#E3051C"/>
<path d="M61.2031 55.2451V63.5803H62.5724L62.2409 67.7829H60.7576V65.2527H53.7484V67.7829H52.3031L51.9553 63.5803H53.0801C54.634 61.7676 54.8514 59.5503 54.9926 55.2451H61.2031ZM59.334 56.9499H56.6825C56.5521 60.0952 56.1934 62.2369 55.085 63.5965H59.334V56.9499Z" fill="#E3051C"/>
<path d="M5.03141 83.4573L1.87455 77.9707V85.4642H0V75.4351H2.42334L5.24875 80.2204L8.07417 75.4351H10.4975V85.4642H8.62294V77.9707L5.46609 83.4573H5.03141Z" fill="#0067A2"/>
<path d="M19.2665 81.1375H15.7782V83.7702H19.7609V85.4588H13.8982V75.4351H19.5979V77.1399H15.7945V79.4597H19.2828L19.2665 81.1375Z" fill="#0067A2"/>
<path d="M30.627 75.4351V83.7864H31.9962L31.6648 87.9998H30.1814V85.4642H23.1559V87.9998H21.6834L21.3357 83.7864H22.4604C24.0198 81.9683 24.2372 79.7456 24.3785 75.4351H30.627ZM28.7524 77.1399H26.0954C25.965 80.2905 25.6064 82.4377 24.4925 83.8026H28.747L28.7524 77.1399Z" fill="#0067A2"/>
<path d="M34.5992 75.4351H36.4846V81.6932L42.1843 75.4351H43.195V85.4642H41.3204V79.2169L35.6044 85.4642H34.5938L34.5992 75.4351Z" fill="#0067A2"/>
<path d="M56.4047 83.7864L56.0406 87.9998H54.5682V85.4642H46.5701V75.4351H48.4338V83.7864H53.15V75.4351H55.0246V83.7864H56.4047Z" fill="#0067A2"/>
<path d="M59.0779 75.4351H60.9307V81.6932L66.6304 75.4351H67.6411V85.4642H65.7665V79.2169L60.0885 85.4642H59.0779V75.4351Z" fill="#0067A2"/>
<path d="M77.6377 85.4642V81.1483H72.9214V85.4642H71.0469V75.4351H72.9214V79.4327H77.6377V75.4351H79.5122V85.4642H77.6377Z" fill="#0067A2"/>
<path d="M88.7145 83.5243H84.6339L83.7972 85.4557H81.8357L86.4705 75.146H86.8888L91.5182 85.4611H89.5567L88.7145 83.5243ZM85.2914 81.9922H88.0081L86.6389 78.8415L85.2914 81.9922Z" fill="#0067A2"/>
<defs>
<linearGradient id="paint0_linear_919_2490" x1="40.533" y1="8.32726" x2="64.4684" y2="8.32726" gradientUnits="userSpaceOnUse">
<stop offset="0.17" stop-color="white"/>
<stop offset="0.45" stop-color="#D9ECF9"/>
<stop offset="1" stop-color="#86C3EC"/>
</linearGradient>
<linearGradient id="paint1_linear_919_2490" x1="44.1522" y1="40.5328" x2="44.1522" y2="20.6538" gradientUnits="userSpaceOnUse">
<stop offset="0.04" stop-color="#BE1622"/>
<stop offset="0.13" stop-color="#C81120"/>
<stop offset="0.31" stop-color="#D70A1E"/>
<stop offset="0.53" stop-color="#E0061C"/>
<stop offset="0.85" stop-color="#E3051C"/>
</linearGradient>
<linearGradient id="paint2_linear_919_2490" x1="45.7598" y1="24.6514" x2="45.7598" y2="7.16861" gradientUnits="userSpaceOnUse">
<stop stop-color="#00A0DE"/>
<stop offset="0.13" stop-color="#0091CE"/>
<stop offset="0.4" stop-color="#0077B3"/>
<stop offset="0.56" stop-color="#006EA9"/>
<stop offset="1" stop-color="#0067A2"/>
</linearGradient>
</defs>
</svg>
