<svg width="108" height="88" viewBox="0 0 108 88" fill="none" xmlns="http://www.w3.org/2000/svg">
<path d="M15.732 71.6217H2.1433L2.14329 59.0637H15.2406C17.1083 59.0637 18.6318 60.4727 18.6318 62.3515C18.6318 63.1674 18.3614 63.8842 17.8945 64.4776C18.9512 65.1945 19.6146 66.3811 19.6146 67.7407C19.6146 69.8666 17.8699 71.6217 15.732 71.6217ZM15.2406 60.9919H4.05997V63.8101H15.3389C16.027 63.8101 16.6658 63.0932 16.6658 62.3269C16.6905 61.511 16.027 60.9919 15.2406 60.9919ZM15.732 65.763H4.05997V69.6935H15.732C16.7887 69.6935 17.6734 68.8037 17.6734 67.7407C17.6734 66.6282 16.7887 65.763 15.732 65.763ZM38.7077 73.5253V71.6217H22.5633V59.0637H24.48V69.6935H37.0859V59.0637H39.0026V69.6935H40.5999V73.5253H38.7077ZM57.7272 71.6217V61.61L45.1213 71.6217H43.2044V59.0637H45.1213V69.0756L57.7272 59.0637H59.6437V71.6217H57.7272ZM75.1985 71.6217H68.8832C65.394 71.6217 62.568 68.8037 62.568 65.2686C62.568 61.7583 65.3694 59.0391 68.8832 59.0391H75.1985C78.6879 59.0391 81.5136 61.7583 81.5136 65.2686C81.4892 68.8037 78.6632 71.6217 75.1985 71.6217ZM75.1985 60.9919H68.8832C66.475 60.9919 64.5093 62.8706 64.5093 65.2932C64.5093 67.7159 66.4505 69.6935 68.8832 69.6935H75.1985C77.6065 69.6935 79.5725 67.7159 79.5725 65.2932C79.5725 62.8706 77.582 60.9919 75.1985 60.9919ZM103.826 71.6217V61.61C95.0779 68.5564 95.0779 68.5564 95.0779 68.5316L86.33 61.61V71.6217H84.4132V59.0637H86.33L95.0779 66.0103L103.826 59.0637H105.742V71.6217H103.826ZM4.57601 83.0179C4.57601 83.7102 4.01084 84.2788 3.3228 84.2788C2.63475 84.2788 2.06958 83.7102 2.06958 83.0179C2.06958 82.3258 2.63475 81.7573 3.3228 81.7573C4.0354 81.7573 4.57601 82.3258 4.57601 83.0179ZM105.742 83.0179C105.742 83.7102 105.177 84.2788 104.489 84.2788C103.801 84.2788 103.236 83.7102 103.236 83.0179C103.236 82.3258 103.801 81.7573 104.489 81.7573C105.177 81.7573 105.742 82.3258 105.742 83.0179Z" fill="#00A48A"/>
<path d="M9.83838 82.0786C9.83838 80.4224 11.1162 79.2109 12.7134 79.2109C14.3106 79.2109 15.5885 80.4224 15.5885 82.0786C15.5885 83.7349 14.3107 84.9462 12.7134 84.9462C11.1162 84.9462 9.83838 83.7349 9.83838 82.0786ZM10.4773 82.0786C10.4773 83.364 11.4848 84.3777 12.7134 84.3777C13.9421 84.3777 14.9495 83.364 14.9495 82.0786C14.9495 80.7932 13.9421 79.7797 12.7134 79.7797C11.4848 79.7797 10.4773 80.8178 10.4773 82.0786ZM20.0853 82.3753C19.7657 81.9797 19.3235 81.8561 19.0041 81.8561C18.3652 81.8561 17.7754 82.3011 17.7754 83.1416C17.7754 83.9822 18.3652 84.427 18.9794 84.427C19.3235 84.427 19.7657 84.2787 20.0853 83.8832V84.6001C19.7167 84.8721 19.3235 84.9462 19.0041 84.9462C17.9474 84.9462 17.1611 84.1799 17.1611 83.1416C17.1611 82.0786 17.9474 81.3124 19.0041 81.3124C19.5447 81.3124 19.9134 81.5347 20.0608 81.6337V82.3753H20.0853ZM21.8546 81.4111H22.4443V82.8203H24.0661V81.4111H24.6559V84.8721H24.0661V83.3887H22.4443V84.8721H21.8546V81.4111ZM26.4004 83.1416C26.4004 82.1034 27.1623 81.3124 28.2189 81.3124C29.2754 81.3124 30.0373 82.0786 30.0373 83.1416C30.0373 84.1799 29.2511 84.9462 28.2189 84.9462C27.1868 84.9708 26.4004 84.2046 26.4004 83.1416ZM27.0148 83.1416C27.0148 83.9822 27.6045 84.427 28.2189 84.427C28.8332 84.427 29.4228 83.9822 29.4228 83.1416C29.4228 82.3011 28.8332 81.8561 28.2189 81.8561C27.6045 81.8561 27.0148 82.3011 27.0148 83.1416ZM33.0843 81.4111C33.2564 81.4111 33.5758 81.4111 33.797 81.6089C33.9199 81.7078 34.0917 81.9055 34.0917 82.2516C34.0917 82.5978 33.9199 82.8203 33.7232 82.9437C33.8216 82.9685 33.9936 83.0181 34.1657 83.1664C34.362 83.3395 34.4358 83.5618 34.4358 83.8339C34.4358 84.2046 34.2638 84.4766 34.0917 84.6248C33.8952 84.7731 33.5512 84.8473 33.281 84.8473H31.8065V81.3864H33.0843V81.4111ZM33.0106 82.8203C33.0597 82.8203 33.2564 82.8203 33.3791 82.7213C33.4529 82.672 33.5512 82.573 33.5512 82.3753C33.5512 82.2022 33.4775 82.1033 33.3791 82.0538C33.2317 81.9551 33.0843 81.9797 32.8877 81.9797H32.3471V82.845H33.0106V82.8203ZM33.109 84.3281C33.281 84.3281 33.502 84.3281 33.6496 84.2046C33.7478 84.1304 33.8461 83.9821 33.8461 83.8339C33.8461 83.6854 33.797 83.537 33.6741 83.4382C33.5265 83.3147 33.3055 83.3147 33.1335 83.3147H32.3717V84.3281H33.109ZM38.8098 81.4111H39.3997V84.8721H38.8098V84.3777C38.6131 84.6248 38.2446 84.9708 37.6304 84.9708C36.7702 84.971 35.9593 84.3529 35.9593 83.1416C35.9593 81.9551 36.7456 81.3369 37.6304 81.3369C38.2937 81.3369 38.6378 81.7078 38.8098 81.9055V81.4111ZM36.5737 83.1416C36.5737 83.8832 36.9914 84.4518 37.7041 84.4518C38.4411 84.4518 38.8344 83.8337 38.8344 83.1664C38.8344 82.2764 38.2201 81.8809 37.7041 81.8809C37.1143 81.8561 36.5737 82.3011 36.5737 83.1416ZM41.3407 81.4111H41.9306V82.8203H43.5524V81.4111H44.1422V84.8721H43.5524V83.3887H41.9306V84.8721H41.3407V81.4111ZM50.1625 81.4111C50.3345 81.4111 50.6539 81.4111 50.8751 81.6089C50.9979 81.7078 51.1699 81.9055 51.1699 82.2516C51.1699 82.5978 50.9979 82.8203 50.8013 82.9437C50.8997 82.9685 51.0716 83.0181 51.2437 83.1664C51.4403 83.3395 51.514 83.5618 51.514 83.8337C51.514 84.2046 51.3419 84.4766 51.1699 84.6248C50.9734 84.7731 50.6293 84.8473 50.359 84.8473H48.8848V81.3864H50.1625V81.4111ZM50.0889 82.8203C50.1378 82.8203 50.3345 82.8203 50.4573 82.7213C50.531 82.672 50.6293 82.573 50.6293 82.3751C50.6293 82.2022 50.5557 82.1033 50.4573 82.0538C50.3099 81.9551 50.1625 81.9797 49.9658 81.9797H49.4252V82.845H50.0889V82.8203ZM50.2116 84.3281C50.3836 84.3281 50.6047 84.3281 50.7522 84.2046C50.8505 84.1304 50.9487 83.9821 50.9487 83.8337C50.9487 83.6854 50.8997 83.537 50.7767 83.4382C50.6293 83.3147 50.4083 83.3147 50.2363 83.3147H49.4744V84.3281H50.2116ZM58.2715 79.9032H57.3378L57.6573 79.3098H58.8858V84.8721H58.2715V79.9032ZM62.4489 84.6495L63.7267 82.8695C63.5793 82.9191 63.4072 82.9437 63.2352 82.9437C62.1785 82.9437 61.4415 82.1528 61.4415 81.1145C61.4415 80.0021 62.2278 79.2109 63.3335 79.2109C64.6359 79.2109 65.2502 80.2245 65.2502 81.0897C65.2502 81.2876 65.201 81.782 64.7833 82.3751L62.9158 84.9956L62.4489 84.6495ZM62.0311 81.1145C62.0311 81.8561 62.5718 82.3999 63.3335 82.3999C64.0953 82.3999 64.6113 81.8313 64.6113 81.1145C64.6113 80.3728 64.0954 79.7794 63.3088 79.7794C62.5718 79.7794 62.0311 80.348 62.0311 81.1145ZM70.5579 83.3395C70.5579 84.2046 69.9927 84.9708 68.8624 84.9708C67.7321 84.9708 67.167 84.2046 67.167 83.3395C67.167 82.746 67.4372 82.2268 68.0024 81.9797C67.5601 81.7324 67.3389 81.2876 67.3389 80.7684C67.3389 79.9773 67.8796 79.2357 68.8624 79.2357C69.8453 79.2357 70.3859 79.9773 70.3859 80.7684C70.3859 81.2876 70.1647 81.7324 69.7226 81.9797C70.2876 82.2268 70.5579 82.7213 70.5579 83.3395ZM69.9436 83.3147C69.9436 82.6965 69.5014 82.2516 68.8624 82.2516C68.2234 82.2516 67.7812 82.6966 67.7812 83.3147C67.7812 83.9574 68.2234 84.4022 68.8624 84.4022C69.5014 84.4022 69.9436 83.9574 69.9436 83.3147ZM69.7962 80.7684C69.7962 80.1503 69.3539 79.7794 68.8624 79.7794C68.3711 79.7794 67.9286 80.1503 67.9286 80.7684C67.9286 81.3124 68.3464 81.7324 68.8624 81.7324C69.3785 81.7324 69.7962 81.3124 69.7962 80.7684ZM75.6199 79.8784H72.5975V79.3098H76.6521L72.966 84.9956L72.4746 84.6743L75.6199 79.8784ZM80.8786 81.4111H82.9182V81.9551H81.4683V84.8721H80.8786V81.4111ZM84.1469 83.1416C84.1469 82.1034 84.9085 81.3124 85.9652 81.3124C87.0217 81.3124 87.7835 82.0786 87.7835 83.1416C87.7835 84.1799 86.9972 84.9462 85.9652 84.9462C84.9331 84.9462 84.1469 84.2046 84.1469 83.1416ZM84.7365 83.1416C84.7365 83.9822 85.3263 84.427 85.9405 84.427C86.5549 84.427 87.1446 83.9822 87.1446 83.1416C87.1446 82.3011 86.5549 81.8561 85.9405 81.8561C85.3263 81.8561 84.7365 82.3011 84.7365 83.1416ZM92.1821 81.4111V84.3281H92.6981V85.7866H92.1575V84.8721H89.5528V85.7866H88.9876V84.3281C89.2825 84.3281 89.5037 84.1304 89.6264 83.8832C89.7493 83.636 89.7739 83.3147 89.7739 82.9685V81.4359H92.1821V81.4111ZM91.5922 81.9551H90.3637V83.2651C90.3637 83.6608 90.2653 84.0316 89.9458 84.3281H91.5922V81.9551ZM95.2291 84.5508L93.6563 81.4111H94.3445L95.5732 83.8832L96.679 81.4111H97.3425L94.8114 86.825H94.1478L95.2291 84.5508Z" fill="#00A48A"/>
<path d="M55.5844 5.32218C54.9209 3.71533 53.9379 2.33097 52.6356 1.19382L51.8738 0.526367L51.1121 1.19382C49.8097 2.33097 48.8268 3.71533 48.1633 5.32218C46.5416 9.27748 47.3525 13.7272 50.1047 16.842C49.6868 17.1139 49.2692 17.3364 48.8022 17.5341C48.36 17.732 47.893 17.8802 47.4261 17.9792C47.1804 13.8013 44.6249 10.0933 40.7423 8.46168C39.4155 7.91783 38.0147 7.62119 36.5895 7.62119C36.3192 7.62119 36.0491 7.62119 35.7786 7.64591L34.7711 7.72008L34.6974 8.73362C34.5745 10.4641 34.8448 12.1451 35.4838 13.7519C37.1792 17.8802 41.111 20.55 45.5342 20.55C45.8043 20.55 46.0746 20.55 46.3204 20.5254C47.4754 20.4265 48.6058 20.1546 49.6622 19.7095C50.7189 19.2646 51.7018 18.6466 52.5865 17.8802C56.1987 14.7407 57.3783 9.69773 55.5844 5.32218ZM37.6707 12.8372C37.2775 11.8979 37.0811 10.9337 37.0318 9.94492C38.0147 9.99436 38.9484 10.2169 39.8823 10.5877C42.9785 11.8731 44.9934 14.8396 45.141 18.1523C41.8237 18.0037 38.924 15.952 37.6707 12.8372ZM51.8738 15.334C49.6868 12.8867 49.048 9.3269 50.3257 6.21211C50.6944 5.27272 51.235 4.45695 51.8738 3.71533C52.5373 4.43223 53.0533 5.27272 53.422 6.21211C54.7243 9.3269 54.0853 12.862 51.8738 15.334ZM46.6152 27.2247C46.173 26.137 45.5585 25.148 44.7969 24.2582C42.7328 21.8356 39.7349 20.4265 36.565 20.4265C35.1398 20.4265 33.739 20.6984 32.4122 21.2669C30.8394 21.9344 29.4633 22.9234 28.333 24.2582L27.6941 25.0245L28.333 25.7909C29.4633 27.101 30.815 28.1146 32.4122 28.782C33.739 29.3506 35.1398 29.6225 36.565 29.6225C39.2435 29.6225 41.8237 28.6337 43.7893 26.8291C44.035 27.2493 44.2808 27.6697 44.4528 28.1393C44.7969 28.9798 45.141 29.8946 45.141 30.8091V48.9541H22.583V51.2283H47.4261V30.6114C47.3525 29.4495 47.0577 28.3124 46.6152 27.2247ZM36.5895 27.2493C35.4592 27.2493 34.3779 27.0268 33.3213 26.582C32.4122 26.1863 31.5767 25.6672 30.864 24.9997C31.5767 24.3323 32.4122 23.7884 33.3213 23.4178C34.3535 22.9727 35.4592 22.7503 36.5895 22.7503C38.7274 22.7503 40.767 23.5661 42.3395 24.9997C40.767 26.4583 38.7274 27.2493 36.5895 27.2493ZM58.656 48.9294V30.735C58.7298 29.8202 58.9263 28.955 59.2704 28.0899C59.4669 27.6449 59.688 27.1999 59.9338 26.7797C61.8995 28.5595 64.4797 29.5732 67.1582 29.5732C68.5834 29.5732 69.984 29.3012 71.3112 28.7326C72.8837 28.0651 74.2598 27.0762 75.3901 25.7414L76.0291 24.975L75.3901 24.2088C74.2844 22.8986 72.9083 21.885 71.3112 21.2176C69.984 20.649 68.5834 20.377 67.1582 20.377C64.4797 20.377 61.8995 21.3659 59.9338 23.1705C59.688 22.7503 59.4424 22.33 59.2704 21.8603C59.0738 21.3907 58.9263 20.9208 58.828 20.4512C62.9809 20.2039 66.6176 17.6083 68.2395 13.6777C68.9029 12.0709 69.1732 10.3899 69.0258 8.65946L68.952 7.64591L67.9691 7.57175C67.6988 7.54702 67.4285 7.54702 67.1582 7.54702C65.7329 7.54702 64.3323 7.81894 63.0055 8.38753C58.6805 10.2663 56.0022 14.6666 56.3461 19.4129V19.4377C56.4444 20.5994 56.6902 21.7121 57.1325 22.7996C57.4519 23.5907 57.8698 24.3323 58.3611 25.0245C57.8698 25.7166 57.4519 26.4583 57.1325 27.2493C56.6902 28.3371 56.4199 29.4742 56.3461 30.636V51.2037H81.1893V48.9294H58.656ZM67.1828 22.7748C68.3131 22.7748 69.3943 22.9974 70.451 23.4423C71.3601 23.8378 72.1957 24.357 72.9328 25.0245C72.2202 25.6919 71.3848 26.2358 70.451 26.6066C69.419 27.0516 68.3131 27.2741 67.1828 27.2741C65.0448 27.2741 63.0055 26.4583 61.4327 25.0245C63.0055 23.5661 65.0448 22.7748 67.1828 22.7748ZM63.9145 10.5877C64.8238 10.2168 65.7821 9.99436 66.765 9.94492C66.716 10.9337 66.4947 11.8979 66.1261 12.8372C64.8484 15.952 61.9488 18.0037 58.656 18.1768C58.8034 14.8396 60.8184 11.8979 63.9145 10.5877Z" fill="#00A48A"/>
</svg>
