<svg width="116" height="88" viewBox="0 0 116 88" fill="none" xmlns="http://www.w3.org/2000/svg">
<g clip-path="url(#clip0_919_2575)">
<path d="M115.896 73.939C115.832 73.8112 115.705 73.8751 115.641 73.8751C114.814 73.8751 113.923 73.8751 113.096 73.8751C112.841 73.8751 112.777 73.8112 112.777 73.5555C112.777 70.2964 112.777 67.0373 112.777 63.7782C112.777 63.7143 112.777 63.6504 112.777 63.5865C112.777 63.5226 112.777 63.4587 112.714 63.4587C112.65 63.4587 112.65 63.4587 112.65 63.5226C110.996 65.8871 108.896 67.9959 107.05 70.2325C106.923 70.4242 106.796 70.4242 106.668 70.2325C104.886 68.2515 103.105 66.2066 101.323 64.2255C101.132 63.9699 101.004 63.7143 100.814 63.4587C100.75 63.3948 100.75 63.3309 100.686 63.267C100.623 63.3309 100.623 63.3948 100.623 63.4587C100.623 63.906 100.623 64.3534 100.623 64.7368C100.623 67.6764 100.623 70.616 100.623 73.5555C100.623 73.8112 100.559 73.8751 100.304 73.8751C99.6045 73.8751 98.8408 73.8751 98.1408 73.8751C97.9499 73.8751 97.8862 73.8112 97.8862 73.6194C97.8862 73.2999 97.8862 73.0443 97.8862 72.7248C97.8862 67.932 97.8862 63.2031 97.8862 58.4103C97.8862 58.1547 97.9499 58.0269 98.2681 58.0269C98.9681 58.0269 99.6681 58.0269 100.368 58.0269C100.559 58.0269 100.75 58.0908 100.877 58.2825C102.786 60.6469 104.759 63.0114 106.668 65.3758C106.923 65.6953 106.923 65.6953 107.177 65.3758C109.15 63.0114 111.123 60.6469 113.159 58.2825C113.287 58.0908 113.414 58.0908 113.668 58.0908C114.432 58.0908 115.196 58.0908 115.896 58.0908C115.959 58.0908 115.959 58.0908 116.023 58.0908C115.896 63.3309 115.896 68.6349 115.896 73.939Z" fill="#213254"/>
<path d="M60.5943 22.8777C59.5125 23.9001 58.4306 24.9865 57.4124 26.009C56.2669 27.1592 55.1214 28.2456 53.9123 29.3959C51.3032 31.952 48.6304 34.5082 46.0212 37.0644C44.303 38.7259 42.6484 40.3874 40.9302 41.985C39.912 42.9435 38.8938 43.966 37.9392 44.9246C37.7483 45.1163 37.6847 45.1163 37.4938 44.9246C35.1392 42.624 32.7846 40.3235 30.43 38.0229C28.2026 35.8502 25.9753 33.6774 23.6844 31.4408C21.2025 29.0124 18.7206 26.5841 16.2387 24.2196C15.8569 23.8362 15.4751 23.4528 15.0296 23.0694C14.9023 22.9416 14.7751 22.7498 14.7751 22.5581C14.7751 15.1453 14.7751 7.7963 14.7751 0.383424C14.7751 0.255616 14.7114 0.127808 14.8387 0C15.1569 0.255616 15.4114 0.575136 15.7296 0.830753C17.8297 2.87568 19.8661 4.85671 21.9661 6.90164C24.0662 9.01047 26.2299 11.0554 28.3936 13.1003C30.2391 14.8896 32.0846 16.679 33.93 18.5322C35.1392 19.6824 36.2847 20.8327 37.4938 21.983C37.6847 22.1108 37.7483 22.1108 37.8756 21.983C39.6575 20.2576 41.4393 18.5322 43.2212 16.7429C45.1303 14.8896 46.9758 13.1003 48.8849 11.2471C51.0486 9.13828 53.1487 7.09335 55.3124 4.98452C56.9669 3.38692 58.6215 1.72541 60.2761 0.127808C60.4034 0.191712 60.467 0.127808 60.5943 0C60.5943 0.191712 60.5943 0.255616 60.5943 0.383424C60.5943 7.7963 60.5943 15.1453 60.5943 22.5581C60.5943 22.622 60.5943 22.6859 60.5943 22.7498C60.5943 22.8137 60.5943 22.8137 60.5943 22.8777Z" fill="#213254"/>
<path d="M60.6067 22.8791C60.6067 22.8152 60.6067 22.8152 60.6703 22.7512C61.1158 22.3678 61.4976 21.9205 61.9431 21.4732C63.534 19.8756 65.0613 18.2141 66.5886 16.5526C68.1796 14.891 69.7069 13.2934 71.2978 11.6319C72.6979 10.1622 74.0979 8.69236 75.4979 7.22256C76.898 5.75277 78.2344 4.34688 79.6344 2.87709C80.5253 1.91853 81.4163 1.02387 82.3072 0.0653081C82.3708 0.00140406 82.4345 -0.0625 82.5617 -0.0625C82.8163 -0.0625 83.1345 -0.0625 83.389 -0.0625C90.3892 -0.0625 97.3257 -0.0625 104.326 -0.0625C104.453 -0.0625 104.58 -0.0625 104.771 -0.0625C104.262 0.448732 103.817 0.959965 103.308 1.4712C101.526 3.32442 99.7439 5.24154 97.9621 7.09476C96.4348 8.69236 94.9075 10.29 93.3802 11.8876C91.5983 13.7408 89.8164 15.6579 87.971 17.5111C86.38 19.1726 84.7891 20.8341 83.1981 22.4956C83.0072 22.6873 83.0708 22.8152 83.1981 23.0069C85.7436 25.6269 88.3528 28.247 90.8983 30.8671C92.6801 32.7203 94.5256 34.5735 96.3075 36.4267C98.9803 39.1107 101.589 41.8586 104.262 44.6064C104.39 44.7342 104.644 44.8621 104.58 44.9899C104.517 45.1816 104.262 45.0538 104.071 45.0538C96.9439 45.0538 89.8164 45.0538 82.689 45.0538C82.4345 45.0538 82.3072 44.9899 82.1163 44.7981C79.3162 41.9225 76.5161 39.1107 73.7161 36.235C72.1888 34.7013 70.6615 33.1037 69.1342 31.57C67.0977 29.4612 64.9977 27.3523 62.9613 25.2435C62.1976 24.5406 61.3703 23.7098 60.6067 22.8791Z" fill="#009E47"/>
<path d="M86.3747 58.0269C88.1565 58.0269 89.8748 58.0269 91.6566 58.0269C92.1657 58.0269 92.6112 58.0908 93.1203 58.2186C93.8839 58.4742 94.3294 59.0493 94.584 59.8801C94.7749 60.4552 94.7749 61.0303 94.7749 61.6694C94.7749 64.609 94.7749 67.6125 94.7749 70.5521C94.7749 71.1911 94.7112 71.7662 94.4567 72.3414C94.1385 73.1721 93.5021 73.6194 92.6748 73.8112C92.2294 73.8751 91.7839 73.939 91.2748 73.939C88.0293 73.939 84.7837 73.939 81.4746 73.939C80.8382 73.939 80.1382 73.939 79.5018 73.6834C78.8018 73.3638 78.42 72.8526 78.1654 72.1497C77.9745 71.5745 77.9745 70.9994 77.9745 70.3603C77.9745 67.4208 77.9745 64.4812 77.9745 61.5416C77.9745 60.9664 78.0381 60.3274 78.229 59.8162C78.5472 58.7298 79.3745 58.2825 80.3927 58.1547C81.0291 58.0908 81.7291 58.0908 82.3655 58.0908C83.7019 58.0269 85.0383 58.0269 86.3747 58.0269ZM86.311 70.616C88.0293 70.616 89.7475 70.616 91.4657 70.616C91.7203 70.616 91.7839 70.5521 91.7839 70.2964C91.7839 67.3568 91.7839 64.4173 91.7839 61.4777C91.7839 61.2221 91.7203 61.1582 91.4657 61.1582C88.0293 61.1582 84.5928 61.1582 81.22 61.1582C80.9655 61.1582 80.9018 61.2221 80.9018 61.4777C80.9018 64.4173 80.9018 67.3568 80.9018 70.2964C80.9018 70.5521 80.9655 70.616 81.22 70.616C82.9382 70.616 84.6565 70.616 86.311 70.616Z" fill="#213254"/>
<path d="M15.543 63.3305C15.4794 63.3305 15.4794 63.3305 15.4794 63.3944C14.9703 64.4169 14.143 65.1837 13.3793 66.0784C12.1702 67.4843 10.9611 68.8902 9.75198 70.296C9.6247 70.4239 9.56107 70.4878 9.37015 70.296C7.58829 68.2511 5.80644 66.2701 3.96094 64.2252C3.77003 64.0334 3.64275 63.7139 3.51547 63.5222C3.51547 63.3944 3.45184 63.2666 3.3882 63.2666C3.32456 63.3944 3.3882 63.5861 3.3882 63.7139C3.45184 64.4808 3.3882 65.2476 3.3882 66.0145C3.3882 68.5067 3.3882 71.0629 3.3882 73.5551C3.3882 73.8108 3.32456 73.9386 3.00637 73.9386C2.30636 73.9386 1.5427 73.9386 0.842686 73.9386C0.588135 73.9386 0.588135 73.8747 0.588135 73.683C0.588135 68.5706 0.588135 63.4583 0.588135 58.4099C0.588135 58.1543 0.651773 58.0904 0.906324 58.0904C1.60634 58.0904 2.36999 58.0904 3.07001 58.0904C3.26092 58.0904 3.3882 58.1543 3.51547 58.2821C5.48825 60.7104 7.46102 63.0749 9.37015 65.5032C9.49743 65.631 9.56107 65.695 9.68834 65.5032C11.6611 63.2027 13.5702 60.8382 15.543 58.5377C15.7976 58.2182 16.0521 58.0265 16.4976 58.0904C17.134 58.1543 17.7067 58.0904 18.3431 58.0904C18.534 58.0904 18.5976 58.1543 18.5976 58.346C18.5976 63.4583 18.5976 68.5706 18.5976 73.6191C18.5976 73.8108 18.534 73.9386 18.3431 73.9386C17.5158 73.9386 16.6249 73.9386 15.7976 73.9386C15.6067 73.9386 15.543 73.8747 15.543 73.683C15.543 70.3599 15.543 67.0369 15.543 63.7139C15.543 63.5222 15.543 63.4583 15.543 63.3305Z" fill="#213254"/>
<path d="M49.2771 58.0269C50.8681 58.0269 52.459 58.0269 54.1136 58.0269C54.5591 58.0269 55.0045 58.0908 55.45 58.2186C56.3409 58.4742 56.7864 59.1132 56.9773 59.944C57.1682 60.5191 57.1682 61.1582 57.1682 61.7972C57.1682 61.925 57.1046 62.0528 57.0409 62.1167C56.15 63.1392 55.2591 64.0977 54.4318 65.1202C54.3681 65.1841 54.3681 65.248 54.2409 65.1841C54.1772 65.1202 54.1772 65.0563 54.1772 64.9924C54.1772 63.8421 54.1772 62.6919 54.1772 61.5416C54.1772 61.3499 54.1136 61.286 53.9227 61.286C50.8044 61.286 47.6862 61.286 44.5043 61.286C44.2497 61.286 44.2497 61.3499 44.2497 61.5416C44.2497 64.4812 44.2497 67.4208 44.2497 70.3603C44.2497 70.616 44.3134 70.6799 44.5679 70.6799C47.6862 70.6799 50.8044 70.6799 53.9227 70.6799C54.1772 70.6799 54.2409 70.616 54.2409 70.3603C54.2409 69.2101 54.2409 68.0598 54.2409 66.9095C54.2409 66.8456 54.1772 66.7178 54.3045 66.6539C54.4318 66.59 54.4318 66.7178 54.4954 66.7817C55.3227 67.6764 56.15 68.571 56.9773 69.5296C57.1682 69.7213 57.2318 69.913 57.2318 70.1686C57.1682 70.9355 57.1682 71.7023 56.85 72.4692C56.5318 73.236 55.8954 73.6194 55.0682 73.8112C54.5591 73.8751 54.05 73.939 53.6045 73.939C50.6771 73.939 47.7498 73.939 44.8225 73.939C44.2497 73.939 43.7406 73.8751 43.2315 73.7473C42.3406 73.4916 41.8315 72.9804 41.5769 72.0857C41.386 71.5106 41.3224 70.9994 41.3224 70.4242C41.3224 67.4847 41.3224 64.4812 41.3224 61.5416C41.3224 60.9025 41.386 60.3274 41.5769 59.7523C41.8951 58.7298 42.7224 58.2186 43.7406 58.1547C43.9952 58.1547 44.3134 58.0908 44.5679 58.0908C46.1589 58.0269 47.7498 58.0269 49.2771 58.0269Z" fill="#213254"/>
<path d="M37.9366 73.8765C37.4275 73.8765 36.8548 73.8765 36.3457 73.8765C36.1548 73.8765 36.0275 73.8126 35.9638 73.6208C35.5184 72.5984 35.0093 71.6398 34.5638 70.6174C34.5002 70.4896 34.4365 70.4256 34.2456 70.4256C31.5092 70.4256 28.8364 70.4256 26.1 70.4256C25.8454 70.4256 25.8454 70.5535 25.7182 70.7452C25.2727 71.7037 24.8272 72.6623 24.4454 73.6208C24.3818 73.8126 24.2545 73.8765 23.9999 73.8765C23.0454 73.8765 22.1544 73.8765 21.1999 73.8765C20.8817 73.8765 20.8817 73.8126 21.009 73.5569C22.4726 70.5535 23.9999 67.55 25.4636 64.5465C26.4818 62.4376 27.5 60.3927 28.5182 58.2839C28.6455 58.0283 28.7728 57.9644 29.091 57.9644C29.9819 57.9644 30.8092 57.9644 31.7001 57.9644C31.891 57.9644 31.9547 58.0283 32.0183 58.1561C32.9729 60.0093 33.8638 61.9264 34.8184 63.7796C35.7729 65.6328 36.6639 67.4861 37.6184 69.3393C38.3184 70.7452 39.0185 72.1511 39.7185 73.493C39.8458 73.7487 39.8458 73.7487 39.5276 73.7487C39.0185 73.8765 38.4457 73.8765 37.9366 73.8765ZM30.1728 61.4152C29.9183 61.9264 29.7273 62.3737 29.4728 62.8211C28.7728 64.227 28.0728 65.6967 27.3727 67.1026C27.2455 67.3583 27.2455 67.3583 27.5637 67.3583C29.2819 67.3583 30.9365 67.3583 32.6547 67.3583C32.9729 67.3583 32.9729 67.3583 32.8456 67.0387C32.2729 65.8246 31.7001 64.5465 31.1274 63.3323C30.8092 62.7572 30.491 62.1181 30.1728 61.4152Z" fill="#213254"/>
<path d="M73.7662 74.0032C72.939 74.0032 72.1753 74.0032 71.348 74.0032C71.1571 74.0032 71.0298 73.9393 70.8389 73.8114C69.057 71.8943 67.3388 69.9133 65.557 67.9962C64.9842 67.3571 64.4115 66.7181 63.8387 66.143C63.7115 66.0152 63.7115 65.9512 63.8387 65.8234C66.0661 63.3312 68.2934 60.775 70.5207 58.2189C70.648 58.0271 70.8389 57.9632 71.0298 57.9632C72.6208 57.9632 74.2753 57.9632 75.8663 57.9632C75.9299 57.9632 76.0572 57.8993 76.1208 58.0271C76.1845 58.155 76.0572 58.2189 75.9936 58.2828C73.7662 60.775 71.6026 63.2673 69.3752 65.7595C69.248 65.8873 69.248 66.0152 69.3752 66.143C71.5389 68.5074 73.7026 70.8719 75.8663 73.2363C76.0572 73.428 76.1845 73.6197 76.3754 73.8114C76.439 73.8754 76.5027 73.8753 76.5027 73.9393C76.5027 74.0671 76.3754 74.0032 76.3118 74.0032C75.4845 74.0032 74.5935 74.0032 73.7662 74.0032Z" fill="#009E47"/>
<path d="M45.8339 2.43109C45.5794 2.68671 45.3885 2.87842 45.1339 3.13404C43.4157 4.85945 41.6338 6.52095 39.9156 8.24636C39.2156 8.8854 38.5792 9.52444 37.8792 10.2274C37.7519 10.3552 37.6246 10.3552 37.4974 10.2274C35.2064 7.99074 32.9154 5.7541 30.6881 3.58136C30.3699 3.26184 30.0517 2.94232 29.7336 2.6228C29.7336 2.5589 29.6063 2.5589 29.6699 2.43109C29.7336 2.36719 29.7972 2.36719 29.8608 2.36719H29.9245C35.1428 2.36719 40.4247 2.36719 45.643 2.36719C45.7067 2.43109 45.7703 2.36719 45.8339 2.43109Z" fill="#FFB600"/>
<path d="M60.1511 65.8882C60.1511 63.3959 60.1511 60.8398 60.1511 58.3475C60.1511 58.0919 60.2148 57.9641 60.4693 58.028C61.3602 58.028 62.2512 58.028 63.1421 58.028C63.3967 58.028 63.4603 58.0919 63.4603 58.3475C63.4603 60.3925 63.4603 62.5013 63.4603 64.5462C63.4603 64.7379 63.3967 64.8657 63.2694 64.9935C63.0148 65.3131 62.7603 65.5687 62.5057 65.8882C62.3784 66.016 62.3784 66.0799 62.5057 66.2077C62.7603 66.5272 63.0148 66.7829 63.333 67.1024C63.4603 67.2302 63.4603 67.2941 63.4603 67.4858C63.4603 69.5307 63.4603 71.6396 63.4603 73.6845C63.4603 73.9401 63.3967 73.9401 63.1421 73.9401C62.2512 73.9401 61.3602 73.9401 60.4693 73.9401C60.2148 73.9401 60.1511 73.8762 60.1511 73.6206C60.1511 71.0005 60.1511 68.4444 60.1511 65.8882Z" fill="#213254"/>
</g>
<path d="M2.87117 85.1892L4.3333 82.2216H5.65248L3.61449 85.9758C3.5437 86.1038 3.46201 86.2263 3.36944 86.3436C3.27959 86.4587 3.17204 86.5621 3.04679 86.6538C2.92155 86.7433 2.77179 86.8147 2.59754 86.868C2.42328 86.9192 2.21499 86.9448 1.97266 86.9448C1.91276 86.9448 1.83925 86.9437 1.75212 86.9416C1.66499 86.9395 1.59556 86.9363 1.54383 86.932L1.53566 86.1837C1.56833 86.1901 1.62006 86.1944 1.69086 86.1965C1.76165 86.1965 1.81338 86.1965 1.84605 86.1965C2.0067 86.1965 2.1333 86.1784 2.22588 86.1421C2.31845 86.1059 2.39197 86.0547 2.44642 85.9886C2.5036 85.9204 2.55397 85.8405 2.59754 85.7488L2.87117 85.1892ZM1.90323 82.2216L3.25917 84.5272L3.63899 85.5857L2.72823 85.5985L0.588135 82.2216H1.90323Z" fill="black"/>
<path d="M10.174 82.2216H11.4033V83.651C11.4033 83.8557 11.4428 84.0156 11.5217 84.1307C11.6034 84.2458 11.7259 84.3268 11.8893 84.3737C12.0554 84.4185 12.261 84.4409 12.506 84.4409C12.5986 84.4409 12.7075 84.4377 12.8327 84.4313C12.9607 84.4249 13.0914 84.4153 13.2248 84.4025C13.3582 84.3876 13.4862 84.3716 13.6087 84.3545C13.7313 84.3354 13.8334 84.314 13.915 84.2906V85.0389C13.8334 85.0602 13.7313 85.0805 13.6087 85.0996C13.4862 85.1188 13.3582 85.1359 13.2248 85.1508C13.0914 85.1636 12.9607 85.1732 12.8327 85.1796C12.7075 85.186 12.5986 85.1892 12.506 85.1892C12.0322 85.1892 11.6211 85.1359 11.2726 85.0293C10.9241 84.9227 10.6532 84.7564 10.4599 84.5304C10.2693 84.3023 10.174 84.0092 10.174 83.651V82.2216ZM13.6577 82.2216H14.883V86.8776H13.6577V82.2216Z" fill="black"/>
<path d="M23.7827 86.1293V86.8776H20.6175V86.1293H23.7827ZM21.0177 82.2216V86.8776H19.7925V82.2216H21.0177ZM23.3702 84.1179V84.847H20.6175V84.1179H23.3702ZM23.7786 82.2216V82.9731H20.6175V82.2216H23.7786Z" fill="black"/>
<path d="M32.2331 82.2216V82.9731H29.558V86.8776H28.3368V82.2216H32.2331ZM29.1373 83.9196H30.5259C30.9942 83.9196 31.3972 83.9804 31.7348 84.1019C32.0725 84.2234 32.3325 84.394 32.5149 84.6136C32.6973 84.8332 32.7886 85.089 32.7886 85.381C32.7886 85.6028 32.7368 85.8053 32.6334 85.9886C32.5299 86.1698 32.3788 86.3276 32.18 86.4619C31.984 86.5941 31.7471 86.6964 31.4694 86.7689C31.1916 86.8414 30.8772 86.8776 30.5259 86.8776H28.3368V82.2216H29.5662V86.1293H30.5259C30.7601 86.1293 30.9534 86.0952 31.1059 86.027C31.2584 85.9588 31.3727 85.8682 31.4489 85.7552C31.5279 85.6401 31.5674 85.5132 31.5674 85.3747C31.5674 85.2425 31.5279 85.1231 31.4489 85.0165C31.3727 84.9078 31.2584 84.8225 31.1059 84.7607C30.9534 84.6988 30.7601 84.6679 30.5259 84.6679H29.1373V83.9196Z" fill="black"/>
<path d="M41.4024 84.1179V84.8662H38.2984V84.1179H41.4024ZM38.6619 82.2216V86.8776H37.4366V82.2216H38.6619ZM42.2764 82.2216V86.8776H41.0552V82.2216H42.2764Z" fill="black"/>
<path d="M47.9986 83.9196H49.3872C49.8528 83.9196 50.2544 83.9804 50.592 84.1019C50.9324 84.2234 51.1924 84.394 51.3721 84.6136C51.5545 84.8332 51.6457 85.089 51.6457 85.381C51.6457 85.6028 51.594 85.8053 51.4905 85.9886C51.3871 86.1698 51.2373 86.3276 51.0413 86.4619C50.8452 86.5941 50.6084 86.6964 50.3306 86.7689C50.0529 86.8414 49.7384 86.8776 49.3872 86.8776H47.1981V82.2216H48.4274V86.1293H49.3872C49.6186 86.1293 49.8106 86.0952 49.9631 86.027C50.1183 85.9588 50.234 85.8682 50.3102 85.7552C50.3864 85.6401 50.4246 85.5132 50.4246 85.3747C50.4246 85.2425 50.3864 85.1231 50.3102 85.0165C50.234 84.9078 50.1183 84.8225 49.9631 84.7607C49.8106 84.6988 49.6186 84.6679 49.3872 84.6679H47.9986V83.9196ZM53.3937 82.2216V86.8776H52.1726V82.2216H53.3937Z" fill="black"/>
<path d="M59.4876 85.3683L61.8768 82.2216H63.1021V86.8776H61.8768V83.731L59.4876 86.8776H58.2624V82.2216H59.4876V85.3683ZM61.2765 81H62.1137C62.1137 81.1833 62.0552 81.3464 61.9381 81.4893C61.8238 81.63 61.6604 81.7408 61.448 81.8218C61.2356 81.9007 60.9851 81.9402 60.6965 81.9402C60.2582 81.9402 59.911 81.8528 59.6551 81.6779C59.4019 81.5031 59.2752 81.2771 59.2752 81H60.1084C60.1084 81.1109 60.152 81.21 60.2391 81.2974C60.329 81.3848 60.4814 81.4285 60.6965 81.4285C60.9089 81.4285 61.0587 81.3848 61.1458 81.2974C61.2329 81.21 61.2765 81.1109 61.2765 81Z" fill="black"/>
<path d="M79.5374 86.1325L79.4598 88.0001H78.3162V86.8776H77.8302V86.1325H79.5374ZM73.8808 86.8776V82.2216H75.102V86.1293H77.4953V82.2216H78.7246V86.8776H73.8808Z" fill="black"/>
<path d="M88.1267 86.1293V86.8776H84.9614V86.1293H88.1267ZM85.3617 82.2216V86.8776H84.1364V82.2216H85.3617ZM87.7142 84.1179V84.847H84.9614V84.1179H87.7142ZM88.1226 82.2216V82.9731H84.9614V82.2216H88.1226Z" fill="black"/>
<path d="M96.6547 84.1179V84.8662H93.5507V84.1179H96.6547ZM93.9142 82.2216V86.8776H92.689V82.2216H93.9142ZM97.5287 82.2216V86.8776H96.3075V82.2216H97.5287Z" fill="black"/>
<path d="M104.979 82.2216V86.8776H103.757V82.2216H104.979ZM106.808 82.2216V82.9731H101.956V82.2216H106.808Z" fill="black"/>
<path d="M113.67 85.218H112.155V84.4697H113.67C113.904 84.4697 114.095 84.4398 114.242 84.3801C114.389 84.3183 114.496 84.233 114.564 84.1243C114.632 84.0156 114.666 83.893 114.666 83.7565C114.666 83.618 114.632 83.489 114.564 83.3696C114.496 83.2502 114.389 83.1543 114.242 83.0818C114.095 83.0093 113.904 82.9731 113.67 82.9731H112.579V86.8776H111.354V82.2216H113.67C114.136 82.2216 114.534 82.2877 114.867 82.4198C115.201 82.5499 115.457 82.73 115.634 82.9603C115.811 83.1905 115.9 83.4538 115.9 83.7501C115.9 84.0507 115.811 84.3108 115.634 84.5304C115.457 84.75 115.201 84.9195 114.867 85.0389C114.534 85.1583 114.136 85.218 113.67 85.218Z" fill="black"/>
<defs>
<clipPath id="clip0_919_2575">
<rect width="115.312" height="74.0009" fill="white" transform="translate(0.588135)"/>
</clipPath>
</defs>
</svg>
