<svg width="84" height="88" viewBox="0 0 84 88" fill="none" xmlns="http://www.w3.org/2000/svg">
<path d="M66.4818 22.8192C66.4818 27.3762 65.5065 31.1013 63.5942 34.5995C62.3895 36.774 60.8214 38.6838 59.043 40.4423C53.7268 45.6801 48.4489 50.9179 43.1519 56.1556C42.9224 56.3825 42.7886 56.3636 42.5973 56.1556C41.8898 55.4371 41.1822 54.7375 40.4556 54.0378C40.207 53.792 40.2452 53.6408 40.4747 53.4138C43.1901 50.7477 45.8865 48.0815 48.6019 45.3965C51.4703 42.5601 54.3579 39.7427 57.1881 36.8685C59.3489 34.6751 60.8788 32.0657 61.7967 29.1159C62.6189 26.4686 62.9058 23.7646 62.5425 21.0039C62.1409 17.7894 61.0126 14.8396 59.1386 12.1924C56.863 8.97786 53.8798 6.63316 50.1891 5.15826C47.7414 4.17499 45.198 3.72118 42.5591 3.759C39.8628 3.79682 37.2812 4.36408 34.8143 5.4608C31.2192 7.06806 28.3699 9.50731 26.2091 12.7596C25.0617 14.556 24.2203 16.4658 23.6848 18.508C23.092 20.8149 22.9391 23.1596 23.1877 25.5232C23.4362 27.7355 24.0291 29.8344 25.0043 31.8388C25.9605 33.8053 27.2226 35.5638 28.7715 37.1143C29.6512 38.0031 29.6512 39.1943 28.7715 39.9885C28.0257 40.6503 26.8784 40.5936 26.1517 39.8561C23.4554 37.19 21.524 34.0511 20.3766 30.4584C19.4396 27.5086 19.0762 24.4832 19.3631 21.3821C19.6308 18.3378 20.4531 15.4636 21.8491 12.7596C23.4745 9.56404 25.7692 6.89788 28.6377 4.74226C30.3396 3.45645 32.1754 2.43537 34.145 1.66011C35.8852 0.979385 37.6828 0.506662 39.5377 0.241937C41.5456 -0.0416967 43.5535 -0.0795146 45.5614 0.147393C48.143 0.449935 50.6098 1.13066 52.9619 2.22737C55.5817 3.45645 57.8956 5.10153 59.8844 7.1626C62.4277 9.79095 64.2826 12.8353 65.3918 16.3145C66.1376 18.6403 66.5009 20.985 66.4818 22.8192Z" fill="#FF2A26"/>
<path d="M47.8798 13.2305C48.2048 13.7788 48.3578 14.3083 48.5682 14.8188C49.8494 18.0144 51.1306 21.2289 52.4119 24.4246C52.8326 25.4645 53.2533 26.4856 53.6549 27.5445C53.7505 27.8282 53.9035 27.8849 54.1712 27.8849C54.5154 27.866 54.8596 27.8849 55.2038 27.8849C55.4142 27.8849 55.5289 27.9416 55.5098 28.1685C55.4906 28.698 55.5098 29.2463 55.5098 29.7758C55.5098 30.0027 55.4142 30.0972 55.1847 30.0972C52.4501 30.0972 49.7155 30.0972 47.0001 30.0972C46.7324 30.0972 46.6176 30.0027 46.6176 29.738C46.6368 29.2274 46.6176 28.7169 46.6176 28.2063C46.6176 27.9794 46.6941 27.866 46.9427 27.8849C47.1913 27.9038 47.459 27.8849 47.7268 27.8849C47.918 27.8849 47.9562 27.8092 47.8989 27.6391C47.5355 26.618 47.1913 25.5969 46.8089 24.5758C46.7706 24.5002 46.7706 24.3489 46.6559 24.3489C46.5412 24.3489 46.4838 24.4813 46.4264 24.5569C45.3555 26.2965 44.3038 28.0172 43.2329 29.7569C43.2138 29.7947 43.1755 29.8325 43.1564 29.8892C43.0226 30.154 42.8887 30.1729 42.7357 29.9081C42.2768 29.1518 41.8178 28.3954 41.3397 27.6391C40.7087 26.618 40.0776 25.578 39.4466 24.5569C39.3892 24.4813 39.3701 24.33 39.2171 24.3678C39.1024 24.4056 39.1024 24.5191 39.0641 24.5947C38.7199 25.5591 38.3757 26.5045 38.0315 27.4689C37.8976 27.8282 37.9359 27.866 38.2992 27.8849C39.2171 27.9038 39.2171 27.9038 39.2171 28.8114C39.2171 29.0951 39.198 29.3976 39.2171 29.6812C39.2362 30.0027 39.1215 30.1161 38.7964 30.1161C37.7446 30.0972 36.712 30.1161 35.6603 30.1161C34.0348 30.1161 32.4094 30.1161 30.7839 30.1161C30.4206 30.1161 30.3059 30.0027 30.325 29.6623C30.3441 29.2085 30.3441 28.7547 30.325 28.3198C30.3059 28.0172 30.3823 27.866 30.7266 27.9038C31.0516 27.9227 31.3959 27.8849 31.7209 27.9227C31.9695 27.9416 32.0843 27.8282 32.1799 27.6012C32.811 26.0129 33.442 24.4246 34.0731 22.8362C34.9718 20.586 35.8706 18.3548 36.7694 16.1046C37.0945 15.2915 37.4004 14.4785 37.7446 13.6654C37.7829 13.5519 37.802 13.3628 37.955 13.3628C38.0889 13.3439 38.1271 13.5141 38.1845 13.6276C39.0832 15.1781 39.982 16.7475 40.8808 18.2981C41.4736 19.3191 42.0473 20.3213 42.6401 21.3235C42.7166 21.4369 42.7548 21.626 42.9078 21.626C43.0608 21.626 43.1182 21.4369 43.1755 21.3046C44.6289 18.7897 46.0822 16.2559 47.5355 13.741C47.6694 13.5708 47.765 13.4385 47.8798 13.2305Z" fill="#FF2A26"/>
<path d="M7.51793 66.7179L10.2697 71.3855L13.0214 66.7179L13.6545 72.2259H15.2306L13.9903 62.7227L10.2697 68.8642L6.56193 62.7227L5.32171 72.2259H6.89782L7.51793 66.7179Z" fill="#FF2A26"/>
<path d="M16.1452 69.2521C16.1452 69.8555 16.283 70.3942 16.5586 70.8683C16.8428 71.3338 17.2261 71.7001 17.7084 71.9673C18.1907 72.2259 18.7376 72.3552 19.3491 72.3552C19.9606 72.3552 20.5032 72.2259 20.9769 71.9673C21.4592 71.7001 21.8425 71.3338 22.1267 70.8683C22.4109 70.3942 22.553 69.8555 22.553 69.2521C22.553 68.6401 22.4109 68.1014 22.1267 67.6359C21.8425 67.1704 21.4592 66.8084 20.9769 66.5498C20.5032 66.2826 19.9606 66.149 19.3491 66.149C18.7376 66.149 18.1907 66.2826 17.7084 66.5498C17.2261 66.8084 16.8428 67.1704 16.5586 67.6359C16.283 68.1014 16.1452 68.6401 16.1452 69.2521ZM17.5792 69.2521C17.5792 68.8815 17.6567 68.5539 17.8117 68.2695C17.9668 67.985 18.1778 67.7652 18.4448 67.6101C18.7118 67.4549 19.0132 67.3773 19.3491 67.3773C19.6764 67.3773 19.9735 67.4549 20.2405 67.6101C20.5161 67.7652 20.7314 67.985 20.8865 68.2695C21.0415 68.5539 21.119 68.8815 21.119 69.2521C21.119 69.6228 21.0415 69.9503 20.8865 70.2348C20.7314 70.5106 20.5161 70.7304 20.2405 70.8942C19.9735 71.0493 19.6764 71.1269 19.3491 71.1269C19.0132 71.1269 18.7118 71.0493 18.4448 70.8942C18.1778 70.7304 17.9668 70.5106 17.8117 70.2348C17.6567 69.9503 17.5792 69.6228 17.5792 69.2521Z" fill="#FF2A26"/>
<path d="M24.8071 69.2521C24.8071 68.8815 24.8889 68.5539 25.0525 68.2695C25.2162 67.985 25.4358 67.7609 25.7114 67.5971C25.9956 67.4333 26.31 67.3515 26.6545 67.3515C26.9301 67.3515 27.1971 67.3946 27.4555 67.4808C27.7138 67.567 27.9421 67.6876 28.1402 67.8428C28.3469 67.9893 28.4976 68.1617 28.5923 68.36V66.8213C28.3856 66.6145 28.1057 66.4507 27.7526 66.33C27.3995 66.2093 27.0119 66.149 26.5899 66.149C25.9784 66.149 25.4272 66.2826 24.9363 66.5498C24.4539 66.8084 24.0707 67.1704 23.7865 67.6359C23.5109 68.1014 23.3731 68.6401 23.3731 69.2521C23.3731 69.8555 23.5109 70.3942 23.7865 70.8683C24.0707 71.3338 24.4539 71.7001 24.9363 71.9673C25.4272 72.2259 25.9784 72.3552 26.5899 72.3552C27.0119 72.3552 27.3995 72.2949 27.7526 72.1742C28.1057 72.0535 28.3856 71.8898 28.5923 71.6829V70.1443C28.4976 70.3339 28.3512 70.5063 28.1531 70.6614C27.955 70.8166 27.7268 70.9373 27.4684 71.0235C27.21 71.1097 26.9387 71.1528 26.6545 71.1528C26.31 71.1528 25.9956 71.0709 25.7114 70.9071C25.4358 70.7433 25.2162 70.5235 25.0525 70.2477C24.8889 69.9632 24.8071 69.6314 24.8071 69.2521Z" fill="#FF2A26"/>
<path d="M30.0829 66.2783V72.2259H31.4523V66.2783H30.0829ZM33.6356 66.2783L31.0647 68.7349L33.9069 72.2259H35.5993L32.7829 68.7349L35.3409 66.2783H33.6356Z" fill="#FF2A26"/>
<path d="M35.8895 69.2521C35.8895 69.8555 36.0273 70.3942 36.3029 70.8683C36.5872 71.3338 36.9704 71.7001 37.4527 71.9673C37.935 72.2259 38.4819 72.3552 39.0934 72.3552C39.7049 72.3552 40.2475 72.2259 40.7212 71.9673C41.2035 71.7001 41.5868 71.3338 41.871 70.8683C42.1552 70.3942 42.2973 69.8555 42.2973 69.2521C42.2973 68.6401 42.1552 68.1014 41.871 67.6359C41.5868 67.1704 41.2035 66.8084 40.7212 66.5498C40.2475 66.2826 39.7049 66.149 39.0934 66.149C38.4819 66.149 37.935 66.2826 37.4527 66.5498C36.9704 66.8084 36.5872 67.1704 36.3029 67.6359C36.0273 68.1014 35.8895 68.6401 35.8895 69.2521ZM37.3235 69.2521C37.3235 68.8815 37.4011 68.5539 37.5561 68.2695C37.7111 67.985 37.9221 67.7652 38.1891 67.6101C38.4561 67.4549 38.7575 67.3773 39.0934 67.3773C39.4207 67.3773 39.7179 67.4549 39.9849 67.6101C40.2605 67.7652 40.4758 67.985 40.6308 68.2695C40.7858 68.5539 40.8633 68.8815 40.8633 69.2521C40.8633 69.6228 40.7858 69.9503 40.6308 70.2348C40.4758 70.5106 40.2605 70.7304 39.9849 70.8942C39.7179 71.0493 39.4207 71.1269 39.0934 71.1269C38.7575 71.1269 38.4561 71.0493 38.1891 70.8942C37.9221 70.7304 37.7111 70.5106 37.5561 70.2348C37.4011 69.9503 37.3235 69.6228 37.3235 69.2521Z" fill="#FF2A26"/>
<path d="M44.5127 69.1228V69.7305H46.2309C46.4031 69.7305 46.5495 69.7478 46.6701 69.7822C46.7993 69.8167 46.8984 69.8684 46.9673 69.9374C47.0448 70.0063 47.1051 70.0839 47.1481 70.1701C47.1912 70.2563 47.2127 70.3511 47.2127 70.4546C47.2127 70.6528 47.1352 70.8252 46.9802 70.9718C46.8251 71.1183 46.5754 71.1916 46.2309 71.1916H44.5127V72.2259H46.6572C47.3376 72.2259 47.8242 72.0708 48.1171 71.7605C48.4185 71.4415 48.5692 71.058 48.5692 70.6097C48.5692 70.2218 48.4745 69.9201 48.285 69.7047C48.0955 69.4892 47.8371 69.3383 47.5099 69.2521C47.1826 69.1659 46.8122 69.1228 46.3988 69.1228H44.5127ZM44.5127 69.3814H46.2696C46.64 69.3814 46.9759 69.3297 47.2773 69.2263C47.5874 69.1142 47.8371 68.9504 48.0266 68.7349C48.2161 68.5108 48.3108 68.2307 48.3108 67.8945C48.3108 67.5066 48.2161 67.1963 48.0266 66.9636C47.8371 66.7222 47.5874 66.5498 47.2773 66.4464C46.9759 66.3343 46.64 66.2783 46.2696 66.2783H44.5127V67.3127H46.1017C46.3687 67.3127 46.5754 67.3773 46.7218 67.5066C46.8768 67.6359 46.9543 67.7997 46.9543 67.9979C46.9543 68.0928 46.9328 68.1833 46.8897 68.2695C46.8467 68.3557 46.7907 68.4332 46.7218 68.5022C46.6529 68.5712 46.5625 68.6229 46.4505 68.6574C46.3471 68.6918 46.2309 68.7091 46.1017 68.7091H44.5127V69.3814ZM43.6988 66.2783V72.2259H45.0682V66.2783H43.6988Z" fill="#FF2A26"/>
<path d="M50.7838 69.2521C50.7838 68.8815 50.8656 68.5539 51.0293 68.2695C51.1929 67.985 51.4125 67.7609 51.6881 67.5971C51.9724 67.4333 52.2867 67.3515 52.6312 67.3515C52.9068 67.3515 53.1738 67.3946 53.4322 67.4808C53.6906 67.567 53.9188 67.6876 54.1169 67.8428C54.3236 67.9893 54.4743 68.1617 54.5691 68.36V66.8213C54.3624 66.6145 54.0825 66.4507 53.7293 66.33C53.3762 66.2093 52.9886 66.149 52.5666 66.149C51.9551 66.149 51.4039 66.2826 50.913 66.5498C50.4307 66.8084 50.0474 67.1704 49.7632 67.6359C49.4876 68.1014 49.3498 68.6401 49.3498 69.2521C49.3498 69.8555 49.4876 70.3942 49.7632 70.8683C50.0474 71.3338 50.4307 71.7001 50.913 71.9673C51.4039 72.2259 51.9551 72.3552 52.5666 72.3552C52.9886 72.3552 53.3762 72.2949 53.7293 72.1742C54.0825 72.0535 54.3624 71.8898 54.5691 71.6829V70.1443C54.4743 70.3339 54.3279 70.5063 54.1298 70.6614C53.9317 70.8166 53.7035 70.9373 53.4451 71.0235C53.1867 71.1097 52.9154 71.1528 52.6312 71.1528C52.2867 71.1528 51.9724 71.0709 51.6881 70.9071C51.4125 70.7433 51.1929 70.5235 51.0293 70.2477C50.8656 69.9632 50.7838 69.6314 50.7838 69.2521Z" fill="#FF2A26"/>
<path d="M56.0596 66.2783V72.2259H57.429V66.2783H56.0596ZM59.6123 66.2783L57.0414 68.7349L59.8836 72.2259H61.576L58.7597 68.7349L61.3176 66.2783H59.6123Z" fill="#FF2A26"/>
<path d="M67.8949 67.5713L67.9595 65.8258L62.624 70.933L62.5594 72.6785L67.8949 67.5713ZM63.9288 66.2783H62.5594V72.6785L63.9288 71.1011V66.2783ZM67.9595 65.8258L66.5901 67.4032V72.2259H67.9595V65.8258Z" fill="#FF2A26"/>
<path d="M75.1871 67.5713L75.2517 65.8258L69.9161 70.933L69.8515 72.6785L75.1871 67.5713ZM71.2209 66.2783H69.8515V72.6785L71.2209 71.1011V66.2783ZM75.2517 65.8258L73.8822 67.4032V72.2259H75.2517V65.8258ZM70.5362 63.2398C70.5362 63.5502 70.6137 63.8475 70.7688 64.132C70.9238 64.4164 71.1563 64.6449 71.4664 64.8173C71.7765 64.9897 72.1554 65.0758 72.6033 65.0758C73.0597 65.0758 73.4387 64.9897 73.7401 64.8173C74.0502 64.6449 74.2827 64.4164 74.4378 64.132C74.6014 63.8475 74.6832 63.5502 74.6832 63.2398H73.6109C73.6109 63.3691 73.5765 63.5027 73.5076 63.6407C73.4473 63.7786 73.3439 63.8949 73.1975 63.9898C73.0511 64.0846 72.853 64.132 72.6033 64.132C72.3535 64.132 72.1554 64.0846 72.009 63.9898C71.8626 63.8949 71.7549 63.7786 71.686 63.6407C71.6257 63.5027 71.5956 63.3691 71.5956 63.2398H70.5362Z" fill="#FF2A26"/>
<path d="M3.14642 79.6475L5.89817 84.3151L8.64991 79.6475L9.28294 85.1556H10.8591L9.61883 75.6523L5.89817 81.7939L2.19042 75.6523L0.950195 85.1556H2.52631L3.14642 79.6475Z" fill="#FF2A26"/>
<path d="M12.6005 82.505H17.8198C17.837 82.4274 17.8456 82.3584 17.8456 82.2981C17.8456 82.2292 17.8456 82.1688 17.8456 82.1171C17.8456 81.4879 17.725 80.9491 17.4839 80.5009C17.2427 80.044 16.8982 79.6949 16.4504 79.4536C16.0111 79.2036 15.4857 79.0786 14.8742 79.0786C14.3144 79.0786 13.8192 79.1821 13.3886 79.3889C12.9579 79.5958 12.6091 79.8846 12.3421 80.2552C12.0837 80.6259 11.9115 81.0569 11.8254 81.5482C11.8081 81.6516 11.7952 81.7551 11.7866 81.8585C11.778 81.9619 11.7737 82.0697 11.7737 82.1817C11.7737 82.7765 11.8986 83.3109 12.1483 83.785C12.3981 84.2505 12.7512 84.6168 13.2077 84.884C13.6642 85.1512 14.1981 85.2849 14.8096 85.2849C15.3522 85.2849 15.8044 85.2202 16.1661 85.0909C16.5365 84.953 16.8465 84.7634 17.0963 84.522C17.3547 84.2806 17.5829 84.0005 17.781 83.6816L16.5795 83.1903C16.4676 83.3799 16.3298 83.548 16.1661 83.6945C16.0025 83.8324 15.813 83.9402 15.5977 84.0177C15.391 84.0953 15.1498 84.1341 14.8742 84.1341C14.5383 84.1341 14.2412 84.0652 13.9828 83.9272C13.7331 83.7807 13.535 83.5652 13.3886 83.2808C13.2508 82.9877 13.1818 82.6213 13.1818 82.1817L13.2077 81.8197C13.2077 81.4749 13.2809 81.1775 13.4273 80.9276C13.5737 80.669 13.7718 80.475 14.0216 80.3457C14.2713 80.2078 14.5513 80.1389 14.8613 80.1389C15.1628 80.1389 15.4168 80.1992 15.6235 80.3199C15.8302 80.4319 15.9896 80.5957 16.1015 80.8112C16.2221 81.0181 16.2996 81.2637 16.3341 81.5482H12.6005V82.505Z" fill="#FF2A26"/>
<path d="M18.3632 79.2079V80.4362H22.1226V79.2079H18.3632ZM19.5646 79.4665V85.1556H20.934V79.4665H19.5646Z" fill="#FF2A26"/>
<path d="M24.4323 88.0001V79.2079H23.0241V88.0001H24.4323ZM29.3544 82.1817C29.3544 81.518 29.2209 80.9534 28.9539 80.488C28.6869 80.0225 28.3338 79.6691 27.8946 79.4277C27.4553 79.1778 26.9773 79.0528 26.4605 79.0528C25.9524 79.0528 25.5088 79.1821 25.1299 79.4407C24.7595 79.6906 24.471 80.0484 24.2643 80.5138C24.0662 80.9793 23.9672 81.5353 23.9672 82.1817C23.9672 82.8196 24.0662 83.3756 24.2643 83.8497C24.471 84.3151 24.7595 84.6772 25.1299 84.9358C25.5088 85.1857 25.9524 85.3107 26.4605 85.3107C26.9773 85.3107 27.4553 85.19 27.8946 84.9487C28.3338 84.6987 28.6869 84.341 28.9539 83.8755C29.2209 83.4014 29.3544 82.8368 29.3544 82.1817ZM27.9075 82.1817C27.9075 82.5782 27.8256 82.9187 27.662 83.2032C27.4984 83.479 27.2787 83.6902 27.0031 83.8367C26.7362 83.9746 26.439 84.0436 26.1117 84.0436C25.8447 84.0436 25.5821 83.9746 25.3237 83.8367C25.0653 83.6902 24.85 83.479 24.6777 83.2032C24.5141 82.9273 24.4323 82.5869 24.4323 82.1817C24.4323 81.7766 24.5141 81.4361 24.6777 81.1603C24.85 80.8845 25.0653 80.6776 25.3237 80.5397C25.5821 80.3931 25.8447 80.3199 26.1117 80.3199C26.439 80.3199 26.7362 80.3931 27.0031 80.5397C27.2787 80.6776 27.4984 80.8888 27.662 81.1732C27.8256 81.4491 27.9075 81.7852 27.9075 82.1817Z" fill="#FF2A26"/>
<path d="M30.2312 82.1817C30.2312 82.7851 30.369 83.3239 30.6446 83.7979C30.9288 84.2634 31.3121 84.6298 31.7944 84.897C32.2767 85.1556 32.8236 85.2849 33.4351 85.2849C34.0466 85.2849 34.5892 85.1556 35.0629 84.897C35.5452 84.6298 35.9284 84.2634 36.2127 83.7979C36.4969 83.3239 36.639 82.7851 36.639 82.1817C36.639 81.5697 36.4969 81.031 36.2127 80.5655C35.9284 80.1001 35.5452 79.738 35.0629 79.4795C34.5892 79.2122 34.0466 79.0786 33.4351 79.0786C32.8236 79.0786 32.2767 79.2122 31.7944 79.4795C31.3121 79.738 30.9288 80.1001 30.6446 80.5655C30.369 81.031 30.2312 81.5697 30.2312 82.1817ZM31.6652 82.1817C31.6652 81.8111 31.7427 81.4835 31.8977 81.1991C32.0527 80.9146 32.2638 80.6948 32.5307 80.5397C32.7977 80.3845 33.0992 80.3069 33.4351 80.3069C33.7624 80.3069 34.0595 80.3845 34.3265 80.5397C34.6021 80.6948 34.8174 80.9146 34.9724 81.1991C35.1275 81.4835 35.205 81.8111 35.205 82.1817C35.205 82.5524 35.1275 82.8799 34.9724 83.1644C34.8174 83.4402 34.6021 83.66 34.3265 83.8238C34.0595 83.979 33.7624 84.0565 33.4351 84.0565C33.0992 84.0565 32.7977 83.979 32.5307 83.8238C32.2638 83.66 32.0527 83.4402 31.8977 83.1644C31.7427 82.8799 31.6652 82.5524 31.6652 82.1817Z" fill="#FF2A26"/>
<path d="M43.2209 79.2079H37.9629V85.1556H39.3323V80.4621H41.8515V85.1556H43.2209V79.2079Z" fill="#FF2A26"/>
<path d="M44.5506 82.1817C44.5506 82.7851 44.6884 83.3239 44.964 83.7979C45.2482 84.2634 45.6314 84.6298 46.1138 84.897C46.5961 85.1556 47.143 85.2849 47.7545 85.2849C48.366 85.2849 48.9086 85.1556 49.3823 84.897C49.8646 84.6298 50.2478 84.2634 50.532 83.7979C50.8163 83.3239 50.9584 82.7851 50.9584 82.1817C50.9584 81.5697 50.8163 81.031 50.532 80.5655C50.2478 80.1001 49.8646 79.738 49.3823 79.4795C48.9086 79.2122 48.366 79.0786 47.7545 79.0786C47.143 79.0786 46.5961 79.2122 46.1138 79.4795C45.6314 79.738 45.2482 80.1001 44.964 80.5655C44.6884 81.031 44.5506 81.5697 44.5506 82.1817ZM45.9846 82.1817C45.9846 81.8111 46.0621 81.4835 46.2171 81.1991C46.3721 80.9146 46.5831 80.6948 46.8501 80.5397C47.1171 80.3845 47.4186 80.3069 47.7545 80.3069C48.0817 80.3069 48.3789 80.3845 48.6459 80.5397C48.9215 80.6948 49.1368 80.9146 49.2918 81.1991C49.4468 81.4835 49.5244 81.8111 49.5244 82.1817C49.5244 82.5524 49.4468 82.8799 49.2918 83.1644C49.1368 83.4402 48.9215 83.66 48.6459 83.8238C48.3789 83.979 48.0817 84.0565 47.7545 84.0565C47.4186 84.0565 47.1171 83.979 46.8501 83.8238C46.5831 83.66 46.3721 83.4402 46.2171 83.1644C46.0621 82.8799 45.9846 82.5524 45.9846 82.1817Z" fill="#FF2A26"/>
<path d="M57.902 79.2079H52.4631V82.8929C52.4631 83.2808 52.3684 83.5437 52.1789 83.6816C51.998 83.8195 51.7784 83.8885 51.52 83.8885V85.1556C52.0713 85.1556 52.5148 85.0823 52.8507 84.9358C53.1952 84.7806 53.445 84.5522 53.6 84.2505C53.755 83.9402 53.8325 83.5523 53.8325 83.0868V80.5009H56.5326V85.1556H57.902V79.2079Z" fill="#FF2A26"/>
<path d="M65.214 80.5009L65.2786 78.7554L59.943 83.8626L59.8784 85.6081L65.214 80.5009ZM61.2478 79.2079H59.8784V85.6081L61.2478 84.0307V79.2079ZM65.2786 78.7554L63.9091 80.3328V85.1556H65.2786V78.7554Z" fill="#FF2A26"/>
<path d="M66.2921 79.2079V80.4362H70.0515V79.2079H66.2921ZM67.4936 79.4665V85.1556H68.863V79.4665H67.4936Z" fill="#FF2A26"/>
<path d="M71.1901 82.505H76.4094C76.4266 82.4274 76.4352 82.3584 76.4352 82.2981C76.4352 82.2292 76.4352 82.1688 76.4352 82.1171C76.4352 81.4879 76.3146 80.9491 76.0735 80.5009C75.8323 80.044 75.4878 79.6949 75.04 79.4536C74.6007 79.2036 74.0753 79.0786 73.4638 79.0786C72.904 79.0786 72.4088 79.1821 71.9782 79.3889C71.5475 79.5958 71.1987 79.8846 70.9317 80.2552C70.6733 80.6259 70.5011 81.0569 70.415 81.5482C70.3977 81.6516 70.3848 81.7551 70.3762 81.8585C70.3676 81.9619 70.3633 82.0697 70.3633 82.1817C70.3633 82.7765 70.4882 83.3109 70.7379 83.785C70.9877 84.2505 71.3408 84.6168 71.7973 84.884C72.2538 85.1512 72.7878 85.2849 73.3992 85.2849C73.9418 85.2849 74.394 85.2202 74.7557 85.0909C75.1261 84.953 75.4361 84.7634 75.6859 84.522C75.9443 84.2806 76.1725 84.0005 76.3706 83.6816L75.1692 83.1903C75.0572 83.3799 74.9194 83.548 74.7557 83.6945C74.5921 83.8324 74.4026 83.9402 74.1873 84.0177C73.9806 84.0953 73.7394 84.1341 73.4638 84.1341C73.128 84.1341 72.8308 84.0652 72.5724 83.9272C72.3227 83.7807 72.1246 83.5652 71.9782 83.2808C71.8404 82.9877 71.7715 82.6213 71.7715 82.1817L71.7973 81.8197C71.7973 81.4749 71.8705 81.1775 72.0169 80.9276C72.1633 80.669 72.3614 80.475 72.6112 80.3457C72.861 80.2078 73.1409 80.1389 73.4509 80.1389C73.7524 80.1389 74.0064 80.1992 74.2131 80.3199C74.4198 80.4319 74.5792 80.5957 74.6911 80.8112C74.8117 81.0181 74.8892 81.2637 74.9237 81.5482H71.1901V82.505Z" fill="#FF2A26"/>
<path d="M78.3868 82.5955H82.9343V81.4448H78.3868V82.5955ZM82.185 79.2079V85.1556H83.5544V79.2079H82.185ZM77.7796 79.2079V85.1556H79.149V79.2079H77.7796Z" fill="#FF2A26"/>
</svg>
