<svg width="114" height="88" viewBox="0 0 114 88" fill="none" xmlns="http://www.w3.org/2000/svg">
<path d="M57.2896 14.4729C61.22 14.2568 65.8054 17.569 65.8781 22.8972C65.9509 27.2895 62.6756 31.1056 58.0175 31.5377C52.9226 31.9697 48.9195 28.2975 48.5555 23.6173C48.3372 21.2412 49.1378 19.0811 50.8118 17.281C52.4131 15.5529 54.451 14.5449 57.2896 14.4729Z" fill="#264593"/>
<path d="M68.5668 28.875C69.9497 28.875 70.9687 29.307 71.7693 30.3151C72.4244 31.1071 72.5699 32.0432 72.4971 33.0512C72.3516 34.5633 71.6237 35.7153 70.532 36.7234C69.7314 37.3714 68.8579 37.8034 67.839 38.0194C66.6744 38.2354 65.6554 38.0194 64.7093 37.4434C63.9086 36.9394 63.3991 36.1473 63.2536 35.2833C62.8897 33.5552 63.4719 32.0432 64.5637 30.7471C65.2187 29.9551 66.0922 29.379 67.1111 29.091C67.6206 28.947 68.1301 28.875 68.5668 28.875Z" fill="#264593"/>
<path d="M57.2152 42.0485C55.9779 42.0485 54.8861 41.7605 53.8671 41.0405C52.6298 40.1764 52.0475 39.0244 52.1203 37.5123C52.1931 36.8643 52.4115 36.2162 52.8482 35.7122C53.5032 34.8482 54.3766 34.2721 55.3228 33.9841C57.0696 33.4081 58.8165 33.6241 60.3449 34.6321C61.4367 35.3522 62.0917 36.2882 62.2373 37.5843C62.3829 38.6643 62.019 39.6004 61.2911 40.3924C60.1994 41.5445 58.8165 42.0485 57.2152 42.0485Z" fill="#264593"/>
<path d="M67.9187 23.1845C67.9187 21.6004 68.3554 20.3764 69.3016 19.3683C69.9567 18.7203 70.6845 18.2163 71.6307 18.0723C72.9408 17.8563 74.0326 18.2883 74.9788 19.2243C75.7794 20.0164 76.2161 20.9524 76.3617 22.0325C76.5072 22.8245 76.5072 23.6165 76.3617 24.4086C75.9249 26.2086 74.9788 27.5767 73.0864 28.0087C72.0674 28.2967 71.1212 28.0807 70.2478 27.5047C69.3016 26.8567 68.6465 25.9926 68.2826 24.9126C68.0643 24.2646 67.9187 23.6885 67.9187 23.1845Z" fill="#264593"/>
<path d="M66.8951 7.92188C68.2052 7.99388 69.2242 8.3539 70.0976 8.92992C71.1165 9.64996 71.9172 10.586 72.2811 11.8101C72.7178 13.1781 72.645 14.4742 71.8444 15.6262C71.3349 16.3463 70.6071 16.8503 69.6609 16.9943C69.3697 17.0663 69.1514 17.1383 68.8602 17.1383C67.4046 17.1383 66.0944 16.6343 65.0027 15.6982C64.2021 14.9782 63.6198 14.0422 63.3287 13.0341C62.9647 11.6661 63.1103 10.298 64.0565 9.21794C64.566 8.64191 65.221 8.20989 65.9489 8.06588C66.3128 7.99388 66.6767 7.99388 66.8951 7.92188Z" fill="#264593"/>
<path d="M45.8554 28.875C47.1655 28.875 48.2573 29.307 49.2762 30.1711C50.2224 30.9631 50.8775 31.9711 51.1686 33.1952C51.4598 34.4913 51.3142 35.7873 50.368 36.8674C49.8585 37.4434 49.2035 37.8034 48.4028 38.0194C46.7288 38.3794 45.3459 37.8754 44.0358 36.8674C43.1624 36.2193 42.5801 35.3553 42.2162 34.3473C41.7795 32.9792 41.7795 31.6111 42.7257 30.3871C43.3079 29.595 44.1814 29.091 45.2003 29.019C45.4187 28.875 45.637 28.875 45.8554 28.875Z" fill="#264593"/>
<path d="M47.4567 7.99066C49.2763 7.99066 50.732 9.07071 51.1687 10.7268C51.4598 11.8068 51.3143 12.8149 50.8776 13.8229C50.1497 15.407 48.9124 16.4871 47.2384 17.0631C45.9283 17.4951 44.6909 17.3511 43.5264 16.5591C42.5802 15.911 42.0707 14.975 41.9979 13.8949C41.8524 12.0228 42.653 10.5828 44.0359 9.35872C44.8365 8.63869 45.8555 8.20667 46.9472 8.06266C47.0928 7.91865 47.3112 7.99066 47.4567 7.99066Z" fill="#264593"/>
<path d="M46.5229 22.8965C46.4501 24.5526 46.0134 25.9206 44.8489 27.0007C43.9754 27.8647 42.8837 28.1527 41.6464 28.0087C40.6274 27.8647 39.754 27.2887 39.0989 26.4967C38.2983 25.4886 37.8616 24.2646 37.9344 22.9685C38.0071 21.3844 38.5166 19.9444 39.8268 18.9363C41.2096 17.7843 43.1748 17.7843 44.6305 18.9363C45.6495 19.7283 46.159 20.8084 46.3773 22.0325C46.4501 22.3205 46.5229 22.6805 46.5229 22.8965Z" fill="#264593"/>
<path d="M57.2278 12.4608C55.9904 12.4608 54.8987 12.1008 53.9525 11.4528C52.788 10.6607 52.1329 9.50869 52.2057 8.06862C52.2057 7.34859 52.4968 6.62856 52.9335 6.05253C53.6614 5.11649 54.6076 4.54046 55.8449 4.25245C56.6455 4.03644 57.4461 4.03644 58.2468 4.18044C60.0664 4.46846 61.4493 5.3325 62.1771 7.06058C62.6138 8.21263 62.3954 9.29268 61.7404 10.3007C61.0125 11.3808 59.9936 11.9568 58.7562 12.3168C58.2468 12.3888 57.7373 12.3888 57.2278 12.4608Z" fill="#264593"/>
<path d="M63.2628 44.3553C62.6806 44.3553 62.2439 44.2833 61.8799 43.9953C61.0793 43.4193 60.9337 42.6993 61.5888 41.8352C62.1711 41.0432 63.0445 40.6832 64.0635 40.5392C64.5729 40.4672 65.0824 40.4672 65.5919 40.6832C66.5381 41.0432 66.8293 41.9072 66.3198 42.6993C65.8103 43.4913 65.0824 43.9233 64.209 44.1393C63.8451 44.2833 63.4812 44.2833 63.2628 44.3553Z" fill="#264593"/>
<path d="M78.7634 28.9441C78.7634 30.0241 78.3995 30.9602 77.5989 31.6802C77.235 32.0402 76.7983 32.1842 76.3616 32.1842C75.7065 32.1122 75.197 31.6082 75.1242 30.9602C74.9059 29.8801 75.1242 28.8721 75.8521 27.936C76.216 27.432 76.7255 27 77.4533 27C77.89 27 78.254 27.216 78.5451 27.576C78.6907 28.008 78.7634 28.4401 78.7634 28.9441Z" fill="#264593"/>
<path d="M78.8268 17.1396C78.754 17.4996 78.6812 17.8597 78.6084 18.2197C78.2445 19.1557 77.4439 19.3717 76.5705 18.8677C75.9882 18.5797 75.6243 18.0757 75.4059 17.4996C75.042 16.7796 74.8964 15.9876 75.1148 15.1235C75.2604 14.6915 75.4787 14.3315 75.8426 14.0435C76.2793 13.7555 76.716 13.8275 77.1528 14.0435C77.8806 14.4755 78.3901 15.1235 78.6084 15.8436C78.6812 16.2756 78.6812 16.7076 78.8268 17.1396Z" fill="#264593"/>
<path d="M51.2484 44.3561C50.2294 44.2121 49.2105 43.9241 48.4826 43.1321C48.1915 42.772 47.9731 42.412 47.9731 41.908C47.9731 41.62 48.0459 41.404 48.2643 41.188C48.4826 40.972 48.7738 40.756 49.0649 40.6839C50.5206 40.2519 52.2674 40.972 52.9952 42.052C53.068 42.196 53.1408 42.412 53.2136 42.556C53.3592 43.2041 53.1408 43.7081 52.5585 44.0681C52.1218 44.2121 51.6851 44.2841 51.2484 44.3561Z" fill="#264593"/>
<path d="M38.0807 32.1853C37.4985 32.1853 37.0618 31.8972 36.6978 31.4652C35.8972 30.6012 35.6061 29.5211 35.7516 28.3691C35.7516 28.0811 35.8972 27.7931 36.0428 27.577C36.4795 26.857 37.4257 26.713 38.1535 27.289C38.8814 27.8651 39.2453 28.5851 39.3908 29.4491C39.4636 29.8812 39.4636 30.3852 39.3908 30.8172C39.3181 31.2492 39.0997 31.6812 38.663 31.8972C38.5174 32.1133 38.2991 32.1133 38.0807 32.1853Z" fill="#264593"/>
<path d="M35.7497 17.4271C35.8225 16.203 36.1137 15.267 36.9143 14.5469C37.1326 14.3309 37.4966 14.1869 37.7877 14.0429C38.2244 13.8269 38.6611 13.9709 39.025 14.3309C39.5345 14.7629 39.6801 15.411 39.6073 16.059C39.5345 16.851 39.3162 17.6431 38.8067 18.2911C38.4428 18.7231 38.0788 19.0111 37.5693 19.2271C37.0599 19.3711 36.4776 19.1551 36.1137 18.6511C35.8225 18.0751 35.677 17.6431 35.7497 17.4271Z" fill="#264593"/>
<path d="M64.4966 5.61722C63.5504 5.54522 62.677 5.25721 61.9492 4.68118C61.5853 4.39316 61.2941 3.96114 61.1486 3.45712C61.0758 3.0971 61.2214 2.73709 61.4397 2.52108C61.8036 2.08906 62.3131 1.87305 62.8954 1.87305C64.0599 1.87305 65.1517 2.23306 65.9523 3.0971C66.1707 3.38512 66.3162 3.67313 66.389 3.96114C66.5346 4.60917 66.0979 5.25721 65.37 5.47322C65.1517 5.54522 64.7878 5.54522 64.4966 5.61722Z" fill="#264593"/>
<path d="M49.9376 5.54416C49.5009 5.61616 49.0642 5.47215 48.6275 5.25614C48.0452 4.96813 47.7541 4.3201 48.118 3.60006C48.4092 2.95203 48.9914 2.52001 49.6465 2.232C50.156 2.01599 50.6655 1.87198 51.175 1.79998C51.6117 1.72798 52.1211 1.87198 52.5579 2.08799C53.2129 2.44801 53.5768 3.09604 53.1401 3.96008C52.7762 4.46411 52.3395 4.75212 51.9028 5.04013C51.4661 5.32815 50.6655 5.61616 49.9376 5.54416Z" fill="#264593"/>
<path d="M71.7743 40.5371C71.0465 40.6091 70.3914 39.9611 70.6098 39.025C71.0465 37.5849 71.9927 36.6489 73.4484 36.2889C74.3946 36.0729 75.1224 36.6489 74.9041 37.801C74.8313 38.089 74.6857 38.449 74.5401 38.665C74.0306 39.529 73.3028 40.1771 72.2838 40.4651C72.1383 40.5371 71.9199 40.5371 71.7743 40.5371Z" fill="#264593"/>
<path d="M42.6533 40.5388C42.4349 40.4668 42.1438 40.3948 41.8526 40.3227C40.6881 39.8187 39.8875 38.9547 39.5963 37.7306C39.3052 36.7226 40.1058 36.0025 41.052 36.2906C42.5077 36.6506 43.3811 37.5866 43.8178 38.9547C43.9634 39.4587 43.8906 40.1787 43.2355 40.3947C43.09 40.4668 42.8716 40.4668 42.6533 40.5388Z" fill="#264593"/>
<path d="M73.7489 9.79269C73.385 9.79269 73.021 9.72069 72.5843 9.50468C71.6381 9.00065 70.9831 8.28062 70.6919 7.27257C70.5464 6.91256 70.5464 6.55254 70.6919 6.19252C70.8375 5.83251 71.1286 5.6165 71.5653 5.6165C72.2932 5.54449 72.8755 5.83251 73.385 6.26453C73.9672 6.69655 74.4767 7.20057 74.6951 7.9206C74.7678 8.13661 74.8406 8.42463 74.9134 8.64064C74.9862 9.36067 74.5495 9.8647 73.7489 9.79269Z" fill="#264593"/>
<path d="M43.9082 6.76898C43.8355 7.05699 43.7627 7.34501 43.6171 7.63302C43.2532 8.49706 42.5253 9.2171 41.6519 9.57711C41.288 9.72112 40.8513 9.86513 40.4874 9.79312C39.6868 9.72112 39.4684 9.07309 39.5412 8.49706C39.6868 7.48901 40.269 6.76898 41.0697 6.19295C41.5064 5.83294 42.0886 5.61693 42.6709 5.54492C43.4715 5.54492 43.9082 5.97694 43.9082 6.76898Z" fill="#264593"/>
<path d="M80.6569 23.0439C80.6569 23.6199 80.5113 24.1959 80.2202 24.6999C79.8562 25.204 79.274 25.204 78.8373 24.7719C78.5461 24.4119 78.4005 23.9799 78.3278 23.5479C78.255 22.8999 78.3278 22.1798 78.6189 21.6038C78.6917 21.5318 78.6917 21.4598 78.7645 21.3878C79.2012 20.8838 79.7107 20.8838 80.1474 21.3878C80.4385 21.7478 80.5841 22.2518 80.6569 22.6838C80.6569 22.8279 80.6569 22.8999 80.6569 23.0439Z" fill="#264593"/>
<path d="M57.0706 46.1546C56.6339 46.1546 56.1244 46.0826 55.615 45.7226C55.0327 45.3626 55.0327 44.6425 55.5422 44.2825C56.0517 43.8505 56.7067 43.7785 57.3618 43.8505C57.8713 43.8505 58.3808 43.9945 58.8175 44.2825C59.3997 44.6425 59.4725 45.2906 58.8902 45.7226C58.4535 46.0106 57.944 46.1546 57.0706 46.1546Z" fill="#264593"/>
<path d="M36.2581 23.0422C36.3309 23.6182 36.1853 24.1222 35.8942 24.5543C35.4575 25.2023 34.8752 25.2023 34.3657 24.6263C33.929 24.1942 33.8562 23.5462 33.8562 22.9702C33.8562 22.4662 34.0018 21.9621 34.2929 21.5301C34.7296 20.8821 35.4575 20.8821 35.8942 21.6021C36.1125 21.9621 36.2581 22.3942 36.2581 22.8262C36.2581 22.8262 36.2581 22.9702 36.2581 23.0422Z" fill="#264593"/>
<path d="M57.1469 0C57.7292 0 58.2387 0.0720034 58.6754 0.288014C58.7482 0.360017 58.821 0.360017 58.8937 0.43202C59.476 0.864041 59.476 1.51207 58.8937 1.87209C58.3843 2.2321 57.7292 2.30411 57.0741 2.30411C56.5647 2.30411 56.1279 2.1601 55.6912 1.87209C55.0362 1.44007 55.0362 0.720034 55.6912 0.360017C56.1279 0.0720034 56.6374 0 57.1469 0Z" fill="#264593"/>
<path d="M77.7385 11.9541C77.7385 11.8101 77.7385 11.7381 77.8113 11.5941C77.8841 11.3781 78.0297 11.3061 78.248 11.3781C78.4664 11.4501 78.6119 11.5221 78.7575 11.6661C79.1942 12.0981 79.4126 12.6021 79.5581 13.1062C79.5581 13.2502 79.5581 13.3942 79.5581 13.4662C79.4853 13.8982 79.1942 14.0422 78.7575 13.8262C78.3208 13.4662 77.9569 13.0342 77.8113 12.5301C77.7385 12.3141 77.7385 12.1701 77.7385 11.9541Z" fill="#264593"/>
<path d="M79.4853 32.8341C79.4126 33.4102 79.1942 33.9862 78.6847 34.4902C78.6119 34.5622 78.6119 34.5622 78.5392 34.5622C78.3208 34.7062 78.1752 34.7782 77.9569 34.7062C77.7385 34.6342 77.7385 34.3462 77.7385 34.1302C77.7385 33.4102 78.0297 32.7621 78.6119 32.3301C78.7575 32.1861 78.9759 32.0421 79.267 32.1861C79.4853 32.3301 79.4853 32.5461 79.4853 32.8341Z" fill="#264593"/>
<path d="M46.0791 43.2769C46.8797 43.3489 47.5348 43.6369 47.9715 44.3569C48.1899 44.6449 48.0443 44.9329 47.6804 45.0049C46.807 45.0769 46.1519 44.7169 45.5696 44.0689C45.4241 43.9249 45.3513 43.7089 45.4241 43.5649C45.5696 43.3489 45.7152 43.2769 46.0063 43.3489C46.0063 43.2769 46.0063 43.2769 46.0791 43.2769Z" fill="#264593"/>
<path d="M35.5346 13.9712C35.2435 13.9712 35.1707 13.8992 35.0979 13.6832C34.9524 13.3951 35.0979 13.1071 35.1707 12.8191C35.3163 12.3871 35.5346 11.9551 35.8986 11.5951L35.9713 11.5231C36.1897 11.3791 36.408 11.307 36.6264 11.4511C36.772 11.5951 36.8447 11.8111 36.772 12.0271C36.6992 12.3871 36.5536 12.7471 36.408 13.0351C36.2625 13.3231 36.1169 13.6112 35.8258 13.7552C35.6802 13.8992 35.6074 13.8992 35.5346 13.9712Z" fill="#264593"/>
<path d="M46.0112 2.88069C45.9384 2.88069 45.7929 2.88069 45.7201 2.88069C45.4289 2.80868 45.2834 2.59267 45.4289 2.30466C45.5745 2.08865 45.7201 1.94464 45.8656 1.80064C46.3023 1.44062 46.8118 1.22461 47.3941 1.22461C47.6125 1.22461 47.8308 1.22461 47.9036 1.44062C47.9764 1.65663 47.9036 1.87264 47.758 2.01665C47.3941 2.52067 46.739 2.80868 46.0112 2.88069Z" fill="#264593"/>
<path d="M36.7617 34.2049C36.7617 34.421 36.689 34.637 36.4706 34.709C36.2523 34.781 36.1067 34.709 35.8883 34.565C35.3061 34.1329 35.0149 33.4849 34.9421 32.7649C34.9421 32.6209 35.0149 32.4769 35.0149 32.3329C35.0877 32.1168 35.2333 32.0448 35.4516 32.1168C35.5972 32.1888 35.7428 32.2609 35.8883 32.3329C36.4706 32.8369 36.689 33.4849 36.7617 34.2049Z" fill="#264593"/>
<path d="M67.1943 1.07812C67.7766 1.07812 68.3588 1.43814 68.8683 1.87016C69.0139 2.01417 69.2323 2.23018 69.0867 2.51819C68.9411 2.80621 68.7228 2.80621 68.4316 2.80621C67.7766 2.7342 67.1943 2.44619 66.6848 2.01417C66.5392 1.87016 66.3209 1.58215 66.4665 1.36614C66.612 1.07812 66.8304 1.07812 67.1943 1.07812Z" fill="#264593"/>
<path d="M67.119 45.0049C66.9007 45.0049 66.6096 45.0769 66.5368 44.7889C66.3912 44.5009 66.6096 44.2849 66.7551 44.1409C67.2646 43.5649 67.8469 43.2769 68.6475 43.2769C69.157 43.2769 69.3026 43.5649 69.0842 43.9969C68.6475 44.5729 67.7741 45.0049 67.119 45.0049Z" fill="#264593"/>
<path d="M75.7097 6.40851C75.6369 6.40851 75.5641 6.33651 75.4185 6.33651C74.8363 6.0485 74.3996 5.61648 74.1084 5.11245C74.0356 5.04045 74.0356 4.96844 74.0356 4.82444C74.0356 4.75243 74.0356 4.60843 74.1084 4.53642C74.1812 4.46442 74.3268 4.46442 74.3996 4.53642C74.9091 4.75243 75.4185 5.04045 75.7097 5.54447C75.8552 5.76048 75.928 5.90449 76.0008 6.1205C76.1464 6.33651 76.0008 6.40851 75.7097 6.40851Z" fill="#264593"/>
<path d="M76.0768 40.1044C76.004 40.1764 76.004 40.3205 75.8585 40.4645C75.4945 40.9685 75.1306 41.4005 74.4756 41.6165C74.4028 41.6165 74.1844 41.6165 74.1116 41.6165C73.9661 41.5445 74.0388 41.4005 74.1116 41.2565C74.4028 40.6085 74.9123 40.1044 75.4945 39.8164C75.5673 39.8164 75.6401 39.7444 75.7129 39.7444C76.004 39.6724 76.0768 39.8164 76.0768 40.1044Z" fill="#264593"/>
<path d="M38.3643 40.0338C38.3643 39.7458 38.437 39.6738 38.6554 39.6738C38.7282 39.6738 38.8737 39.6738 38.9465 39.7458C39.5288 40.1059 40.0383 40.4659 40.2566 41.1139C40.3294 41.2579 40.3294 41.4019 40.2566 41.4739C40.1839 41.6179 39.9655 41.6179 39.8199 41.5459C39.5288 41.4019 39.2377 41.2579 39.0193 41.0419C38.801 40.8259 38.5826 40.5379 38.437 40.2499C38.437 40.1779 38.437 40.1058 38.3643 40.0338Z" fill="#264593"/>
<path d="M38.7363 6.408C38.4452 6.408 38.3724 6.26399 38.4452 6.04798C38.518 5.90397 38.5908 5.75997 38.6635 5.61596C38.9547 5.18394 39.2458 4.89592 39.6825 4.60791C39.6825 4.60791 39.8281 4.53591 39.9009 4.53591C40.0464 4.53591 40.2648 4.4639 40.3376 4.53591C40.4831 4.67991 40.4104 4.89592 40.3376 5.03993C40.0464 5.61596 39.6097 6.04798 39.0275 6.33599C38.9547 6.33599 38.8091 6.408 38.7363 6.408Z" fill="#264593"/>
<path d="M69.3796 1.07812C69.9613 1.07812 70.3975 1.2939 70.6156 1.79739C70.1067 1.94124 69.5251 1.58161 69.3796 1.07812Z" fill="#264593"/>
<path d="M69.3796 45.0761C69.5251 44.6446 70.1067 44.2849 70.6156 44.3569C70.4702 44.7884 69.9613 45.0761 69.3796 45.0761Z" fill="#264593"/>
<path d="M35.8117 9.9375C35.739 10.5129 35.5209 10.8725 35.0119 11.1602C34.8665 10.8725 35.0119 10.6568 35.0846 10.5129C35.23 10.2252 35.3755 9.9375 35.8117 9.9375Z" fill="#264593"/>
<path d="M79.4804 11.0883C79.0441 10.9445 78.6806 10.441 78.826 9.9375C79.2623 10.0094 79.5531 10.5848 79.4804 11.0883Z" fill="#264593"/>
<path d="M35.6808 36.2164C35.1719 36.0006 34.881 35.4971 35.0264 34.9937C35.4627 35.1375 35.8262 35.7129 35.6808 36.2164Z" fill="#264593"/>
<path d="M78.8309 36.2172C78.6855 35.7137 78.9763 35.2103 79.4852 35.0664C79.558 35.5699 79.3398 35.9295 78.8309 36.2172Z" fill="#264593"/>
<path d="M43.8953 44.2845C44.4042 44.2125 44.9131 44.5002 45.1313 44.9318C44.695 45.1476 44.1134 44.8599 43.8953 44.2845Z" fill="#264593"/>
<path d="M43.8953 1.80065C44.0407 1.36909 44.5496 1.00946 45.0586 1.15331C44.9859 1.58487 44.4769 1.87257 43.8953 1.80065Z" fill="#264593"/>
<path d="M8.66365 52.6509C9.83526 52.6509 11.0069 52.6509 12.1785 52.6509C12.1785 52.7562 12.1785 52.8616 12.1785 52.967C12.1785 53.3358 12.1785 53.7046 12.1785 54.0733C12.1785 54.3895 12.2318 54.3895 12.498 54.3895C13.8827 54.4948 15.1608 54.8636 16.3324 55.6012C17.2378 56.1807 17.9301 56.9183 18.5159 57.8139C18.8887 58.4461 19.2082 59.0783 19.368 59.7632C19.581 60.6589 19.6875 61.6072 19.5277 62.5555C19.4212 63.1877 19.2615 63.8199 18.9952 64.4521C18.6224 65.4531 17.9301 66.2434 17.1312 66.9283C16.1726 67.7185 15.0543 68.2981 13.7762 68.5615C13.3501 68.6669 12.9241 68.7195 12.498 68.7195C12.2318 68.7195 12.1785 68.7722 12.1785 69.0356C12.1785 69.4571 12.1785 69.8259 12.1785 70.2474C12.1785 70.5108 12.1785 70.5108 11.9122 70.5108C10.9004 70.5108 9.94177 70.5108 8.92992 70.5108C8.66365 70.5108 8.66365 70.5108 8.66365 70.2474C8.66365 69.8259 8.66365 69.4571 8.66365 69.0356C8.66365 68.7722 8.61039 68.7195 8.34412 68.7195C7.49203 68.6669 6.63995 68.5088 5.84112 68.1927C4.93578 67.8239 4.13695 67.3497 3.44463 66.6649C2.6458 65.9273 2.11324 65.0316 1.6872 63.978C1.26116 62.8716 1.15465 61.7125 1.31441 60.5535C1.47418 59.4998 1.84697 58.5515 2.43278 57.6559C3.23161 56.4441 4.24346 55.6012 5.57484 55.0217C6.26716 54.7056 6.95948 54.4948 7.70505 54.4421C7.91807 54.4421 8.18435 54.3895 8.39737 54.3368C8.61039 54.3368 8.61039 54.2841 8.61039 54.0733C8.61039 53.7046 8.61039 53.3358 8.61039 52.9143C8.66365 52.9143 8.66365 52.7562 8.66365 52.6509ZM12.1785 61.5545C12.1785 62.6082 12.1785 63.7145 12.1785 64.7682C12.1785 64.8736 12.1785 64.9263 12.1785 65.0316C12.1785 65.2424 12.285 65.2951 12.4448 65.2951C12.6578 65.2951 12.8708 65.2424 13.0838 65.1897C13.6696 65.0843 14.1489 64.8209 14.6282 64.4521C15.0543 64.0833 15.3738 63.7145 15.6401 63.1877C16.0661 62.3448 16.1194 61.3964 15.8531 60.5008C15.5868 59.5525 15.0543 58.8149 14.2022 58.3408C13.6696 58.0247 13.0306 57.972 12.4448 57.9193C12.285 57.9193 12.1785 57.972 12.1785 58.13C12.1785 58.2354 12.1785 58.3408 12.1785 58.3934C12.1785 59.4471 12.1785 60.5008 12.1785 61.5545ZM8.66365 61.6072C8.66365 60.5535 8.66365 59.4471 8.66365 58.3934C8.66365 58.3408 8.66365 58.2881 8.66365 58.2354C8.66365 57.972 8.61039 57.9193 8.34412 57.9193C8.2376 57.9193 8.18435 57.9193 8.07784 57.9193C7.22575 57.972 6.48018 58.3408 5.89437 58.9203C5.20205 59.6052 4.88252 60.5008 4.88252 61.4491C4.82926 62.3448 5.1488 63.135 5.7346 63.8199C6.42692 64.6629 7.33226 65.137 8.45062 65.1897C8.61039 65.1897 8.7169 65.137 8.7169 64.979C8.7169 64.9263 8.7169 64.8209 8.7169 64.7682C8.66365 63.7672 8.66365 62.6609 8.66365 61.6072Z" fill="#264593"/>
<path d="M95.0952 61.5568C95.0952 60.6084 95.3082 59.6601 95.5745 58.7645C96.0538 57.342 96.8527 56.1303 97.9178 55.0766C98.7698 54.2863 99.7284 53.6541 100.794 53.2327C101.592 52.9166 102.391 52.7585 103.243 52.6531C104.042 52.5478 104.788 52.6005 105.533 52.7058C106.385 52.8112 107.184 53.0746 107.93 53.3907C108.835 53.8122 109.687 54.339 110.379 54.9712C110.912 55.4454 111.391 56.0249 111.817 56.6571C112.403 57.5001 112.776 58.4484 113.042 59.3967C113.202 59.8709 113.255 60.3977 113.255 60.9245C113.309 61.6621 113.309 62.4524 113.149 63.19C113.042 63.6641 112.882 64.1383 112.723 64.6124C112.35 65.6661 111.764 66.6144 111.019 67.4574C110.486 68.0369 109.9 68.5637 109.261 68.9852C108.569 69.4594 107.823 69.8282 107.024 70.0916C105.8 70.5131 104.521 70.6184 103.19 70.5131C102.338 70.4077 101.539 70.2496 100.74 69.9862C99.7817 69.6174 98.9296 69.1433 98.1308 68.4584C97.1189 67.6154 96.3201 66.5617 95.7875 65.35C95.468 64.5597 95.2017 63.7168 95.0952 62.8739C95.1485 62.4524 95.1485 62.0309 95.0952 61.5568ZM104.255 56.0776C101.22 56.0776 98.6633 58.5011 98.6633 61.6094C98.6633 64.7178 101.22 67.1413 104.255 67.0886C107.557 67.0359 109.794 64.8232 109.847 61.5568C109.794 58.5538 107.291 56.0776 104.255 56.0776Z" fill="#264593"/>
<path d="M65.5453 67.1399C65.5453 68.8785 65.5453 70.6171 65.5453 72.3556C65.3323 72.4083 62.4565 72.461 62.0837 72.3556C62.0837 72.2503 62.0837 72.1449 62.0837 72.0395C62.0837 71.6707 62.0837 71.302 62.0837 70.9332C62.0837 70.6171 62.0305 70.5644 61.7109 70.5644C60.2198 70.5644 58.7287 70.5644 57.2375 70.5644C55.3203 70.5644 53.4031 70.5644 51.5392 70.5644C51.3794 70.5644 51.2729 70.5644 51.1131 70.5644C51.0066 70.301 51.0066 53.1259 51.0599 52.6518C51.2729 52.5464 54.1487 52.5464 54.5215 52.6518C54.5215 52.7571 54.5215 52.9152 54.5215 53.0733C54.5215 57.5514 54.5215 62.0296 54.5215 66.5604C54.5215 67.1399 54.5215 67.1399 55.1073 67.1399C56.6517 67.1399 58.2494 67.1399 59.7938 67.1399C59.847 67.1399 59.9003 67.1399 60.0068 67.1399C60.1133 67.1399 60.2198 67.0872 60.2198 66.9292C60.2198 66.8238 60.2198 66.7184 60.2198 66.6131C60.2198 62.1349 60.2198 57.6041 60.2198 53.1259C60.2198 52.5991 60.2198 52.5991 60.7523 52.5991C61.6044 52.5991 62.4565 52.5991 63.3619 52.5991C63.4684 52.5991 63.5216 52.5991 63.6281 52.5991C63.7346 52.5991 63.8412 52.6518 63.8412 52.8098C63.8412 52.9152 63.8412 52.9679 63.8412 53.0733C63.8412 57.6041 63.8412 62.1349 63.8412 66.6131C63.8412 67.0872 63.8412 67.0872 64.3205 67.0872C64.64 67.0872 64.9595 67.0872 65.279 67.0872C65.279 67.0872 65.3856 67.1399 65.5453 67.1399Z" fill="#264593"/>
<path d="M25.0573 70.5107C24.6845 70.5634 21.8087 70.5634 21.5957 70.5107C21.5957 64.5574 21.5957 58.6041 21.5957 52.5981C22.7673 52.5981 23.8857 52.5981 25.0573 52.5981C25.0573 52.7562 25.0573 52.9142 25.0573 53.0196C25.0573 55.7065 25.0573 58.3407 25.0573 61.0276C25.0573 61.0803 25.0573 61.133 25.0573 61.2383C25.0573 61.6071 25.1106 61.6598 25.4833 61.6598C27.081 61.6598 28.7319 61.6598 30.3296 61.6598C30.3828 61.6598 30.4361 61.6598 30.4893 61.6598C30.7024 61.6598 30.7556 61.5544 30.7556 61.3964C30.7556 61.2383 30.7556 61.0803 30.7556 60.9222C30.7556 58.3407 30.7556 55.7065 30.7556 53.125C30.7556 52.6508 30.7556 52.6508 31.2349 52.6508C32.1403 52.6508 33.0456 52.6508 33.8977 52.6508C34.0042 52.6508 34.1107 52.6508 34.2705 52.6508C34.2705 58.6568 34.2705 64.6101 34.2705 70.5634C34.164 70.5634 34.0574 70.6161 34.0042 70.6161C33.0456 70.6161 32.087 70.6161 31.0751 70.6161C30.7556 70.6161 30.7556 70.5634 30.7556 70.3C30.7556 68.8249 30.7556 67.297 30.7556 65.8219C30.7556 65.7692 30.7556 65.7165 30.7556 65.6111C30.7556 65.2423 30.7024 65.1896 30.3296 65.1896C28.7319 65.1896 27.1343 65.1896 25.5366 65.1896C25.1106 65.1896 25.1106 65.1897 25.1106 65.6111C25.1106 67.139 25.1106 68.6668 25.1106 70.1946C25.0573 70.2473 25.0573 70.4054 25.0573 70.5107Z" fill="#264593"/>
<path d="M48.9823 70.5644C48.8758 70.5644 48.7693 70.5644 48.6628 70.5644C47.7042 70.5644 46.7456 70.5644 45.787 70.5644C45.4675 70.5644 45.4675 70.5644 45.4675 70.2483C45.4675 69.2473 45.4675 68.1936 45.4675 67.1926C45.4675 66.4023 45.361 65.6648 45.0414 64.9272C44.5622 63.8735 43.8166 63.0832 42.7515 62.5037C42.2722 62.2403 41.7929 62.0822 41.2603 62.0295C40.8875 61.9769 40.5148 61.9769 40.1952 61.9769C39.8757 61.9769 39.8224 62.0295 39.8224 62.3457C39.8224 64.0315 39.8224 65.6648 39.8224 67.3506C39.8224 68.3516 39.8224 69.3526 39.8224 70.301C39.8224 70.5644 39.8224 70.5644 39.5562 70.5644C38.5443 70.5644 37.5325 70.5644 36.5739 70.5644C36.5206 70.5644 36.4141 70.5644 36.3608 70.5117C36.3608 64.5584 36.3608 58.6051 36.3608 52.6518C36.6271 52.5464 39.5029 52.5464 39.8224 52.6518C39.8224 52.7571 39.8224 52.8625 39.8224 53.0206C39.8224 54.1796 39.8224 55.3387 39.8224 56.4977C39.8224 56.6031 39.7692 56.8138 39.9289 56.8665C40.0887 56.9192 40.142 56.7611 40.2485 56.6558C41.1006 55.8128 42.0059 54.9699 42.858 54.1796C43.2308 53.8108 43.5503 53.4947 43.9231 53.1259C44.0829 52.9679 44.2426 52.8098 44.4024 52.7045C44.5089 52.6518 44.6687 52.5991 44.7752 52.5991C46.3196 52.5991 47.864 52.5991 49.4084 52.5991C49.4616 52.5991 49.4616 52.5991 49.5149 52.6518C49.4616 52.7045 49.4616 52.7571 49.4084 52.8098C48.6628 53.5474 47.9172 54.2323 47.1717 54.9172C46.2131 55.8655 45.2545 56.7611 44.2959 57.7095C43.9763 58.0256 43.6036 58.3417 43.284 58.6578C43.2308 58.7105 43.2308 58.7105 43.1775 58.7631C43.0177 58.9212 43.071 59.0266 43.284 59.1319C43.9763 59.448 44.6687 59.7641 45.3077 60.2383C46 60.7651 46.5859 61.3447 47.1184 61.9769C47.9705 63.0305 48.503 64.1896 48.8226 65.5067C48.9291 66.0335 49.0356 66.6131 49.0356 67.1399C49.0889 68.1936 49.0356 69.2473 49.0356 70.301C48.9823 70.3536 48.9823 70.4063 48.9823 70.5644Z" fill="#264593"/>
<path d="M67.7124 70.5107C67.7124 70.4053 67.7124 70.2472 67.7124 70.1419C67.7124 64.3993 67.7124 58.7094 67.7124 52.9669C67.7124 52.9142 67.7124 52.9142 67.7124 52.8615C67.7124 52.5454 67.7124 52.5454 68.0319 52.5454C70.1089 52.5454 72.2391 52.4927 74.3161 52.5454C75.7007 52.5981 76.9256 53.0195 77.9907 53.9152C78.7895 54.5474 79.4286 55.3376 79.8546 56.286C80.0676 56.8128 80.2807 57.3396 80.3339 57.9192C80.3872 58.288 80.4404 58.6041 80.4404 58.9728C80.4404 59.8158 80.2274 60.6061 79.9079 61.3436C79.3753 62.7661 78.3635 63.8198 77.0321 64.5047C76.4463 64.7681 75.8072 64.9788 75.1681 65.0315C74.3161 65.1369 73.4107 65.0842 72.5586 65.0842C72.2391 65.0842 71.9196 65.0842 71.6 65.0842C71.2805 65.0842 71.2273 65.1369 71.2273 65.453C71.2273 65.9798 71.2273 66.5067 71.2273 67.0335C71.2273 68.0872 71.2273 69.1936 71.2273 70.2472C71.2273 70.5107 71.2273 70.5107 70.961 70.5107C69.9491 70.5107 68.9373 70.5107 67.9787 70.5107C67.9254 70.5634 67.8189 70.5634 67.7124 70.5107ZM71.2805 58.8675C71.2805 59.6577 71.2805 60.448 71.2805 61.2909C71.2805 61.6071 71.3338 61.6597 71.6533 61.6597C72.4521 61.6597 73.3042 61.6597 74.103 61.6597C74.3693 61.6597 74.6356 61.6597 74.8486 61.5544C76.4995 61.0275 77.3516 59.3416 76.6593 57.7611C76.18 56.6547 75.2747 56.1279 74.103 56.0752C73.3042 56.0752 72.5054 56.0752 71.6533 56.0752C71.2805 56.0752 71.2805 56.1279 71.2805 56.444C71.2805 57.287 71.2805 58.0772 71.2805 58.8675Z" fill="#264593"/>
<path d="M85.7713 65.19C85.9843 65.2954 86.0375 65.19 86.1441 65.0846C86.8364 64.3997 87.5819 63.7148 88.2743 62.9773C88.6471 62.6085 89.0198 62.2397 89.3926 61.8709C89.5524 61.7128 89.7122 61.6602 89.9252 61.6602C90.8305 61.6602 91.7359 61.6602 92.5879 61.6602C92.9075 61.6602 92.9075 61.6602 92.9075 62.0289C92.9075 64.5051 92.9075 66.9286 92.9075 69.4047C92.9075 69.7208 92.9075 70.0369 92.9075 70.353C92.9075 70.5638 92.9075 70.6165 92.6412 70.6165C91.6293 70.6165 90.6175 70.6165 89.6056 70.6165C89.3926 70.6165 89.3394 70.5638 89.3394 70.353C89.3394 69.4047 89.3394 68.4037 89.3394 67.4554C89.3394 67.35 89.3926 67.1393 89.2329 67.0866C89.0731 67.0339 88.9666 67.192 88.8601 67.2974C87.795 68.351 86.7299 69.4047 85.6647 70.4584C85.505 70.6165 85.3452 70.6691 85.1855 70.6691C84.2801 70.6691 83.3748 70.6691 82.4694 70.6691C82.1499 70.6691 82.1499 70.6691 82.1499 70.353C82.1499 67.6135 82.1499 64.8212 82.1499 62.0816C82.1499 61.7655 82.1499 61.7655 82.4694 61.7655C83.428 61.7655 84.3866 61.7655 85.3452 61.7655C85.6648 61.7655 85.718 61.8182 85.718 62.0816C85.718 63.0299 85.718 64.0309 85.718 64.9793C85.7713 64.9793 85.7713 65.0846 85.7713 65.19Z" fill="#264593"/>
<path d="M4.21051 80.5909C4.21051 80.9654 4.08883 81.2604 3.84548 81.4759C3.60469 81.6888 3.2576 81.8073 2.8042 81.8316V82.1387H2.23169V81.8275C1.77572 81.8006 1.42607 81.6807 1.18272 81.4678C0.941928 81.2523 0.821533 80.96 0.821533 80.5909C0.821533 80.2191 0.941928 79.9281 1.18272 79.7179C1.42607 79.5051 1.77572 79.3838 2.23169 79.3542V79.0632H2.8042V79.3502C3.2576 79.3771 3.60469 79.4983 3.84548 79.7139C4.08883 79.9294 4.21051 80.2218 4.21051 80.5909ZM2.8042 81.3183C3.07573 81.2914 3.27809 81.2186 3.41129 81.1001C3.5445 80.9788 3.6111 80.8078 3.6111 80.5868C3.6111 80.1557 3.34213 79.916 2.8042 79.8675V81.3183ZM1.42479 80.5909C1.42479 81.0166 1.69375 81.259 2.23169 81.3183V79.8675C1.9576 79.8944 1.75395 79.9671 1.62075 80.0857C1.49011 80.2015 1.42479 80.3699 1.42479 80.5909Z" fill="#264593"/>
<path d="M7.06614 81.488V82.0134H4.98358V79.1845H7.01619V79.7098H5.6022V80.3241H6.85097V80.8333H5.6022V81.488H7.06614Z" fill="#264593"/>
<path d="M10.6505 81.48V82.5994H10.0742V82.0134H8.17602V82.5994H7.59967L7.60351 81.48H7.71109C7.87247 81.4746 7.98646 81.3506 8.05307 81.1082C8.11967 80.8657 8.16065 80.5195 8.17602 80.0695L8.20676 79.1845H10.274V81.48H10.6505ZM8.72548 80.1301C8.71267 80.4669 8.68578 80.7498 8.64479 80.9788C8.60381 81.2052 8.54105 81.3722 8.45651 81.48H9.65918V79.7179H8.73701L8.72548 80.1301Z" fill="#264593"/>
<path d="M13.4595 81.488V82.0134H11.3769V79.1845H13.4095V79.7098H11.9956V80.3241H13.2443V80.8333H11.9956V81.488H13.4595Z" fill="#264593"/>
<path d="M15.4339 79.1845C15.6721 79.1845 15.8783 79.2262 16.0525 79.3098C16.2293 79.3933 16.365 79.5118 16.4598 79.6654C16.5546 79.819 16.602 80.0008 16.602 80.211C16.602 80.4184 16.5546 80.6003 16.4598 80.7566C16.365 80.9101 16.2293 81.0287 16.0525 81.1122C15.8783 81.193 15.6721 81.2334 15.4339 81.2334H14.8921V82.0134H14.2697V79.1845H15.4339ZM15.3993 80.7C15.5863 80.7 15.7285 80.6582 15.8258 80.5747C15.9232 80.4885 15.9718 80.3672 15.9718 80.211C15.9718 80.052 15.9232 79.9308 15.8258 79.8473C15.7285 79.761 15.5863 79.7179 15.3993 79.7179H14.8921V80.7H15.3993Z" fill="#264593"/>
<path d="M19.0062 81.4072H17.7574L17.5192 82.0134H16.8814L18.0802 79.1845H18.695L19.8976 82.0134H19.2444L19.0062 81.4072ZM18.8102 80.9101L18.3837 79.827L17.9572 80.9101H18.8102Z" fill="#264593"/>
<path d="M22.9819 79.1845V82.0134H22.3671V79.7179H21.4449L21.4257 80.308C21.4129 80.7094 21.3822 81.0354 21.3335 81.286C21.2848 81.5338 21.2028 81.7251 21.0876 81.8599C20.9749 81.9919 20.816 82.0579 20.6111 82.0579C20.5266 82.0579 20.4241 82.0431 20.3037 82.0134L20.3422 81.4598C20.3755 81.4705 20.4126 81.4759 20.4536 81.4759C20.6022 81.4759 20.7059 81.3843 20.7648 81.2011C20.8237 81.0152 20.8609 80.7256 20.8762 80.3322L20.9147 79.1845H22.9819Z" fill="#264593"/>
<path d="M25.2636 80.114C25.5915 80.114 25.8425 80.1908 26.0167 80.3443C26.1934 80.4979 26.2818 80.7256 26.2818 81.0273C26.2818 81.3479 26.1845 81.5931 25.9898 81.7629C25.7977 81.9299 25.5261 82.0134 25.1752 82.0134H23.961V79.1845H24.5796V80.114H25.2636ZM25.1406 81.5285C25.302 81.5285 25.4275 81.4867 25.5172 81.4032C25.6094 81.3197 25.6555 81.1984 25.6555 81.0395C25.6555 80.7458 25.4839 80.5989 25.1406 80.5989H24.5796V81.5285H25.1406Z" fill="#264593"/>
<path d="M29.5044 79.1845V82.0134H28.882V80.8536H27.6601V82.0134H27.0376V79.1845H27.6601V80.2999H28.882V79.1845H29.5044Z" fill="#264593"/>
<path d="M31.7883 80.114C32.1161 80.114 32.3672 80.1908 32.5414 80.3443C32.7181 80.4979 32.8065 80.7256 32.8065 81.0273C32.8065 81.3479 32.7092 81.5931 32.5145 81.7629C32.3224 81.9299 32.0508 82.0134 31.6999 82.0134H30.4857V79.1845H31.1043V80.114H31.7883ZM31.6653 81.5285C31.8267 81.5285 31.9522 81.4867 32.0419 81.4032C32.1341 81.3197 32.1802 81.1984 32.1802 81.0395C32.1802 80.7458 32.0086 80.5989 31.6653 80.5989H31.1043V81.5285H31.6653ZM33.1485 79.1845H33.7671V82.0134H33.1485V79.1845Z" fill="#264593"/>
<path d="M34.7443 79.1845H35.3629V81.0273L36.6463 79.1845H37.2303V82.0134H36.6155V80.1746L35.3322 82.0134H34.7443V79.1845ZM35.9854 79.0026C35.4935 79.0026 35.2451 78.7965 35.2399 78.3843H35.6665C35.6716 78.581 35.7779 78.6793 35.9854 78.6793C36.0878 78.6793 36.166 78.655 36.2198 78.6066C36.2735 78.5554 36.3017 78.4813 36.3043 78.3843H36.7308C36.7282 78.5863 36.6655 78.7399 36.5425 78.845C36.4196 78.9501 36.2338 79.0026 35.9854 79.0026Z" fill="#264593"/>
<path d="M42.0697 79.1845V82.0134H41.4473V80.8536H40.2254V82.0134H39.6029V79.1845H40.2254V80.2999H41.4473V79.1845H42.0697Z" fill="#264593"/>
<path d="M44.8723 81.4072H43.6235L43.3853 82.0134H42.7475L43.9463 79.1845H44.5611L45.7637 82.0134H45.1105L44.8723 81.4072ZM44.6763 80.9101L44.2498 79.827L43.8233 80.9101H44.6763Z" fill="#264593"/>
<path d="M48.7174 79.1845L47.5723 81.4234C47.4622 81.6389 47.329 81.8019 47.1727 81.9124C47.019 82.0229 46.8512 82.0781 46.6694 82.0781C46.5285 82.0781 46.3825 82.0458 46.2313 81.9811L46.3812 81.484C46.4888 81.519 46.5784 81.5365 46.6502 81.5365C46.727 81.5365 46.7962 81.5177 46.8576 81.48C46.9191 81.4396 46.9755 81.3776 47.0267 81.2941L47.0498 81.2617L45.9893 79.1845H46.654L47.3687 80.704L48.1064 79.1845H48.7174Z" fill="#264593"/>
<path d="M51.5862 79.1845V82.0134H50.9714V80.995C50.7383 81.0839 50.5219 81.1284 50.322 81.1284C49.9609 81.1284 49.6842 81.0381 49.4921 80.8576C49.3 80.6744 49.2039 80.4117 49.2039 80.0695V79.1845H49.8187V79.9968C49.8187 80.1908 49.8674 80.3376 49.9647 80.4373C50.0646 80.5343 50.2081 80.5828 50.3951 80.5828C50.6 80.5828 50.7921 80.541 50.9714 80.4575V79.1845H51.5862Z" fill="#264593"/>
<path d="M55.0291 79.1845V82.0134H54.4066V80.8536H53.1847V82.0134H52.5622V79.1845H53.1847V80.2999H54.4066V79.1845H55.0291Z" fill="#264593"/>
<path d="M57.2937 82.0619C57.0145 82.0619 56.7622 81.9986 56.5367 81.872C56.3139 81.7453 56.1384 81.5716 56.0103 81.3506C55.8848 81.127 55.822 80.8765 55.822 80.5989C55.822 80.3214 55.8848 80.0722 56.0103 79.8513C56.1384 79.6277 56.3139 79.4525 56.5367 79.3259C56.7622 79.1993 57.0145 79.136 57.2937 79.136C57.5729 79.136 57.8239 79.1993 58.0468 79.3259C58.2696 79.4525 58.4451 79.6277 58.5732 79.8513C58.7013 80.0722 58.7653 80.3214 58.7653 80.5989C58.7653 80.8765 58.7013 81.127 58.5732 81.3506C58.4451 81.5716 58.2696 81.7453 58.0468 81.872C57.8239 81.9986 57.5729 82.0619 57.2937 82.0619ZM57.2937 81.5042C57.4525 81.5042 57.5959 81.4665 57.724 81.3911C57.8521 81.3129 57.952 81.2052 58.0237 81.0677C58.098 80.9303 58.1352 80.7741 58.1352 80.5989C58.1352 80.4238 58.098 80.2676 58.0237 80.1301C57.952 79.9927 57.8521 79.8863 57.724 79.8109C57.5959 79.7327 57.4525 79.6937 57.2937 79.6937C57.1349 79.6937 56.9914 79.7327 56.8633 79.8109C56.7353 79.8863 56.6341 79.9927 56.5598 80.1301C56.4881 80.2676 56.4522 80.4238 56.4522 80.5989C56.4522 80.7741 56.4881 80.9303 56.5598 81.0677C56.6341 81.2052 56.7353 81.3129 56.8633 81.3911C56.9914 81.4665 57.1349 81.5042 57.2937 81.5042Z" fill="#264593"/>
<path d="M59.4327 80.6232H60.5201V81.1284H59.4327V80.6232Z" fill="#264593"/>
<path d="M62.3981 80.8738H61.9677V82.0134H61.3491V79.1845H61.9677V80.3282H62.4134L63.1204 79.1845H63.7775L62.8976 80.5504L63.8044 82.0134H63.0974L62.3981 80.8738Z" fill="#264593"/>
<path d="M66.8686 79.1845V82.0134H66.2538V79.7179H65.3316L65.3124 80.308C65.2996 80.7094 65.2688 81.0354 65.2202 81.286C65.1715 81.5338 65.0895 81.7251 64.9743 81.8599C64.8615 81.9919 64.7027 82.0579 64.4978 82.0579C64.4133 82.0579 64.3108 82.0431 64.1904 82.0134L64.2288 81.4598C64.2621 81.4705 64.2993 81.4759 64.3403 81.4759C64.4888 81.4759 64.5926 81.3843 64.6515 81.2011C64.7104 81.0152 64.7476 80.7256 64.7629 80.3322L64.8014 79.1845H66.8686Z" fill="#264593"/>
<path d="M67.8477 79.1845H68.4663V81.0273L69.7497 79.1845H70.3337V82.0134H69.7189V80.1746L68.4356 82.0134H67.8477V79.1845Z" fill="#264593"/>
<path d="M73.7776 79.1845V82.0134H73.1551V80.8536H71.9333V82.0134H71.3108V79.1845H71.9333V80.2999H73.1551V79.1845H73.7776Z" fill="#264593"/>
<path d="M74.7589 79.1845H75.3775V81.0273L76.6608 79.1845H77.2449V82.0134H76.6301V80.1746L75.3468 82.0134H74.7589V79.1845Z" fill="#264593"/>
<path d="M80.3563 79.1845V82.0134H79.7415V80.995C79.5084 81.0839 79.2919 81.1284 79.0921 81.1284C78.731 81.1284 78.4543 81.0381 78.2622 80.8576C78.0701 80.6744 77.974 80.4117 77.974 80.0695V79.1845H78.5888V79.9968C78.5888 80.1908 78.6375 80.3376 78.7348 80.4373C78.8347 80.5343 78.9781 80.5828 79.1651 80.5828C79.3701 80.5828 79.5622 80.541 79.7415 80.4575V79.1845H80.3563Z" fill="#264593"/>
<path d="M83.4149 81.488V82.0134H81.3323V79.1845H83.365V79.7098H81.951V80.3241H83.1997V80.8333H81.951V81.488H83.4149Z" fill="#264593"/>
<path d="M85.4894 82.0619C85.2153 82.0619 84.9668 82 84.744 81.876C84.5237 81.7494 84.3495 81.5756 84.2214 81.3547C84.0959 81.1311 84.0331 80.8791 84.0331 80.5989C84.0331 80.3187 84.0959 80.0682 84.2214 79.8473C84.3495 79.6236 84.5237 79.4499 84.744 79.3259C84.9668 79.1993 85.2166 79.136 85.4932 79.136C85.7263 79.136 85.9364 79.1791 86.1234 79.2653C86.3129 79.3515 86.4718 79.4754 86.5998 79.6371L86.2002 80.0251C86.0184 79.8041 85.7929 79.6937 85.524 79.6937C85.3575 79.6937 85.2089 79.7327 85.0783 79.8109C84.9476 79.8863 84.8452 79.9927 84.7709 80.1301C84.6991 80.2676 84.6633 80.4238 84.6633 80.5989C84.6633 80.7741 84.6991 80.9303 84.7709 81.0677C84.8452 81.2052 84.9476 81.3129 85.0783 81.3911C85.2089 81.4665 85.3575 81.5042 85.524 81.5042C85.7929 81.5042 86.0184 81.3924 86.2002 81.1688L86.5998 81.5568C86.4718 81.7211 86.3129 81.8464 86.1234 81.9326C85.9338 82.0188 85.7225 82.0619 85.4894 82.0619Z" fill="#264593"/>
<path d="M88.3542 80.8738H87.9239V82.0134H87.3052V79.1845H87.9239V80.3282H88.3696L89.0766 79.1845H89.7336L88.8537 80.5504L89.7605 82.0134H89.0535L88.3542 80.8738Z" fill="#264593"/>
<path d="M90.3595 79.1845H90.9781V81.0273L92.2615 79.1845H92.8456V82.0134H92.2308V80.1746L90.9474 82.0134H90.3595V79.1845Z" fill="#264593"/>
<path d="M93.8226 79.1845H94.4412V81.0273L95.7246 79.1845H96.3086V82.0134H95.6938V80.1746L94.4105 82.0134H93.8226V79.1845ZM95.0637 79.0026C94.5719 79.0026 94.3234 78.7965 94.3183 78.3843H94.7448C94.7499 78.581 94.8562 78.6793 95.0637 78.6793C95.1662 78.6793 95.2443 78.655 95.2981 78.6066C95.3519 78.5554 95.3801 78.4813 95.3826 78.3843H95.8091C95.8065 78.5863 95.7438 78.7399 95.6208 78.845C95.4979 78.9501 95.3122 79.0026 95.0637 79.0026Z" fill="#264593"/>
<path d="M101.502 81.48V82.6115H100.929V82.0134H98.6813V79.1845H99.2999V81.48H100.499V79.1845H101.117V81.48H101.502Z" fill="#264593"/>
<path d="M104.302 81.488V82.0134H102.219V79.1845H104.252V79.7098H102.838V80.3241H104.087V80.8333H102.838V81.488H104.302Z" fill="#264593"/>
<path d="M107.579 79.1845V82.0134H106.956V80.8536H105.735V82.0134H105.112V79.1845H105.735V80.2999H106.956V79.1845H107.579Z" fill="#264593"/>
<path d="M110.616 79.7179H109.755V82.0134H109.14V79.7179H108.284V79.1845H110.616V79.7179Z" fill="#264593"/>
<path d="M112.478 79.1845C112.717 79.1845 112.923 79.2262 113.097 79.3098C113.274 79.3933 113.41 79.5118 113.504 79.6654C113.599 79.819 113.646 80.0008 113.646 80.211C113.646 80.4184 113.599 80.6003 113.504 80.7566C113.41 80.9101 113.274 81.0287 113.097 81.1122C112.923 81.193 112.717 81.2334 112.478 81.2334H111.937V82.0134H111.314V79.1845H112.478ZM112.444 80.7C112.631 80.7 112.773 80.6582 112.87 80.5747C112.968 80.4885 113.016 80.3672 113.016 80.211C113.016 80.052 112.968 79.9308 112.87 79.8473C112.773 79.761 112.631 79.7179 112.444 79.7179H111.937V80.7H112.444Z" fill="#264593"/>
<path d="M6.06345 87.4019L6.05961 85.7086L5.26808 87.1029H4.99143L4.1999 85.7409V87.4019H3.61586V84.573H4.13074L5.13744 86.331L6.12877 84.573H6.64365L6.64749 87.4019H6.06345Z" fill="#264593"/>
<path d="M9.7056 86.8765V87.4019H7.62304V84.573H9.65565V85.0983H8.24166V85.7126H9.49043V86.2218H8.24166V86.8765H9.7056Z" fill="#264593"/>
<path d="M13.29 86.8685V87.9879H12.7136V87.4019H10.8155V87.9879H10.2391L10.243 86.8685H10.3506C10.5119 86.8631 10.6259 86.7391 10.6925 86.4966C10.7591 86.2542 10.8001 85.908 10.8155 85.458L10.8462 84.573H12.9134V86.8685H13.29ZM11.3649 85.5186C11.3521 85.8554 11.3252 86.1383 11.2842 86.3673C11.2433 86.5936 11.1805 86.7607 11.096 86.8685H12.2986V85.1064H11.3765L11.3649 85.5186Z" fill="#264593"/>
<path d="M14.0164 84.573H14.635V86.4158L15.9184 84.573H16.5024V87.4019H15.8876V85.5631L14.6043 87.4019H14.0164V84.573Z" fill="#264593"/>
<path d="M20.2998 86.8685V88H19.7273V87.4019H17.4795V84.573H18.0981V86.8685H19.2969V84.573H19.9155V86.8685H20.2998Z" fill="#264593"/>
<path d="M21.0176 84.573H21.6362V86.4158L22.9196 84.573H23.5036V87.4019H22.8889V85.5631L21.6055 87.4019H21.0176V84.573Z" fill="#264593"/>
<path d="M26.9475 84.573V87.4019H26.3251V86.242H25.1032V87.4019H24.4807V84.573H25.1032V85.6884H26.3251V84.573H26.9475Z" fill="#264593"/>
<path d="M29.2006 87.4504C28.9265 87.4504 28.6781 87.3884 28.4552 87.2645C28.2349 87.1379 28.0607 86.9641 27.9326 86.7432C27.8071 86.5195 27.7444 86.2676 27.7444 85.9874C27.7444 85.7072 27.8071 85.4567 27.9326 85.2357C28.0607 85.0121 28.2349 84.8383 28.4552 84.7144C28.6781 84.5878 28.9278 84.5245 29.2045 84.5245C29.4376 84.5245 29.6476 84.5676 29.8346 84.6538C30.0242 84.74 30.183 84.8639 30.3111 85.0256L29.9115 85.4136C29.7296 85.1926 29.5042 85.0822 29.2352 85.0822C29.0687 85.0822 28.9201 85.1212 28.7895 85.1994C28.6588 85.2748 28.5564 85.3812 28.4821 85.5186C28.4104 85.656 28.3745 85.8123 28.3745 85.9874C28.3745 86.1626 28.4104 86.3188 28.4821 86.4562C28.5564 86.5936 28.6588 86.7014 28.7895 86.7795C28.9201 86.855 29.0687 86.8927 29.2352 86.8927C29.5042 86.8927 29.7296 86.7809 29.9115 86.5573L30.3111 86.9452C30.183 87.1096 30.0242 87.2349 29.8346 87.3211C29.6451 87.4073 29.4337 87.4504 29.2006 87.4504Z" fill="#264593"/>
<path d="M32.0654 86.2622H31.6351V87.4019H31.0165V84.573H31.6351V85.7167H32.0808L32.7878 84.573H33.4449L32.565 85.9389L33.4718 87.4019H32.7648L32.0654 86.2622Z" fill="#264593"/>
<path d="M35.3428 87.4504C35.0636 87.4504 34.8113 87.3871 34.5859 87.2605C34.363 87.1338 34.1876 86.9601 34.0595 86.7391C33.934 86.5155 33.8712 86.2649 33.8712 85.9874C33.8712 85.7099 33.934 85.4607 34.0595 85.2398C34.1876 85.0162 34.363 84.841 34.5859 84.7144C34.8113 84.5878 35.0636 84.5245 35.3428 84.5245C35.6221 84.5245 35.8731 84.5878 36.0959 84.7144C36.3188 84.841 36.4943 85.0162 36.6223 85.2398C36.7504 85.4607 36.8145 85.7099 36.8145 85.9874C36.8145 86.2649 36.7504 86.5155 36.6223 86.7391C36.4943 86.9601 36.3188 87.1338 36.0959 87.2605C35.8731 87.3871 35.6221 87.4504 35.3428 87.4504ZM35.3428 86.8927C35.5017 86.8927 35.6451 86.855 35.7732 86.7795C35.9013 86.7014 36.0012 86.5936 36.0729 86.4562C36.1472 86.3188 36.1843 86.1626 36.1843 85.9874C36.1843 85.8123 36.1472 85.656 36.0729 85.5186C36.0012 85.3812 35.9013 85.2748 35.7732 85.1994C35.6451 85.1212 35.5017 85.0822 35.3428 85.0822C35.184 85.0822 35.0406 85.1212 34.9125 85.1994C34.7844 85.2748 34.6832 85.3812 34.6089 85.5186C34.5372 85.656 34.5014 85.8123 34.5014 85.9874C34.5014 86.1626 34.5372 86.3188 34.6089 86.4562C34.6832 86.5936 34.7844 86.7014 34.9125 86.7795C35.0406 86.855 35.184 86.8927 35.3428 86.8927Z" fill="#264593"/>
<path d="M37.6014 84.573H38.22V86.4158L39.5033 84.573H40.0874V87.4019H39.4726V85.5631L38.1893 87.4019H37.6014V84.573ZM38.8425 84.3911C38.3506 84.3911 38.1022 84.185 38.097 83.7728H38.5235C38.5287 83.9694 38.635 84.0678 38.8425 84.0678C38.9449 84.0678 39.0231 84.0435 39.0768 83.995C39.1306 83.9439 39.1588 83.8698 39.1614 83.7728H39.5879C39.5853 83.9748 39.5226 84.1284 39.3996 84.2335C39.2766 84.3386 39.0909 84.3911 38.8425 84.3911Z" fill="#264593"/>
<path d="M43.6243 84.573C43.8625 84.573 44.0687 84.6147 44.2429 84.6982C44.4196 84.7818 44.5554 84.9003 44.6502 85.0539C44.745 85.2075 44.7923 85.3893 44.7923 85.5995C44.7923 85.8069 44.745 85.9888 44.6502 86.145C44.5554 86.2986 44.4196 86.4172 44.2429 86.5007C44.0687 86.5815 43.8625 86.6219 43.6243 86.6219H43.0825V87.4019H42.46V84.573H43.6243ZM43.5897 86.0885C43.7767 86.0885 43.9188 86.0467 44.0162 85.9632C44.1135 85.877 44.1622 85.7557 44.1622 85.5995C44.1622 85.4405 44.1135 85.3193 44.0162 85.2357C43.9188 85.1495 43.7767 85.1064 43.5897 85.1064H43.0825V86.0885H43.5897Z" fill="#264593"/>
<path d="M47.1966 86.7957H45.9478L45.7096 87.4019H45.0717L46.2705 84.573H46.8853L48.088 87.4019H47.4348L47.1966 86.7957ZM47.0006 86.2986L46.5741 85.2155L46.1476 86.2986H47.0006Z" fill="#264593"/>
<path d="M51.5488 86.8685V87.9879H50.9724V87.4019H49.0743V87.9879H48.4979L48.5018 86.8685H48.6094C48.7707 86.8631 48.8847 86.7391 48.9513 86.4966C49.0179 86.2542 49.0589 85.908 49.0743 85.458L49.105 84.573H51.1722V86.8685H51.5488ZM49.6237 85.5186C49.6109 85.8554 49.584 86.1383 49.5431 86.3673C49.5021 86.5936 49.4393 86.7607 49.3548 86.8685H50.5574V85.1064H49.6353L49.6237 85.5186Z" fill="#264593"/>
<path d="M52.2752 84.573H52.8938V86.4158L54.1772 84.573H54.7612V87.4019H54.1464V85.5631L52.8631 87.4019H52.2752V84.573Z" fill="#264593"/>
<path d="M57.0216 87.4504C56.7424 87.4504 56.4901 87.3871 56.2647 87.2605C56.0418 87.1338 55.8664 86.9601 55.7383 86.7391C55.6128 86.5155 55.55 86.2649 55.55 85.9874C55.55 85.7099 55.6128 85.4607 55.7383 85.2398C55.8664 85.0162 56.0418 84.841 56.2647 84.7144C56.4901 84.5878 56.7424 84.5245 57.0216 84.5245C57.3009 84.5245 57.5519 84.5878 57.7747 84.7144C57.9976 84.841 58.1731 85.0162 58.3012 85.2398C58.4292 85.4607 58.4933 85.7099 58.4933 85.9874C58.4933 86.2649 58.4292 86.5155 58.3012 86.7391C58.1731 86.9601 57.9976 87.1338 57.7747 87.2605C57.5519 87.3871 57.3009 87.4504 57.0216 87.4504ZM57.0216 86.8927C57.1805 86.8927 57.3239 86.855 57.452 86.7795C57.5801 86.7014 57.68 86.5936 57.7517 86.4562C57.826 86.3188 57.8631 86.1626 57.8631 85.9874C57.8631 85.8123 57.826 85.656 57.7517 85.5186C57.68 85.3812 57.5801 85.2748 57.452 85.1994C57.3239 85.1212 57.1805 85.0822 57.0216 85.0822C56.8628 85.0822 56.7194 85.1212 56.5913 85.1994C56.4632 85.2748 56.362 85.3812 56.2877 85.5186C56.216 85.656 56.1802 85.8123 56.1802 85.9874C56.1802 86.1626 56.216 86.3188 56.2877 86.4562C56.362 86.5936 56.4632 86.7014 56.5913 86.7795C56.7194 86.855 56.8628 86.8927 57.0216 86.8927Z" fill="#264593"/>
<path d="M61.6028 84.573V87.4019H60.988V85.1064H60.0658L60.0466 85.6965C60.0338 86.0979 60.0031 86.4239 59.9544 86.6745C59.9057 86.9223 59.8237 87.1136 59.7085 87.2483C59.5958 87.3804 59.437 87.4464 59.232 87.4464C59.1475 87.4464 59.045 87.4316 58.9246 87.4019L58.9631 86.8482C58.9964 86.859 59.0335 86.8644 59.0745 86.8644C59.2231 86.8644 59.3268 86.7728 59.3857 86.5896C59.4446 86.4037 59.4818 86.1141 59.4971 85.7207L59.5356 84.573H61.6028Z" fill="#264593"/>
<path d="M63.8653 87.4504C63.5861 87.4504 63.3337 87.3871 63.1083 87.2605C62.8855 87.1338 62.71 86.9601 62.5819 86.7391C62.4564 86.5155 62.3936 86.2649 62.3936 85.9874C62.3936 85.7099 62.4564 85.4607 62.5819 85.2398C62.71 85.0162 62.8855 84.841 63.1083 84.7144C63.3337 84.5878 63.5861 84.5245 63.8653 84.5245C64.1445 84.5245 64.3955 84.5878 64.6184 84.7144C64.8412 84.841 65.0167 85.0162 65.1448 85.2398C65.2729 85.4607 65.3369 85.7099 65.3369 85.9874C65.3369 86.2649 65.2729 86.5155 65.1448 86.7391C65.0167 86.9601 64.8412 87.1338 64.6184 87.2605C64.3955 87.3871 64.1445 87.4504 63.8653 87.4504ZM63.8653 86.8927C64.0241 86.8927 64.1675 86.855 64.2956 86.7795C64.4237 86.7014 64.5236 86.5936 64.5953 86.4562C64.6696 86.3188 64.7068 86.1626 64.7068 85.9874C64.7068 85.8123 64.6696 85.656 64.5953 85.5186C64.5236 85.3812 64.4237 85.2748 64.2956 85.1994C64.1675 85.1212 64.0241 85.0822 63.8653 85.0822C63.7065 85.0822 63.563 85.1212 63.4349 85.1994C63.3069 85.2748 63.2057 85.3812 63.1314 85.5186C63.0597 85.656 63.0238 85.8123 63.0238 85.9874C63.0238 86.1626 63.0597 86.3188 63.1314 86.4562C63.2057 86.5936 63.3069 86.7014 63.4349 86.7795C63.563 86.855 63.7065 86.8927 63.8653 86.8927Z" fill="#264593"/>
<path d="M68.0181 85.1064H66.7386L66.7424 87.4019H66.1238V84.573H68.0219L68.0181 85.1064Z" fill="#264593"/>
<path d="M68.7089 84.573H69.3275V86.4158L70.6108 84.573H71.1949V87.4019H70.5801V85.5631L69.2967 87.4019H68.7089V84.573Z" fill="#264593"/>
<path d="M72.172 84.573H72.7906V86.4158L74.0739 84.573H74.658V87.4019H74.0432V85.5631L72.7598 87.4019H72.172V84.573Z" fill="#264593"/>
<path d="M77.0306 84.573H77.6492V86.4158L78.9326 84.573H79.5166V87.4019H78.9018V85.5631L77.6185 87.4019H77.0306V84.573Z" fill="#264593"/>
<path d="M83.1726 87.4504C82.8934 87.4504 82.6411 87.3871 82.4157 87.2605C82.1928 87.1338 82.0173 86.9601 81.8893 86.7391C81.7637 86.5155 81.701 86.2649 81.701 85.9874C81.701 85.7099 81.7637 85.4607 81.8893 85.2398C82.0173 85.0162 82.1928 84.841 82.4157 84.7144C82.6411 84.5878 82.8934 84.5245 83.1726 84.5245C83.4518 84.5245 83.7029 84.5878 83.9257 84.7144C84.1486 84.841 84.324 85.0162 84.4521 85.2398C84.5802 85.4607 84.6442 85.7099 84.6442 85.9874C84.6442 86.2649 84.5802 86.5155 84.4521 86.7391C84.324 86.9601 84.1486 87.1338 83.9257 87.2605C83.7029 87.3871 83.4518 87.4504 83.1726 87.4504ZM83.1726 86.8927C83.3314 86.8927 83.4749 86.855 83.603 86.7795C83.731 86.7014 83.8309 86.5936 83.9027 86.4562C83.977 86.3188 84.0141 86.1626 84.0141 85.9874C84.0141 85.8123 83.977 85.656 83.9027 85.5186C83.8309 85.3812 83.731 85.2748 83.603 85.1994C83.4749 85.1212 83.3314 85.0822 83.1726 85.0822C83.0138 85.0822 82.8703 85.1212 82.7423 85.1994C82.6142 85.2748 82.513 85.3812 82.4387 85.5186C82.367 85.656 82.3311 85.8123 82.3311 85.9874C82.3311 86.1626 82.367 86.3188 82.4387 86.4562C82.513 86.5936 82.6142 86.7014 82.7423 86.7795C82.8703 86.855 83.0138 86.8927 83.1726 86.8927Z" fill="#264593"/>
<path d="M87.8979 84.573V87.4019H87.2755V86.242H86.0536V87.4019H85.4311V84.573H86.0536V85.6884H87.2755V84.573H87.8979Z" fill="#264593"/>
<path d="M89.9205 86.2622H89.4902V87.4019H88.8715V84.573H89.4902V85.7167H89.9359L90.6429 84.573H91.2999L90.42 85.9389L91.3268 87.4019H90.6198L89.9205 86.2622Z" fill="#264593"/>
<path d="M93.1979 87.4504C92.9187 87.4504 92.6664 87.3871 92.441 87.2605C92.2181 87.1338 92.0426 86.9601 91.9146 86.7391C91.789 86.5155 91.7263 86.2649 91.7263 85.9874C91.7263 85.7099 91.789 85.4607 91.9146 85.2398C92.0426 85.0162 92.2181 84.841 92.441 84.7144C92.6664 84.5878 92.9187 84.5245 93.1979 84.5245C93.4771 84.5245 93.7282 84.5878 93.951 84.7144C94.1739 84.841 94.3493 85.0162 94.4774 85.2398C94.6055 85.4607 94.6695 85.7099 94.6695 85.9874C94.6695 86.2649 94.6055 86.5155 94.4774 86.7391C94.3493 86.9601 94.1739 87.1338 93.951 87.2605C93.7282 87.3871 93.4771 87.4504 93.1979 87.4504ZM93.1979 86.8927C93.3567 86.8927 93.5002 86.855 93.6283 86.7795C93.7563 86.7014 93.8562 86.5936 93.928 86.4562C94.0023 86.3188 94.0394 86.1626 94.0394 85.9874C94.0394 85.8123 94.0023 85.656 93.928 85.5186C93.8562 85.3812 93.7563 85.2748 93.6283 85.1994C93.5002 85.1212 93.3567 85.0822 93.1979 85.0822C93.0391 85.0822 92.8956 85.1212 92.7676 85.1994C92.6395 85.2748 92.5383 85.3812 92.464 85.5186C92.3923 85.656 92.3564 85.8123 92.3564 85.9874C92.3564 86.1626 92.3923 86.3188 92.464 86.4562C92.5383 86.5936 92.6395 86.7014 92.7676 86.7795C92.8956 86.855 93.0391 86.8927 93.1979 86.8927Z" fill="#264593"/>
<path d="M97.779 84.573V87.4019H97.1643V85.1064H96.2421L96.2229 85.6965C96.2101 86.0979 96.1793 86.4239 96.1307 86.6745C96.082 86.9223 96 87.1136 95.8848 87.2483C95.772 87.3804 95.6132 87.4464 95.4083 87.4464C95.3238 87.4464 95.2213 87.4316 95.1009 87.4019L95.1393 86.8482C95.1726 86.859 95.2098 86.8644 95.2508 86.8644C95.3993 86.8644 95.5031 86.7728 95.562 86.5896C95.6209 86.4037 95.6581 86.1141 95.6734 85.7207L95.7118 84.573H97.779Z" fill="#264593"/>
<path d="M100.042 87.4504C99.7623 87.4504 99.51 87.3871 99.2846 87.2605C99.0617 87.1338 98.8863 86.9601 98.7582 86.7391C98.6327 86.5155 98.5699 86.2649 98.5699 85.9874C98.5699 85.7099 98.6327 85.4607 98.7582 85.2398C98.8863 85.0162 99.0617 84.841 99.2846 84.7144C99.51 84.5878 99.7623 84.5245 100.042 84.5245C100.321 84.5245 100.572 84.5878 100.795 84.7144C101.018 84.841 101.193 85.0162 101.321 85.2398C101.449 85.4607 101.513 85.7099 101.513 85.9874C101.513 86.2649 101.449 86.5155 101.321 86.7391C101.193 86.9601 101.018 87.1338 100.795 87.2605C100.572 87.3871 100.321 87.4504 100.042 87.4504ZM100.042 86.8927C100.2 86.8927 100.344 86.855 100.472 86.7795C100.6 86.7014 100.7 86.5936 100.772 86.4562C100.846 86.3188 100.883 86.1626 100.883 85.9874C100.883 85.8123 100.846 85.656 100.772 85.5186C100.7 85.3812 100.6 85.2748 100.472 85.1994C100.344 85.1212 100.2 85.0822 100.042 85.0822C99.8827 85.0822 99.7393 85.1212 99.6112 85.1994C99.4831 85.2748 99.3819 85.3812 99.3076 85.5186C99.2359 85.656 99.2001 85.8123 99.2001 85.9874C99.2001 86.1626 99.2359 86.3188 99.3076 86.4562C99.3819 86.5936 99.4831 86.7014 99.6112 86.7795C99.7393 86.855 99.8827 86.8927 100.042 86.8927Z" fill="#264593"/>
<path d="M104.194 85.1064H102.915L102.919 87.4019H102.3V84.573H104.198L104.194 85.1064Z" fill="#264593"/>
<path d="M104.885 84.573H105.504V86.4158L106.787 84.573H107.371V87.4019H106.756V85.5631L105.473 87.4019H104.885V84.573Z" fill="#264593"/>
<path d="M108.348 84.573H108.967V86.4158L110.25 84.573H110.834V87.4019H110.219V85.5631L108.936 87.4019H108.348V84.573Z" fill="#264593"/>
</svg>
