<svg width="24" height="24" viewBox="0 0 24 24" fill="none" xmlns="http://www.w3.org/2000/svg">
<g clip-path="url(#clip0_919_2876)">
<path d="M12.0044 0.480469C5.64198 0.480469 0.484375 5.63807 0.484375 12.0005C0.484375 18.3629 5.64198 23.5205 12.0044 23.5205C18.3668 23.5205 23.5244 18.3629 23.5244 12.0005C23.5244 5.63807 18.3668 0.480469 12.0044 0.480469ZM16.4348 13.4777C16.4348 13.4777 17.4536 14.4833 17.7044 14.9501C17.7116 14.9597 17.7152 14.9693 17.7176 14.9741C17.8196 15.1457 17.8436 15.2789 17.7932 15.3785C17.7092 15.5441 17.4212 15.6257 17.3228 15.6329H15.5228C15.398 15.6329 15.1364 15.6005 14.8196 15.3821C14.576 15.2117 14.336 14.9321 14.102 14.6597C13.7528 14.2541 13.4504 13.9037 13.1456 13.9037C13.1069 13.9036 13.0684 13.9097 13.0316 13.9217C12.8012 13.9961 12.506 14.3249 12.506 15.2009C12.506 15.4745 12.29 15.6317 12.1376 15.6317H11.3132C11.0324 15.6317 9.56958 15.5333 8.27357 14.1665C6.68717 12.4925 5.25917 9.13487 5.24718 9.10367C5.15718 8.88647 5.34317 8.77007 5.54598 8.77007H7.36398C7.60638 8.77007 7.68558 8.91767 7.74078 9.04847C7.80558 9.20087 8.04318 9.80687 8.43318 10.4885C9.06558 11.5997 9.45318 12.0509 9.76398 12.0509C9.82225 12.0502 9.87949 12.0354 9.93078 12.0077C10.3364 11.7821 10.2608 10.3361 10.2428 10.0361C10.2428 9.97967 10.2416 9.38927 10.034 9.10607C9.88517 8.90087 9.63198 8.82287 9.47838 8.79407C9.54054 8.70828 9.62245 8.63872 9.71718 8.59127C9.99557 8.45207 10.4972 8.43167 10.9952 8.43167H11.2724C11.8124 8.43887 11.9516 8.47367 12.1472 8.52287C12.5432 8.61767 12.5516 8.87327 12.5168 9.74807C12.506 9.99647 12.4952 10.2773 12.4952 10.6085C12.4952 10.6805 12.4916 10.7573 12.4916 10.8389C12.4796 11.2841 12.4652 11.7893 12.7796 11.9969C12.8206 12.0226 12.868 12.0363 12.9164 12.0365C13.0256 12.0365 13.3544 12.0365 14.2448 10.5089C14.5194 10.0172 14.758 9.50624 14.9588 8.98007C14.9768 8.94887 15.0296 8.85287 15.092 8.81567C15.138 8.79219 15.1891 8.78025 15.2408 8.78087H17.378C17.6108 8.78087 17.7704 8.81567 17.8004 8.90567C17.8532 9.04847 17.7908 9.48407 16.8152 10.8053L16.3796 11.3801C15.4952 12.5393 15.4952 12.5981 16.4348 13.4777Z" fill="#728EC5"/>
</g>
<defs>
<clipPath id="clip0_919_2876">
<rect width="24" height="24" fill="white"/>
</clipPath>
</defs>
</svg>
