<svg width="20" height="20" viewBox="0 0 20 20" fill="none" xmlns="http://www.w3.org/2000/svg">
<g clip-path="url(#clip0_919_2917)">
<path d="M6.66406 14.9998L8.33073 13.3331H9.9974L11.1307 12.1998C12.2892 12.6034 13.5504 12.6018 14.7078 12.1952C15.8653 11.7887 16.8504 11.0013 17.5021 9.96193C18.1537 8.92255 18.4332 7.69275 18.2949 6.47381C18.1566 5.25488 17.6085 4.119 16.7406 3.25209C15.8726 2.38518 14.736 1.83858 13.5169 1.70177C12.2978 1.56495 11.0683 1.84602 10.0298 2.49897C8.9912 3.15192 8.20504 4.13807 7.79995 5.29602C7.39487 6.45397 7.39485 7.71514 7.7999 8.87311L1.66406 14.9998V18.3331H4.9974L6.66406 16.6664V14.9998Z" stroke="#728EC5" stroke-width="1.5" stroke-linecap="round" stroke-linejoin="round"/>
<path d="M14.1615 6.66667C14.6217 6.66667 14.9948 6.29357 14.9948 5.83333C14.9948 5.3731 14.6217 5 14.1615 5C13.7012 5 13.3281 5.3731 13.3281 5.83333C13.3281 6.29357 13.7012 6.66667 14.1615 6.66667Z" stroke="#728EC5" stroke-width="1.5" stroke-linecap="round" stroke-linejoin="round"/>
</g>
<defs>
<clipPath id="clip0_919_2917">
<rect width="20" height="20" fill="white"/>
</clipPath>
</defs>
</svg>
