<svg width="107" height="40" viewBox="0 0 107 40" fill="none" xmlns="http://www.w3.org/2000/svg">
<path d="M106.229 17.3918L102.335 17.3688V15.416C103.354 15.8065 104.373 16.1741 105.437 16.4728C105.505 16.4958 105.595 16.4958 105.663 16.4958C106.003 16.4958 106.32 16.266 106.433 15.9214C106.546 15.4849 106.32 15.0484 105.89 14.9335C101.678 13.6929 97.7164 11.6941 94.2071 9.07497V9.02902H94.1392C92.7355 7.97219 91.377 6.82346 90.1318 5.58283V5.49093H90.0186C88.4338 3.90568 86.9848 2.20556 85.6943 0.344619C85.6716 0.321645 85.6716 0.321644 85.649 0.29867C85.6264 0.275695 85.6264 0.275695 85.6037 0.252721C85.5811 0.229746 85.5584 0.206771 85.5132 0.183797L85.4905 0.160822C85.4905 0.160822 85.4905 0.160822 85.4679 0.160822C85.4452 0.137848 85.4 0.114873 85.3773 0.114873C85.3547 0.114873 85.3547 0.0918984 85.332 0.0918984C85.3094 0.0689238 85.2641 0.0689238 85.2415 0.0689238C85.2188 0.0689238 85.2188 0.0689238 85.1962 0.0459492C85.1735 0.0459492 85.1283 0.0459492 85.1056 0.0229746C85.083 0.0229746 85.083 0.0229746 85.0603 0.0229746C85.0151 0.0229746 84.9924 0.0229746 84.9471 0.0229746C84.9245 0.0229746 84.9245 0.0229746 84.9019 0.0229746C84.8792 0.0229746 84.8339 0.0459492 84.8113 0.0459492C84.7887 0.0459492 84.7887 0.0459492 84.766 0.0689238C84.7434 0.0918984 84.7207 0.0918984 84.6755 0.114873C84.6528 0.114873 84.6302 0.137848 84.6075 0.137848C84.6075 0.137848 84.5849 0.137848 84.5849 0.160822C84.5623 0.183797 84.5623 0.183797 84.5396 0.206771C84.517 0.229746 84.4943 0.229746 84.4943 0.252721C84.4717 0.275695 84.4491 0.29867 84.4264 0.321644L84.4038 0.344619C77.3399 10.4305 65.8386 16.4498 53.658 16.4498C53.6127 16.4498 53.5674 16.4498 53.5221 16.4728C53.4769 16.4728 53.4316 16.4498 53.3863 16.4498C41.2057 16.4498 29.7043 10.4305 22.6405 0.344619C22.6405 0.321645 22.6179 0.321644 22.6179 0.321644C22.5952 0.29867 22.5726 0.275695 22.5499 0.252721C22.5273 0.229746 22.5047 0.229746 22.5047 0.206771C22.482 0.183797 22.482 0.183797 22.4594 0.160822C22.4594 0.160822 22.4367 0.160822 22.4367 0.137848C22.4141 0.114873 22.3915 0.114873 22.3688 0.0918984C22.3462 0.0689238 22.3235 0.0689238 22.2782 0.0459492C22.2556 0.0459492 22.233 0.0229746 22.233 0.0229746C22.2103 0.0229746 22.165 0 22.1424 0C22.1198 0 22.1198 0 22.0971 0C22.0518 0 22.0292 0 21.9839 0C21.9613 0 21.9613 0 21.9386 0C21.8934 0 21.8707 0 21.8254 0.0229746C21.8028 0.0229746 21.8028 0.0229746 21.7802 0.0459492C21.7349 0.0459492 21.7122 0.0689238 21.6896 0.0689238C21.667 0.0689238 21.667 0.0918984 21.6443 0.0918984C21.599 0.114873 21.5764 0.137848 21.5538 0.137848C21.5538 0.137848 21.5538 0.137848 21.5311 0.137848L21.5085 0.160822C21.4858 0.183797 21.4632 0.206771 21.4179 0.229746C21.3953 0.252721 21.3953 0.252721 21.3726 0.275695C21.35 0.29867 21.35 0.29867 21.3273 0.321644C20.0368 2.15961 18.5878 3.88271 17.003 5.46796H16.8898V5.55985C15.6219 6.80048 14.2862 7.94921 12.8824 9.00605H12.8145V9.052C9.30524 11.7171 5.34316 13.7158 1.13202 14.9565C0.701855 15.0713 0.47545 15.5308 0.588653 15.9444C0.679215 16.289 0.996182 16.5187 1.35843 16.5187C1.42635 16.5187 1.51691 16.5187 1.58483 16.4958C2.6263 16.1971 3.66776 15.8295 4.68658 15.4389V17.3918H0.792417C0.362248 17.3918 0 17.7594 0 18.1959C0 18.6324 0.362248 19 0.792417 19L53.3637 18.7703C53.4089 18.7703 53.4542 18.7703 53.4995 18.7473C53.5448 18.7473 53.5901 18.7703 53.6353 18.7703L106.207 19C106.637 19 106.999 18.6324 106.999 18.1959C107.022 17.7594 106.659 17.3918 106.229 17.3918ZM100.75 17.3688H98.2598V13.555C99.0748 13.9915 99.9125 14.4051 100.75 14.7727V17.3688ZM96.6749 12.659V17.3458H94.1845V11.0738C94.9995 11.6252 95.8372 12.1765 96.6749 12.659ZM92.5996 9.90206V17.3229H90.1092V7.81137C90.9242 8.54655 91.7619 9.23579 92.5996 9.90206ZM81.9586 5.83555C82.8416 4.91657 83.6566 3.95163 84.4491 2.94075V17.2999H81.9586V5.83555ZM86.0339 3.46917C86.8263 4.4341 87.664 5.37606 88.5243 6.27207V17.3229H86.0339V3.46917ZM80.3738 7.4208V17.2999H77.8833V9.55744C78.7436 8.89117 79.5813 8.15599 80.3738 7.4208ZM34.7758 13.3253C38.036 15.0943 41.5453 16.4268 45.1904 17.208L34.7758 17.2539V13.3253ZM33.191 17.2539H30.7005V10.7521C31.5156 11.3265 32.3306 11.8779 33.191 12.4063V17.2539ZM73.808 12.4063C74.6684 11.9008 75.4834 11.3495 76.2985 10.7521V17.2539H73.808V12.4063ZM72.2232 17.2539L61.8086 17.208C65.4537 16.4268 68.963 15.0943 72.2232 13.3253V17.2539ZM29.1157 9.55744V17.2539H26.6252V7.37485C27.4403 8.15598 28.2553 8.89117 29.1157 9.55744ZM18.4746 6.27207C19.335 5.37606 20.1727 4.45707 20.9651 3.46917V17.2999H18.4746V6.27207ZM22.5499 2.94075C23.3424 3.95163 24.1574 4.91657 25.0404 5.83555V17.2769H22.5499V2.94075ZM16.8898 17.3229H14.3994V9.90206C15.2597 9.23579 16.0974 8.54655 16.8898 7.81137V17.3229ZM12.8145 17.3458H10.3241V12.659C11.1844 12.1536 11.9995 11.6252 12.8145 11.0508V17.3458ZM6.24878 14.7727C7.08648 14.4051 7.92417 13.9915 8.73923 13.555V17.3458H6.24878V14.7727Z" fill="#728EC5"/>
<path d="M4.36646 27.2111V24.8665H16.5788V27.2111H11.6938V39.787H9.25138V27.2111H4.36646Z" fill="white"/>
<path d="M18.165 38.3802C17.1031 37.2861 16.5721 35.9432 16.5721 34.3517C16.5721 32.7601 17.1031 31.4244 18.165 30.3444C19.2411 29.2503 20.5509 28.7032 22.0942 28.7032C23.6376 28.7032 24.9402 29.2503 26.0022 30.3444C27.0783 31.4244 27.6163 32.7601 27.6163 34.3517V35.0977H18.8022C18.9721 35.9929 19.3615 36.6963 19.9703 37.2079C20.5792 37.7195 21.2871 37.9752 22.0942 37.9752C23.0854 37.9752 23.8783 37.7266 24.473 37.2292C24.742 37.0303 24.9756 36.7816 25.1738 36.4832H27.5101C27.2128 37.1795 26.8376 37.7692 26.3845 38.2523C25.2234 39.4176 23.7933 40.0002 22.0942 40.0002C20.5509 40.0002 19.2411 39.4602 18.165 38.3802ZM18.9084 33.2859H25.28C25.1526 32.5754 24.8128 31.9715 24.2606 31.4741C23.7225 30.9768 23.0004 30.7281 22.0942 30.7281C21.3296 30.7281 20.65 30.9626 20.0553 31.4315C19.4606 31.8862 19.0783 32.5044 18.9084 33.2859Z" fill="white"/>
<path d="M28.3613 39.787L31.3348 28.9163H36.1135L39.0869 39.787H36.7507L34.4144 30.9413H33.0339L30.6976 39.787H28.3613Z" fill="white"/>
<path d="M41.4157 38.3802C40.3538 37.2861 39.8228 35.9432 39.8228 34.3517C39.8228 32.7601 40.3538 31.4244 41.4157 30.3444C42.4918 29.2503 43.8016 28.7032 45.3449 28.7032C46.8883 28.7032 48.1909 29.2503 49.2528 30.3444C50.3289 31.4244 50.867 32.7601 50.867 34.3517V35.0977H42.0529C42.2228 35.9929 42.6122 36.6963 43.221 37.2079C43.8299 37.7195 44.5378 37.9752 45.3449 37.9752C46.336 37.9752 47.129 37.7266 47.7237 37.2292C47.9927 37.0303 48.2263 36.7816 48.4245 36.4832H50.7608C50.4635 37.1795 50.0882 37.7692 49.6351 38.2523C48.4741 39.4176 47.044 40.0002 45.3449 40.0002C43.8016 40.0002 42.4918 39.4602 41.4157 38.3802ZM42.1591 33.2859H48.5307C48.4033 32.5754 48.0635 31.9715 47.5113 31.4741C46.9732 30.9768 46.2511 30.7281 45.3449 30.7281C44.5803 30.7281 43.9007 30.9626 43.306 31.4315C42.7113 31.8862 42.329 32.5044 42.1591 33.2859Z" fill="white"/>
<path d="M52.7801 39.787V28.9163H55.966L58.8332 35.4174H59.258L62.1252 28.9163H65.311V39.787H63.081V32.1136L63.1022 31.9004H62.996L60.3199 37.8687H57.7713L55.0952 31.9004H54.989L55.0102 32.1136V39.787H52.7801Z" fill="white"/>
<path d="M68.8359 38.3802C67.7598 37.2861 67.2217 35.9432 67.2217 34.3517C67.2217 32.7601 67.7598 31.4244 68.8359 30.3444C69.9261 29.2503 71.2642 28.7032 72.85 28.7032C74.4358 28.7032 75.7668 29.2503 76.8429 30.3444C77.9331 31.4244 78.4783 32.7601 78.4783 34.3517C78.4783 35.9432 77.9331 37.2861 76.8429 38.3802C75.7668 39.4602 74.4358 40.0002 72.85 40.0002C71.2642 40.0002 69.9261 39.4602 68.8359 38.3802ZM70.4712 31.7299C69.8624 32.3836 69.558 33.2575 69.558 34.3517C69.558 35.4459 69.8624 36.3269 70.4712 36.9947C71.0801 37.6484 71.873 37.9752 72.85 37.9752C73.827 37.9752 74.6199 37.6484 75.2287 36.9947C75.8376 36.3269 76.142 35.4459 76.142 34.3517C76.142 33.2575 75.8376 32.3836 75.2287 31.7299C74.6199 31.062 73.827 30.7281 72.85 30.7281C71.873 30.7281 71.0801 31.062 70.4712 31.7299Z" fill="white"/>
<path d="M81.2997 38.4015C80.2661 37.3358 79.7493 35.9858 79.7493 34.3517C79.7493 32.7175 80.2661 31.3676 81.2997 30.3018C82.3333 29.2361 83.6218 28.7032 85.1652 28.7032C86.8926 28.7032 88.3014 29.3639 89.3917 30.6855C89.859 31.2965 90.1846 31.9502 90.3687 32.6465H88.0324C87.9333 32.2912 87.7492 31.9715 87.4802 31.6873C86.928 31.0478 86.1563 30.7281 85.1652 30.7281C84.2873 30.7281 83.551 31.062 82.9563 31.7299C82.3758 32.3978 82.0855 33.2717 82.0855 34.3517C82.0855 35.4316 82.3758 36.3056 82.9563 36.9734C83.551 37.6413 84.2873 37.9752 85.1652 37.9752C86.1846 37.9752 86.9846 37.6555 87.5652 37.0161C87.82 36.7319 88.0112 36.4121 88.1386 36.0569H90.3687C90.1846 36.7816 89.859 37.4424 89.3917 38.0392C88.3156 39.3465 86.9068 40.0002 85.1652 40.0002C83.6218 40.0002 82.3333 39.4673 81.2997 38.4015Z" fill="white"/>
<path d="M91.1054 27.2111V24.8665H103.318V27.2111H98.4328V39.787H95.9903V27.2111H91.1054Z" fill="white"/>
</svg>
