<svg width="16" height="16" viewBox="0 0 16 16" fill="none" xmlns="http://www.w3.org/2000/svg">
<path d="M5.9974 8.66536H9.9974M5.9974 11.332H7.9974M2.66406 2.66536V13.332C2.66406 13.6857 2.80454 14.0248 3.05459 14.2748C3.30464 14.5249 3.64377 14.6654 3.9974 14.6654H11.9974C12.351 14.6654 12.6902 14.5249 12.9402 14.2748C13.1903 14.0248 13.3307 13.6857 13.3307 13.332V5.56003C13.3307 5.3824 13.2952 5.20657 13.2263 5.04286C13.1574 4.87915 13.0564 4.73086 12.9294 4.6067L9.9694 1.71203C9.7203 1.46847 9.38578 1.33207 9.0374 1.33203H3.9974C3.64377 1.33203 3.30464 1.47251 3.05459 1.72256C2.80454 1.9726 2.66406 2.31174 2.66406 2.66536V2.66536Z" stroke="#728EC5" stroke-width="2" stroke-linecap="round" stroke-linejoin="round"/>
<path d="M9.32812 1.33203V3.9987C9.32812 4.35232 9.4686 4.69146 9.71865 4.94151C9.9687 5.19156 10.3078 5.33203 10.6615 5.33203H13.3281" stroke="#728EC5" stroke-width="2" stroke-linejoin="round"/>
</svg>
