<svg width="20" height="20" viewBox="0 0 20 20" fill="none" xmlns="http://www.w3.org/2000/svg">
<g clip-path="url(#clip0_1018_17939)">
<path d="M5.83171 4.16707V1.66707C5.83171 1.44606 5.9195 1.2341 6.07578 1.07782C6.23206 0.921538 6.44403 0.83374 6.66504 0.83374H13.3317C13.5527 0.83374 13.7647 0.921538 13.921 1.07782C14.0772 1.2341 14.165 1.44606 14.165 1.66707V4.16707H17.4984C17.7194 4.16707 17.9313 4.25487 18.0876 4.41115C18.2439 4.56743 18.3317 4.77939 18.3317 5.00041V16.6671C18.3317 16.8881 18.2439 17.1 18.0876 17.2563C17.9313 17.4126 17.7194 17.5004 17.4984 17.5004H2.49837C2.27736 17.5004 2.0654 17.4126 1.90912 17.2563C1.75284 17.1 1.66504 16.8881 1.66504 16.6671V5.00041C1.66504 4.77939 1.75284 4.56743 1.90912 4.41115C2.0654 4.25487 2.27736 4.16707 2.49837 4.16707H5.83171ZM7.49837 10.8337H3.33171V15.8337H16.665V10.8337H12.4984V13.3337H7.49837V10.8337ZM16.665 5.83374H3.33171V9.16707H7.49837V7.50041H12.4984V9.16707H16.665V5.83374ZM9.16504 9.16707V11.6671H10.8317V9.16707H9.16504ZM7.49837 2.50041V4.16707H12.4984V2.50041H7.49837Z" fill="#5F91CE"/>
</g>
<defs>
<clipPath id="clip0_1018_17939">
<rect width="20" height="20" fill="white"/>
</clipPath>
</defs>
</svg>
