<svg width="20" height="20" viewBox="0 0 20 20" fill="none" xmlns="http://www.w3.org/2000/svg">
<g clip-path="url(#clip0_804_28648)">
<path d="M1.66406 10.0004C1.66406 9.27958 1.75573 8.58125 1.9274 7.91375C2.38778 7.93795 2.8459 7.83438 3.2511 7.61447C3.65629 7.39457 3.9928 7.06691 4.2234 6.6677C4.45401 6.2685 4.56973 5.8133 4.55779 5.35243C4.54585 4.89157 4.4067 4.44297 4.15573 4.05625C5.16318 3.06506 6.40639 2.34666 7.76823 1.96875C7.97739 2.37998 8.29626 2.72531 8.68955 2.96651C9.08284 3.20771 9.5352 3.33538 9.99656 3.33538C10.4579 3.33538 10.9103 3.20771 11.3036 2.96651C11.6969 2.72531 12.0157 2.37998 12.2249 1.96875C13.5867 2.34666 14.8299 3.06506 15.8374 4.05625C15.5861 4.44304 15.4468 4.89181 15.4348 5.35289C15.4227 5.81397 15.5385 6.26939 15.7692 6.66876C16 7.06813 16.3367 7.39589 16.7421 7.61576C17.1476 7.83564 17.606 7.93906 18.0666 7.91458C18.2382 8.58125 18.3299 9.27958 18.3299 10.0004C18.3299 10.7213 18.2382 11.4196 18.0666 12.0871C17.6061 12.0627 17.1479 12.1662 16.7426 12.386C16.3372 12.6058 16.0006 12.9335 15.7699 13.3327C15.5392 13.732 15.4234 14.1872 15.4353 14.6482C15.4472 15.1091 15.5864 15.5578 15.8374 15.9446C14.8299 16.9358 13.5867 17.6542 12.2249 18.0321C12.0157 17.6209 11.6969 17.2755 11.3036 17.0343C10.9103 16.7931 10.4579 16.6655 9.99656 16.6655C9.5352 16.6655 9.08284 16.7931 8.68955 17.0343C8.29626 17.2755 7.97739 17.6209 7.76823 18.0321C6.40639 17.6542 5.16318 16.9358 4.15573 15.9446C4.40698 15.5578 4.54634 15.109 4.55837 14.6479C4.5704 14.1869 4.45464 13.7314 4.22391 13.3321C3.99317 12.9327 3.65644 12.6049 3.25098 12.3851C2.84553 12.1652 2.38715 12.0618 1.92656 12.0863C1.75573 11.4204 1.66406 10.7221 1.66406 10.0004ZM5.6674 12.5004C6.1924 13.4096 6.3424 14.4554 6.1374 15.4371C6.4774 15.6788 6.83906 15.8879 7.21823 16.0621C7.98212 15.3778 8.97182 14.9997 9.9974 15.0004C11.0474 15.0004 12.0291 15.3929 12.7766 16.0621C13.1557 15.8879 13.5174 15.6788 13.8574 15.4371C13.6469 14.4337 13.8143 13.388 14.3274 12.5004C14.8396 11.6124 15.6616 10.9447 16.6357 10.6254C16.6743 10.2096 16.6743 9.79119 16.6357 9.37542C15.6613 9.0563 14.839 8.3886 14.3266 7.50042C13.8135 6.61286 13.6461 5.56711 13.8566 4.56375C13.5167 4.32202 13.1548 4.11277 12.7757 3.93875C12.0121 4.62286 11.0227 5.00092 9.9974 5.00042C8.97182 5.00113 7.98212 4.62305 7.21823 3.93875C6.83917 4.11277 6.4773 4.32202 6.1374 4.56375C6.34787 5.56711 6.1805 6.61286 5.6674 7.50042C5.15521 8.38844 4.33321 9.05612 3.35906 9.37542C3.32052 9.79119 3.32052 10.2096 3.35906 10.6254C4.33352 10.9445 5.15584 11.6122 5.66823 12.5004H5.6674ZM9.9974 12.5004C9.33435 12.5004 8.69847 12.237 8.22963 11.7682C7.76079 11.2993 7.4974 10.6635 7.4974 10.0004C7.4974 9.33738 7.76079 8.70149 8.22963 8.23265C8.69847 7.76381 9.33435 7.50042 9.9974 7.50042C10.6604 7.50042 11.2963 7.76381 11.7652 8.23265C12.234 8.70149 12.4974 9.33738 12.4974 10.0004C12.4974 10.6635 12.234 11.2993 11.7652 11.7682C11.2963 12.237 10.6604 12.5004 9.9974 12.5004ZM9.9974 10.8337C10.2184 10.8337 10.4304 10.746 10.5867 10.5897C10.7429 10.4334 10.8307 10.2214 10.8307 10.0004C10.8307 9.7794 10.7429 9.56744 10.5867 9.41116C10.4304 9.25488 10.2184 9.16708 9.9974 9.16708C9.77638 9.16708 9.56442 9.25488 9.40814 9.41116C9.25186 9.56744 9.16406 9.7794 9.16406 10.0004C9.16406 10.2214 9.25186 10.4334 9.40814 10.5897C9.56442 10.746 9.77638 10.8337 9.9974 10.8337Z" fill="#5F91CE"/>
</g>
<defs>
<clipPath id="clip0_804_28648">
<rect width="20" height="20" fill="white"/>
</clipPath>
</defs>
</svg>
