<svg width="20" height="20" viewBox="0 0 20 20" fill="none" xmlns="http://www.w3.org/2000/svg">
<path d="M13.3229 16.666L14.9896 16.666C15.9101 16.666 16.6563 15.9198 16.6563 14.9993L16.6563 4.99935C16.6563 4.07887 15.9101 3.33268 14.9896 3.33268L13.3229 3.33268C12.4024 3.33268 11.6563 4.07887 11.6563 4.99935L11.6563 14.9993C11.6563 15.9198 12.4024 16.666 13.3229 16.666Z" stroke="#008DF4" stroke-width="2" stroke-linecap="round" stroke-linejoin="round"/>
<path d="M4.99479 16.666L6.66146 16.666C7.58193 16.666 8.32813 15.9198 8.32813 14.9993L8.32813 9.99935C8.32813 9.07887 7.58193 8.33268 6.66146 8.33268L4.99479 8.33268C4.07432 8.33268 3.32813 9.07887 3.32813 9.99935L3.32813 14.9993C3.32813 15.9198 4.07432 16.666 4.99479 16.666Z" stroke="#008DF4" stroke-width="2" stroke-linecap="round" stroke-linejoin="round"/>
</svg>
