<svg width="20" height="20" viewBox="0 0 20 20" fill="none" xmlns="http://www.w3.org/2000/svg">
<g clip-path="url(#clip0_919_4055)">
<path d="M5.83073 4.16732V1.66732C5.83073 1.4463 5.91853 1.23434 6.07481 1.07806C6.23109 0.921782 6.44305 0.833984 6.66406 0.833984H13.3307C13.5517 0.833984 13.7637 0.921782 13.92 1.07806C14.0763 1.23434 14.1641 1.4463 14.1641 1.66732V4.16732H17.4974C17.7184 4.16732 17.9304 4.25512 18.0867 4.4114C18.2429 4.56768 18.3307 4.77964 18.3307 5.00065V16.6673C18.3307 16.8883 18.2429 17.1003 18.0867 17.2566C17.9304 17.4129 17.7184 17.5007 17.4974 17.5007H2.4974C2.27638 17.5007 2.06442 17.4129 1.90814 17.2566C1.75186 17.1003 1.66406 16.8883 1.66406 16.6673V5.00065C1.66406 4.77964 1.75186 4.56768 1.90814 4.4114C2.06442 4.25512 2.27638 4.16732 2.4974 4.16732H5.83073ZM7.4974 10.834H3.33073V15.834H16.6641V10.834H12.4974V13.334H7.4974V10.834ZM16.6641 5.83398H3.33073V9.16732H7.4974V7.50065H12.4974V9.16732H16.6641V5.83398ZM9.16406 9.16732V11.6673H10.8307V9.16732H9.16406ZM7.4974 2.50065V4.16732H12.4974V2.50065H7.4974Z" fill="#008DF4"/>
</g>
<defs>
<clipPath id="clip0_919_4055">
<rect width="20" height="20" fill="white"/>
</clipPath>
</defs>
</svg>
