<svg width="20" height="20" viewBox="0 0 20 20" fill="none" xmlns="http://www.w3.org/2000/svg">
<g clip-path="url(#clip0_804_28643)">
<path d="M15.8333 6.6665H17.5C17.721 6.6665 17.933 6.7543 18.0893 6.91058C18.2455 7.06686 18.3333 7.27882 18.3333 7.49984V17.4998C18.3333 17.7208 18.2455 17.9328 18.0893 18.0891C17.933 18.2454 17.721 18.3332 17.5 18.3332H10.8333C10.6123 18.3332 10.4004 18.2454 10.2441 18.0891C10.0878 17.9328 10 17.7208 10 17.4998V16.6665H3.33333C3.11232 16.6665 2.90036 16.5787 2.74408 16.4224C2.5878 16.2661 2.5 16.0542 2.5 15.8332V2.49984C2.5 2.27882 2.5878 2.06686 2.74408 1.91058C2.90036 1.7543 3.11232 1.6665 3.33333 1.6665H15C15.221 1.6665 15.433 1.7543 15.5893 1.91058C15.7455 2.06686 15.8333 2.27882 15.8333 2.49984V6.6665ZM14.1667 6.6665V3.33317H4.16667V14.9998H10V7.49984C10 7.27882 10.0878 7.06686 10.2441 6.91058C10.4004 6.7543 10.6123 6.6665 10.8333 6.6665H14.1667ZM11.6667 8.33317V16.6665H16.6667V8.33317H11.6667Z" fill="#5F91CE"/>
</g>
<defs>
<clipPath id="clip0_804_28643">
<rect width="20" height="20" fill="white"/>
</clipPath>
</defs>
</svg>
