<svg width="20" height="20" viewBox="0 0 20 20" fill="none" xmlns="http://www.w3.org/2000/svg">
<path d="M13.3229 16.6655L14.9896 16.6655C15.9101 16.6655 16.6563 15.9193 16.6563 14.9989L16.6563 4.99886C16.6563 4.07839 15.9101 3.33219 14.9896 3.33219L13.3229 3.33219C12.4024 3.33219 11.6563 4.07839 11.6563 4.99886L11.6563 14.9989C11.6563 15.9193 12.4024 16.6655 13.3229 16.6655Z" stroke="#5F91CE" stroke-width="2" stroke-linecap="round" stroke-linejoin="round"/>
<path d="M4.99479 16.6658L6.66146 16.6658C7.58193 16.6658 8.32813 15.9196 8.32813 14.9991L8.32813 9.9991C8.32813 9.07863 7.58193 8.33244 6.66146 8.33244L4.99479 8.33244C4.07432 8.33244 3.32813 9.07863 3.32813 9.9991L3.32813 14.9991C3.32813 15.9196 4.07432 16.6658 4.99479 16.6658Z" stroke="#5F91CE" stroke-width="2" stroke-linecap="round" stroke-linejoin="round"/>
</svg>
