<svg width="17" height="16" viewBox="0 0 17 16" fill="none" xmlns="http://www.w3.org/2000/svg">
<g clip-path="url(#clip0_1018_14273)">
<path d="M5.16536 3.33366V1.33366C5.16536 1.15685 5.2356 0.987279 5.36063 0.862254C5.48565 0.73723 5.65522 0.666992 5.83203 0.666992H11.1654C11.3422 0.666992 11.5117 0.73723 11.6368 0.862254C11.7618 0.987279 11.832 1.15685 11.832 1.33366V3.33366H14.4987C14.6755 3.33366 14.8451 3.4039 14.9701 3.52892C15.0951 3.65395 15.1654 3.82351 15.1654 4.00033V13.3337C15.1654 13.5105 15.0951 13.68 14.9701 13.8051C14.8451 13.9301 14.6755 14.0003 14.4987 14.0003H2.4987C2.32189 14.0003 2.15232 13.9301 2.02729 13.8051C1.90227 13.68 1.83203 13.5105 1.83203 13.3337V4.00033C1.83203 3.82351 1.90227 3.65395 2.02729 3.52892C2.15232 3.4039 2.32189 3.33366 2.4987 3.33366H5.16536ZM6.4987 8.66699H3.16536V12.667H13.832V8.66699H10.4987V10.667H6.4987V8.66699ZM13.832 4.66699H3.16536V7.33366H6.4987V6.00033H10.4987V7.33366H13.832V4.66699ZM7.83203 7.33366V9.33366H9.16536V7.33366H7.83203ZM6.4987 2.00033V3.33366H10.4987V2.00033H6.4987Z" fill="#008DF4"/>
</g>
<defs>
<clipPath id="clip0_1018_14273">
<rect width="16" height="16" fill="white" transform="translate(0.5)"/>
</clipPath>
</defs>
</svg>
