<svg width="17" height="16" viewBox="0 0 17 16" fill="none" xmlns="http://www.w3.org/2000/svg">
<path d="M11.1576 13.3325L12.4909 13.3325C13.2273 13.3325 13.8242 12.7356 13.8242 11.9992L13.8242 3.99919C13.8242 3.26281 13.2273 2.66585 12.4909 2.66585L11.1576 2.66585C10.4212 2.66585 9.82422 3.26281 9.82422 3.99919L9.82422 11.9992C9.82422 12.7356 10.4212 13.3325 11.1576 13.3325Z" stroke="#008DF4" stroke-width="2" stroke-linecap="round" stroke-linejoin="round"/>
<path d="M4.49544 13.3328L5.82878 13.3328C6.56516 13.3328 7.16211 12.7358 7.16211 11.9994L7.16211 7.99943C7.16211 7.26305 6.56516 6.6661 5.82878 6.6661L4.49544 6.6661C3.75906 6.6661 3.16211 7.26305 3.16211 7.99943L3.16211 11.9994C3.16211 12.7358 3.75906 13.3328 4.49544 13.3328Z" stroke="#008DF4" stroke-width="2" stroke-linecap="round" stroke-linejoin="round"/>
</svg>
