<svg width="107" height="48" viewBox="0 0 107 48" fill="none" xmlns="http://www.w3.org/2000/svg">
<path d="M106.229 21.3917L102.334 21.3687V19.4159C103.353 19.8064 104.372 20.174 105.436 20.4727C105.504 20.4957 105.595 20.4957 105.663 20.4957C106.002 20.4957 106.319 20.2659 106.432 19.9213C106.545 19.4848 106.319 19.0483 105.889 18.9334C101.678 17.6928 97.7158 15.694 94.2065 13.0749V13.029H94.1386C92.7349 11.9721 91.3765 10.8234 90.1312 9.58279V9.4909H90.018C88.4332 7.90566 86.9842 6.20555 85.6937 4.34462C85.6711 4.32164 85.6711 4.32164 85.6484 4.29867C85.6258 4.27569 85.6258 4.27569 85.6032 4.25272C85.5805 4.22974 85.5579 4.20677 85.5126 4.1838L85.49 4.16082C85.49 4.16082 85.49 4.16082 85.4673 4.16082C85.4447 4.13785 85.3994 4.11487 85.3768 4.11487C85.3541 4.11487 85.3541 4.0919 85.3315 4.0919C85.3088 4.06892 85.2636 4.06892 85.2409 4.06892C85.2183 4.06892 85.2183 4.06892 85.1956 4.04595C85.173 4.04595 85.1277 4.04595 85.1051 4.02297C85.0824 4.02297 85.0824 4.02297 85.0598 4.02297C85.0145 4.02297 84.9919 4.02297 84.9466 4.02297C84.924 4.02297 84.924 4.02297 84.9013 4.02297C84.8787 4.02297 84.8334 4.04595 84.8108 4.04595C84.7881 4.04595 84.7881 4.04595 84.7655 4.06892C84.7428 4.0919 84.7202 4.0919 84.6749 4.11487C84.6523 4.11487 84.6296 4.13785 84.607 4.13785C84.607 4.13785 84.5844 4.13785 84.5844 4.16082C84.5617 4.1838 84.5617 4.1838 84.5391 4.20677C84.5164 4.22974 84.4938 4.22974 84.4938 4.25272C84.4712 4.27569 84.4485 4.29867 84.4259 4.32164L84.4032 4.34462C77.3394 14.4304 65.8381 20.4497 53.6576 20.4497C53.6124 20.4497 53.5671 20.4497 53.5218 20.4727C53.4765 20.4727 53.4312 20.4497 53.3859 20.4497C41.2054 20.4497 29.7041 14.4304 22.6404 4.34462C22.6404 4.32164 22.6177 4.32164 22.6177 4.32164C22.5951 4.29867 22.5724 4.27569 22.5498 4.25272C22.5271 4.22974 22.5045 4.22974 22.5045 4.20677C22.4819 4.1838 22.4819 4.1838 22.4592 4.16082C22.4592 4.16082 22.4366 4.16082 22.4366 4.13785C22.4139 4.11487 22.3913 4.11487 22.3687 4.0919C22.346 4.06892 22.3234 4.06892 22.2781 4.04595C22.2555 4.04595 22.2328 4.02297 22.2328 4.02297C22.2102 4.02297 22.1649 4 22.1423 4C22.1196 4 22.1196 4 22.097 4C22.0517 4 22.0291 4 21.9838 4C21.9611 4 21.9611 4 21.9385 4C21.8932 4 21.8706 4 21.8253 4.02297C21.8027 4.02297 21.8027 4.02297 21.78 4.04595C21.7347 4.04595 21.7121 4.06892 21.6895 4.06892C21.6668 4.06892 21.6668 4.0919 21.6442 4.0919C21.5989 4.11487 21.5763 4.13785 21.5536 4.13785C21.5536 4.13785 21.5536 4.13785 21.531 4.13785L21.5083 4.16082C21.4857 4.1838 21.4631 4.20677 21.4178 4.22974C21.3951 4.25272 21.3951 4.25272 21.3725 4.27569C21.3499 4.29867 21.3498 4.29867 21.3272 4.32164C20.0367 6.1596 18.5877 7.88268 17.0029 9.46792H16.8897V9.55982C15.6218 10.8004 14.2861 11.9492 12.8824 13.006H12.8144V13.0519C9.30518 15.717 5.34312 17.7158 1.13202 18.9564C0.701851 19.0712 0.475447 19.5307 0.588649 19.9443C0.67921 20.2889 0.996175 20.5186 1.35842 20.5186C1.42634 20.5186 1.5169 20.5186 1.58482 20.4957C2.62628 20.197 3.66774 19.8294 4.68655 19.4388V21.3917H0.792412C0.362246 21.3917 0 21.7593 0 22.1958C0 22.6323 0.362246 22.9999 0.792412 22.9999L53.3633 22.7701C53.4086 22.7701 53.4539 22.7701 53.4991 22.7472C53.5444 22.7472 53.5897 22.7701 53.635 22.7701L106.206 22.9999C106.636 22.9999 106.998 22.6323 106.998 22.1958C107.021 21.7593 106.659 21.3917 106.229 21.3917ZM100.75 21.3687H98.2591V17.5549C99.0742 17.9914 99.9119 18.405 100.75 18.7726V21.3687ZM96.6743 16.6589V21.3457H94.1839V15.0737C94.9989 15.6251 95.8366 16.1765 96.6743 16.6589ZM92.599 13.902V21.3227H90.1086V11.8113C90.9236 12.5465 91.7613 13.2357 92.599 13.902ZM81.9581 9.83551C82.841 8.91653 83.6561 7.95161 84.4485 6.94073V21.2998H81.9581V9.83551ZM86.0333 7.46914C86.8257 8.43407 87.6634 9.37602 88.5238 10.272V21.3227H86.0333V7.46914ZM80.3732 11.4208V21.2998H77.8828V13.5574C78.7431 12.8911 79.5808 12.1559 80.3732 11.4208ZM34.7756 17.3252C38.0358 19.0942 41.545 20.4267 45.1901 21.2079L34.7756 21.2538V17.3252ZM33.1908 21.2538H30.7003V14.752C31.5154 15.3264 32.3304 15.8778 33.1908 16.4062V21.2538ZM73.8075 16.4062C74.6679 15.9008 75.4829 15.3494 76.298 14.752V21.2538H73.8075V16.4062ZM72.2227 21.2538L61.8082 21.2079C65.4533 20.4267 68.9625 19.0942 72.2227 17.3252V21.2538ZM29.1155 13.5574V21.2538H26.6251V11.3748C27.4401 12.1559 28.2552 12.8911 29.1155 13.5574ZM18.4745 10.272C19.3349 9.37602 20.1726 8.45705 20.965 7.46914V21.2998H18.4745V10.272ZM22.5498 6.94073C23.3422 7.95161 24.1573 8.91653 25.0402 9.83551V21.2768H22.5498V6.94073ZM16.8897 21.3227H14.3993V13.902C15.2596 13.2357 16.0973 12.5465 16.8897 11.8113V21.3227ZM12.8144 21.3457H10.324V16.6589C11.1843 16.1535 11.9994 15.6251 12.8144 15.0507V21.3457ZM6.24874 18.7726C7.08643 18.405 7.92412 17.9914 8.73917 17.5549V21.3457H6.24874V18.7726Z" fill="#008DF4"/>
<path d="M4.36719 31.2118V28.8672H16.5794V31.2118H11.6945V43.7877H9.25208V31.2118H4.36719Z" fill="white"/>
<path d="M18.1657 42.3809C17.1038 41.2867 16.5728 39.9439 16.5728 38.3523C16.5728 36.7608 17.1038 35.4251 18.1657 34.3451C19.2418 33.251 20.5515 32.7039 22.0948 32.7039C23.6382 32.7039 24.9408 33.251 26.0028 34.3451C27.0788 35.4251 27.6169 36.7608 27.6169 38.3523V39.0984H18.8028C18.9728 39.9936 19.3621 40.697 19.971 41.2085C20.5798 41.7201 21.2878 41.9759 22.0948 41.9759C23.086 41.9759 23.8789 41.7272 24.4736 41.2299C24.7426 41.0309 24.9762 40.7823 25.1744 40.4838H27.5107C27.2134 41.1801 26.8381 41.7698 26.385 42.253C25.224 43.4182 23.7939 44.0008 22.0948 44.0008C20.5515 44.0008 19.2418 43.4608 18.1657 42.3809ZM18.909 37.2866H25.2806C25.1532 36.5761 24.8134 35.9722 24.2612 35.4748C23.7231 34.9775 23.001 34.7288 22.0948 34.7288C21.3302 34.7288 20.6506 34.9633 20.0559 35.4322C19.4612 35.8869 19.0789 36.505 18.909 37.2866Z" fill="white"/>
<path d="M28.3619 43.7877L31.3353 32.917H36.114L39.0874 43.7877H36.7512L34.4149 34.942H33.0344L30.6982 43.7877H28.3619Z" fill="white"/>
<path d="M41.4162 42.3809C40.3543 41.2867 39.8233 39.9439 39.8233 38.3523C39.8233 36.7608 40.3543 35.4251 41.4162 34.3451C42.4923 33.251 43.802 32.7039 45.3454 32.7039C46.8887 32.7039 48.1913 33.251 49.2533 34.3451C50.3294 35.4251 50.8674 36.7608 50.8674 38.3523V39.0984H42.0534C42.2233 39.9936 42.6127 40.697 43.2215 41.2085C43.8303 41.7201 44.5383 41.9759 45.3454 41.9759C46.3365 41.9759 47.1294 41.7272 47.7241 41.2299C47.9931 41.0309 48.2267 40.7823 48.425 40.4838H50.7612C50.4639 41.1801 50.0887 41.7698 49.6356 42.253C48.4745 43.4182 47.0445 44.0008 45.3454 44.0008C43.802 44.0008 42.4923 43.4608 41.4162 42.3809ZM42.1596 37.2866H48.5312C48.4037 36.5761 48.0639 35.9722 47.5117 35.4748C46.9737 34.9775 46.2516 34.7288 45.3454 34.7288C44.5808 34.7288 43.9011 34.9633 43.3065 35.4322C42.7118 35.8869 42.3295 36.505 42.1596 37.2866Z" fill="white"/>
<path d="M52.7806 43.7877V32.917H55.9664L58.8336 39.4181H59.2584L62.1256 32.917H65.3114V43.7877H63.0813V36.1143L63.1026 35.9011H62.9964L60.3203 41.8693H57.7717L55.0956 35.9011H54.9894L55.0106 36.1143V43.7877H52.7806Z" fill="white"/>
<path d="M68.8362 42.3809C67.7601 41.2867 67.222 39.9439 67.222 38.3523C67.222 36.7608 67.7601 35.4251 68.8362 34.3451C69.9264 33.251 71.2645 32.7039 72.8503 32.7039C74.4361 32.7039 75.767 33.251 76.8431 34.3451C77.9334 35.4251 78.4785 36.7608 78.4785 38.3523C78.4785 39.9439 77.9334 41.2867 76.8431 42.3809C75.767 43.4608 74.4361 44.0008 72.8503 44.0008C71.2645 44.0008 69.9264 43.4608 68.8362 42.3809ZM70.4715 35.7306C69.8627 36.3843 69.5583 37.2582 69.5583 38.3523C69.5583 39.4465 69.8627 40.3275 70.4715 40.9954C71.0804 41.6491 71.8733 41.9759 72.8503 41.9759C73.8273 41.9759 74.6202 41.6491 75.229 40.9954C75.8378 40.3275 76.1423 39.4465 76.1423 38.3523C76.1423 37.2582 75.8378 36.3843 75.229 35.7306C74.6202 35.0627 73.8273 34.7288 72.8503 34.7288C71.8733 34.7288 71.0804 35.0627 70.4715 35.7306Z" fill="white"/>
<path d="M81.2999 42.4022C80.2663 41.3364 79.7495 39.9865 79.7495 38.3523C79.7495 36.7182 80.2663 35.3683 81.2999 34.3025C82.3336 33.2368 83.622 32.7039 85.1654 32.7039C86.8928 32.7039 88.3016 33.3646 89.3919 34.6862C89.8591 35.2972 90.1848 35.9509 90.3689 36.6471H88.0326C87.9335 36.2919 87.7494 35.9722 87.4804 35.688C86.9282 35.0485 86.1565 34.7288 85.1654 34.7288C84.2875 34.7288 83.5512 35.0627 82.9566 35.7306C82.376 36.3985 82.0858 37.2724 82.0858 38.3523C82.0858 39.4323 82.376 40.3062 82.9566 40.9741C83.5512 41.642 84.2875 41.9759 85.1654 41.9759C86.1848 41.9759 86.9848 41.6562 87.5654 41.0167C87.8202 40.7325 88.0114 40.4128 88.1388 40.0575H90.3689C90.1848 40.7823 89.8591 41.443 89.3919 42.0398C88.3158 43.3472 86.9069 44.0008 85.1654 44.0008C83.622 44.0008 82.3336 43.4679 81.2999 42.4022Z" fill="white"/>
<path d="M91.1056 31.2118V28.8672H103.318V31.2118H98.4329V43.7877H95.9905V31.2118H91.1056Z" fill="white"/>
</svg>
