<svg width="86" height="120" viewBox="0 0 86 120" fill="none" xmlns="http://www.w3.org/2000/svg">
<g opacity="0.1">
<g clip-path="url(#clip0_814_17286)">
<rect width="156" height="101" transform="matrix(-0.866025 -0.5 9.77409e-08 -1 151.94 179)" fill="#008DF4"/>
</g>
</g>
<g opacity="0.2">
<g clip-path="url(#clip1_814_17286)">
<rect width="156" height="101" transform="matrix(-0.866025 -0.5 9.77409e-08 -1 143.782 193.809)" fill="#008DF4"/>
</g>
</g>
<g clip-path="url(#clip2_814_17286)">
<rect width="156" height="101" transform="matrix(-0.866025 -0.5 9.77409e-08 -1 135.102 207.596)" fill="#008DF4"/>
<path opacity="0.2" d="M68.9873 119.999L0.00067714 80.1696L34.494 71.4888L68.9873 119.999Z" fill="white"/>
<path d="M0 28.5957L68.9866 68.4252L34.4933 80.1697L0 28.5957Z" fill="#0F5FFF"/>
<path d="M53.0115 84.6956L51.4991 83.8121L51.4991 82.9364C51.8948 83.34 52.2905 83.7333 52.7037 84.1058C52.7301 84.1313 52.7653 84.1516 52.7917 84.1669C52.9236 84.243 53.0467 84.2111 53.0906 84.0819C53.1346 83.9115 53.0467 83.665 52.8796 83.517C51.2441 82.0164 49.7053 80.2316 48.3424 78.2702L48.3424 78.2496L48.316 78.2344C47.7709 77.4457 47.2433 76.6259 46.7597 75.7903L46.7597 75.7491L46.7157 75.7237C46.1002 74.6575 45.5375 73.5701 45.0363 72.4462C45.0275 72.4308 45.0275 72.4308 45.0187 72.4155C45.0099 72.4001 45.0099 72.4001 45.0011 72.3847C44.9923 72.3693 44.9835 72.3539 44.9659 72.3335L44.9571 72.3181C44.9571 72.3181 44.9571 72.3181 44.9483 72.313C44.9395 72.2977 44.922 72.2772 44.9132 72.2721C44.9044 72.267 44.9044 72.2567 44.8956 72.2517C44.8868 72.2363 44.8692 72.2261 44.8604 72.2211C44.8516 72.216 44.8516 72.216 44.8428 72.2006C44.834 72.1955 44.8164 72.1854 44.8077 72.17C44.7989 72.1649 44.7989 72.1649 44.7901 72.1598C44.7725 72.1497 44.7637 72.1446 44.7461 72.1345C44.7373 72.1294 44.7373 72.1294 44.7285 72.1243C44.7197 72.1192 44.7021 72.1194 44.6933 72.1143C44.6846 72.1092 44.6846 72.1092 44.6758 72.1144C44.667 72.1197 44.6582 72.1146 44.6406 72.1147C44.6318 72.1097 44.623 72.1149 44.6142 72.1098C44.6142 72.1098 44.6054 72.1047 44.6054 72.115C44.5966 72.1203 44.5966 72.1203 44.5878 72.1255C44.579 72.1307 44.5702 72.1256 44.5702 72.136C44.5615 72.1412 44.5527 72.1464 44.5439 72.1516L44.5351 72.1569C41.7917 75.096 37.3248 75.2165 32.5942 72.4853C32.5766 72.4751 32.559 72.465 32.5415 72.4651C32.5239 72.4549 32.5063 72.4345 32.4887 72.4243C27.7581 69.6931 23.2913 64.4148 20.5479 58.3078C20.5479 58.2975 20.5391 58.2924 20.5391 58.2924C20.5303 58.2771 20.5215 58.2617 20.5127 58.2463C20.5039 58.2309 20.4951 58.2259 20.4951 58.2156C20.4863 58.2002 20.4863 58.2002 20.4775 58.1848C20.4775 58.1848 20.4687 58.1797 20.4687 58.1694C20.4599 58.154 20.4511 58.149 20.4423 58.1336C20.4335 58.1182 20.4248 58.1131 20.4072 58.0927C20.3984 58.0876 20.3896 58.0722 20.3896 58.0722C20.3808 58.0671 20.3632 58.0467 20.3544 58.0416C20.3456 58.0365 20.3456 58.0365 20.3368 58.0314C20.3192 58.0213 20.3104 58.0162 20.2929 58.0061C20.2841 58.001 20.2841 58.001 20.2753 57.9959C20.2577 57.9858 20.2489 57.9807 20.2313 57.9808C20.2225 57.9758 20.2225 57.9758 20.2137 57.981C20.1961 57.9708 20.1873 57.9761 20.1785 57.971C20.1698 57.9659 20.1698 57.9762 20.161 57.9711C20.1434 57.9713 20.1346 57.9765 20.1258 57.9714C20.1258 57.9714 20.1258 57.9714 20.117 57.9663L20.1082 57.9716C20.0994 57.9768 20.0906 57.982 20.073 57.9822C20.0642 57.9874 20.0642 57.9874 20.0554 57.9926C20.0467 57.9979 20.0467 57.9979 20.0379 58.0031C19.5367 58.538 18.9739 58.9858 18.3584 59.3413L18.3144 59.316L18.3144 59.3572C17.822 59.6292 17.3032 59.8449 16.7581 60.0041L16.7317 59.9888L16.7317 60.0094C15.3688 60.4177 13.83 60.4257 12.1945 60.0378C12.0275 59.9929 11.9395 60.1482 11.9835 60.359C12.0187 60.5338 12.1418 60.7079 12.2825 60.7892C12.3088 60.8044 12.344 60.8247 12.3704 60.8296C12.7749 60.9292 13.1793 60.9979 13.575 61.0512L13.575 61.927L12.0626 61.0538C11.8956 60.9573 11.7549 61.0409 11.7549 61.2367C11.7549 61.4325 11.8956 61.6785 12.0626 61.775L32.4799 73.4599C32.4975 73.47 32.5151 73.4802 32.5327 73.48C32.5503 73.4902 32.5678 73.5106 32.5854 73.5208L53.0027 85.4117C53.1698 85.5082 53.3105 85.4246 53.3105 85.2288C53.3192 85.0381 53.1786 84.7921 53.0115 84.6956ZM50.8836 83.4568L49.9164 82.8983L49.9164 81.188C50.2329 81.5665 50.5583 81.9398 50.8836 82.2925L50.8836 83.4568ZM49.3009 80.4308L49.3009 82.5327L48.3336 81.9742L48.3336 79.1615C48.6502 79.5915 48.9755 80.0266 49.3009 80.4308ZM47.7181 78.2807L47.7181 81.6086L46.7509 81.0501L46.7509 76.7847C47.0674 77.2971 47.3928 77.794 47.7181 78.2807ZM43.5854 74.071C43.9284 73.8569 44.2449 73.6069 44.5527 73.3313L44.5527 79.7707L43.5854 79.2123L43.5854 74.071ZM45.1682 73.9236C45.4759 74.534 45.8013 75.1443 46.1354 75.739L46.1354 80.6948L45.1682 80.1363L45.1682 73.9236ZM42.9699 74.4266L42.9699 78.8569L42.0027 78.2985L42.0027 74.8263C42.3368 74.7204 42.6622 74.5786 42.9699 74.4266ZM25.2609 66.8501C26.5271 68.3745 27.89 69.759 29.3056 70.9266L25.2609 68.612L25.2609 66.8501ZM24.6454 68.2566L23.6781 67.6982L23.6781 64.7824C23.9947 65.2227 24.3112 65.6528 24.6454 66.0827L24.6454 68.2566ZM40.42 75.1901C40.7541 75.1564 41.0706 75.0918 41.3872 75.0067L41.3872 77.9225L40.42 77.3641L40.42 75.1901ZM39.8045 77.0087L35.7597 74.6528C37.1754 75.1199 38.5383 75.3092 39.8045 75.2469L39.8045 77.0087ZM23.0626 63.8913L23.0626 67.3428L22.0954 66.7844L22.0954 62.3541C22.412 62.8871 22.7285 63.3996 23.0626 63.8913ZM18.9299 60.0319C19.2641 59.823 19.5894 59.5987 19.8972 59.3334L19.8972 65.5358L18.9299 64.9774L18.9299 60.0319ZM20.5127 59.4518C20.8204 60.0828 21.137 60.6983 21.4799 61.3084L21.4799 66.4393L20.5127 65.8809L20.5127 59.4518ZM18.3144 64.6323L17.3472 64.0739L17.3472 60.746C17.6813 60.6401 18.0067 60.5189 18.3144 60.3669L18.3144 64.6323ZM16.7317 63.7289L15.7645 63.1704L15.7645 61.0686C16.0986 61.0348 16.4152 60.9806 16.7317 60.9058L16.7317 63.7289ZM14.1817 61.1027C14.5071 61.1257 14.8324 61.1281 15.149 61.1151L15.149 62.8151L14.1817 62.2566L14.1817 61.1027Z" fill="white"/>
<path d="M13.4492 66.259L13.4492 65.2075L18.1922 67.9459L18.1922 68.9973L16.295 67.902L16.295 73.5417L15.3464 72.9941L15.3464 67.3543L13.4492 66.259Z" fill="white"/>
<path d="M18.8082 74.3619C18.3958 73.6331 18.1896 72.9118 18.1896 72.1981C18.1896 71.4843 18.3958 71.0044 18.8082 70.7582C19.2262 70.5088 19.7348 70.5571 20.3342 70.9032C20.9336 71.2492 21.4395 71.7867 21.852 72.5155C22.2699 73.2411 22.4788 73.9607 22.4788 74.6745L22.4788 75.009L19.0557 73.0327C19.1217 73.4722 19.2729 73.875 19.5094 74.2409C19.7458 74.6069 20.0208 74.8803 20.3342 75.0613C20.7191 75.2835 21.0271 75.3498 21.2581 75.2601C21.3625 75.2312 21.4533 75.1721 21.5303 75.0827L22.4376 75.6065C22.3221 75.8521 22.1764 76.0325 22.0004 76.1475C21.5495 76.4097 20.9941 76.3503 20.3342 75.9694C19.7348 75.6233 19.2262 75.0875 18.8082 74.3619ZM19.0969 72.244L21.5715 73.6727C21.522 73.3255 21.39 72.9784 21.1756 72.6316C20.9666 72.2879 20.6862 72.0145 20.3342 71.8113C20.0373 71.6398 19.7733 71.5926 19.5423 71.6695C19.3114 71.7401 19.1629 71.9316 19.0969 72.244Z" fill="white"/>
<path d="M22.7682 77.279L23.923 73.0707L25.7789 74.1423L26.9337 79.684L26.0264 79.1602L25.119 74.6694L24.5829 74.3598L23.6755 77.8029L22.7682 77.279Z" fill="white"/>
<path d="M27.8382 79.5753C27.4257 78.8465 27.2195 78.1252 27.2195 77.4115C27.2195 76.6978 27.4257 76.2178 27.8382 75.9716C28.2561 75.7222 28.7648 75.7706 29.3642 76.1166C29.9636 76.4627 30.4695 77.0001 30.8819 77.7289C31.2998 78.4545 31.5088 79.1742 31.5088 79.8879L31.5088 80.2225L28.0856 78.2461C28.1516 78.6857 28.3028 79.0884 28.5393 79.4544C28.7758 79.8203 29.0507 80.0937 29.3642 80.2747C29.7491 80.497 30.057 80.5632 30.288 80.4735C30.3925 80.4446 30.4832 80.3855 30.5602 80.2961L31.4676 80.82C31.3521 81.0656 31.2063 81.2459 31.0304 81.361C30.5795 81.6232 30.0241 81.5638 29.3642 81.1828C28.7648 80.8367 28.2561 80.3009 27.8382 79.5753ZM28.1269 77.4574L30.6015 78.8861C30.552 78.5389 30.42 78.1919 30.2055 77.845C29.9966 77.5013 29.7161 77.2279 29.3642 77.0247C29.0672 76.8533 28.8033 76.806 28.5723 76.883C28.3413 76.9535 28.1929 77.145 28.1269 77.4574Z" fill="white"/>
<path d="M32.2518 82.7544L32.2518 77.8794L33.4891 78.5937L34.6027 82.1521L34.7676 82.2473L35.8812 79.9748L37.1185 80.6892L37.1185 85.5642L36.2524 85.0641L36.2524 81.6229L36.2606 81.5321L36.2194 81.5083L35.1801 83.5847L34.1902 83.0133L33.1509 79.7367L33.1097 79.7129L33.1179 79.8133L33.1179 83.2544L32.2518 82.7544Z" fill="white"/>
<path d="M38.4874 85.7237C38.0695 84.9917 37.8605 84.2688 37.8605 83.5551C37.8605 82.8414 38.0695 82.363 38.4874 82.12C38.9109 81.8737 39.4305 81.9284 40.0464 82.284C40.6623 82.6396 41.1792 83.1834 41.5971 83.9154C42.0206 84.6441 42.2323 85.3654 42.2323 86.0791C42.2323 86.7929 42.0206 87.2728 41.5971 87.5191C41.1792 87.7621 40.6623 87.7058 40.0464 87.3502C39.4305 86.9946 38.9109 86.4524 38.4874 85.7237ZM39.1226 83.108C38.8861 83.2646 38.7679 83.5883 38.7679 84.0789C38.7679 84.5696 38.8861 85.033 39.1226 85.469C39.359 85.8987 39.667 86.223 40.0464 86.4421C40.4258 86.6612 40.7338 86.6924 40.9703 86.5358C41.2067 86.3728 41.3249 86.046 41.3249 85.5553C41.3249 85.0646 41.2067 84.6044 40.9703 84.1748C40.7338 83.7387 40.4258 83.4112 40.0464 83.1921C39.667 82.973 39.359 82.945 39.1226 83.108Z" fill="white"/>
<path d="M43.3281 88.528C42.9266 87.8182 42.7259 87.097 42.7259 86.3641C42.7259 85.6313 42.9266 85.1418 43.3281 84.8956C43.7295 84.6494 44.2299 84.6994 44.8293 85.0454C45.5002 85.4328 46.0473 86.045 46.4708 86.8821C46.6522 87.2609 46.7787 87.627 46.8502 87.9806L45.9429 87.4567C45.9044 87.2752 45.8329 87.0905 45.7284 86.9027C45.5139 86.4922 45.2142 86.1757 44.8293 85.9535C44.4884 85.7567 44.2024 85.7413 43.9715 85.9075C43.746 86.0768 43.6333 86.4037 43.6333 86.888C43.6333 87.3723 43.746 87.8293 43.9715 88.259C44.2024 88.6918 44.4884 89.0067 44.8293 89.2035C45.2252 89.4321 45.5359 89.4681 45.7614 89.3115C45.8604 89.2412 45.9346 89.1407 45.9841 89.0099L46.8502 89.51C46.7787 89.7937 46.6522 90.017 46.4708 90.1799C46.0528 90.5249 45.5057 90.5021 44.8293 90.1116C44.2299 89.7655 43.7295 89.2377 43.3281 88.528Z" fill="white"/>
<path d="M47.1363 85.7083L47.1363 84.6568L51.8793 87.3951L51.8793 88.4466L49.9821 87.3513L49.9821 92.991L49.0335 92.4433L49.0335 86.8036L47.1363 85.7083Z" fill="white"/>
</g>
<defs>
<clipPath id="clip0_814_17286">
<rect width="79.6589" height="51.574" rx="3" transform="matrix(0.866025 0.5 -2.20305e-08 1 16.8389 0)" fill="white"/>
</clipPath>
<clipPath id="clip1_814_17286">
<rect width="79.6589" height="51.574" rx="3" transform="matrix(0.866025 0.5 -2.20305e-08 1 8.68066 14.8086)" fill="white"/>
</clipPath>
<clipPath id="clip2_814_17286">
<rect width="79.6589" height="51.574" rx="3" transform="matrix(0.866025 0.5 -2.20305e-08 1 0 28.5957)" fill="white"/>
</clipPath>
</defs>
</svg>
