<svg width="24" height="24" viewBox="0 0 24 24" fill="none" xmlns="http://www.w3.org/2000/svg">
<g clip-path="url(#clip0_804_28828)">
<path d="M2.99756 20.0362V6.73615C2.9975 6.53088 3.06061 6.33056 3.17833 6.16239C3.29604 5.99422 3.46266 5.86636 3.65556 5.79615L13.3266 2.28015C13.4021 2.25266 13.4832 2.24378 13.5629 2.25428C13.6426 2.26478 13.7186 2.29435 13.7844 2.34047C13.8503 2.38659 13.904 2.44791 13.9411 2.51923C13.9782 2.59055 13.9976 2.66976 13.9976 2.75015V7.70315L20.3136 9.80815C20.5128 9.8745 20.686 10.0019 20.8088 10.1722C20.9316 10.3425 20.9976 10.5472 20.9976 10.7572V20.0362H22.9976V22.0362H0.997559V20.0362H2.99756ZM4.99756 20.0362H11.9976V4.89115L4.99756 7.43715V20.0362ZM18.9976 20.0362V11.4782L13.9976 9.81115V20.0362H18.9976Z" fill="#008DF4"/>
</g>
<defs>
<clipPath id="clip0_804_28828">
<rect width="24" height="24" fill="white"/>
</clipPath>
</defs>
</svg>
