<svg width="20" height="20" viewBox="0 0 20 20" fill="none" xmlns="http://www.w3.org/2000/svg">
<g clip-path="url(#clip0_804_28778)">
<path d="M12.5 3.33335H4.16667V16.6667H15.8333V6.66669H12.5V3.33335ZM2.5 2.49335C2.5 2.03669 2.8725 1.66669 3.3325 1.66669H13.3333L17.5 5.83335V17.4942C17.5008 17.6036 17.48 17.7121 17.4388 17.8135C17.3976 17.9149 17.3369 18.0072 17.2601 18.0852C17.1832 18.1631 17.0918 18.2251 16.991 18.2677C16.8902 18.3103 16.7819 18.3326 16.6725 18.3334H3.3275C3.10865 18.3318 2.89918 18.2443 2.74435 18.0896C2.58951 17.9349 2.50175 17.7255 2.5 17.5067V2.49335ZM9.16667 9.16669H10.8333V14.1667H9.16667V9.16669ZM9.16667 5.83335H10.8333V7.50002H9.16667V5.83335Z" fill="#008DF4"/>
</g>
<defs>
<clipPath id="clip0_804_28778">
<rect width="20" height="20" fill="white"/>
</clipPath>
</defs>
</svg>
