<svg width="20" height="20" viewBox="0 0 20 20" fill="none" xmlns="http://www.w3.org/2000/svg">
<g clip-path="url(#clip0_804_28853)">
<path d="M17.5 2.49329V17.5066C17.4983 17.7255 17.4105 17.9349 17.2557 18.0895C17.1008 18.2442 16.8914 18.3318 16.6725 18.3333H3.3275C3.10818 18.3333 2.89783 18.2462 2.74266 18.0912C2.5875 17.9362 2.50022 17.7259 2.5 17.5066V2.49329C2.50175 2.27444 2.58951 2.06506 2.74435 1.91039C2.89918 1.75571 3.10865 1.66815 3.3275 1.66663H16.6725C17.1292 1.66663 17.5 2.03663 17.5 2.49329ZM15.8333 3.33329H4.16667V16.6666H15.8333V3.33329ZM9.41083 10.9341L12.9467 7.39913L14.125 8.57746L9.41083 13.2916L6.16917 10.05L7.34833 8.87163L9.41083 10.9341Z" fill="white"/>
</g>
<defs>
<clipPath id="clip0_804_28853">
<rect width="20" height="20" fill="white"/>
</clipPath>
</defs>
</svg>
