<svg width="24" height="24" viewBox="0 0 24 24" fill="none" xmlns="http://www.w3.org/2000/svg">
<g clip-path="url(#clip0_804_28821)">
<path d="M3.15958 4.46855C4.31964 3.30828 5.87558 2.62964 7.51517 2.5688C9.15477 2.50797 10.7567 3.06944 11.9996 4.14055C13.2413 3.07122 14.8412 2.51038 16.4788 2.57032C18.1164 2.63025 19.671 3.30653 20.8312 4.46376C21.9915 5.621 22.6719 7.17378 22.7361 8.81124C22.8003 10.4487 22.2437 12.05 21.1776 13.2946L13.4126 21.0846C13.0558 21.4414 12.5774 21.6503 12.0731 21.6692C11.5688 21.6881 11.0761 21.5157 10.6936 21.1866L10.5836 21.0856L2.81958 13.2946C1.75407 12.0511 1.19716 10.4513 1.26019 8.81493C1.32323 7.17861 2.00156 5.62637 3.15958 4.46855ZM4.57358 5.88255C3.75582 6.70054 3.28443 7.802 3.25725 8.95832C3.23006 10.1146 3.64916 11.237 4.42758 12.0926L4.57358 12.2466L11.9986 19.6716L17.3016 14.3676L13.7666 10.8326L12.7066 11.8926C12.428 12.1712 12.0974 12.3923 11.7334 12.5432C11.3694 12.694 10.9793 12.7717 10.5853 12.7718C9.78957 12.772 9.02637 12.4561 8.46358 11.8936C7.90079 11.331 7.58451 10.568 7.58432 9.77226C7.58414 8.97654 7.90005 8.21334 8.46258 7.65055L10.5646 5.54755C9.72805 4.87993 8.68099 4.53224 7.61126 4.56688C6.54154 4.60152 5.51917 5.01621 4.72758 5.73655L4.57358 5.88255ZM13.0596 8.71055C13.2471 8.52308 13.5014 8.41777 13.7666 8.41777C14.0317 8.41777 14.286 8.52308 14.4736 8.71055L18.7156 12.9526L19.4236 12.2466C20.255 11.4157 20.7284 10.2925 20.7424 9.11712C20.7564 7.94176 20.31 6.80757 19.4986 5.95711C18.6872 5.10665 17.5752 4.60742 16.4005 4.56621C15.2258 4.52499 14.0816 4.94505 13.2126 5.73655L13.0596 5.88255L9.87758 9.06455C9.70425 9.23777 9.60055 9.4686 9.58617 9.71322C9.57179 9.95784 9.64773 10.1992 9.79958 10.3916L9.87758 10.4786C10.0508 10.6519 10.2816 10.7556 10.5262 10.77C10.7709 10.7843 11.0122 10.7084 11.2046 10.5566L11.2916 10.4786L13.0596 8.71055Z" fill="#008DF4"/>
</g>
<defs>
<clipPath id="clip0_804_28821">
<rect width="24" height="24" fill="white"/>
</clipPath>
</defs>
</svg>
