<svg width="150" height="168" viewBox="0 0 150 168" fill="none" xmlns="http://www.w3.org/2000/svg">
<path opacity="0.2" fill-rule="evenodd" clip-rule="evenodd" d="M45.8134 153.197L71.1903 168.001L134.142 131.277L71.1903 94.8049L8.23877 131.277L34.2559 146.454C32.2883 148.231 32.6921 150.685 35.4671 152.404C38.421 154.104 42.6224 154.368 45.8134 153.197ZM48.3751 151.802L70.9405 164.982L128.646 131.277L70.9405 97.8233L13.2349 131.277L36.772 145.025C39.9994 143.825 44.3979 143.852 47.4579 145.613C50.3637 147.188 50.6694 149.972 48.3751 151.802Z" fill="#68729C"/>
<g opacity="0.4">
<path d="M117.405 20.6355C117.861 23.24 119.737 29.6746 127.594 34.1686C138.746 39.3776 146.451 46.1697 149.037 53.7789C149.24 54.2896 149.493 54.9535 149.696 55.4131C149.949 54.9535 149.949 54.9535 150 53.83V41.0629C150 33.5558 149.594 31.9216 149.037 29.8278C146.451 22.2186 138.746 15.3755 127.594 10.2175C118.723 7.30664 116.543 15.6819 117.405 20.6355Z" fill="#008DF4"/>
<path d="M35.6354 5.26389C47.4467 1.8423 61.4378 -0.0982979 76.3413 0.00383896C78.3183 0.00383896 80.2446 0.0549074 82.1709 0.157044C95.2495 1.38269 99.9132 15.2733 92.0052 21.4015C88.406 24.2103 83.9958 24.1592 82.1709 24.1592C80.2446 24.0571 78.3183 24.006 76.3413 24.006C61.4378 23.9039 47.4467 25.8445 35.6354 29.2661C23.7227 32.177 23.013 19.9716 27.1698 12.5156C28.5892 10.0133 31.1745 6.69381 35.6354 5.26389Z" fill="#008DF4"/>
<path d="M0 59.4994C0.304153 55.7204 0.557615 52.7073 4.41022 47.4473C12.521 35.3951 10.8481 21.4024 6.38722 22.0663C5.67753 22.1684 4.91715 22.9344 4.41022 23.4451C1.67284 27.0199 0.152077 30.85 0 34.8334C0 35.0377 0 35.2419 0 35.4462V59.4994Z" fill="#008DF4"/>
</g>
<path d="M36.5872 128.964V28.6341L75.5569 18.1451L82.6828 13.9266C84.3529 12.9005 87.2478 13.1286 89.1406 14.1547L95.8212 18.1451H116.642L110.518 114.941C110.518 115.625 110.184 116.195 109.405 116.651L70.5465 146.636C68.8764 147.662 65.9815 147.434 64.0887 146.408L38.1459 131.13C37.0325 130.674 36.5872 129.762 36.5872 128.964Z" fill="#396CAA"/>
<path d="M85.6964 13.3642C86.9212 13.3642 88.146 13.7062 89.148 14.2763L95.8286 18.2667H116.65V118.825C116.65 119.509 116.316 120.079 115.536 120.535L70.5539 146.872C69.7745 147.328 68.6611 147.556 67.5477 147.556L67.1023 46.3135L85.6964 13.3642Z" fill="#D4ECFF"/>
<path d="M70.0871 147.098C68.6396 147.668 66.6355 147.668 64.9653 146.984V45.1716H70.0871V147.098Z" fill="#5793CE"/>
<path d="M70.5355 46.308L115.518 20.0853C117.188 19.0592 116.965 17.4631 115.072 16.323L89.1296 0.9314C87.2368 -0.208716 84.3419 -0.322727 82.6718 0.703377L37.6896 27.04C36.0195 28.0661 36.2421 29.6623 38.135 30.8024L64.0777 46.08C65.9705 47.2201 68.8654 47.3341 70.5355 46.308Z" fill="#D4ECFF"/>
<path d="M38.1416 28.8624L64.0843 44.1399C65.9771 45.28 68.872 45.3941 70.5421 44.368L115.524 18.1453C115.858 17.9173 116.192 17.6893 116.304 17.3472C116.86 18.2593 116.638 19.2854 115.524 19.9695L70.5421 46.3061C68.872 47.3322 65.9771 47.1042 64.0843 46.0781L38.1416 30.8006C36.6941 29.8885 36.2487 28.7484 36.8054 27.7223C37.1395 28.1783 37.5848 28.5204 38.1416 28.8624Z" fill="#FAFDFF"/>
<path d="M58.955 66.2642L41.9196 56.2312C40.9176 55.6612 40.1382 54.179 40.1382 52.8109V46.5402C40.1382 45.2861 40.9176 44.602 41.9196 45.1721L58.955 55.2051C59.9571 55.7752 60.7365 57.2573 60.7365 58.6255V64.8961C60.7365 66.1502 59.9571 66.8343 58.955 66.2642Z" fill="#173D7A"/>
<path d="M41.1329 45.06C40.9102 45.288 40.6876 45.7441 40.6876 46.3141V52.5848C40.6876 53.8389 41.467 55.435 42.469 56.0051L59.5044 66.0381C59.8384 66.2661 60.0611 66.2661 60.3951 66.2661C60.0611 66.6082 59.6157 66.6082 59.059 66.2661L42.0237 56.2331C41.0216 55.6631 40.2422 54.1809 40.2422 52.8128V46.5421C40.2422 45.7441 40.5762 45.174 41.1329 45.06Z" fill="#14225B"/>
<path d="M53.8281 59.4198L52.2693 58.5077C52.0466 58.3937 51.9353 58.0516 51.9353 57.8236V56.1134C51.9353 55.7714 52.158 55.6574 52.2693 55.7714L53.8281 56.6835C54.0508 56.7975 54.1621 57.1395 54.1621 57.3676V59.0777C54.2735 59.4198 54.0508 59.5338 53.8281 59.4198Z" fill="#396CAA"/>
<path d="M48.7165 56.3436L47.1578 55.4315C46.9351 55.3175 46.8237 54.9754 46.8237 54.7474V53.0373C46.8237 52.6952 47.0464 52.5812 47.1578 52.6952L48.7165 53.6073C48.9392 53.7213 49.0506 54.0634 49.0506 54.2914V56.0016C49.0506 56.3436 48.8279 56.4576 48.7165 56.3436Z" fill="#14225B"/>
<path d="M58.955 111.299L41.9196 101.266C40.9176 100.696 40.1382 99.2137 40.1382 97.8455V91.5749C40.1382 90.3208 40.9176 89.6367 41.9196 90.2068L58.955 100.24C59.9571 100.81 60.7365 102.292 60.7365 103.66V109.931C60.7365 111.299 59.9571 111.869 58.955 111.299Z" fill="#173D7A"/>
<path d="M41.1329 90.0947C40.9102 90.3227 40.6876 90.7787 40.6876 91.3488V97.6194C40.6876 98.8735 41.467 100.47 42.469 101.04L59.5044 111.073C59.8384 111.301 60.0611 111.301 60.3951 111.301C60.0611 111.643 59.6157 111.643 59.059 111.301L42.0237 101.268C41.0216 100.698 40.2422 99.2156 40.2422 97.8475V91.5768C40.2422 90.7787 40.5762 90.2087 41.1329 90.0947Z" fill="#14225B"/>
<path d="M53.8281 104.571L52.2693 103.659C52.0466 103.545 51.9353 103.203 51.9353 102.974V101.264C51.9353 100.922 52.158 100.808 52.2693 100.922L53.8281 101.834C54.0508 101.948 54.1621 102.29 54.1621 102.518V104.229C54.2735 104.457 54.0508 104.685 53.8281 104.571Z" fill="#396CAA"/>
<path d="M48.7165 101.381L47.1578 100.468C46.9351 100.354 46.8237 100.012 46.8237 99.7844V98.0742C46.8237 97.7322 47.0464 97.6182 47.1578 97.7322L48.7165 98.6443C48.9392 98.7583 49.0506 99.1003 49.0506 99.3284V101.039C49.0506 101.381 48.8279 101.609 48.7165 101.381Z" fill="#14225B"/>
<path d="M58.955 133.862L41.9196 123.829C40.9176 123.259 40.1382 121.777 40.1382 120.409V114.138C40.1382 112.884 40.9176 112.2 41.9196 112.77L58.955 122.803C59.9571 123.373 60.7365 124.856 60.7365 126.224V132.494C60.7365 133.748 59.9571 134.433 58.955 133.862Z" fill="#173D7A"/>
<path d="M41.1329 112.658C40.9102 112.886 40.6876 113.342 40.6876 113.912V120.183C40.6876 121.437 41.467 123.033 42.469 123.603L59.5044 133.636C59.8384 133.864 60.0611 133.864 60.3951 133.864C60.0611 134.206 59.6157 134.206 59.059 133.864L42.0237 123.831C41.0216 123.261 40.2422 121.779 40.2422 120.411V114.14C40.2422 113.342 40.5762 112.772 41.1329 112.658Z" fill="#14225B"/>
<path d="M53.8281 127.021L52.2693 126.109C52.0466 125.995 51.9353 125.653 51.9353 125.425V123.715C51.9353 123.373 52.158 123.259 52.2693 123.373L53.8281 124.285C54.0508 124.399 54.1621 124.741 54.1621 124.969V126.679C54.2735 127.021 54.0508 127.135 53.8281 127.021Z" fill="#396CAA"/>
<path d="M48.7165 123.945L47.1578 123.033C46.9351 122.919 46.8237 122.577 46.8237 122.349V120.638C46.8237 120.296 47.0464 120.182 47.1578 120.296L48.7165 121.208C48.9392 121.322 49.0506 121.664 49.0506 121.893V123.603C49.0506 123.945 48.8279 124.059 48.7165 123.945Z" fill="#14225B"/>
<path d="M58.955 88.7217L41.9196 78.6887C40.9176 78.1186 40.1382 76.6365 40.1382 75.2683V68.9977C40.1382 67.7436 40.9176 67.0595 41.9196 67.6296L58.955 77.6626C59.9571 78.2326 60.7365 79.7148 60.7365 81.0829V87.3535C60.7365 88.7217 59.9571 89.2917 58.955 88.7217Z" fill="#173D7A"/>
<path d="M41.1329 67.6337C40.9102 67.8617 40.6876 68.3177 40.6876 68.8878V75.1584C40.6876 76.4126 41.467 78.0087 42.469 78.5788L59.5044 88.6118C59.8384 88.8398 60.0611 88.8398 60.3951 88.8398C60.0611 89.1818 59.6157 89.1818 59.059 88.8398L42.0237 78.8068C41.0216 78.2367 40.2422 76.7546 40.2422 75.3864V69.1158C40.2422 68.2037 40.5762 67.6337 41.1329 67.6337Z" fill="#14225B"/>
<path d="M53.8281 81.9887L52.2693 81.0766C52.0466 80.9626 51.9353 80.6206 51.9353 80.3926V78.6824C51.9353 78.3404 52.158 78.2263 52.2693 78.3404L53.8281 79.2525C54.0508 79.3665 54.1621 79.7085 54.1621 79.9365V81.6467C54.2735 81.9887 54.0508 82.1027 53.8281 81.9887Z" fill="#396CAA"/>
<path d="M48.7165 78.9149L47.1578 78.0028C46.9351 77.8888 46.8237 77.5467 46.8237 77.3187V75.6085C46.8237 75.2665 47.0464 75.1525 47.1578 75.2665L48.7165 76.1786C48.9392 76.2926 49.0506 76.6346 49.0506 76.8627V78.5728C49.0506 78.9149 48.8279 79.0289 48.7165 78.9149Z" fill="#14225B"/>
<path d="M73.7788 59.8774L113.083 36.619C113.973 36.049 114.641 34.6808 114.641 33.5407V25.9019C114.641 24.6478 113.973 24.1918 113.083 24.6478L73.7788 47.9062C72.888 48.4762 72.22 49.8444 72.22 50.9845V58.6232C72.22 59.7634 72.888 60.3334 73.7788 59.8774Z" fill="#5793CE"/>
<path opacity="0.4" d="M74.8963 57.1393L111.973 35.2491C112.419 35.0211 112.753 34.223 112.753 33.6529V27.8384C112.753 27.2683 112.419 26.9263 111.973 27.2683L74.8963 49.1585C74.451 49.3865 74.1169 50.1846 74.1169 50.7547V56.5692C74.1169 57.1393 74.451 57.3673 74.8963 57.1393Z" fill="#D4ECFF"/>
<path d="M104.275 36.8514L109.843 33.5451C110.288 33.3171 110.622 32.633 110.622 32.063C110.622 31.4929 110.288 31.1509 109.843 31.4929L104.275 34.7992C103.83 35.0273 103.496 35.7113 103.496 36.2814C103.496 36.8514 103.83 37.0795 104.275 36.8514Z" fill="#D4ECFF"/>
<path d="M99.4983 38.5611C99.4983 39.1312 99.9436 39.3592 100.389 39.1312C100.834 38.7891 101.28 38.1051 101.28 37.535C101.28 36.9649 100.834 36.7369 100.389 36.9649C99.9436 37.307 99.4983 37.991 99.4983 38.5611Z" fill="#173D7A"/>
<path d="M96.3743 40.4957C96.3743 41.0657 96.8196 41.2938 97.265 41.0657C97.7104 40.7237 98.1557 40.0396 98.1557 39.4696C98.1557 38.8995 97.7104 38.6715 97.265 38.8995C96.7083 39.1275 96.3743 39.9256 96.3743 40.4957Z" fill="#173D7A"/>
<path d="M93.1553 42.3209C93.1553 42.8909 93.6006 43.1189 94.046 42.8909C94.4914 42.5489 94.9368 41.8648 94.9368 41.2948C94.9368 40.7247 94.4914 40.4967 94.046 40.7247C93.4893 41.0667 93.1553 41.7508 93.1553 42.3209Z" fill="#D4ECFF"/>
<path d="M89.9363 44.2531C89.9363 44.8232 90.3817 45.0512 90.827 44.8232C91.2724 44.4811 91.7178 43.7971 91.7178 43.227C91.7178 42.657 91.2724 42.4289 90.827 42.657C90.3817 42.999 89.9363 43.6831 89.9363 44.2531Z" fill="#173D7A"/>
<path d="M76.453 53.9506L78.3458 52.8105C78.5685 52.6965 78.9025 52.2405 78.9025 51.7844V49.7322C78.9025 49.3902 78.6798 49.1622 78.3458 49.3902L76.453 50.5303C76.2303 50.6443 75.8962 51.1004 75.8962 51.5564V53.6086C76.0076 53.9506 76.2303 54.0647 76.453 53.9506Z" fill="#173D7A"/>
<path d="M73.7788 73.3304L113.083 50.072C113.973 49.502 114.641 48.1338 114.641 46.9937V39.3549C114.641 38.1008 113.973 37.6448 113.083 38.1008L73.7788 61.3592C72.888 61.9292 72.22 63.2974 72.22 64.4375V72.0763C72.22 73.3304 72.888 73.9004 73.7788 73.3304Z" fill="#5793CE"/>
<path opacity="0.4" d="M74.8963 70.7063L111.973 48.8161C112.419 48.588 112.753 47.79 112.753 47.2199V41.4053C112.753 40.8353 112.419 40.4932 111.973 40.8353L74.8963 62.7255C74.451 62.9535 74.1169 63.7516 74.1169 64.3216V70.1362C74.1169 70.5923 74.451 70.9343 74.8963 70.7063Z" fill="#D4ECFF"/>
<path d="M104.275 50.4116L109.843 47.1052C110.288 46.8772 110.622 46.1931 110.622 45.6231C110.622 45.053 110.288 44.711 109.843 45.053L104.275 48.3594C103.83 48.5874 103.496 49.2715 103.496 49.8415C103.496 50.4116 103.83 50.6396 104.275 50.4116Z" fill="#D4ECFF"/>
<path d="M99.4983 52.1258C99.4983 52.6959 99.9436 52.9239 100.389 52.6959C100.834 52.3538 101.28 51.6698 101.28 51.0997C101.28 50.5296 100.834 50.3016 100.389 50.5296C99.9436 50.7577 99.4983 51.5557 99.4983 52.1258Z" fill="#14225B"/>
<path d="M96.3743 54.0649C96.3743 54.6349 96.8196 54.863 97.265 54.6349C97.7104 54.2929 98.1557 53.6088 98.1557 53.0388C98.1557 52.4687 97.7104 52.2407 97.265 52.4687C96.7083 52.6967 96.3743 53.3808 96.3743 54.0649Z" fill="#173D7A"/>
<path d="M93.1553 55.8901C93.1553 56.4601 93.6006 56.6882 94.046 56.4601C94.4914 56.1181 94.9368 55.434 94.9368 54.864C94.9368 54.2939 94.4914 54.0659 94.046 54.2939C93.4893 54.636 93.1553 55.32 93.1553 55.8901Z" fill="#D4ECFF"/>
<path d="M89.9363 57.8247C89.9363 58.3947 90.3817 58.6227 90.827 58.3947C91.2724 58.0527 91.7178 57.3686 91.7178 56.7985C91.7178 56.2285 91.2724 56.0005 90.827 56.2285C90.3817 56.4565 89.9363 57.2546 89.9363 57.8247Z" fill="#173D7A"/>
<path d="M76.453 67.4037L78.3458 66.2635C78.5685 66.1495 78.9025 65.6935 78.9025 65.2374V63.1852C78.9025 62.8432 78.6798 62.6152 78.3458 62.8432L76.453 63.9833C76.2303 64.0973 75.8962 64.5534 75.8962 65.0094V67.0616C76.0076 67.4037 76.2303 67.6317 76.453 67.4037Z" fill="#173D7A"/>
<path d="M73.7788 86.8953L113.083 63.637C113.973 63.0669 114.641 61.6988 114.641 60.5587V52.9199C114.641 51.6658 113.973 51.2097 113.083 51.6658L73.7788 74.9241C72.888 75.4942 72.22 76.8623 72.22 78.0024V85.6412C72.22 86.8953 72.888 87.3514 73.7788 86.8953Z" fill="#5793CE"/>
<path opacity="0.4" d="M74.8963 84.1573L111.973 62.267C112.419 62.039 112.753 61.2409 112.753 60.6709V54.8563C112.753 54.2862 112.419 53.9442 111.973 54.2862L74.8963 76.1765C74.451 76.4045 74.1169 77.2025 74.1169 77.7726V83.5872C74.1169 84.1573 74.451 84.4993 74.8963 84.1573Z" fill="#D4ECFF"/>
<path d="M104.275 63.9765L109.843 60.6702C110.288 60.4422 110.622 59.7581 110.622 59.188C110.622 58.618 110.288 58.2759 109.843 58.618L104.275 61.9243C103.83 62.1523 103.496 62.8364 103.496 63.4065C103.496 63.9765 103.83 64.2045 104.275 63.9765Z" fill="#D4ECFF"/>
<path d="M99.4983 65.6907C99.4983 66.2608 99.9436 66.4888 100.389 66.2608C100.834 65.9188 101.28 65.2347 101.28 64.6646C101.28 64.0946 100.834 63.8666 100.389 64.0946C99.9436 64.3226 99.4983 65.1207 99.4983 65.6907Z" fill="#14225B"/>
<path d="M96.3743 67.5205C96.3743 68.0905 96.8196 68.3185 97.265 68.0905C97.7104 67.7485 98.1557 67.0644 98.1557 66.4944C98.1557 65.9243 97.7104 65.6963 97.265 65.9243C96.7083 66.2663 96.3743 66.9504 96.3743 67.5205Z" fill="#173D7A"/>
<path d="M93.1553 69.455C93.1553 70.0251 93.6006 70.2531 94.046 70.0251C94.4914 69.683 94.9368 68.999 94.9368 68.4289C94.9368 67.8589 94.4914 67.6308 94.046 67.8589C93.4893 68.0869 93.1553 68.885 93.1553 69.455Z" fill="#D4ECFF"/>
<path d="M89.9363 71.2779C89.9363 71.848 90.3817 72.076 90.827 71.848C91.2724 71.5059 91.7178 70.8219 91.7178 70.2518C91.7178 69.6817 91.2724 69.4537 90.827 69.6817C90.3817 70.0238 89.9363 70.7078 89.9363 71.2779Z" fill="#173D7A"/>
<path d="M76.453 80.9686L78.3458 79.8285C78.5685 79.7145 78.9025 79.2584 78.9025 78.8024V76.7502C78.9025 76.4081 78.6798 76.1801 78.3458 76.4081L76.453 77.5482C76.2303 77.6623 75.8962 78.1183 75.8962 78.5744V80.6266C76.0076 80.9686 76.2303 81.1966 76.453 80.9686Z" fill="#173D7A"/>
<path d="M73.7788 100.464L113.083 77.2052C113.973 76.6351 114.641 75.267 114.641 74.1269V66.4881C114.641 65.234 113.973 64.778 113.083 65.234L73.7788 88.4923C72.888 89.0624 72.22 90.4305 72.22 91.5707V99.2094C72.22 100.35 72.888 100.92 73.7788 100.464Z" fill="#5793CE"/>
<path opacity="0.4" d="M74.8963 97.7255L111.973 75.8353C112.419 75.6073 112.753 74.8092 112.753 74.2391V68.4245C112.753 67.8545 112.419 67.5124 111.973 67.8545L74.8963 89.7447C74.451 89.9727 74.1169 90.7708 74.1169 91.3408V97.1554C74.1169 97.7255 74.451 97.9535 74.8963 97.7255Z" fill="#D4ECFF"/>
<path d="M104.275 77.4331L109.843 74.1268C110.288 73.8988 110.622 73.2147 110.622 72.6446C110.622 72.0746 110.288 71.7325 109.843 72.0746L104.275 75.3809C103.83 75.6089 103.496 76.293 103.496 76.8631C103.496 77.4331 103.83 77.7751 104.275 77.4331Z" fill="#D4ECFF"/>
<path d="M99.4983 79.145C99.4983 79.7151 99.9436 79.9431 100.389 79.7151C100.834 79.3731 101.28 78.689 101.28 78.1189C101.28 77.5489 100.834 77.3208 100.389 77.5489C99.9436 77.8909 99.4983 78.575 99.4983 79.145Z" fill="#173D7A"/>
<path d="M96.3743 81.0819C96.3743 81.6519 96.8196 81.8799 97.265 81.6519C97.7104 81.3099 98.1557 80.6258 98.1557 80.0558C98.1557 79.4857 97.7104 79.2577 97.265 79.4857C96.7083 79.7137 96.3743 80.5118 96.3743 81.0819Z" fill="#173D7A"/>
<path d="M93.1553 83.0209C93.1553 83.591 93.6006 83.819 94.046 83.591C94.4914 83.249 94.9368 82.5649 94.9368 81.9948C94.9368 81.4248 94.4914 81.1968 94.046 81.4248C93.4893 81.6528 93.1553 82.3369 93.1553 83.0209Z" fill="#D4ECFF"/>
<path d="M89.9363 84.8461C89.9363 85.4162 90.3817 85.6442 90.827 85.4162C91.2724 85.0742 91.7178 84.3901 91.7178 83.82C91.7178 83.25 91.2724 83.022 90.827 83.25C90.3817 83.592 89.9363 84.2761 89.9363 84.8461Z" fill="#173D7A"/>
<path d="M76.453 94.5368L78.3458 93.3967C78.5685 93.2827 78.9025 92.8267 78.9025 92.3706V90.3184C78.9025 89.9764 78.6798 89.7483 78.3458 89.9764L76.453 91.1165C76.2303 91.2305 75.8962 91.6865 75.8962 92.1426V94.1948C76.0076 94.5368 76.2303 94.6508 76.453 94.5368Z" fill="#D4ECFF"/>
<path d="M73.7788 113.924L113.083 90.666C113.973 90.0959 114.641 88.7278 114.641 87.5877V79.9489C114.641 78.6948 113.973 78.2387 113.083 78.6948L73.7788 101.953C72.888 102.523 72.22 103.891 72.22 105.031V112.67C72.22 113.924 72.888 114.494 73.7788 113.924Z" fill="#5793CE"/>
<path opacity="0.4" d="M74.8963 111.3L111.973 89.41C112.419 89.182 112.753 88.3839 112.753 87.8138V81.9992C112.753 81.4292 112.419 81.0872 111.973 81.4292L74.8963 103.319C74.451 103.547 74.1169 104.345 74.1169 104.916V110.616C74.1169 111.3 74.451 111.528 74.8963 111.3Z" fill="#D4ECFF"/>
<path d="M104.275 91.0055L109.843 87.6992C110.288 87.4712 110.622 86.7871 110.622 86.217C110.622 85.647 110.288 85.3049 109.843 85.647L104.275 88.9533C103.83 89.1813 103.496 89.8654 103.496 90.4355C103.496 91.0055 103.83 91.2335 104.275 91.0055Z" fill="#D4ECFF"/>
<path d="M99.4983 92.7197C99.4983 93.2897 99.9436 93.5178 100.389 93.2897C100.834 92.9477 101.28 92.2636 101.28 91.6936C101.28 91.1235 100.834 90.8955 100.389 91.1235C99.9436 91.4655 99.4983 92.1496 99.4983 92.7197Z" fill="#173D7A"/>
<path d="M96.3743 94.6588C96.3743 95.2289 96.8196 95.4569 97.265 95.2289C97.7104 94.8868 98.1557 94.2028 98.1557 93.6327C98.1557 93.0627 97.7104 92.8346 97.265 93.0627C96.7083 93.2907 96.3743 94.0888 96.3743 94.6588Z" fill="#14225B"/>
<path d="M93.1553 96.4863C93.1553 97.0563 93.6006 97.2844 94.046 97.0563C94.4914 96.7143 94.9368 96.0302 94.9368 95.4602C94.9368 94.8901 94.4914 94.6621 94.046 94.8901C93.4893 95.2321 93.1553 95.9162 93.1553 96.4863Z" fill="#D4ECFF"/>
<path d="M89.9363 98.4163C89.9363 98.9863 90.3817 99.2143 90.827 98.9863C91.2724 98.6443 91.7178 97.9602 91.7178 97.3902C91.7178 96.8201 91.2724 96.5921 90.827 96.8201C90.3817 97.0481 89.9363 97.8462 89.9363 98.4163Z" fill="#14225B"/>
<path d="M76.453 108.107L78.3458 106.967C78.5685 106.853 78.9025 106.397 78.9025 105.941V103.889C78.9025 103.546 78.6798 103.318 78.3458 103.546L76.453 104.687C76.2303 104.801 75.8962 105.257 75.8962 105.713V107.765C76.0076 107.993 76.2303 108.221 76.453 108.107Z" fill="#D4ECFF"/>
<path d="M73.7788 127.487L113.083 104.228C113.973 103.658 114.641 102.29 114.641 101.15V93.5113C114.641 92.2571 113.973 91.8011 113.083 92.2571L73.7788 115.515C72.888 116.086 72.22 117.454 72.22 118.594V126.233C72.22 127.487 72.888 128.057 73.7788 127.487Z" fill="#5793CE"/>
<path opacity="0.4" d="M74.8963 124.749L111.973 102.858C112.419 102.63 112.753 101.832 112.753 101.262V95.4477C112.753 94.8777 112.419 94.5356 111.973 94.8777L74.8963 116.768C74.451 116.996 74.1169 117.794 74.1169 118.364V124.179C74.1169 124.749 74.451 125.091 74.8963 124.749Z" fill="#D4ECFF"/>
<path d="M104.275 104.568L109.843 101.262C110.288 101.034 110.622 100.349 110.622 99.7794C110.622 99.2093 110.288 98.8673 109.843 99.2093L104.275 102.516C103.83 102.744 103.496 103.428 103.496 103.998C103.496 104.568 103.83 104.796 104.275 104.568Z" fill="#D4ECFF"/>
<path d="M99.4983 106.282C99.4983 106.852 99.9436 107.08 100.389 106.852C100.834 106.51 101.28 105.826 101.28 105.256C101.28 104.686 100.834 104.458 100.389 104.686C99.9436 104.914 99.4983 105.712 99.4983 106.282Z" fill="#173D7A"/>
<path d="M96.3743 108.105C96.3743 108.675 96.8196 108.903 97.265 108.675C97.7104 108.333 98.1557 107.649 98.1557 107.079C98.1557 106.509 97.7104 106.281 97.265 106.509C96.7083 106.851 96.3743 107.535 96.3743 108.105Z" fill="#173D7A"/>
<path d="M93.1553 110.044C93.1553 110.614 93.6006 110.842 94.046 110.614C94.4914 110.272 94.9368 109.588 94.9368 109.018C94.9368 108.448 94.4914 108.22 94.046 108.448C93.4893 108.676 93.1553 109.474 93.1553 110.044Z" fill="#D4ECFF"/>
<path d="M89.9363 111.981C89.9363 112.551 90.3817 112.779 90.827 112.551C91.2724 112.209 91.7178 111.525 91.7178 110.955C91.7178 110.385 91.2724 110.157 90.827 110.385C90.3817 110.613 89.9363 111.297 89.9363 111.981Z" fill="#173D7A"/>
<path d="M76.453 121.555L78.3458 120.415C78.5685 120.301 78.9025 119.845 78.9025 119.389V117.451C78.9025 117.109 78.6798 116.881 78.3458 117.109L76.453 118.249C76.2303 118.363 75.8962 118.819 75.8962 119.275V121.327C76.0076 121.555 76.2303 121.783 76.453 121.555Z" fill="#173D7A"/>
<path d="M73.7788 141.063L113.083 117.804C113.973 117.234 114.641 115.866 114.641 114.726V107.087C114.641 105.833 113.973 105.377 113.083 105.833L73.7788 129.091C72.888 129.662 72.22 131.03 72.22 132.17V139.809C72.22 140.949 72.888 141.519 73.7788 141.063Z" fill="#5793CE"/>
<path opacity="0.4" d="M74.8963 138.325L111.973 116.434C112.419 116.206 112.753 115.408 112.753 114.838V109.024C112.753 108.454 112.419 108.112 111.973 108.454L74.8963 130.344C74.451 130.572 74.1169 131.37 74.1169 131.94V137.755C74.1169 138.325 74.451 138.553 74.8963 138.325Z" fill="#D4ECFF"/>
<path d="M104.275 118.037L109.843 114.73C110.288 114.502 110.622 113.818 110.622 113.248C110.622 112.678 110.288 112.336 109.843 112.678L104.275 115.985C103.83 116.213 103.496 116.897 103.496 117.467C103.496 118.037 103.83 118.379 104.275 118.037Z" fill="#D4ECFF"/>
<path d="M98.4841 120.539C98.4841 121.679 99.2635 122.135 100.154 121.565C101.045 120.995 101.824 119.627 101.824 118.487C101.824 117.347 101.045 116.891 100.154 117.461C99.2635 118.031 98.4841 119.399 98.4841 120.539Z" fill="#14225B"/>
<path d="M91.9192 124.532C91.9192 125.102 92.3646 125.33 92.8099 125.102C93.2553 124.76 93.7007 124.076 93.7007 123.505C93.7007 122.935 93.2553 122.707 92.8099 122.935C92.2532 123.163 91.9192 123.961 91.9192 124.532Z" fill="#173D7A"/>
<path d="M88.7092 126.357C88.7092 126.927 89.1546 127.155 89.6 126.927C90.0453 126.585 90.4907 125.901 90.4907 125.331C90.4907 124.761 90.0453 124.533 89.6 124.761C89.1546 125.103 88.7092 125.787 88.7092 126.357Z" fill="#D4ECFF"/>
<path d="M85.4719 128.294C85.4719 128.864 85.9173 129.092 86.3627 128.864C86.808 128.522 87.2534 127.838 87.2534 127.267C87.2534 126.697 86.808 126.469 86.3627 126.697C85.9173 126.925 85.4719 127.724 85.4719 128.294Z" fill="#173D7A"/>
<path d="M76.453 135.131L78.3458 133.991C78.5685 133.877 78.9025 133.421 78.9025 132.965V130.913C78.9025 130.571 78.6798 130.343 78.3458 130.571L76.453 131.711C76.2303 131.825 75.8962 132.281 75.8962 132.737V134.789C76.0076 135.131 76.2303 135.245 76.453 135.131Z" fill="#D4ECFF"/>
<path d="M92.7901 11.6881L91.483 12.4475L90.8306 12.064C91.301 11.9408 91.7638 11.8131 92.2187 11.663C92.249 11.6542 92.2792 11.6364 92.3019 11.6231C92.4152 11.5565 92.4442 11.4492 92.3669 11.3593C92.2588 11.2514 92.0374 11.21 91.8555 11.2719C90.0358 11.8543 88.0459 12.239 85.9999 12.4131L85.9846 12.404L85.9619 12.4174C85.1404 12.4852 84.3034 12.5261 83.4734 12.5267L83.4427 12.5086L83.4049 12.5308C82.3465 12.5304 81.295 12.4807 80.2426 12.3684C80.2274 12.3683 80.2274 12.3683 80.2122 12.3683C80.1969 12.3682 80.1969 12.3682 80.1817 12.3681C80.1665 12.368 80.1512 12.368 80.1284 12.3723L80.1132 12.3723C80.1132 12.3723 80.1132 12.3723 80.1057 12.3767C80.0904 12.3766 80.0676 12.381 80.0601 12.3855C80.0525 12.3899 80.0449 12.3854 80.0373 12.3898C80.0221 12.3898 80.007 12.3986 79.9994 12.4031C79.9919 12.4075 79.9919 12.4075 79.9766 12.4074C79.9691 12.4119 79.954 12.4208 79.9387 12.4207C79.9312 12.4251 79.9312 12.4251 79.9236 12.4296C79.9085 12.4385 79.901 12.4429 79.8858 12.4518C79.8783 12.4562 79.8783 12.4562 79.8707 12.4607C79.8632 12.4651 79.8557 12.4785 79.8482 12.483C79.8406 12.4874 79.8406 12.4874 79.8408 12.4964C79.8409 12.5053 79.8333 12.5097 79.8259 12.5231C79.8183 12.5276 79.8185 12.5365 79.8109 12.541C79.8109 12.541 79.8033 12.5454 79.811 12.5499C79.8111 12.5589 79.8111 12.5589 79.8113 12.5678C79.8114 12.5768 79.8038 12.5812 79.8115 12.5857C79.8116 12.5947 79.8117 12.6037 79.8119 12.6126L79.812 12.6216C80.8243 15.9883 78.9974 19.4269 74.9328 21.8165C74.9177 21.8254 74.9026 21.8343 74.8952 21.8477C74.8801 21.8566 74.8573 21.861 74.8422 21.8698C70.7776 24.2594 64.9287 25.3335 59.2021 24.7384C59.1944 24.7338 59.1868 24.7383 59.1868 24.7383C59.1716 24.7382 59.1564 24.7381 59.1411 24.7381C59.1259 24.738 59.1184 24.7424 59.1107 24.7379C59.0955 24.7379 59.0955 24.7379 59.0802 24.7378C59.0802 24.7378 59.0727 24.7422 59.065 24.7377C59.0498 24.7376 59.0422 24.7421 59.027 24.742C59.0117 24.7419 59.0042 24.7464 58.9814 24.7508C58.9739 24.7552 58.9586 24.7551 58.9586 24.7551C58.9511 24.7596 58.9283 24.7639 58.9207 24.7684C58.9132 24.7728 58.9132 24.7728 58.9056 24.7773C58.8905 24.7861 58.883 24.7906 58.8678 24.7995C58.8603 24.8039 58.8603 24.8039 58.8527 24.8084C58.8376 24.8172 58.8301 24.8217 58.8226 24.8351C58.8151 24.8395 58.8151 24.8395 58.8152 24.8485C58.8001 24.8574 58.8002 24.8663 58.7927 24.8708C58.7851 24.8752 58.7928 24.8797 58.7852 24.8841C58.7778 24.8975 58.7779 24.9065 58.7704 24.9109C58.7704 24.9109 58.7704 24.9109 58.7628 24.9154L58.7629 24.9243C58.763 24.9333 58.7632 24.9422 58.7557 24.9556C58.7558 24.9646 58.7558 24.9646 58.756 24.9735C58.7561 24.9825 58.7561 24.9825 58.7562 24.9915C58.9396 25.6056 59.0317 26.2283 59.0325 26.8506L58.9947 26.8728L59.0254 26.8909C59.0168 27.3833 58.9549 27.8709 58.8395 28.3539L58.8168 28.3672L58.8322 28.3762C58.5515 29.5881 57.8972 30.758 56.9064 31.8278C56.8013 31.9348 56.8792 32.0695 57.0551 32.1285C57.2005 32.1784 57.383 32.1613 57.5039 32.0903C57.5266 32.0769 57.5568 32.0592 57.5718 32.0413C57.8195 31.7784 58.0442 31.5018 58.2537 31.2253L58.9061 31.6088L57.6067 32.3728C57.4631 32.4572 57.4651 32.6004 57.6109 32.6862C57.7567 32.7719 58.0004 32.773 58.144 32.6886L75.6098 22.33C75.6249 22.3212 75.64 22.3123 75.6475 22.2989C75.6626 22.29 75.6854 22.2856 75.7005 22.2767L93.3198 12.0084C93.4634 11.924 93.4615 11.7807 93.3156 11.695C93.1773 11.6048 92.9337 11.6037 92.7901 11.6881ZM90.9541 12.7584L90.1231 13.247L88.849 12.4979C89.2668 12.4238 89.6845 12.3407 90.0868 12.2485L90.9541 12.7584ZM88.0208 12.6329L89.5866 13.5534L88.7555 14.042L86.6601 12.8101C87.1163 12.7585 87.5801 12.7025 88.0208 12.6329ZM85.7398 12.8909L88.219 14.3484L87.388 14.837L84.2103 12.9688C84.7279 12.9533 85.2377 12.9244 85.7398 12.8909ZM80.8305 14.1797C80.8181 13.826 80.7677 13.4766 80.6944 13.1226L85.4915 15.9429L84.6605 16.4315L80.8305 14.1797ZM81.3998 12.9155C81.9866 12.9495 82.5808 12.9702 83.1672 12.9774L86.8591 15.1479L86.0281 15.6365L81.3998 12.9155ZM80.8312 14.802L84.1317 16.7424L83.3006 17.2309L80.714 15.7103C80.7785 15.4106 80.8124 15.1019 80.8312 14.802ZM67.5881 24.9072C69.267 24.615 70.8832 24.1883 72.3606 23.6266L68.9006 25.6788L67.5881 24.9072ZM68.3718 25.9897L67.5407 26.4783L65.3686 25.2013C65.8325 25.1542 66.2886 25.1026 66.7523 25.0376L68.3718 25.9897ZM80.3059 17.0693C80.4241 16.8012 80.5119 16.533 80.5843 16.2558L82.7564 17.5328L81.9254 18.0214L80.3059 17.0693ZM81.3965 18.3323L77.9059 20.3665C78.8613 19.4979 79.5871 18.5478 80.084 17.5607L81.3965 18.3323ZM64.4406 25.2775L67.0119 26.7892L66.1808 27.2778L62.8804 25.3374C63.4134 25.331 63.9309 25.3155 64.4406 25.2775ZM59.7922 26.7198C59.78 26.3751 59.7525 26.0302 59.6869 25.6807L64.3075 28.3972L63.4764 28.8858L59.7922 26.7198ZM60.0392 25.266C60.6413 25.3091 61.2357 25.3387 61.8373 25.346L65.6597 27.5932L64.8286 28.0818L60.0392 25.266ZM62.9552 29.2012L62.1242 29.6898L59.645 28.2323C59.7095 27.9326 59.7588 27.6329 59.7776 27.3331L62.9552 29.2012ZM61.603 30.0052L60.772 30.4938L59.2062 29.5733C59.3244 29.3052 59.4199 29.0415 59.5 28.7688L61.603 30.0052ZM58.5524 30.7879C58.7092 30.5514 58.8505 30.3058 58.9767 30.0602L60.2431 30.8047L59.4121 31.2933L58.5524 30.7879Z" fill="#14225B"/>
<path d="M61.1334 33.9259L62.8242 32.9319L68.0196 35.9864L68.8387 35.5048L63.6432 32.4504L65.3299 31.4587L64.6613 31.0657L60.4648 33.5328L61.1334 33.9259Z" fill="#14225B"/>
<path d="M68.9646 33.2571C69.5553 33.6044 70.1887 33.7861 70.8648 33.8022C71.5409 33.8183 72.1763 33.6515 72.771 33.3019C73.1845 33.0588 73.4445 32.8144 73.551 32.5686C73.6548 32.3214 73.652 32.0988 73.5427 31.9011L72.6326 32.062C72.6883 32.2061 72.6834 32.3557 72.6179 32.5111C72.5496 32.6649 72.3966 32.8117 72.1587 32.9515C71.81 33.1565 71.423 33.242 70.9975 33.208C70.5721 33.1708 70.158 33.0338 69.7552 32.7971L69.578 32.6929C69.1994 32.4703 68.9745 32.2379 68.9031 31.9957C68.8317 31.7536 68.9637 31.5339 69.2988 31.3369C69.6124 31.1525 69.9388 31.0775 70.278 31.1116C70.62 31.1442 70.9212 31.2371 71.1816 31.3902L71.2259 31.4162L68.9716 32.7416L69.4871 33.0447L72.5199 31.2616L72.2541 31.1054C71.6634 30.7581 71.0583 30.5724 70.4388 30.5483C69.8167 30.5226 69.2353 30.6686 68.6947 30.9865C68.1541 31.3043 67.8961 31.6643 67.9207 32.0666C67.9481 32.4672 68.2531 32.8388 68.8357 33.1814L68.9646 33.2571Z" fill="#14225B"/>
<path d="M72.8377 29.3937L74.1433 28.6261L77.3411 30.5062L78.1277 30.0437L74.3096 27.799L71.5363 29.4295L73.5412 30.7417C73.9143 30.9833 74.1517 31.1705 74.2533 31.3034C74.3549 31.4362 74.3246 31.5503 74.1624 31.6457C74.1165 31.6727 74.0732 31.6949 74.0327 31.7124C73.9949 31.7283 73.9531 31.7435 73.9072 31.7578L74.5677 32.1461C74.6298 32.1318 74.6972 32.1079 74.7702 32.0745C74.8431 32.0411 74.9174 32.0021 74.9931 31.9576C75.3499 31.7479 75.4697 31.5227 75.3525 31.2822C75.2381 31.0401 74.8963 30.7359 74.3273 30.3696L72.8377 29.3937Z" fill="#14225B"/>
<path d="M76.9845 28.5421C77.5752 28.8894 78.2086 29.0711 78.8847 29.0872C79.5608 29.1033 80.1962 28.9365 80.7909 28.5869C81.2045 28.3438 81.4645 28.0993 81.5709 27.8536C81.6747 27.6064 81.672 27.3838 81.5626 27.1861L80.6525 27.347C80.7082 27.4911 80.7033 27.6407 80.6378 27.7961C80.5696 27.9499 80.4165 28.0967 80.1787 28.2365C79.83 28.4415 79.4429 28.527 79.0174 28.493C78.592 28.4558 78.1779 28.3188 77.7752 28.0821L77.598 27.9779C77.2194 27.7553 76.9944 27.5229 76.923 27.2807C76.8517 27.0386 76.9836 26.8189 77.3188 26.6219C77.6323 26.4375 77.9587 26.3625 78.298 26.3966C78.6399 26.4292 78.9411 26.5221 79.2016 26.6752L79.2459 26.7012L76.9915 28.0266L77.507 28.3297L80.5399 26.5466L80.274 26.3904C79.6833 26.0431 79.0783 25.8574 78.4588 25.8333C77.8366 25.8076 77.2552 25.9536 76.7146 26.2715C76.174 26.5893 75.916 26.9493 75.9407 27.3516C75.968 27.7522 76.273 28.1238 76.8557 28.4664L76.9845 28.5421Z" fill="#14225B"/>
<path d="M82.981 27.1904L83.7027 26.7661L81.2298 25.3123C81.1197 25.2476 81.0137 25.1884 80.9116 25.1347C80.8122 25.0795 80.7115 25.025 80.6095 24.9714L80.6338 24.9571C80.7521 25.0012 80.8798 25.0445 81.0169 25.087C81.1514 25.1279 81.2859 25.1657 81.4204 25.2002L84.915 26.0534L85.5678 25.6696L84.1085 23.6246C84.0417 23.5313 83.9748 23.4475 83.9079 23.3731C83.841 23.2957 83.7727 23.2222 83.7031 23.1526L83.7274 23.1383C83.8187 23.1983 83.9126 23.2583 84.0093 23.3183C84.1032 23.3767 84.2052 23.4383 84.3153 23.503L86.7842 24.9545L87.5586 24.4992L83.7405 22.2545L82.6539 22.8933L84.1011 24.9265C84.1653 25.0119 84.2214 25.0862 84.2696 25.1495C84.3177 25.2096 84.3726 25.2704 84.4342 25.3321L84.4139 25.344C84.3118 25.3062 84.2096 25.2731 84.1074 25.2448C84.0052 25.2134 83.8801 25.1796 83.7322 25.1434L80.2658 24.2974L79.1629 24.9457L82.981 27.1904Z" fill="#14225B"/>
<path d="M86.4074 23.0024C86.99 23.3449 87.6302 23.521 88.3279 23.5307C89.0229 23.5389 89.6542 23.3761 90.2218 23.0424C90.7895 22.7086 91.0664 22.3375 91.0525 21.9289C91.0387 21.5171 90.7405 21.14 90.1578 20.7974L90.029 20.7216C89.449 20.3807 88.8088 20.2061 88.1084 20.198C87.4107 20.1883 86.7781 20.3503 86.2104 20.684C85.6455 21.0162 85.3699 21.3881 85.3838 21.7999C85.4003 22.2101 85.6985 22.5856 86.2785 22.9266L86.4074 23.0024ZM87.0652 22.4451C86.6812 22.2194 86.459 21.9823 86.3984 21.7337C86.3379 21.482 86.482 21.2537 86.8307 21.0487C87.1821 20.8421 87.5705 20.7574 87.9959 20.7945C88.4187 20.8301 88.822 20.9608 89.206 21.1865L89.3631 21.2789C89.7497 21.5062 89.976 21.7457 90.0419 21.9974C90.1051 22.2475 89.961 22.4759 89.6097 22.6825C89.2583 22.889 88.8698 22.9738 88.4444 22.9366C88.0163 22.8978 87.6102 22.7656 87.2263 22.5399L87.0652 22.4451Z" fill="#14225B"/>
<path d="M90.6241 20.5233C91.2202 20.8737 91.8563 21.0554 92.5324 21.0683C93.2085 21.0812 93.8223 20.9256 94.3737 20.6014C94.9089 20.2868 95.1855 19.9679 95.2035 19.6447C95.2215 19.3184 95.0238 19.0322 94.6103 18.7859L94.554 18.748L93.7836 19.2009L93.836 19.2317C94.0857 19.3817 94.21 19.5438 94.209 19.718C94.2107 19.8906 94.0643 20.0635 93.7696 20.2368C93.4399 20.4306 93.069 20.5082 92.657 20.4694C92.2424 20.429 91.8377 20.2928 91.443 20.0608L91.2819 19.9661C90.8658 19.7214 90.6327 19.4811 90.5829 19.2452C90.5304 19.0078 90.669 18.7921 90.9988 18.5982C91.2826 18.4313 91.57 18.3476 91.8609 18.3471C92.1519 18.3433 92.4209 18.4141 92.6679 18.5593L92.7203 18.5901L93.4947 18.1348L93.4303 18.0969C93.006 17.857 92.5231 17.7431 91.9815 17.7553C91.44 17.7642 90.9002 17.9269 90.3623 18.2431C89.8082 18.5689 89.5408 18.9297 89.5601 19.3256C89.5821 19.72 89.8938 20.0939 90.4952 20.4475L90.6241 20.5233Z" fill="#14225B"/>
<path d="M90.975 16.3817L92.6658 15.3877L97.8613 18.4421L98.6803 17.9606L93.4848 14.9062L95.1715 13.9145L94.5029 13.5215L90.3065 15.9886L90.975 16.3817Z" fill="#14225B"/>
<g opacity="0.7">
<path d="M8.71906 66.493C8.16145 70.8849 5.93099 73.4894 3.54846 70.221C0.506922 66.0334 0.202769 61.8968 0 59.4455V35.4434C0 39.1714 1.21661 42.7972 3.54846 46.2188C8.56699 54.6451 9.17529 62.9182 8.71906 66.493Z" fill="#008DF4"/>
<path d="M79.3836 70.8865C77.508 70.9376 75.6323 70.9376 73.706 70.9376C58.7518 70.8354 44.8622 68.6395 33.3043 64.9626C21.7465 61.8474 21.0368 74.0528 25.0922 81.5598C27.9816 86.922 31.8343 88.403 33.3043 88.9648C44.8622 92.6417 58.7518 94.8376 73.706 94.9398C75.6323 94.9398 77.508 94.9398 79.3836 94.8887C92.9691 93.8673 96.5175 80.7427 90.181 74.6145C88.4068 72.8782 85.1118 70.8355 79.3836 70.8865Z" fill="#008DF4"/>
<path d="M149.998 51.7847C149.947 62.1516 149.339 64.0411 148.578 66.4414C145.385 73.9995 137.122 80.6895 125.615 85.6942C115.527 88.7072 112.688 78.136 116.845 70.2715C119.633 64.9093 123.993 62.6112 125.615 61.7431C137.172 56.7384 145.435 50.0484 148.578 42.4902C148.832 41.9796 149.136 41.3157 149.44 40.8561C149.541 40.8561 149.643 40.8561 149.693 40.805C149.896 41.3667 149.947 41.571 149.998 44.4309V51.7847Z" fill="#008DF4"/>
</g>
</svg>
