<svg width="56" height="56" viewBox="0 0 56 56" fill="none" xmlns="http://www.w3.org/2000/svg">
<g clip-path="url(#clip0_804_18353)">
<path d="M9.33333 4.6665H46.6667C47.2855 4.6665 47.879 4.91234 48.3166 5.34992C48.7542 5.78751 49 6.381 49 6.99984V48.9998C49 49.6187 48.7542 50.2122 48.3166 50.6498C47.879 51.0873 47.2855 51.3332 46.6667 51.3332H9.33333C8.71449 51.3332 8.121 51.0873 7.68342 50.6498C7.24583 50.2122 7 49.6187 7 48.9998V6.99984C7 6.381 7.24583 5.78751 7.68342 5.34992C8.121 4.91234 8.71449 4.6665 9.33333 4.6665ZM11.6667 9.33317V46.6665H44.3333V9.33317H11.6667ZM16.3333 13.9998H39.6667V23.3332H16.3333V13.9998ZM16.3333 27.9998H21V32.6665H16.3333V27.9998ZM16.3333 37.3332H21V41.9998H16.3333V37.3332ZM25.6667 27.9998H30.3333V32.6665H25.6667V27.9998ZM25.6667 37.3332H30.3333V41.9998H25.6667V37.3332ZM35 27.9998H39.6667V41.9998H35V27.9998Z" fill="#008DF4"/>
</g>
<defs>
<clipPath id="clip0_804_18353">
<rect width="56" height="56" fill="white" transform="translate(0 0.000488281)"/>
</clipPath>
</defs>
</svg>
