<svg width="32" height="32" viewBox="0 0 32 32" fill="none" xmlns="http://www.w3.org/2000/svg">
<path d="M24 10.6673H26.6667C27.0203 10.6673 27.3594 10.8078 27.6095 11.0578C27.8595 11.3079 28 11.647 28 12.0007V28.0007C28 28.3543 27.8595 28.6934 27.6095 28.9435C27.3594 29.1935 27.0203 29.334 26.6667 29.334H5.33333C4.97971 29.334 4.64057 29.1935 4.39052 28.9435C4.14048 28.6934 4 28.3543 4 28.0007V12.0007C4 11.647 4.14048 11.3079 4.39052 11.0578C4.64057 10.8078 4.97971 10.6673 5.33333 10.6673H8V9.33398C8 7.21225 8.84285 5.17742 10.3431 3.67713C11.8434 2.17684 13.8783 1.33398 16 1.33398C18.1217 1.33398 20.1566 2.17684 21.6569 3.67713C23.1571 5.17742 24 7.21225 24 9.33398V10.6673ZM14.6667 20.9767V24.0007H17.3333V20.9767C17.8417 20.6831 18.239 20.2301 18.4637 19.6877C18.6883 19.1454 18.7277 18.5441 18.5758 17.9771C18.4239 17.41 18.0891 16.909 17.6234 16.5516C17.1576 16.1943 16.587 16.0006 16 16.0006C15.413 16.0006 14.8424 16.1943 14.3766 16.5516C13.9109 16.909 13.5761 17.41 13.4242 17.9771C13.2723 18.5441 13.3117 19.1454 13.5363 19.6877C13.761 20.2301 14.1583 20.6831 14.6667 20.9767ZM21.3333 10.6673V9.33398C21.3333 7.9195 20.7714 6.56294 19.7712 5.56275C18.771 4.56255 17.4145 4.00065 16 4.00065C14.5855 4.00065 13.229 4.56255 12.2288 5.56275C11.2286 6.56294 10.6667 7.9195 10.6667 9.33398V10.6673H21.3333Z" fill="#008DF4"/>
</svg>
